<svg width="24" height="24" viewBox="0 0 24 24" fill="none" xmlns="http://www.w3.org/2000/svg">
<path d="M9.25191 17.704C9.08397 17.5067 9 17.2556 9 16.9507C9 16.6457 9.08397 16.3946 9.25191 16.1973L12.8244 12L9.25191 7.80269C9.08397 7.60538 9 7.35426 9 7.04933C9 6.74439 9.08397 6.49327 9.25191 6.29596C9.41985 6.09865 9.63359 6 9.89313 6C10.1527 6 10.3664 6.09865 10.5344 6.29596L14.7481 11.2466C14.8397 11.3543 14.9047 11.4709 14.9432 11.5964C14.9811 11.722 15 11.8565 15 12C15 12.1435 14.9811 12.278 14.9432 12.4036C14.9047 12.5291 14.8397 12.6457 14.7481 12.7534L10.5344 17.704C10.3664 17.9013 10.1527 18 9.89313 18C9.63359 18 9.41985 17.9013 9.25191 17.704Z" fill="#BFBFBF"/>
</svg>
