<svg width="21" height="22" viewBox="0 0 21 22" fill="none" xmlns="http://www.w3.org/2000/svg">
<rect x="0.75" y="1.75" width="14.5" height="16.5" rx="1.65" stroke="#BFBFBF" stroke-width="1.5"/>
<rect x="3.96875" y="5.6001" width="8" height="1.5" rx="0.75" fill="#BFBFBF"/>
<rect x="12.1992" width="4" height="1.5" rx="0.75" transform="rotate(90 12.1992 0)" fill="#BFBFBF"/>
<rect x="5.40039" width="4" height="1.5" rx="0.75" transform="rotate(90 5.40039 0)" fill="#BFBFBF"/>
<rect x="3.40039" y="9.02832" width="9.14286" height="1.5" rx="0.75" fill="#BFBFBF"/>
<circle cx="15" cy="16" r="5.25" fill="white" stroke="#BFBFBF" stroke-width="1.5"/>
<path d="M14.1857 16.9857L12.9429 15.7429C12.8381 15.6381 12.7095 15.5857 12.5571 15.5857C12.4048 15.5857 12.2714 15.6429 12.1571 15.7571C12.0524 15.8619 12 15.9952 12 16.1571C12 16.319 12.0524 16.4524 12.1571 16.5571L13.7857 18.1857C13.8905 18.2905 14.0238 18.3429 14.1857 18.3429C14.3476 18.3429 14.481 18.2905 14.5857 18.1857L17.8286 14.9429C17.9333 14.8381 17.9857 14.7095 17.9857 14.5571C17.9857 14.4048 17.9286 14.2714 17.8143 14.1571C17.7095 14.0524 17.5762 14 17.4143 14C17.2524 14 17.119 14.0524 17.0143 14.1571L14.1857 16.9857Z" fill="#BFBFBF"/>
</svg>
