<svg width="24" height="24" viewBox="0 0 24 24" fill="none" xmlns="http://www.w3.org/2000/svg">
<path d="M14.449 16.4009C14.1549 17.5303 13.4596 18.5139 12.493 19.1679C11.5264 19.8219 10.3547 20.1015 9.19701 19.9545C8.03927 19.8075 6.97469 19.2439 6.20227 18.369C5.42986 17.4942 5.00247 16.368 5 15.2009C4.99971 14.2816 5.26342 13.3816 5.75979 12.6078C6.25615 11.834 6.96429 11.219 7.8 10.8359" stroke="#404040" stroke-width="1.5" stroke-linecap="round" stroke-linejoin="round"/>
<path d="M9.79999 7.19922L10.495 13.4572C10.5232 13.7116 10.648 13.9455 10.8435 14.1107C11.039 14.2759 11.2904 14.3598 11.546 14.3452L16.59 14.0572C16.7221 14.0497 16.8544 14.0684 16.9791 14.1124C17.1039 14.1563 17.2188 14.2246 17.317 14.3132C17.4152 14.4018 17.4949 14.5091 17.5513 14.6287C17.6078 14.7484 17.64 14.8781 17.646 15.0102L17.756 17.4442C17.7676 17.7016 17.878 17.9445 18.0643 18.1224C18.2506 18.3003 18.4984 18.3995 18.756 18.3992H19" stroke="#404040" stroke-width="1.5" stroke-linecap="round" stroke-linejoin="round"/>
<path d="M12.75 10.4H15.75M11.2 5.6C11.2 6.02435 11.0314 6.43131 10.7314 6.73137C10.4313 7.03143 10.0243 7.2 9.6 7.2C9.17565 7.2 8.76869 7.03143 8.46863 6.73137C8.16857 6.43131 8 6.02435 8 5.6C8 5.17565 8.16857 4.76869 8.46863 4.46863C8.76869 4.16857 9.17565 4 9.6 4C10.0243 4 10.4313 4.16857 10.7314 4.46863C11.0314 4.76869 11.2 5.17565 11.2 5.6Z" stroke="#404040" stroke-width="1.5" stroke-linecap="round" stroke-linejoin="round"/>
</svg>
