<svg width="22" height="22" viewBox="0 0 22 22" fill="none" xmlns="http://www.w3.org/2000/svg">
<path d="M19.25 2.75L11.9167 10.5417M8.65883 10.1613C6.3855 11.0339 4.56775 10.8845 2.75 10.164C3.20833 16.0701 5.962 18.3407 9.63325 19.25C9.63325 19.25 12.3988 17.2938 12.7976 12.6564C12.8407 12.1541 12.8618 11.9038 12.7582 11.6206C12.6537 11.3373 12.4483 11.1348 12.0386 10.7287C11.3639 10.0613 11.0275 9.72767 10.6269 9.64333C10.2263 9.56083 9.70383 9.76067 8.65883 10.1613Z" stroke="#404040" stroke-width="1.375" stroke-linecap="round" stroke-linejoin="round"/>
<path d="M4.125 15.0755C4.125 15.0755 6.41667 15.5192 8.70833 13.75" stroke="#404040" stroke-width="1.375" stroke-linecap="round" stroke-linejoin="round"/>
<path d="M7.79167 6.64583C7.79167 6.94973 7.67095 7.24117 7.45606 7.45606C7.24117 7.67095 6.94973 7.79167 6.64583 7.79167C6.34194 7.79167 6.05049 7.67095 5.83561 7.45606C5.62072 7.24117 5.5 6.94973 5.5 6.64583C5.5 6.34194 5.62072 6.05049 5.83561 5.83561C6.05049 5.62072 6.34194 5.5 6.64583 5.5C6.94973 5.5 7.24117 5.62072 7.45606 5.83561C7.67095 6.05049 7.79167 6.34194 7.79167 6.64583Z" stroke="#404040" stroke-width="1.375"/>
<path d="M10.0833 3.66602V3.75768" stroke="#404040" stroke-width="1.83333" stroke-linecap="round" stroke-linejoin="round"/>
</svg>
