<svg width="22" height="22" viewBox="0 0 22 22" fill="none" xmlns="http://www.w3.org/2000/svg">
<path d="M2.75031 11.9947C2.75031 11.9241 2.75031 11.8884 2.75214 11.859C2.76658 11.637 2.86132 11.4277 3.01869 11.2703C3.17606 11.113 3.38531 11.0182 3.60739 11.0038C3.63764 11.002 3.67156 11.002 3.74306 11.002H18.2576C18.3281 11.002 18.363 11.002 18.3932 11.0038C18.6153 11.0182 18.8246 11.113 18.9819 11.2703C19.1393 11.4277 19.234 11.637 19.2485 11.859C19.2503 11.8884 19.2503 11.9232 19.2503 11.9947C19.2503 12.3568 19.2503 12.5383 19.2375 12.7418C19.0459 15.7549 16.4847 18.415 13.4808 18.7185C13.2782 18.7395 13.16 18.7441 12.9235 18.7533C12.2827 18.7785 11.6416 18.792 11.0003 18.7936C10.4045 18.7936 9.74997 18.778 9.07714 18.7533C8.84064 18.7441 8.72239 18.7395 8.52072 18.7194C5.51589 18.415 2.95472 15.7549 2.76406 12.7418C2.75031 12.5383 2.75031 12.3568 2.75031 11.9947Z" stroke="#404040" stroke-width="1.375"/>
<path d="M5.50028 18.3353L4.58362 20.1686M16.5003 18.3353L17.417 20.1686M1.83362 11.002H20.167" stroke="#404040" stroke-width="1.375" stroke-linecap="round"/>
<path d="M2.06281 11.9193C2.06281 12.1016 2.13524 12.2765 2.26417 12.4054C2.3931 12.5343 2.56797 12.6068 2.75031 12.6068C2.93264 12.6068 3.10751 12.5343 3.23644 12.4054C3.36537 12.2765 3.43781 12.1016 3.43781 11.9193H2.06281ZM5.81747 8.0161L5.17764 8.26819C5.21148 8.35375 5.26216 8.43165 5.32666 8.49726C5.39116 8.56288 5.46818 8.61488 5.55315 8.65019C5.63812 8.68549 5.72931 8.70338 5.82133 8.70279C5.91334 8.70221 6.00429 8.68316 6.08881 8.64677L5.81747 8.0161ZM11.2808 5.66302L11.5531 6.29552C11.7171 6.22485 11.8472 6.09309 11.9159 5.92815C11.9845 5.76321 11.9862 5.57804 11.9206 5.41185L11.2808 5.66302ZM3.43781 11.9193V4.02219H2.06281V11.9193H3.43781ZM4.93656 2.52344C5.54981 2.52344 6.10072 2.89652 6.32805 3.46577L7.60497 2.95427C7.39175 2.42107 7.02368 1.96488 6.54822 1.64285C6.07276 1.32081 5.51173 1.1486 4.93747 1.14844L4.93656 2.52344ZM3.43781 4.02219C3.43781 3.19444 4.10881 2.52344 4.93656 2.52344L4.93747 1.14844C4.17531 1.14844 3.44344 1.45121 2.90451 1.99014C2.36557 2.52907 2.06281 3.26002 2.06281 4.02219H3.43781ZM6.32805 3.46577L6.67639 4.33477L7.95239 3.82419L7.60497 2.95427L6.32805 3.46577ZM6.45639 7.76402C6.22589 7.17631 6.23049 6.52243 6.46922 5.93802L5.19505 5.4201C4.82323 6.33184 4.81758 7.35174 5.17764 8.26819L6.45639 7.76402ZM11.0095 5.03235L5.54522 7.38452L6.08881 8.64677L11.5521 6.2946L11.0095 5.03235ZM9.42547 4.64827C9.99564 4.8921 10.4201 5.35319 10.6419 5.9151L11.9206 5.41185C11.7459 4.96099 11.4831 4.54854 11.1476 4.2004C10.812 3.85225 10.4104 3.57447 9.9663 3.38327L9.42547 4.64827ZM6.46922 5.93802C6.68461 5.39688 7.09282 4.95563 7.61506 4.69777L7.01372 3.4621C6.18653 3.86782 5.53872 4.56527 5.19505 5.4201L6.46922 5.93802ZM7.61506 4.69777C7.89539 4.55933 8.20239 4.4833 8.51493 4.47491C8.82747 4.46652 9.13812 4.52506 9.42547 4.64827L9.9663 3.38327C9.49759 3.1828 8.9911 3.08688 8.48149 3.10033C7.97189 3.11378 7.47121 3.23719 7.01372 3.4621L7.61506 4.69777Z" fill="#404040"/>
</svg>
