<svg xmlns="http://www.w3.org/2000/svg" width="50" height="50" viewBox="0 0 50 50" fill="none">
  <path d="M3.11035 9.70093C3.11035 8.05893 3.76263 6.48418 4.9237 5.32312C6.08477 4.16205 7.65952 3.50977 9.30151 3.50977H40.2573C41.8993 3.50977 43.4741 4.16205 44.6351 5.32312C45.7962 6.48418 46.4485 8.05893 46.4485 9.70093V31.37L3.11035 23.631V9.70093Z" fill="#50E2FF"/>
  <path d="M27.1005 11.2483H23.6179C23.2994 11.2482 22.9859 11.1695 22.7051 11.0192C22.4243 10.8688 22.1849 10.6515 22.0083 10.3864C21.8317 10.1214 21.7232 9.8168 21.6926 9.49976C21.6619 9.18273 21.71 8.86303 21.8326 8.56904C21.9551 8.27506 22.1484 8.01588 22.3952 7.81451C22.6419 7.61314 22.9346 7.47581 23.2472 7.41472C23.5598 7.35362 23.8827 7.37065 24.1871 7.46428C24.4915 7.55792 24.7682 7.72527 24.9924 7.95148C25.1647 7.57892 25.4327 7.25871 25.7691 7.02349C26.1056 6.78826 26.4983 6.64644 26.9074 6.61246C27.3165 6.57848 27.7272 6.65357 28.0978 6.83007C28.4684 7.00657 28.7856 7.27817 29.0171 7.6172C29.2485 7.95622 29.3859 8.35054 29.4153 8.75997C29.4447 9.16941 29.365 9.57931 29.1843 9.94791C29.0037 10.3165 28.7285 10.6306 28.3869 10.8582C28.0454 11.0859 27.6495 11.2188 27.2398 11.2436V11.2483H27.1005ZM37.935 20.535H29.464C29.4585 20.535 29.453 20.5339 29.448 20.5318C29.4429 20.5297 29.4383 20.5267 29.4344 20.5228C29.4305 20.5189 29.4274 20.5143 29.4253 20.5092C29.4232 20.5041 29.4222 20.4987 29.4222 20.4932C29.4219 20.4833 29.4184 20.4738 29.4123 20.466C29.4061 20.4582 29.3977 20.4525 29.3881 20.4499C28.8635 20.3372 28.368 20.1166 27.9332 19.8021C27.4984 19.4877 27.1337 19.0862 26.8624 18.6233C26.5911 18.1603 26.419 17.646 26.3571 17.113C26.2952 16.5799 26.3449 16.0399 26.5029 15.5271C26.661 15.0143 26.924 14.5399 27.2752 14.1342C27.6263 13.7285 28.0581 13.4003 28.543 13.1704C29.0278 12.9405 29.5552 12.8139 30.0916 12.7988C30.628 12.7836 31.1617 12.8802 31.6587 13.0824C32.185 13.2975 32.8815 13.0824 33.1477 12.5794C33.7139 11.5103 34.6216 10.6615 35.7262 10.1683C36.8308 9.67503 38.0687 9.56571 39.2427 9.85773C40.4167 10.1497 41.4591 10.8263 42.2039 11.7796C42.9487 12.7329 43.3529 13.908 43.3523 15.1177C43.3524 16.5409 42.7925 17.907 41.7936 18.9207C40.7947 19.9344 39.437 20.5143 38.0139 20.535H37.935Z" fill="#F3EEF8"/>
  <path d="M10.7953 46.8481H13.9326L20.1362 45.3004V11.6359C20.1362 10.5679 19.2694 9.70117 18.2014 9.70117H15.8797C14.8118 9.70117 13.945 10.5679 13.945 11.6359V12.7968H8.14079C7.07282 12.7968 6.20605 13.6635 6.20605 14.7315V44.4723L10.7953 46.8481ZM27.8751 45.3004L32.5123 46.8481H35.6234L43.353 44.4723V27.1138C43.353 26.0458 42.4863 25.1791 41.4183 25.1791H29.8099C28.7419 25.1791 27.8751 26.0458 27.8751 27.1138V45.3004Z" fill="#1C5CD7"/>
  <path d="M3.11035 22.0828V40.6563C3.11035 42.2983 3.76263 43.8731 4.9237 45.0341C6.08477 46.1952 7.65952 46.8475 9.30151 46.8475H10.8493V24.0176C10.8493 22.9496 9.98254 22.0828 8.91457 22.0828H3.11035ZM13.9449 46.8475H32.5184V37.9477C32.5184 36.8797 31.6516 36.0129 30.5836 36.0129H29.4228V19.3742C29.4228 18.3062 28.556 17.4395 27.4881 17.4395H15.8796C14.8116 17.4395 13.9449 18.3062 13.9449 19.3742V46.8475ZM35.614 46.8475H40.2573C41.8993 46.8475 43.4741 46.1952 44.6351 45.0341C45.7962 43.8731 46.4485 42.2983 46.4485 40.6563V29.8218H37.5487C36.4807 29.8218 35.614 30.6885 35.614 31.7565V46.8475Z" fill="#46A4FB"/>
  <path d="M17.8144 20.5352C17.6092 20.5352 17.4123 20.6167 17.2672 20.7618C17.1221 20.907 17.0405 21.1038 17.0405 21.3091V22.8568C17.0405 23.0621 17.1221 23.2589 17.2672 23.4041C17.4123 23.5492 17.6092 23.6307 17.8144 23.6307H19.3622C19.5675 23.6307 19.7643 23.5492 19.9094 23.4041C20.0546 23.2589 20.1361 23.0621 20.1361 22.8568V21.3091C20.1361 21.1038 20.0546 20.907 19.9094 20.7618C19.7643 20.6167 19.5675 20.5352 19.3622 20.5352H17.8144ZM5.4321 31.3697C5.22685 31.3697 5.03001 31.4512 4.88487 31.5964C4.73974 31.7415 4.6582 31.9383 4.6582 32.1436V33.6914C4.6582 33.8966 4.73974 34.0935 4.88487 34.2386C5.03001 34.3837 5.22685 34.4653 5.4321 34.4653H6.97989C7.18514 34.4653 7.38198 34.3837 7.52712 34.2386C7.67225 34.0935 7.75378 33.8966 7.75378 33.6914V32.1436C7.75378 31.9383 7.67225 31.7415 7.52712 31.5964C7.38198 31.4512 7.18514 31.3697 6.97989 31.3697H5.4321ZM17.0405 27.5002C17.0405 27.295 17.1221 27.0981 17.2672 26.953C17.4123 26.8079 17.6092 26.7263 17.8144 26.7263H19.3622C19.5675 26.7263 19.7643 26.8079 19.9094 26.953C20.0546 27.0981 20.1361 27.295 20.1361 27.5002V29.048C20.1361 29.2533 20.0546 29.4501 19.9094 29.5952C19.7643 29.7404 19.5675 29.8219 19.3622 29.8219H17.8144C17.6092 29.8219 17.4123 29.7404 17.2672 29.5952C17.1221 29.4501 17.0405 29.2533 17.0405 29.048V27.5002ZM17.8144 39.1086C17.6092 39.1086 17.4123 39.1902 17.2672 39.3353C17.1221 39.4804 17.0405 39.6773 17.0405 39.8825V41.4303C17.0405 41.6356 17.1221 41.8324 17.2672 41.9776C17.4123 42.1227 17.6092 42.2042 17.8144 42.2042H19.3622C19.5675 42.2042 19.7643 42.1227 19.9094 41.9776C20.0546 41.8324 20.1361 41.6356 20.1361 41.4303V39.8825C20.1361 39.6773 20.0546 39.4804 19.9094 39.3353C19.7643 39.1902 19.5675 39.1086 19.3622 39.1086H17.8144ZM23.2317 27.5002C23.2317 27.295 23.3132 27.0981 23.4584 26.953C23.6035 26.8079 23.8003 26.7263 24.0056 26.7263H25.5534C25.7586 26.7263 25.9555 26.8079 26.1006 26.953C26.2457 27.0981 26.3273 27.295 26.3273 27.5002V29.048C26.3273 29.2533 26.2457 29.4501 26.1006 29.5952C25.9555 29.7404 25.7586 29.8219 25.5534 29.8219H24.0056C23.8003 29.8219 23.6035 29.7404 23.4584 29.5952C23.3132 29.4501 23.2317 29.2533 23.2317 29.048V27.5002ZM24.0056 32.9175C23.8003 32.9175 23.6035 32.999 23.4584 33.1441C23.3132 33.2893 23.2317 33.4861 23.2317 33.6914V35.2392C23.2317 35.4444 23.3132 35.6413 23.4584 35.7864C23.6035 35.9315 23.8003 36.0131 24.0056 36.0131H25.5534C25.7586 36.0131 25.9555 35.9315 26.1006 35.7864C26.2457 35.6413 26.3273 35.4444 26.3273 35.2392V33.6914C26.3273 33.4861 26.2457 33.2893 26.1006 33.1441C25.9555 32.999 25.7586 32.9175 25.5534 32.9175H24.0056ZM37.1618 34.4653C37.1618 34.0548 37.3249 33.6611 37.6151 33.3708C37.9054 33.0805 38.2991 32.9175 38.7096 32.9175H46.4485V36.0131H38.7096C38.2991 36.0131 37.9054 35.85 37.6151 35.5597C37.3249 35.2695 37.1618 34.8758 37.1618 34.4653ZM38.7096 39.1086C38.2991 39.1086 37.9054 39.2717 37.6151 39.562C37.3249 39.8522 37.1618 40.2459 37.1618 40.6564C37.1618 41.0669 37.3249 41.4606 37.6151 41.7509C37.9054 42.0412 38.2991 42.2042 38.7096 42.2042H46.4485V39.1086H38.7096Z" fill="#FFF478"/>
  <path d="M17.8144 20.5352C17.6092 20.5352 17.4123 20.6167 17.2672 20.7618C17.1221 20.907 17.0405 21.1038 17.0405 21.3091H18.5883C18.7936 21.3091 18.9904 21.3906 19.1355 21.5357C19.2807 21.6809 19.3622 21.8777 19.3622 22.0829V23.6307C19.5675 23.6307 19.7643 23.5492 19.9094 23.4041C20.0546 23.2589 20.1361 23.0621 20.1361 22.8568V21.3091C20.1361 21.1038 20.0546 20.907 19.9094 20.7618C19.7643 20.6167 19.5675 20.5352 19.3622 20.5352H17.8144ZM5.4321 31.3697C5.22685 31.3697 5.03001 31.4512 4.88487 31.5964C4.73974 31.7415 4.6582 31.9383 4.6582 32.1436H6.20599C6.41124 32.1436 6.60809 32.2251 6.75322 32.3703C6.89835 32.5154 6.97989 32.7122 6.97989 32.9175V34.4653C7.18514 34.4653 7.38198 34.3837 7.52712 34.2386C7.67225 34.0935 7.75378 33.8966 7.75378 33.6914V32.1436C7.75378 31.9383 7.67225 31.7415 7.52712 31.5964C7.38198 31.4512 7.18514 31.3697 6.97989 31.3697H5.4321ZM17.0405 27.5002C17.0405 27.295 17.1221 27.0981 17.2672 26.953C17.4123 26.8079 17.6092 26.7263 17.8144 26.7263H19.3622C19.5675 26.7263 19.7643 26.8079 19.9094 26.953C20.0546 27.0981 20.1361 27.295 20.1361 27.5002V29.048C20.1361 29.2533 20.0546 29.4501 19.9094 29.5952C19.7643 29.7404 19.5675 29.8219 19.3622 29.8219V28.2741C19.3622 28.0689 19.2807 27.872 19.1355 27.7269C18.9904 27.5817 18.7936 27.5002 18.5883 27.5002H17.0405ZM17.8144 39.1086C17.6092 39.1086 17.4123 39.1902 17.2672 39.3353C17.1221 39.4804 17.0405 39.6773 17.0405 39.8825H18.5883C18.7936 39.8825 18.9904 39.9641 19.1355 40.1092C19.2807 40.2543 19.3622 40.4512 19.3622 40.6564V42.2042C19.5675 42.2042 19.7643 42.1227 19.9094 41.9776C20.0546 41.8324 20.1361 41.6356 20.1361 41.4303V39.8825C20.1361 39.6773 20.0546 39.4804 19.9094 39.3353C19.7643 39.1902 19.5675 39.1086 19.3622 39.1086H17.8144ZM23.2317 27.5002C23.2317 27.295 23.3132 27.0981 23.4584 26.953C23.6035 26.8079 23.8003 26.7263 24.0056 26.7263H25.5534C25.7586 26.7263 25.9555 26.8079 26.1006 26.953C26.2457 27.0981 26.3273 27.295 26.3273 27.5002V29.048C26.3273 29.2533 26.2457 29.4501 26.1006 29.5952C25.9555 29.7404 25.7586 29.8219 25.5534 29.8219V28.2741C25.5534 28.0689 25.4718 27.872 25.3267 27.7269C25.1816 27.5817 24.9847 27.5002 24.7795 27.5002H23.2317ZM24.0056 32.9175C23.8003 32.9175 23.6035 32.999 23.4584 33.1441C23.3132 33.2893 23.2317 33.4861 23.2317 33.6914H24.7795C24.9847 33.6914 25.1816 33.7729 25.3267 33.918C25.4718 34.0632 25.5534 34.26 25.5534 34.4653V36.0131C25.7586 36.0131 25.9555 35.9315 26.1006 35.7864C26.2457 35.6413 26.3273 35.4444 26.3273 35.2392V33.6914C26.3273 33.4861 26.2457 33.2893 26.1006 33.1441C25.9555 32.999 25.7586 32.9175 25.5534 32.9175H24.0056ZM38.7096 32.9175C38.4379 32.9175 38.171 32.989 37.9357 33.1249C37.7004 33.2607 37.5051 33.4561 37.3692 33.6914H46.4485V32.9175H38.7096ZM38.7096 39.1086C38.4379 39.1087 38.171 39.1802 37.9357 39.316C37.7004 39.4519 37.5051 39.6472 37.3692 39.8825H46.4485V39.1086H38.7096Z" fill="#FCD53F"/>
  <path d="M23.2317 21.3091C23.2317 21.1038 23.3132 20.907 23.4584 20.7618C23.6035 20.6167 23.8003 20.5352 24.0056 20.5352H25.5534C25.7586 20.5352 25.9555 20.6167 26.1006 20.7618C26.2457 20.907 26.3273 21.1038 26.3273 21.3091V22.8568C26.3273 23.0621 26.2457 23.2589 26.1006 23.4041C25.9555 23.5492 25.7586 23.6307 25.5534 23.6307H24.0056C23.8003 23.6307 23.6035 23.5492 23.4584 23.4041C23.3132 23.2589 23.2317 23.0621 23.2317 22.8568V21.3091ZM4.6582 25.9524C4.6582 25.7472 4.73974 25.5503 4.88487 25.4052C5.03001 25.2601 5.22685 25.1785 5.4321 25.1785H6.97989C7.18514 25.1785 7.38198 25.2601 7.52712 25.4052C7.67225 25.5503 7.75378 25.7472 7.75378 25.9524V27.5002C7.75378 27.7055 7.67225 27.9023 7.52712 28.0474C7.38198 28.1926 7.18514 28.2741 6.97989 28.2741H5.4321C5.22685 28.2741 5.03001 28.1926 4.88487 28.0474C4.73974 27.9023 4.6582 27.7055 4.6582 27.5002V25.9524ZM4.6582 38.3347C4.6582 38.1295 4.73974 37.9327 4.88487 37.7875C5.03001 37.6424 5.22685 37.5609 5.4321 37.5609H6.97989C7.18514 37.5609 7.38198 37.6424 7.52712 37.7875C7.67225 37.9327 7.75378 38.1295 7.75378 38.3347V39.8825C7.75378 40.0878 7.67225 40.2846 7.52712 40.4298C7.38198 40.5749 7.18514 40.6564 6.97989 40.6564H5.4321C5.22685 40.6564 5.03001 40.5749 4.88487 40.4298C4.73974 40.2846 4.6582 40.0878 4.6582 39.8825V38.3347ZM17.8144 32.9175C17.6092 32.9175 17.4123 32.999 17.2672 33.1441C17.1221 33.2893 17.0405 33.4861 17.0405 33.6914V35.2392C17.0405 35.4444 17.1221 35.6413 17.2672 35.7864C17.4123 35.9315 17.6092 36.0131 17.8144 36.0131H19.3622C19.5675 36.0131 19.7643 35.9315 19.9094 35.7864C20.0546 35.6413 20.1361 35.4444 20.1361 35.2392V33.6914C20.1361 33.4861 20.0546 33.2893 19.9094 33.1441C19.7643 32.999 19.5675 32.9175 19.3622 32.9175H17.8144ZM24.0056 39.1086C23.8003 39.1086 23.6035 39.1902 23.4584 39.3353C23.3132 39.4804 23.2317 39.6773 23.2317 39.8825V41.4303C23.2317 41.6356 23.3132 41.8324 23.4584 41.9776C23.6035 42.1227 23.8003 42.2042 24.0056 42.2042H25.5534C25.7586 42.2042 25.9555 42.1227 26.1006 41.9776C26.2457 41.8324 26.3273 41.6356 26.3273 41.4303V39.8825C26.3273 39.6773 26.2457 39.4804 26.1006 39.3353C25.9555 39.1902 25.7586 39.1086 25.5534 39.1086H24.0056Z" fill="#321B41"/>
  <path d="M31.7443 37.5607V46.8475H32.5182V37.5607C32.5182 37.1502 32.3551 36.7565 32.0649 36.4663C31.7746 36.176 31.3809 36.0129 30.9704 36.0129H29.4226V18.9872C29.4226 18.5767 29.2595 18.1831 28.9693 17.8928C28.679 17.6025 28.2853 17.4395 27.8748 17.4395H23.2314L27.8748 18.2133C28.0801 18.2133 28.2769 18.2949 28.422 18.44C28.5672 18.5852 28.6487 18.782 28.6487 18.9872V36.3999C28.6487 36.6135 28.8221 36.7868 29.0357 36.7868H30.9704C31.1756 36.7868 31.3725 36.8684 31.5176 37.0135C31.6628 37.1586 31.7443 37.3555 31.7443 37.5607Z" fill="#46A4FB"/>
</svg>