<svg xmlns="http://www.w3.org/2000/svg" width="50" height="50" viewBox="0 0 50 50" fill="none">
  <path d="M28.3324 28.2744C27.3061 28.2744 26.3219 28.6821 25.5962 29.4078C24.8706 30.1334 24.4629 31.1176 24.4629 32.1439V32.4019C24.4629 32.4019 24.4629 40.6567 35.2974 40.6567H35.3222C46.1567 40.6567 46.1567 32.4019 46.1567 32.4019V32.1439C46.1567 31.1178 45.7492 30.1338 45.0237 29.4081C44.2983 28.6825 43.3143 28.2747 42.2883 28.2744H28.3324Z" fill="url(#paint0_linear_14263_94617)"/>
  <path d="M28.3324 28.2744C27.3061 28.2744 26.3219 28.6821 25.5962 29.4078C24.8706 30.1334 24.4629 31.1176 24.4629 32.1439V32.4019C24.4629 32.4019 24.4629 40.6567 35.2974 40.6567H35.3222C46.1567 40.6567 46.1567 32.4019 46.1567 32.4019V32.1439C46.1567 31.1178 45.7492 30.1338 45.0237 29.4081C44.2983 28.6825 43.3143 28.2747 42.2883 28.2744H28.3324Z" fill="url(#paint1_radial_14263_94617)" fill-opacity="0.5"/>
  <path d="M7.20346 28.2744C6.17721 28.2744 5.193 28.6821 4.46733 29.4078C3.74166 30.1334 3.33398 31.1176 3.33398 32.1439V33.4337C3.33398 33.4337 3.33398 42.7205 16.7482 42.7205C30.1624 42.7205 30.1624 33.4337 30.1624 33.4337V32.1439C30.1624 31.1176 29.7547 30.1334 29.029 29.4078C28.3033 28.6821 27.3191 28.2744 26.2929 28.2744H7.20346Z" fill="url(#paint2_linear_14263_94617)"/>
  <path d="M7.20346 28.2744C6.17721 28.2744 5.193 28.6821 4.46733 29.4078C3.74166 30.1334 3.33398 31.1176 3.33398 32.1439V33.4337C3.33398 33.4337 3.33398 42.7205 16.7482 42.7205C30.1624 42.7205 30.1624 33.4337 30.1624 33.4337V32.1439C30.1624 31.1176 29.7547 30.1334 29.029 29.4078C28.3033 28.6821 27.3191 28.2744 26.2929 28.2744H7.20346Z" fill="url(#paint3_linear_14263_94617)"/>
  <path d="M35.322 25.1792C36.964 25.1792 38.5388 24.5269 39.6998 23.3659C40.8609 22.2048 41.5132 20.63 41.5132 18.988C41.5132 17.346 40.8609 15.7713 39.6998 14.6102C38.5388 13.4492 36.964 12.7969 35.322 12.7969C33.68 12.7969 32.1053 13.4492 30.9442 14.6102C29.7831 15.7713 29.1309 17.346 29.1309 18.988C29.1309 20.63 29.7831 22.2048 30.9442 23.3659C32.1053 24.5269 33.68 25.1792 35.322 25.1792Z" fill="url(#paint4_linear_14263_94617)"/>
  <path d="M16.748 25.1787C18.9374 25.1787 21.037 24.309 22.5851 22.7609C24.1332 21.2128 25.0029 19.1132 25.0029 16.9238C25.0029 14.7345 24.1332 12.6348 22.5851 11.0867C21.037 9.53865 18.9374 8.66895 16.748 8.66895C14.5587 8.66895 12.4591 9.53865 10.911 11.0867C9.36287 12.6348 8.49316 14.7345 8.49316 16.9238C8.49316 19.1132 9.36287 21.2128 10.911 22.7609C12.4591 24.309 14.5587 25.1787 16.748 25.1787Z" fill="url(#paint5_linear_14263_94617)"/>
  <defs>
    <linearGradient id="paint0_linear_14263_94617" x1="29.6212" y1="29.9202" x2="34.0674" y2="42.3593" gradientUnits="userSpaceOnUse">
      <stop offset="0.125" stop-color="#9C6CFE"/>
      <stop offset="1" stop-color="#7A41DC"/>
    </linearGradient>
    <radialGradient id="paint1_radial_14263_94617" cx="0" cy="0" r="1" gradientUnits="userSpaceOnUse" gradientTransform="translate(21.7109 34.4656) rotate(-7.2084) scale(14.3909 14.5957)">
      <stop offset="0.392" stop-color="#3B148A"/>
      <stop offset="1" stop-color="#3B148A" stop-opacity="0"/>
    </radialGradient>
    <linearGradient id="paint2_linear_14263_94617" x1="9.71398" y1="30.1947" x2="14.67" y2="44.8905" gradientUnits="userSpaceOnUse">
      <stop offset="0.125" stop-color="#BD96FF"/>
      <stop offset="1" stop-color="#9C6CFE"/>
    </linearGradient>
    <linearGradient id="paint3_linear_14263_94617" x1="16.7482" y1="26.5543" x2="23.7112" y2="50.7174" gradientUnits="userSpaceOnUse">
      <stop stop-color="#885EDB" stop-opacity="0"/>
      <stop offset="1" stop-color="#E362F8"/>
    </linearGradient>
    <linearGradient id="paint4_linear_14263_94617" x1="32.0758" y1="14.4427" x2="38.3856" y2="24.5188" gradientUnits="userSpaceOnUse">
      <stop offset="0.125" stop-color="#9C6CFE"/>
      <stop offset="1" stop-color="#7A41DC"/>
    </linearGradient>
    <linearGradient id="paint5_linear_14263_94617" x1="12.4194" y1="10.8637" x2="20.8332" y2="24.2985" gradientUnits="userSpaceOnUse">
      <stop offset="0.125" stop-color="#BD96FF"/>
      <stop offset="1" stop-color="#9C6CFE"/>
    </linearGradient>
  </defs>
</svg>