<svg xmlns="http://www.w3.org/2000/svg" width="50" height="50" viewBox="0 0 50 50" fill="none">
  <path d="M42.4008 47.2615C42.815 47.2615 43.2122 47.097 43.505 46.8041C43.7979 46.5112 43.9624 46.114 43.9624 45.6999V25.7897C43.9624 25.1232 43.8311 24.4633 43.5761 23.8475C43.321 23.2318 42.9472 22.6723 42.4759 22.201C42.0047 21.7297 41.4452 21.3559 40.8294 21.1009C40.2137 20.8458 39.5537 20.7145 38.8873 20.7145H34.5929V8.61226C34.5929 7.94578 34.4616 7.28583 34.2066 6.67008C33.9515 6.05434 33.5777 5.49486 33.1064 5.02359C32.6351 4.55231 32.0757 4.17848 31.4599 3.92343C30.8442 3.66838 30.1842 3.53711 29.5177 3.53711H11.1691C9.92665 3.53711 8.73507 4.03068 7.85651 4.90924C6.97795 5.7878 6.48438 6.97939 6.48438 8.22186V45.6999C6.48438 46.114 6.6489 46.5112 6.94175 46.8041C7.23461 47.097 7.6318 47.2615 8.04596 47.2615H42.4008Z" fill="url(#paint0_linear_14263_94608)"/>
  <path d="M33.8114 37.8926C34.4327 37.8926 35.0285 38.1394 35.4677 38.5786C35.907 39.0179 36.1538 39.6137 36.1538 40.235V47.2621H25.2227L23.6611 43.3581L25.2227 37.8926H33.8114Z" fill="url(#paint1_linear_14263_94608)"/>
  <path d="M16.6334 37.8926C16.0122 37.8926 15.4164 38.1394 14.9771 38.5786C14.5378 39.0179 14.291 39.6137 14.291 40.235V47.2621H25.2221V37.8926H16.6334Z" fill="url(#paint2_linear_14263_94608)"/>
  <path d="M16.6334 16.0295C17.2546 16.0295 17.8504 15.7827 18.2897 15.3434C18.729 14.9041 18.9758 14.3083 18.9758 13.6871C18.9758 13.0659 18.729 12.4701 18.2897 12.0308C17.8504 11.5915 17.2546 11.3447 16.6334 11.3447C16.0122 11.3447 15.4164 11.5915 14.9771 12.0308C14.5378 12.4701 14.291 13.0659 14.291 13.6871C14.291 14.3083 14.5378 14.9041 14.9771 15.3434C15.4164 15.7827 16.0122 16.0295 16.6334 16.0295ZM16.6334 23.8374C17.2546 23.8374 17.8504 23.5906 18.2897 23.1513C18.729 22.7121 18.9758 22.1163 18.9758 21.495C18.9758 20.8738 18.729 20.278 18.2897 19.8387C17.8504 19.3994 17.2546 19.1526 16.6334 19.1526C16.0122 19.1526 15.4164 19.3994 14.9771 19.8387C14.5378 20.278 14.291 20.8738 14.291 21.495C14.291 22.1163 14.5378 22.7121 14.9771 23.1513C15.4164 23.5906 16.0122 23.8374 16.6334 23.8374ZM18.9758 29.3029C18.9758 29.9242 18.729 30.52 18.2897 30.9593C17.8504 31.3985 17.2546 31.6453 16.6334 31.6453C16.0122 31.6453 15.4164 31.3985 14.9771 30.9593C14.5378 30.52 14.291 29.9242 14.291 29.3029C14.291 28.6817 14.5378 28.0859 14.9771 27.6466C15.4164 27.2074 16.0122 26.9606 16.6334 26.9606C17.2546 26.9606 17.8504 27.2074 18.2897 27.6466C18.729 28.0859 18.9758 28.6817 18.9758 29.3029ZM24.4413 16.0295C25.0626 16.0295 25.6583 15.7827 26.0976 15.3434C26.5369 14.9041 26.7837 14.3083 26.7837 13.6871C26.7837 13.0659 26.5369 12.4701 26.0976 12.0308C25.6583 11.5915 25.0626 11.3447 24.4413 11.3447C23.8201 11.3447 23.2243 11.5915 22.785 12.0308C22.3457 12.4701 22.0989 13.0659 22.0989 13.6871C22.0989 14.3083 22.3457 14.9041 22.785 15.3434C23.2243 15.7827 23.8201 16.0295 24.4413 16.0295ZM26.7837 21.495C26.7837 22.1163 26.5369 22.7121 26.0976 23.1513C25.6583 23.5906 25.0626 23.8374 24.4413 23.8374C23.8201 23.8374 23.2243 23.5906 22.785 23.1513C22.3457 22.7121 22.0989 22.1163 22.0989 21.495C22.0989 20.8738 22.3457 20.278 22.785 19.8387C23.2243 19.3994 23.8201 19.1526 24.4413 19.1526C25.0626 19.1526 25.6583 19.3994 26.0976 19.8387C26.5369 20.278 26.7837 20.8738 26.7837 21.495ZM24.4413 31.6453C25.0626 31.6453 25.6583 31.3985 26.0976 30.9593C26.5369 30.52 26.7837 29.9242 26.7837 29.3029C26.7837 28.6817 26.5369 28.0859 26.0976 27.6466C25.6583 27.2074 25.0626 26.9606 24.4413 26.9606C23.8201 26.9606 23.2243 27.2074 22.785 27.6466C22.3457 28.0859 22.0989 28.6817 22.0989 29.3029C22.0989 29.9242 22.3457 30.52 22.785 30.9593C23.2243 31.3985 23.8201 31.6453 24.4413 31.6453ZM34.5916 29.3029C34.5916 29.9242 34.3448 30.52 33.9055 30.9593C33.4663 31.3985 32.8705 31.6453 32.2492 31.6453C31.628 31.6453 31.0322 31.3985 30.5929 30.9593C30.1536 30.52 29.9069 29.9242 29.9069 29.3029C29.9069 28.6817 30.1536 28.0859 30.5929 27.6466C31.0322 27.2074 31.628 26.9606 32.2492 26.9606C32.8705 26.9606 33.4663 27.2074 33.9055 27.6466C34.3448 28.0859 34.5916 28.6817 34.5916 29.3029Z" fill="url(#paint3_linear_14263_94608)"/>
  <defs>
    <linearGradient id="paint0_linear_14263_94608" x1="6.48438" y1="4.9035" x2="48.0335" y2="50.4971" gradientUnits="userSpaceOnUse">
      <stop stop-color="#29C3FF"/>
      <stop offset="1" stop-color="#2764E7"/>
    </linearGradient>
    <linearGradient id="paint1_linear_14263_94608" x1="25.2227" y1="36.331" x2="33.2633" y2="45.727" gradientUnits="userSpaceOnUse">
      <stop stop-color="#0067BF"/>
      <stop offset="1" stop-color="#003580"/>
    </linearGradient>
    <linearGradient id="paint2_linear_14263_94608" x1="14.6814" y1="39.9429" x2="22.2254" y2="47.7805" gradientUnits="userSpaceOnUse">
      <stop stop-color="#0067BF"/>
      <stop offset="1" stop-color="#003580"/>
    </linearGradient>
    <linearGradient id="paint3_linear_14263_94608" x1="20.3812" y1="9.0898" x2="27.7972" y2="35.7882" gradientUnits="userSpaceOnUse">
      <stop stop-color="#FDFDFD"/>
      <stop offset="1" stop-color="#B3E0FF"/>
    </linearGradient>
  </defs>
</svg>