<svg width="62" height="18" viewBox="0 0 62 18" fill="none" xmlns="http://www.w3.org/2000/svg">
<circle cx="1.64922" cy="4.66777" r="1.64922" fill="#0370FF"/>
<circle cx="13.1941" cy="4.66777" r="1.64922" fill="#0370FF"/>
<rect y="7.47363" width="3.26743" height="7.68806" fill="#0370FF" fill-opacity="0.5"/>
<rect x="11.5322" y="7.47363" width="3.26743" height="7.68806" fill="#0370FF" fill-opacity="0.5"/>
<path d="M14.843 7.55371C14.843 9.52201 14.0611 11.4097 12.6693 12.8015C11.2775 14.1933 9.38979 14.9752 7.42149 14.9752C5.45319 14.9752 3.5655 14.1933 2.1737 12.8015C0.781905 11.4097 2.97205e-07 9.52201 0 7.55371L3.26545 7.55371C3.26545 8.65596 3.70332 9.71306 4.48273 10.4925C5.26213 11.2719 6.31924 11.7097 7.42149 11.7097C8.52373 11.7097 9.58084 11.2719 10.3602 10.4925C11.1397 9.71306 11.5775 8.65596 11.5775 7.55371H14.843Z" fill="#0370FF"/>
<path d="M27.3868 8.46984H24.0718V9.10127H27.9332V10.3034H18.5953V9.10127H22.5053V8.46984H20.6596C20.4491 8.46984 20.2832 8.44556 20.1618 8.39699C20.0484 8.34841 19.923 8.25532 19.7853 8.1177L19.5303 7.85056C19.417 7.72913 19.332 7.61175 19.2753 7.49841C19.2187 7.37699 19.1903 7.20294 19.1903 6.97627V5.43413C19.1903 5.13461 19.336 4.98484 19.6275 4.98484H27.2775V6.19913H20.7446V6.85484C20.7446 6.90341 20.7527 6.94389 20.7689 6.97627C20.7932 7.00865 20.8175 7.03699 20.8418 7.06127L20.9389 7.17056C20.9875 7.21913 21.0482 7.24341 21.121 7.24341H27.3868V8.46984ZM20.6718 13.7034V14.0798C20.6718 14.1203 20.688 14.1567 20.7203 14.1891L20.7568 14.2256C20.781 14.2417 20.8175 14.2498 20.866 14.2498H27.751V15.452H20.3682C20.1658 15.452 20.016 15.4277 19.9189 15.3791C19.8218 15.3306 19.7206 15.2496 19.6153 15.1363L19.4332 14.942C19.3118 14.8206 19.2308 14.7113 19.1903 14.6141C19.158 14.517 19.1418 14.3551 19.1418 14.1284V13.0113C19.1418 12.7522 19.2915 12.6227 19.591 12.6227H25.8203C25.9013 12.6227 25.9418 12.5863 25.9418 12.5134V12.0763H19.1539V10.8741H27.0468C27.3382 10.8741 27.4839 11.0198 27.4839 11.3113V12.8291C27.4839 13.072 27.407 13.2784 27.2532 13.4484C27.0994 13.6184 26.8808 13.7034 26.5975 13.7034H20.6718ZM38.1837 4.91199V8.51841C38.1837 8.81794 38.042 8.9677 37.7587 8.9677H34.8201V9.7327H38.7301V11.0441H29.3922V9.7327H33.2537V8.9677H31.3472C31.161 8.9677 31.0113 8.94341 30.8979 8.89484C30.7846 8.84627 30.6551 8.74103 30.5094 8.57913L30.3029 8.36056C30.2382 8.2877 30.1815 8.22294 30.1329 8.16627C30.0925 8.10151 30.0601 8.0408 30.0358 7.98413C30.0115 7.91937 29.9913 7.85056 29.9751 7.7777C29.967 7.70484 29.9629 7.6158 29.9629 7.51056V4.91199H31.5294V5.62841H36.6294V4.91199H38.1837ZM37.6615 11.7484C37.8477 11.7484 37.9894 11.801 38.0865 11.9063C38.1918 12.0115 38.2444 12.1532 38.2444 12.3313V14.7598C38.2444 14.9379 38.1918 15.0796 38.0865 15.1848C37.9894 15.2901 37.8477 15.3427 37.6615 15.3427H30.4729C30.2868 15.3427 30.141 15.2901 30.0358 15.1848C29.9387 15.0796 29.8901 14.9379 29.8901 14.7598V12.3313C29.8901 12.1532 29.9387 12.0115 30.0358 11.9063C30.141 11.801 30.2868 11.7484 30.4729 11.7484H37.6615ZM36.7265 14.0313V13.0598H31.4079V14.0313H36.7265ZM36.6294 7.66841V6.91556H31.5294V7.20699C31.5294 7.28794 31.5537 7.3527 31.6022 7.40127L31.7358 7.55913C31.7682 7.59961 31.7965 7.62794 31.8208 7.64413C31.8451 7.66032 31.8815 7.66841 31.9301 7.66841H36.6294ZM48.7134 4.91199V8.80984H50.122V10.1698H48.7134V15.3184H47.147V4.91199H48.7134ZM45.9813 13.1448V14.4927H42.2048C42.0672 14.4927 41.9498 14.4887 41.8527 14.4806C41.7637 14.4644 41.6787 14.4401 41.5977 14.4077C41.5248 14.3753 41.452 14.3308 41.3791 14.2741C41.3063 14.2175 41.2253 14.1406 41.1363 14.0434L40.5291 13.3877C40.4482 13.2987 40.3834 13.2177 40.3348 13.1448C40.2863 13.072 40.2458 12.9991 40.2134 12.9263C40.1891 12.8453 40.1689 12.7522 40.1527 12.647C40.1446 12.5417 40.1406 12.4163 40.1406 12.2706V5.64056C40.1406 5.34103 40.2863 5.19127 40.5777 5.19127H45.5198V6.52699H41.7313V12.2584C41.7313 12.3717 41.7758 12.4851 41.8648 12.5984L42.2291 13.0113C42.3182 13.1003 42.4194 13.1448 42.5327 13.1448H45.9813ZM52.6375 10.3884V12.2706C52.6375 12.3839 52.682 12.4851 52.771 12.5741L53.1232 13.0234C53.196 13.1044 53.2851 13.1448 53.3903 13.1448H56.9725V14.4927H53.0139C52.771 14.4927 52.5808 14.4684 52.4432 14.4198C52.3136 14.3713 52.1679 14.2579 52.006 14.0798L51.4353 13.3877C51.3625 13.3067 51.3017 13.2339 51.2532 13.1691C51.2127 13.1044 51.1763 13.0356 51.1439 12.9627C51.1196 12.8898 51.1034 12.8048 51.0953 12.7077C51.0872 12.6106 51.0832 12.4891 51.0832 12.3434V9.48984C51.0832 9.21461 51.2248 9.07699 51.5082 9.07699H54.6896C54.811 9.07699 54.8717 9.01627 54.8717 8.89484V6.53913H51.1075V5.20341H56.001C56.2925 5.20341 56.4382 5.35318 56.4382 5.6527V9.51413C56.4382 10.097 56.1427 10.3884 55.5517 10.3884H52.6375ZM59.8989 4.91199V15.3184H58.3446V4.91199H59.8989Z" fill="#111111"/>
</svg>
