<svg width="102" height="28" viewBox="0 0 102 28" fill="none" xmlns="http://www.w3.org/2000/svg">
<circle cx="3.26934" cy="6.71636" r="2.71636" fill="#0370FF"/>
<circle cx="22.2839" cy="6.71636" r="2.71636" fill="#0370FF"/>
<rect x="0.552979" y="11.3379" width="5.38164" height="12.6627" fill="#0370FF" fill-opacity="0.5"/>
<rect x="19.5471" y="11.3379" width="5.38164" height="12.6627" fill="#0370FF" fill-opacity="0.5"/>
<path d="M25.0002 11.4697C25.0002 14.7116 23.7124 17.8208 21.42 20.1131C19.1276 22.4055 16.0185 23.6933 12.7766 23.6933C9.5347 23.6933 6.42557 22.4055 4.1332 20.1131C1.84082 17.8208 0.552979 14.7116 0.552979 11.4697L5.93137 11.4697C5.93137 13.2852 6.65256 15.0263 7.93629 16.31C9.22002 17.5938 10.9611 18.315 12.7766 18.315C14.5921 18.315 16.3332 17.5938 17.6169 16.31C18.9006 15.0263 19.6218 13.2852 19.6218 11.4697H25.0002Z" fill="#0370FF"/>
<path d="M45.6602 12.92H40.2002V13.96H46.5602V15.94H31.1802V13.96H37.6202V12.92H34.5802C34.2336 12.92 33.9602 12.88 33.7602 12.8C33.5736 12.72 33.3669 12.5667 33.1402 12.34L32.7202 11.9C32.5336 11.7 32.3936 11.5067 32.3002 11.32C32.2069 11.12 32.1602 10.8333 32.1602 10.46V7.92C32.1602 7.42667 32.4002 7.18 32.8802 7.18H45.4802V9.18H34.7202V10.26C34.7202 10.34 34.7336 10.4067 34.7602 10.46C34.8002 10.5133 34.8402 10.56 34.8802 10.6L35.0402 10.78C35.1202 10.86 35.2202 10.9 35.3402 10.9H45.6602V12.92ZM34.6002 21.54V22.16C34.6002 22.2267 34.6269 22.2867 34.6802 22.34L34.7402 22.4C34.7802 22.4267 34.8402 22.44 34.9202 22.44H46.2602V24.42H34.1002C33.7669 24.42 33.5202 24.38 33.3602 24.3C33.2002 24.22 33.0336 24.0867 32.8602 23.9L32.5602 23.58C32.3602 23.38 32.2269 23.2 32.1602 23.04C32.1069 22.88 32.0802 22.6133 32.0802 22.24V20.4C32.0802 19.9733 32.3269 19.76 32.8202 19.76H43.0802C43.2136 19.76 43.2802 19.7 43.2802 19.58V18.86H32.1002V16.88H45.1002C45.5802 16.88 45.8202 17.12 45.8202 17.6V20.1C45.8202 20.5 45.6936 20.84 45.4402 21.12C45.1869 21.4 44.8269 21.54 44.3602 21.54H34.6002ZM63.4434 7.06V13C63.4434 13.4933 63.21 13.74 62.7434 13.74H57.9034V15H64.3434V17.16H48.9634V15H55.3234V13.74H52.1834C51.8767 13.74 51.63 13.7 51.4434 13.62C51.2567 13.54 51.0434 13.3667 50.8034 13.1L50.4634 12.74C50.3567 12.62 50.2634 12.5133 50.1834 12.42C50.1167 12.3133 50.0634 12.2133 50.0234 12.12C49.9834 12.0133 49.95 11.9 49.9234 11.78C49.91 11.66 49.9034 11.5133 49.9034 11.34V7.06H52.4834V8.24H60.8834V7.06H63.4434ZM62.5834 18.32C62.89 18.32 63.1234 18.4067 63.2834 18.58C63.4567 18.7533 63.5434 18.9867 63.5434 19.28V23.28C63.5434 23.5733 63.4567 23.8067 63.2834 23.98C63.1234 24.1533 62.89 24.24 62.5834 24.24H50.7434C50.4367 24.24 50.1967 24.1533 50.0234 23.98C49.8634 23.8067 49.7834 23.5733 49.7834 23.28V19.28C49.7834 18.9867 49.8634 18.7533 50.0234 18.58C50.1967 18.4067 50.4367 18.32 50.7434 18.32H62.5834ZM61.0434 22.08V20.48H52.2834V22.08H61.0434ZM60.8834 11.6V10.36H52.4834V10.84C52.4834 10.9733 52.5234 11.08 52.6034 11.16L52.8234 11.42C52.8767 11.4867 52.9234 11.5333 52.9634 11.56C53.0034 11.5867 53.0634 11.6 53.1434 11.6H60.8834ZM80.7865 7.06V13.48H83.1065V15.72H80.7865V24.2H78.2065V7.06H80.7865ZM76.2865 20.62V22.84H70.0665C69.8398 22.84 69.6465 22.8333 69.4865 22.82C69.3398 22.7933 69.1998 22.7533 69.0665 22.7C68.9465 22.6467 68.8265 22.5733 68.7065 22.48C68.5865 22.3867 68.4532 22.26 68.3065 22.1L67.3065 21.02C67.1732 20.8733 67.0665 20.74 66.9865 20.62C66.9065 20.5 66.8398 20.38 66.7865 20.26C66.7465 20.1267 66.7132 19.9733 66.6865 19.8C66.6732 19.6267 66.6665 19.42 66.6665 19.18V8.26C66.6665 7.76667 66.9065 7.52 67.3865 7.52H75.5265V9.72H69.2865V19.16C69.2865 19.3467 69.3598 19.5333 69.5065 19.72L70.1065 20.4C70.2532 20.5467 70.4198 20.62 70.6065 20.62H76.2865ZM87.2496 16.08V19.18C87.2496 19.3667 87.323 19.5333 87.4696 19.68L88.0496 20.42C88.1696 20.5533 88.3163 20.62 88.4896 20.62H94.3896V22.84H87.8696C87.4696 22.84 87.1563 22.8 86.9296 22.72C86.7163 22.64 86.4763 22.4533 86.2096 22.16L85.2696 21.02C85.1496 20.8867 85.0496 20.7667 84.9696 20.66C84.903 20.5533 84.843 20.44 84.7896 20.32C84.7496 20.2 84.723 20.06 84.7096 19.9C84.6963 19.74 84.6896 19.54 84.6896 19.3V14.6C84.6896 14.1467 84.923 13.92 85.3896 13.92H90.6296C90.8296 13.92 90.9296 13.82 90.9296 13.62V9.74H84.7296V7.54H92.7896C93.2696 7.54 93.5096 7.78667 93.5096 8.28V14.64C93.5096 15.6 93.023 16.08 92.0496 16.08H87.2496ZM99.2096 7.06V24.2H96.6496V7.06H99.2096Z" fill="#111111"/>
</svg>
