<svg width="320" height="82" viewBox="0 0 320 82" fill="none" xmlns="http://www.w3.org/2000/svg">
<rect width="320" height="82" rx="12" fill="#0370FF"/>
<path d="M31.1328 27.0938V28.5586H27.4121V29.4375H32.5537V30.917H20.3955V29.4375H25.5371V28.5586H21.9189V24.457H31.0303V25.9512H23.7793V27.0938H31.1328ZM31.0742 31.6348V35.0332H23.6475V35.8242H31.4258V37.2451H21.8164V33.7295H29.2285V33.0117H21.8018V31.6348H31.0742ZM45.1426 30.4043V31.9131H32.9844V30.4043H38.1113V29.3643H34.5371V24.3105H36.3828V25.4971H41.7295V24.3105H43.5898V29.3643H39.9863V30.4043H45.1426ZM36.3828 27.8994H41.7295V26.8887H36.3828V27.8994ZM43.6924 32.7773V37.2012H34.3906V32.7773H43.6924ZM36.2363 34.2129V35.707H41.8613V34.2129H36.2363ZM51.6523 24.208C54.7139 24.208 56.4863 25.0137 56.501 26.4785C56.4863 27.958 54.7139 28.7637 51.6523 28.7637C48.5762 28.7637 46.7891 27.958 46.7891 26.4785C46.7891 25.0137 48.5762 24.208 51.6523 24.208ZM51.6523 25.5703C49.6895 25.5703 48.7373 25.8926 48.752 26.4785C48.7373 27.1377 49.6895 27.3867 51.6523 27.3867C53.6299 27.3867 54.5674 27.1377 54.5674 26.4785C54.5674 25.8926 53.6299 25.5703 51.6523 25.5703ZM57.7314 29.3936V30.873H45.5732V29.3936H57.7314ZM56.252 31.6494V35.0479H48.8252V35.8535H56.6035V37.2598H46.9941V33.7441H54.4062V33.0117H46.9795V31.6494H56.252ZM72.4062 24.0176V32.8945H70.5312V24.0176H72.4062ZM68.8467 32.4844C68.832 33.9785 70.2383 35.4287 73.0801 35.8242L72.3477 37.3037C70.187 36.9521 68.6416 36.0073 67.8506 34.6963C67.0522 36.0073 65.5068 36.9521 63.3682 37.3037L62.6357 35.8242C65.4775 35.4434 66.8838 33.9785 66.8838 32.4844V32.2061H68.8467V32.4844ZM65.0967 24.8379C67.1768 24.8379 68.7441 26.1855 68.7441 28.0898C68.7441 30.0088 67.1768 31.3564 65.0967 31.3564C63.0166 31.3564 61.4492 30.0088 61.4492 28.0898C61.4492 26.1855 63.0166 24.8379 65.0967 24.8379ZM65.0967 26.4346C64.0273 26.4199 63.2656 27.0352 63.2803 28.0898C63.2656 29.1445 64.0273 29.7744 65.0967 29.7744C66.1367 29.7744 66.8984 29.1445 66.8984 28.0898C66.8984 27.0352 66.1367 26.4199 65.0967 26.4346ZM84.3506 24.0176V28.9688H86.3135V30.4922H84.3506V37.377H82.4756V24.0176H84.3506ZM80.6152 25.248V26.7568H76.2207V32.6016C78.1543 32.5796 79.751 32.4917 81.5234 32.1768L81.7285 33.7441C79.6631 34.0957 77.8467 34.1543 75.4883 34.1396H74.3604V25.248H80.6152ZM89.2344 34.916L87.9746 39.0908H86.4219L87.1543 34.916H89.2344ZM99.7783 25.2773V34.0957H93.377V25.2773H99.7783ZM95.2227 26.7422V32.6162H97.918V26.7422H95.2227ZM103.47 24.0176V29.042H105.433V30.5947H103.47V37.3477H101.595V24.0176H103.47ZM111.62 24.2666C114.579 24.2666 116.454 25.248 116.469 26.874C116.454 28.4854 114.579 29.4668 111.62 29.4521C108.676 29.4668 106.757 28.4854 106.757 26.874C106.757 25.248 108.676 24.2666 111.62 24.2666ZM111.62 25.7168C109.76 25.7168 108.69 26.1123 108.705 26.874C108.69 27.6211 109.76 28.002 111.62 28.002C113.466 28.002 114.535 27.6211 114.535 26.874C114.535 26.1123 113.466 25.7168 111.62 25.7168ZM116.249 32.6602V37.2012H106.947V32.6602H116.249ZM108.793 34.1396V35.707H114.418V34.1396H108.793ZM117.699 30.2285V31.7227H105.541V30.2285H117.699ZM124.209 24.208C127.271 24.208 129.043 25.0137 129.058 26.4785C129.043 27.958 127.271 28.7637 124.209 28.7637C121.133 28.7637 119.346 27.958 119.346 26.4785C119.346 25.0137 121.133 24.208 124.209 24.208ZM124.209 25.5703C122.246 25.5703 121.294 25.8926 121.309 26.4785C121.294 27.1377 122.246 27.3867 124.209 27.3867C126.187 27.3867 127.124 27.1377 127.124 26.4785C127.124 25.8926 126.187 25.5703 124.209 25.5703ZM130.288 29.3936V30.873H118.13V29.3936H130.288ZM128.809 31.6494V35.0479H121.382V35.8535H129.16V37.2598H119.551V33.7441H126.963V33.0117H119.536V31.6494H128.809ZM144.963 24.0176V32.8945H143.088V24.0176H144.963ZM141.403 32.4844C141.389 33.9785 142.795 35.4287 145.637 35.8242L144.904 37.3037C142.744 36.9521 141.198 36.0073 140.407 34.6963C139.609 36.0073 138.063 36.9521 135.925 37.3037L135.192 35.8242C138.034 35.4434 139.44 33.9785 139.44 32.4844V32.2061H141.403V32.4844ZM137.653 24.8379C139.733 24.8379 141.301 26.1855 141.301 28.0898C141.301 30.0088 139.733 31.3564 137.653 31.3564C135.573 31.3564 134.006 30.0088 134.006 28.0898C134.006 26.1855 135.573 24.8379 137.653 24.8379ZM137.653 26.4346C136.584 26.4199 135.822 27.0352 135.837 28.0898C135.822 29.1445 136.584 29.7744 137.653 29.7744C138.693 29.7744 139.455 29.1445 139.455 28.0898C139.455 27.0352 138.693 26.4199 137.653 26.4346ZM156.907 24.0176V28.9688H158.87V30.4922H156.907V37.377H155.032V24.0176H156.907ZM153.172 25.248V26.7568H148.777V32.6016C150.711 32.5796 152.308 32.4917 154.08 32.1768L154.285 33.7441C152.22 34.0957 150.403 34.1543 148.045 34.1396H146.917V25.248H153.172Z" fill="white"/>
<path d="M28.8359 52.1797V53.0703H25.7305V53.9727H29.9609V54.8633H20.3867V53.9727H24.6172V53.0703H21.6406V49.8828H28.7305V50.7852H22.7539V52.1797H28.8359ZM28.7539 55.6484V58.0977H22.6367V59.0234H29.0469V59.8906H21.5469V57.3008H27.6523V56.4805H21.5352V55.6484H28.7539ZM40.032 54.6758V55.5898H30.4578V54.6758H34.6883V53.6211H31.7117V49.7188H32.8133V50.832H37.6766V49.7188H38.7898V53.6211H35.7898V54.6758H40.032ZM32.8133 52.7305H37.6766V51.6758H32.8133V52.7305ZM38.8602 56.457V59.8672H31.6062V56.457H38.8602ZM32.7078 57.3359V58.9648H37.782V57.3359H32.7078ZM46.3766 50.6211V51.2656C46.3766 52.1445 46.3766 53.5039 46.0719 55.3789L44.9703 55.2969C45.234 53.6152 45.2633 52.4023 45.275 51.5234H41.0094V50.6211H46.3766ZM43.6812 53.6211V56.7617C44.8004 56.7266 45.9371 56.6504 46.9859 56.5156L47.0445 57.3477C44.8531 57.6992 42.4156 57.7461 40.5523 57.7344L40.4234 56.832C41.0797 56.8262 41.8121 56.8203 42.5797 56.7969V53.6211H43.6812ZM48.7086 49.4961V53.832H50.3141V54.7812H48.7086V59.9961H47.5836V49.4961H48.7086ZM62.8391 57.7461V58.6602H53.2297V57.7461H57.4367V55.25H58.5383V57.7461H62.8391ZM58.5617 50.9609C58.5617 52.625 60.3898 54.1836 62.4172 54.5234L61.9367 55.4375C60.2375 55.0977 58.673 54.0488 57.9758 52.6016C57.2844 54.043 55.7375 55.1094 54.05 55.4375L53.5578 54.5234C55.5734 54.1836 57.3898 52.625 57.3898 50.9609V50.1641H58.5617V50.9609ZM72.875 55.0156V55.8945H63.2773V55.0156H67.5195V54.1016H64.5312V49.7773H71.7031V50.6562H65.6562V51.5117H71.4336V52.3438H65.6562V53.2344H71.7734V54.1016H68.6328V55.0156H72.875ZM68.082 56.5859C70.3906 56.5742 71.7031 57.1836 71.7031 58.2852C71.7031 59.3984 70.3906 59.9844 68.082 59.9727C65.75 59.9844 64.4375 59.3984 64.4375 58.2852C64.4375 57.1836 65.75 56.5742 68.082 56.5859ZM68.082 57.418C66.4297 57.418 65.5391 57.7227 65.5508 58.2852C65.5391 58.8477 66.4297 59.1406 68.082 59.1289C69.7109 59.1406 70.5898 58.8477 70.5898 58.2852C70.5898 57.7227 69.7109 57.418 68.082 57.418ZM82.0672 49.4961V60.0195H80.9539V49.4961H82.0672ZM76.4539 50.2812C78.0125 50.2812 79.1609 51.7109 79.1609 53.9609C79.1609 56.2227 78.0125 57.6523 76.4539 57.6523C74.8719 57.6523 73.7352 56.2227 73.7352 53.9609C73.7352 51.7109 74.8719 50.2812 76.4539 50.2812ZM76.4539 51.2773C75.4813 51.2773 74.8133 52.3086 74.8133 53.9609C74.8133 55.625 75.4813 56.6562 76.4539 56.6562C77.4148 56.6562 78.0828 55.625 78.0828 53.9609C78.0828 52.3086 77.4148 51.2773 76.4539 51.2773ZM91.393 50.4219V55.3203H86.4828V50.4219H91.393ZM87.5727 51.3242V54.4414H90.3031V51.3242H87.5727ZM94.3227 49.4844V52.625H95.8461V53.5625H94.3227V57.1836H93.2094V49.4844H94.3227ZM94.768 58.8711V59.7734H87.6664V56.4453H88.7797V58.8711H94.768ZM105.952 53.6211V54.5352H104.323V59.9844H103.21V49.4961H104.323V53.6211H105.952ZM97.6438 50.5156V56.4219C99.1086 56.4219 100.638 56.2988 102.308 55.9531L102.437 56.8906C100.644 57.2539 98.9797 57.3477 97.4094 57.3477H96.5422V50.5156H97.6438ZM114.711 52.5664V53.457H107.48V49.8711H108.582V52.5664H114.711ZM115.812 54.7812V55.6719H106.203V54.7812H115.812ZM114.781 58.8359V59.75H107.398V56.668H108.512V58.8359H114.781ZM127.365 52.1797V53.0703H124.259V53.9727H128.49V54.8633H118.916V53.9727H123.146V53.0703H120.17V49.8828H127.259V50.7852H121.283V52.1797H127.365ZM127.283 55.6484V58.0977H121.166V59.0234H127.576V59.8906H120.076V57.3008H126.181V56.4805H120.064V55.6484H127.283ZM138.561 54.6758V55.5898H128.987V54.6758H133.217V53.6211H130.241V49.7188H131.342V50.832H136.205V49.7188H137.319V53.6211H134.319V54.6758H138.561ZM131.342 52.7305H136.205V51.6758H131.342V52.7305ZM137.389 56.457V59.8672H130.135V56.457H137.389ZM131.237 57.3359V58.9648H136.311V57.3359H131.237ZM147.238 49.4961V53.5625H148.925V54.4766H147.238V60.0195H146.124V49.4961H147.238ZM144.413 50.5039V51.4062H140.616V56.4805C142.38 56.4746 143.704 56.3984 145.198 56.1289L145.339 57.0664C143.698 57.3594 142.304 57.418 140.347 57.4062H139.503V50.5039H144.413ZM157.848 49.4961V60.0195H156.734V49.4961H157.848ZM154.637 50.4453V54.2773H150.863V56.5742C152.562 56.5684 154.051 56.4922 155.809 56.1992L155.914 57.1133C154.051 57.4297 152.469 57.5 150.617 57.5H149.727V53.3867H153.5V51.3477H149.715V50.4453H154.637ZM165.615 52.168C165.615 54.0898 166.693 56 168.298 56.7266L167.619 57.6172C166.423 57.0195 165.527 55.8301 165.064 54.3945C164.601 55.9062 163.681 57.1836 162.474 57.8164L161.771 56.9141C163.4 56.1406 164.49 54.1133 164.49 52.168V50.375H165.615V52.168ZM170.584 49.4961V60.0195H169.482V53.8906H167.138V52.9883H169.482V49.4961H170.584ZM180.596 49.4961V60.0195H179.483V49.4961H180.596ZM173.6 50.375V53.0703H176.424V50.375H177.526V57.5H172.487V50.375H173.6ZM173.6 56.5859H176.424V53.9492H173.6V56.5859ZM187.304 50.9844C187.304 52.6953 189.132 54.3125 191.148 54.6758L190.632 55.6016C188.956 55.2383 187.409 54.1367 186.73 52.6602C186.038 54.125 184.497 55.2266 182.816 55.6016L182.323 54.6758C184.316 54.3008 186.132 52.6953 186.132 50.9844V50.1875H187.304V50.9844ZM191.581 57.6875V58.6133H181.972V57.6875H191.581Z" fill="white"/>
<circle cx="255.242" cy="17.6611" r="2.66108" fill="white"/>
<circle cx="273.87" cy="17.6611" r="2.66108" fill="white"/>
<rect x="252.581" y="22.187" width="5.27213" height="12.405" fill="white" fill-opacity="0.5"/>
<rect x="271.188" y="22.187" width="5.27213" height="12.405" fill="white" fill-opacity="0.5"/>
<path d="M276.531 22.3174C276.531 25.4933 275.269 28.5392 273.023 30.7849C270.778 33.0306 267.732 34.2923 264.556 34.2923C261.38 34.2923 258.334 33.0306 256.088 30.7849C253.843 28.5392 252.581 25.4933 252.581 22.3174L257.85 22.3174C257.85 24.0959 258.557 25.8016 259.814 27.0592C261.072 28.3168 262.777 29.0233 264.556 29.0233C266.334 29.0233 268.04 28.3168 269.298 27.0592C270.555 25.8016 271.262 24.0959 271.262 22.3174H276.531Z" fill="white"/>
<path opacity="0.9" d="M244.721 50.2527V52.2546H239.31V53.2853H245.613V55.2475H230.371V53.2853H236.753V52.2546H233.74C233.046 52.2546 232.749 52.1357 232.313 51.6798L231.897 51.2438C231.52 50.8474 231.342 50.5501 231.342 49.8167V47.2995C231.342 46.804 231.58 46.5661 232.055 46.5661H244.542V48.5482H233.879V49.6185C233.879 49.7771 233.958 49.8762 234.037 49.9554L234.196 50.1338C234.275 50.2131 234.374 50.2527 234.493 50.2527H244.721ZM243.432 60.7972H233.76V61.4117C233.76 61.4711 233.78 61.5306 233.839 61.5901L233.899 61.6495C233.958 61.6892 234.018 61.6892 234.077 61.6892H245.315V63.6514H233.264C232.61 63.6514 232.372 63.5127 232.036 63.1361L231.738 62.8189C231.342 62.4225 231.263 62.2243 231.263 61.491V59.6675C231.263 59.2512 231.54 59.0332 231.996 59.0332H242.164C242.283 59.0332 242.362 58.9738 242.362 58.8548V58.1413H231.282V56.1791H244.166C244.622 56.1791 244.879 56.4367 244.879 56.8926V59.3702C244.879 60.163 244.364 60.7972 243.432 60.7972ZM259.807 46.4472H262.344V52.3339C262.344 52.8294 262.126 53.0673 261.65 53.0673H256.854V54.3159H263.236V56.4566H247.994V54.3159H254.297V53.0673H251.185C250.571 53.0673 250.293 52.9682 249.818 52.433L249.481 52.0762C249.045 51.6005 248.926 51.3627 248.926 50.6888V46.4472H251.482V47.6166H259.807V46.4472ZM249.758 57.6061H261.492C262.086 57.6061 262.443 57.9827 262.443 58.5575V62.5216C262.443 63.0964 262.086 63.473 261.492 63.473H249.758C249.163 63.473 248.807 63.0964 248.807 62.5216V58.5575C248.807 57.9827 249.163 57.6061 249.758 57.6061ZM251.284 61.3324H259.966V59.7468H251.284V61.3324ZM252.137 50.9465H259.807V49.7176H251.482V50.1933C251.482 50.3518 251.502 50.4113 251.601 50.5104L251.819 50.7681C251.919 50.887 251.978 50.9465 252.137 50.9465ZM276.975 46.4472H279.532V52.8096H281.831V55.0295H279.532V63.4334H276.975V46.4472ZM269.443 59.8855H275.072V62.0856H268.908C268.036 62.0856 267.738 61.9667 267.164 61.3522L266.173 60.2819C265.657 59.7071 265.538 59.4296 265.538 58.4584V47.6364C265.538 47.1409 265.776 46.9031 266.252 46.9031H274.319V49.0833H268.135V58.4386C268.135 58.6566 268.194 58.7954 268.353 58.9936L268.947 59.6675C269.106 59.826 269.265 59.8855 269.443 59.8855ZM290.694 55.3863H285.937V58.4584C285.937 58.6566 285.996 58.7954 286.155 58.9539L286.73 59.6873C286.848 59.826 286.967 59.8855 287.166 59.8855H293.013V62.0856H286.551C285.758 62.0856 285.441 61.9865 284.906 61.4117L283.974 60.2819C283.499 59.7666 283.4 59.5089 283.4 58.5774V53.9195C283.4 53.4637 283.638 53.2456 284.093 53.2456H289.286C289.504 53.2456 289.584 53.1465 289.584 52.9483V49.1032H283.439V46.9229H291.427C291.903 46.9229 292.14 47.1608 292.14 47.6563V53.9592C292.14 54.9304 291.685 55.3863 290.694 55.3863ZM295.252 46.4472H297.789V63.4334H295.252V46.4472Z" fill="white"/>
</svg>
