<svg width="8" height="38" viewBox="0 0 8 38" fill="none" xmlns="http://www.w3.org/2000/svg">
<path d="M3.18213 37.5C3.18213 37.7761 3.40599 38 3.68213 38C3.95827 38 4.18213 37.7761 4.18213 37.5L3.68213 37.5L3.18213 37.5ZM4.03561 0.14636C3.84035 -0.0489025 3.52377 -0.0489019 3.32851 0.146361L0.146533 3.32835C-0.048729 3.52361 -0.0487284 3.84019 0.146534 4.03545C0.341797 4.23072 0.658379 4.23072 0.853641 4.03545L3.68206 1.20702L6.51049 4.03544C6.70576 4.23071 7.02234 4.2307 7.2176 4.03544C7.41286 3.84018 7.41286 3.5236 7.2176 3.32833L4.03561 0.14636ZM3.68213 37.5L4.18213 37.5C4.18213 37.3029 4.18213 37.1771 4.18213 36.9818C4.18213 36.7874 4.18213 36.6616 4.18213 36.469L3.68213 36.469L3.18213 36.469C3.18213 36.4696 3.18213 36.4703 3.18213 36.471C3.18213 36.4716 3.18213 36.4723 3.18213 36.473C3.18213 36.4736 3.18213 36.4743 3.18213 36.475C3.18213 36.4756 3.18213 36.4763 3.18213 36.477C3.18213 36.4776 3.18213 36.4783 3.18213 36.4789C3.18213 36.4796 3.18213 36.4803 3.18213 36.4809C3.18213 36.4816 3.18213 36.4823 3.18213 36.4829C3.18213 36.4836 3.18213 36.4843 3.18213 36.4849C3.18213 36.4856 3.18213 36.4863 3.18213 36.4869C3.18213 36.4876 3.18213 36.4882 3.18213 36.4889C3.18213 36.4896 3.18213 36.4902 3.18213 36.4909C3.18213 36.4916 3.18213 36.4922 3.18213 36.4929C3.18213 36.4936 3.18213 36.4942 3.18213 36.4949C3.18213 36.4956 3.18213 36.4962 3.18213 36.4969C3.18213 36.4976 3.18213 36.4982 3.18213 36.4989C3.18213 36.4995 3.18213 36.5002 3.18213 36.5009C3.18213 36.5015 3.18213 36.5022 3.18213 36.5029C3.18213 36.5035 3.18213 36.5042 3.18213 36.5049C3.18213 36.5055 3.18213 36.5062 3.18213 36.5069C3.18213 36.5075 3.18213 36.5082 3.18213 36.5089C3.18213 36.5095 3.18213 36.5102 3.18213 36.5109C3.18213 36.5115 3.18213 36.5122 3.18213 36.5128C3.18213 36.5135 3.18213 36.5142 3.18213 36.5148C3.18213 36.5155 3.18213 36.5162 3.18213 36.5168C3.18213 36.5175 3.18213 36.5182 3.18213 36.5188C3.18213 36.5195 3.18213 36.5202 3.18213 36.5208C3.18213 36.5215 3.18213 36.5222 3.18213 36.5228C3.18213 36.5235 3.18213 36.5242 3.18213 36.5248C3.18213 36.5255 3.18213 36.5261 3.18213 36.5268C3.18213 36.5275 3.18213 36.5281 3.18213 36.5288C3.18213 36.5295 3.18213 36.5301 3.18213 36.5308C3.18213 36.5315 3.18213 36.5321 3.18213 36.5328C3.18213 36.5335 3.18213 36.5341 3.18213 36.5348C3.18213 36.5355 3.18213 36.5361 3.18213 36.5368C3.18213 36.5375 3.18213 36.5381 3.18213 36.5388C3.18213 36.5395 3.18213 36.5401 3.18213 36.5408C3.18213 36.5414 3.18213 36.5421 3.18213 36.5428C3.18213 36.5434 3.18213 36.5441 3.18213 36.5448C3.18213 36.5454 3.18213 36.5461 3.18213 36.5468C3.18213 36.5474 3.18213 36.5481 3.18213 36.5488C3.18213 36.5494 3.18213 36.5501 3.18213 36.5508C3.18213 36.5514 3.18213 36.5521 3.18213 36.5528C3.18213 36.5534 3.18213 36.5541 3.18213 36.5548C3.18213 36.5554 3.18213 36.5561 3.18213 36.5568C3.18213 36.5574 3.18213 36.5581 3.18213 36.5587C3.18213 36.5594 3.18213 36.5601 3.18213 36.5607C3.18213 36.5614 3.18213 36.5621 3.18213 36.5627C3.18213 36.5634 3.18213 36.5641 3.18213 36.5647C3.18213 36.5654 3.18213 36.5661 3.18213 36.5667C3.18213 36.5674 3.18213 36.5681 3.18213 36.5687C3.18213 36.5694 3.18213 36.5701 3.18213 36.5707C3.18213 36.5714 3.18213 36.5721 3.18213 36.5727C3.18213 36.5734 3.18213 36.5741 3.18213 36.5747C3.18213 36.5754 3.18213 36.5761 3.18213 36.5767C3.18213 36.5774 3.18213 36.5781 3.18213 36.5787C3.18213 36.5794 3.18213 36.5801 3.18213 36.5807C3.18213 36.5814 3.18213 36.582 3.18213 36.5827C3.18213 36.5834 3.18213 36.584 3.18213 36.5847C3.18213 36.5854 3.18213 36.586 3.18213 36.5867C3.18213 36.5874 3.18213 36.588 3.18213 36.5887C3.18213 36.5894 3.18213 36.59 3.18213 36.5907C3.18213 36.5914 3.18213 36.592 3.18213 36.5927C3.18213 36.5934 3.18213 36.594 3.18213 36.5947C3.18213 36.5954 3.18213 36.596 3.18213 36.5967C3.18213 36.5974 3.18213 36.598 3.18213 36.5987C3.18213 36.5994 3.18213 36.6 3.18213 36.6007C3.18213 36.6014 3.18213 36.602 3.18213 36.6027C3.18213 36.6034 3.18213 36.604 3.18213 36.6047C3.18213 36.6054 3.18213 36.606 3.18213 36.6067C3.18213 36.6074 3.18213 36.608 3.18213 36.6087C3.18213 36.6094 3.18213 36.61 3.18213 36.6107C3.18213 36.6114 3.18213 36.612 3.18213 36.6127C3.18213 36.6134 3.18213 36.614 3.18213 36.6147C3.18213 36.6154 3.18213 36.616 3.18213 36.6167C3.18213 36.6174 3.18213 36.618 3.18213 36.6187C3.18213 36.6194 3.18213 36.62 3.18213 36.6207C3.18213 36.6214 3.18213 36.622 3.18213 36.6227C3.18213 36.6234 3.18213 36.624 3.18213 36.6247C3.18213 36.6254 3.18213 36.626 3.18213 36.6267C3.18213 36.6274 3.18213 36.628 3.18213 36.6287C3.18213 36.6293 3.18213 36.63 3.18213 36.6307C3.18213 36.6313 3.18213 36.632 3.18213 36.6327C3.18213 36.6333 3.18213 36.634 3.18213 36.6347C3.18213 36.6353 3.18213 36.636 3.18213 36.6367C3.18213 36.6373 3.18213 36.638 3.18213 36.6387C3.18213 36.6393 3.18213 36.64 3.18213 36.6407C3.18213 36.6413 3.18213 36.642 3.18213 36.6427C3.18213 36.6433 3.18213 36.644 3.18213 36.6447C3.18213 36.6453 3.18213 36.646 3.18213 36.6467C3.18213 36.6473 3.18213 36.648 3.18213 36.6487C3.18213 36.6493 3.18213 36.65 3.18213 36.6507C3.18213 36.6513 3.18213 36.652 3.18213 36.6527C3.18213 36.6533 3.18213 36.654 3.18213 36.6547C3.18213 36.6554 3.18213 36.656 3.18213 36.6567C3.18213 36.6574 3.18213 36.658 3.18213 36.6587C3.18213 36.6594 3.18213 36.66 3.18213 36.6607C3.18213 36.6614 3.18213 36.662 3.18213 36.6627C3.18213 36.6634 3.18213 36.664 3.18213 36.6647C3.18213 36.6654 3.18213 36.666 3.18213 36.6667C3.18213 36.6674 3.18213 36.668 3.18213 36.6687C3.18213 36.6694 3.18213 36.67 3.18213 36.6707C3.18213 36.6714 3.18213 36.672 3.18213 36.6727C3.18213 36.6734 3.18213 36.674 3.18213 36.6747C3.18213 36.6754 3.18213 36.676 3.18213 36.6767C3.18213 36.6774 3.18213 36.678 3.18213 36.6787C3.18213 36.6794 3.18213 36.68 3.18213 36.6807C3.18213 36.6814 3.18213 36.682 3.18213 36.6827C3.18213 36.6834 3.18213 36.684 3.18213 36.6847C3.18213 36.6854 3.18213 36.686 3.18213 36.6867C3.18213 36.6874 3.18213 36.688 3.18213 36.6887C3.18213 36.6894 3.18213 36.69 3.18213 36.6907C3.18213 36.6914 3.18213 36.692 3.18213 36.6927C3.18213 36.6934 3.18213 36.694 3.18213 36.6947C3.18213 36.6954 3.18213 36.696 3.18213 36.6967C3.18213 36.6974 3.18213 36.698 3.18213 36.6987C3.18213 36.6994 3.18213 36.7 3.18213 36.7007C3.18213 36.7014 3.18213 36.7021 3.18213 36.7027C3.18213 36.7034 3.18213 36.7041 3.18213 36.7047C3.18213 36.7054 3.18213 36.7061 3.18213 36.7067C3.18213 36.7074 3.18213 36.7081 3.18213 36.7087C3.18213 36.7094 3.18213 36.7101 3.18213 36.7107C3.18213 36.7114 3.18213 36.7121 3.18213 36.7127C3.18213 36.7134 3.18213 36.7141 3.18213 36.7147C3.18213 36.7154 3.18213 36.7161 3.18213 36.7167C3.18213 36.7174 3.18213 36.7181 3.18213 36.7187C3.18213 36.7194 3.18213 36.7201 3.18213 36.7207C3.18213 36.7214 3.18213 36.7221 3.18213 36.7227C3.18213 36.7234 3.18213 36.7241 3.18213 36.7248C3.18213 36.7254 3.18213 36.7261 3.18213 36.7268C3.18213 36.7274 3.18213 36.7281 3.18213 36.7288C3.18213 36.7294 3.18213 36.7301 3.18213 36.7308C3.18213 36.7314 3.18213 36.7321 3.18213 36.7328C3.18213 36.7334 3.18213 36.7341 3.18213 36.7348C3.18213 36.7354 3.18213 36.7361 3.18213 36.7368C3.18213 36.7374 3.18213 36.7381 3.18213 36.7388C3.18213 36.7394 3.18213 36.7401 3.18213 36.7408C3.18213 36.7414 3.18213 36.7421 3.18213 36.7428C3.18213 36.7435 3.18213 36.7441 3.18213 36.7448C3.18213 36.7455 3.18213 36.7461 3.18213 36.7468C3.18213 36.7475 3.18213 36.7481 3.18213 36.7488C3.18213 36.7495 3.18213 36.7501 3.18213 36.7508C3.18213 36.7515 3.18213 36.7521 3.18213 36.7528C3.18213 36.7535 3.18213 36.7541 3.18213 36.7548C3.18213 36.7555 3.18213 36.7561 3.18213 36.7568C3.18213 36.7575 3.18213 36.7582 3.18213 36.7588C3.18213 36.7595 3.18213 36.7602 3.18213 36.7608C3.18213 36.7615 3.18213 36.7622 3.18213 36.7628C3.18213 36.7635 3.18213 36.7642 3.18213 36.7648C3.18213 36.7655 3.18213 36.7662 3.18213 36.7668C3.18213 36.7675 3.18213 36.7682 3.18213 36.7688C3.18213 36.7695 3.18213 36.7702 3.18213 36.7708C3.18213 36.7715 3.18213 36.7722 3.18213 36.7729C3.18213 36.7735 3.18213 36.7742 3.18213 36.7749C3.18213 36.7755 3.18213 36.7762 3.18213 36.7769C3.18213 36.7775 3.18213 36.7782 3.18213 36.7789C3.18213 36.7795 3.18213 36.7802 3.18213 36.7809C3.18213 36.7815 3.18213 36.7822 3.18213 36.7829C3.18213 36.7836 3.18213 36.7842 3.18213 36.7849C3.18213 36.7856 3.18213 36.7862 3.18213 36.7869C3.18213 36.7876 3.18213 36.7882 3.18213 36.7889C3.18213 36.7896 3.18213 36.7902 3.18213 36.7909C3.18213 36.7916 3.18213 36.7922 3.18213 36.7929C3.18213 36.7936 3.18213 36.7942 3.18213 36.7949C3.18213 36.7956 3.18213 36.7963 3.18213 36.7969C3.18213 36.7976 3.18213 36.7983 3.18213 36.7989C3.18213 36.7996 3.18213 36.8003 3.18213 36.8009C3.18213 36.8016 3.18213 36.8023 3.18213 36.8029C3.18213 36.8036 3.18213 36.8043 3.18213 36.8049C3.18213 36.8056 3.18213 36.8063 3.18213 36.807C3.18213 36.8076 3.18213 36.8083 3.18213 36.809C3.18213 36.8096 3.18213 36.8103 3.18213 36.811C3.18213 36.8116 3.18213 36.8123 3.18213 36.813C3.18213 36.8136 3.18213 36.8143 3.18213 36.815C3.18213 36.8157 3.18213 36.8163 3.18213 36.817C3.18213 36.8177 3.18213 36.8183 3.18213 36.819C3.18213 36.8197 3.18213 36.8203 3.18213 36.821C3.18213 36.8217 3.18213 36.8223 3.18213 36.823C3.18213 36.8237 3.18213 36.8243 3.18213 36.825C3.18213 36.8257 3.18213 36.8264 3.18213 36.827C3.18213 36.8277 3.18213 36.8284 3.18213 36.829C3.18213 36.8297 3.18213 36.8304 3.18213 36.831C3.18213 36.8317 3.18213 36.8324 3.18213 36.833C3.18213 36.8337 3.18213 36.8344 3.18213 36.8351C3.18213 36.8357 3.18213 36.8364 3.18213 36.8371C3.18213 36.8377 3.18213 36.8384 3.18213 36.8391C3.18213 36.8397 3.18213 36.8404 3.18213 36.8411C3.18213 36.8417 3.18213 36.8424 3.18213 36.8431C3.18213 36.8438 3.18213 36.8444 3.18213 36.8451C3.18213 36.8458 3.18213 36.8464 3.18213 36.8471C3.18213 36.8478 3.18213 36.8484 3.18213 36.8491C3.18213 36.8498 3.18213 36.8505 3.18213 36.8511C3.18213 36.8518 3.18213 36.8525 3.18213 36.8531C3.18213 36.8538 3.18213 36.8545 3.18213 36.8551C3.18213 36.8558 3.18213 36.8565 3.18213 36.8571C3.18213 36.8578 3.18213 36.8585 3.18213 36.8592C3.18213 36.8598 3.18213 36.8605 3.18213 36.8612C3.18213 36.8618 3.18213 36.8625 3.18213 36.8632C3.18213 36.8638 3.18213 36.8645 3.18213 36.8652C3.18213 36.8659 3.18213 36.8665 3.18213 36.8672C3.18213 36.8679 3.18213 36.8685 3.18213 36.8692C3.18213 36.8699 3.18213 36.8705 3.18213 36.8712C3.18213 36.8719 3.18213 36.8725 3.18213 36.8732C3.18213 36.8739 3.18213 36.8746 3.18213 36.8752C3.18213 36.8759 3.18213 36.8766 3.18213 36.8772C3.18213 36.8779 3.18213 36.8786 3.18213 36.8792C3.18213 36.8799 3.18213 36.8806 3.18213 36.8813C3.18213 36.8819 3.18213 36.8826 3.18213 36.8833C3.18213 36.8839 3.18213 36.8846 3.18213 36.8853C3.18213 36.8859 3.18213 36.8866 3.18213 36.8873C3.18213 36.888 3.18213 36.8886 3.18213 36.8893C3.18213 36.89 3.18213 36.8906 3.18213 36.8913C3.18213 36.892 3.18213 36.8926 3.18213 36.8933C3.18213 36.894 3.18213 36.8947 3.18213 36.8953C3.18213 36.896 3.18213 36.8967 3.18213 36.8973C3.18213 36.898 3.18213 36.8987 3.18213 36.8993C3.18213 36.9 3.18213 36.9007 3.18213 36.9014C3.18213 36.902 3.18213 36.9027 3.18213 36.9034C3.18213 36.904 3.18213 36.9047 3.18213 36.9054C3.18213 36.906 3.18213 36.9067 3.18213 36.9074C3.18213 36.9081 3.18213 36.9087 3.18213 36.9094C3.18213 36.9101 3.18213 36.9107 3.18213 36.9114C3.18213 36.9121 3.18213 36.9127 3.18213 36.9134C3.18213 36.9141 3.18213 36.9148 3.18213 36.9154C3.18213 36.9161 3.18213 36.9168 3.18213 36.9174C3.18213 36.9181 3.18213 36.9188 3.18213 36.9195C3.18213 36.9201 3.18213 36.9208 3.18213 36.9215C3.18213 36.9221 3.18213 36.9228 3.18213 36.9235C3.18213 36.9241 3.18213 36.9248 3.18213 36.9255C3.18213 36.9262 3.18213 36.9268 3.18213 36.9275C3.18213 36.9282 3.18213 36.9288 3.18213 36.9295C3.18213 36.9302 3.18213 36.9308 3.18213 36.9315C3.18213 36.9322 3.18213 36.9329 3.18213 36.9335C3.18213 36.9342 3.18213 36.9349 3.18213 36.9355C3.18213 36.9362 3.18213 36.9369 3.18213 36.9376C3.18213 36.9382 3.18213 36.9389 3.18213 36.9396C3.18213 36.9402 3.18213 36.9409 3.18213 36.9416C3.18213 36.9423 3.18213 36.9429 3.18213 36.9436C3.18213 36.9443 3.18213 36.9449 3.18213 36.9456C3.18213 36.9463 3.18213 36.9469 3.18213 36.9476C3.18213 36.9483 3.18213 36.949 3.18213 36.9496C3.18213 36.9503 3.18213 36.951 3.18213 36.9516C3.18213 36.9523 3.18213 36.953 3.18213 36.9537C3.18213 36.9543 3.18213 36.955 3.18213 36.9557C3.18213 36.9563 3.18213 36.957 3.18213 36.9577C3.18213 36.9583 3.18213 36.959 3.18213 36.9597C3.18213 36.9604 3.18213 36.961 3.18213 36.9617C3.18213 36.9624 3.18213 36.963 3.18213 36.9637C3.18213 36.9644 3.18213 36.9651 3.18213 36.9657C3.18213 36.9664 3.18213 36.9671 3.18213 36.9677C3.18213 36.9684 3.18213 36.9691 3.18213 36.9698C3.18213 36.9704 3.18213 36.9711 3.18213 36.9718C3.18213 36.9724 3.18213 36.9731 3.18213 36.9738C3.18213 36.9745 3.18213 36.9751 3.18213 36.9758C3.18213 36.9765 3.18213 36.9771 3.18213 36.9778C3.18213 36.9785 3.18213 36.9792 3.18213 36.9798C3.18213 36.9805 3.18213 36.9812 3.18213 36.9818C3.18213 36.9825 3.18213 36.9832 3.18213 36.9838C3.18213 36.9845 3.18213 36.9852 3.18213 36.9859C3.18213 36.9865 3.18213 36.9872 3.18213 36.9879C3.18213 36.9885 3.18213 36.9892 3.18213 36.9899C3.18213 36.9906 3.18213 36.9912 3.18213 36.9919C3.18213 36.9926 3.18213 36.9932 3.18213 36.9939C3.18213 36.9946 3.18213 36.9953 3.18213 36.9959C3.18213 36.9966 3.18213 36.9973 3.18213 36.9979C3.18213 36.9986 3.18213 36.9993 3.18213 37C3.18213 37.0006 3.18213 37.0013 3.18213 37.002C3.18213 37.0026 3.18213 37.0033 3.18213 37.004C3.18213 37.0047 3.18213 37.0053 3.18213 37.006C3.18213 37.0067 3.18213 37.0073 3.18213 37.008C3.18213 37.0087 3.18213 37.0094 3.18213 37.01C3.18213 37.0107 3.18213 37.0114 3.18213 37.012C3.18213 37.0127 3.18213 37.0134 3.18213 37.0141C3.18213 37.0147 3.18213 37.0154 3.18213 37.0161C3.18213 37.0168 3.18213 37.0174 3.18213 37.0181C3.18213 37.0188 3.18213 37.0194 3.18213 37.0201C3.18213 37.0208 3.18213 37.0215 3.18213 37.0221C3.18213 37.0228 3.18213 37.0235 3.18213 37.0241C3.18213 37.0248 3.18213 37.0255 3.18213 37.0262C3.18213 37.0268 3.18213 37.0275 3.18213 37.0282C3.18213 37.0288 3.18213 37.0295 3.18213 37.0302C3.18213 37.0309 3.18213 37.0315 3.18213 37.0322C3.18213 37.0329 3.18213 37.0335 3.18213 37.0342C3.18213 37.0349 3.18213 37.0356 3.18213 37.0362C3.18213 37.0369 3.18213 37.0376 3.18213 37.0382C3.18213 37.0389 3.18213 37.0396 3.18213 37.0403C3.18213 37.0409 3.18213 37.0416 3.18213 37.0423C3.18213 37.043 3.18213 37.0436 3.18213 37.0443C3.18213 37.045 3.18213 37.0456 3.18213 37.0463C3.18213 37.047 3.18213 37.0477 3.18213 37.0483C3.18213 37.049 3.18213 37.0497 3.18213 37.0503C3.18213 37.051 3.18213 37.0517 3.18213 37.0524C3.18213 37.053 3.18213 37.0537 3.18213 37.0544C3.18213 37.0551 3.18213 37.0557 3.18213 37.0564C3.18213 37.0571 3.18213 37.0577 3.18213 37.0584C3.18213 37.0591 3.18213 37.0598 3.18213 37.0604C3.18213 37.0611 3.18213 37.0618 3.18213 37.0624C3.18213 37.0631 3.18213 37.0638 3.18213 37.0645C3.18213 37.0651 3.18213 37.0658 3.18213 37.0665C3.18213 37.0672 3.18213 37.0678 3.18213 37.0685C3.18213 37.0692 3.18213 37.0698 3.18213 37.0705C3.18213 37.0712 3.18213 37.0719 3.18213 37.0725C3.18213 37.0732 3.18213 37.0739 3.18213 37.0745C3.18213 37.0752 3.18213 37.0759 3.18213 37.0766C3.18213 37.0772 3.18213 37.0779 3.18213 37.0786C3.18213 37.0793 3.18213 37.0799 3.18213 37.0806C3.18213 37.0813 3.18213 37.0819 3.18213 37.0826C3.18213 37.0833 3.18213 37.084 3.18213 37.0846C3.18213 37.0853 3.18213 37.086 3.18213 37.0867C3.18213 37.0873 3.18213 37.088 3.18213 37.0887C3.18213 37.0893 3.18213 37.09 3.18213 37.0907C3.18213 37.0914 3.18213 37.092 3.18213 37.0927C3.18213 37.0934 3.18213 37.0941 3.18213 37.0947C3.18213 37.0954 3.18213 37.0961 3.18213 37.0967C3.18213 37.0974 3.18213 37.0981 3.18213 37.0988C3.18213 37.0994 3.18213 37.1001 3.18213 37.1008C3.18213 37.1015 3.18213 37.1021 3.18213 37.1028C3.18213 37.1035 3.18213 37.1041 3.18213 37.1048C3.18213 37.1055 3.18213 37.1062 3.18213 37.1068C3.18213 37.1075 3.18213 37.1082 3.18213 37.1089C3.18213 37.1095 3.18213 37.1102 3.18213 37.1109C3.18213 37.1115 3.18213 37.1122 3.18213 37.1129C3.18213 37.1136 3.18213 37.1142 3.18213 37.1149C3.18213 37.1156 3.18213 37.1163 3.18213 37.1169C3.18213 37.1176 3.18213 37.1183 3.18213 37.119C3.18213 37.1196 3.18213 37.1203 3.18213 37.121C3.18213 37.1216 3.18213 37.1223 3.18213 37.123C3.18213 37.1237 3.18213 37.1243 3.18213 37.125C3.18213 37.1257 3.18213 37.1264 3.18213 37.127C3.18213 37.1277 3.18213 37.1284 3.18213 37.129C3.18213 37.1297 3.18213 37.1304 3.18213 37.1311C3.18213 37.1317 3.18213 37.1324 3.18213 37.1331C3.18213 37.1338 3.18213 37.1344 3.18213 37.1351C3.18213 37.1358 3.18213 37.1365 3.18213 37.1371C3.18213 37.1378 3.18213 37.1385 3.18213 37.1391C3.18213 37.1398 3.18213 37.1405 3.18213 37.1412C3.18213 37.1418 3.18213 37.1425 3.18213 37.1432C3.18213 37.1439 3.18213 37.1445 3.18213 37.1452C3.18213 37.1459 3.18213 37.1466 3.18213 37.1472C3.18213 37.1479 3.18213 37.1486 3.18213 37.1492C3.18213 37.1499 3.18213 37.1506 3.18213 37.1513C3.18213 37.1519 3.18213 37.1526 3.18213 37.1533C3.18213 37.154 3.18213 37.1546 3.18213 37.1553C3.18213 37.156 3.18213 37.1567 3.18213 37.1573C3.18213 37.158 3.18213 37.1587 3.18213 37.1594C3.18213 37.16 3.18213 37.1607 3.18213 37.1614C3.18213 37.162 3.18213 37.1627 3.18213 37.1634C3.18213 37.1641 3.18213 37.1647 3.18213 37.1654C3.18213 37.1661 3.18213 37.1668 3.18213 37.1674C3.18213 37.1681 3.18213 37.1688 3.18213 37.1695C3.18213 37.1701 3.18213 37.1708 3.18213 37.1715C3.18213 37.1722 3.18213 37.1728 3.18213 37.1735C3.18213 37.1742 3.18213 37.1748 3.18213 37.1755C3.18213 37.1762 3.18213 37.1769 3.18213 37.1775C3.18213 37.1782 3.18213 37.1789 3.18213 37.1796C3.18213 37.1802 3.18213 37.1809 3.18213 37.1816C3.18213 37.1823 3.18213 37.1829 3.18213 37.1836C3.18213 37.1843 3.18213 37.185 3.18213 37.1856C3.18213 37.1863 3.18213 37.187 3.18213 37.1876C3.18213 37.1883 3.18213 37.189 3.18213 37.1897C3.18213 37.1903 3.18213 37.191 3.18213 37.1917C3.18213 37.1924 3.18213 37.193 3.18213 37.1937C3.18213 37.1944 3.18213 37.1951 3.18213 37.1957C3.18213 37.1964 3.18213 37.1971 3.18213 37.1978C3.18213 37.1984 3.18213 37.1991 3.18213 37.1998C3.18213 37.2005 3.18213 37.2011 3.18213 37.2018C3.18213 37.2025 3.18213 37.2032 3.18213 37.2038C3.18213 37.2045 3.18213 37.2052 3.18213 37.2059C3.18213 37.2065 3.18213 37.2072 3.18213 37.2079C3.18213 37.2085 3.18213 37.2092 3.18213 37.2099C3.18213 37.2106 3.18213 37.2112 3.18213 37.2119C3.18213 37.2126 3.18213 37.2133 3.18213 37.2139C3.18213 37.2146 3.18213 37.2153 3.18213 37.216C3.18213 37.2166 3.18213 37.2173 3.18213 37.218C3.18213 37.2187 3.18213 37.2193 3.18213 37.22C3.18213 37.2207 3.18213 37.2214 3.18213 37.222C3.18213 37.2227 3.18213 37.2234 3.18213 37.2241C3.18213 37.2247 3.18213 37.2254 3.18213 37.2261C3.18213 37.2268 3.18213 37.2274 3.18213 37.2281C3.18213 37.2288 3.18213 37.2295 3.18213 37.2301C3.18213 37.2308 3.18213 37.2315 3.18213 37.2322C3.18213 37.2328 3.18213 37.2335 3.18213 37.2342C3.18213 37.2349 3.18213 37.2355 3.18213 37.2362C3.18213 37.2369 3.18213 37.2375 3.18213 37.2382C3.18213 37.2389 3.18213 37.2396 3.18213 37.2402C3.18213 37.2409 3.18213 37.2416 3.18213 37.2423C3.18213 37.2429 3.18213 37.2436 3.18213 37.2443C3.18213 37.245 3.18213 37.2456 3.18213 37.2463C3.18213 37.247 3.18213 37.2477 3.18213 37.2483C3.18213 37.249 3.18213 37.2497 3.18213 37.2504C3.18213 37.251 3.18213 37.2517 3.18213 37.2524C3.18213 37.2531 3.18213 37.2537 3.18213 37.2544C3.18213 37.2551 3.18213 37.2558 3.18213 37.2564C3.18213 37.2571 3.18213 37.2578 3.18213 37.2585C3.18213 37.2591 3.18213 37.2598 3.18213 37.2605C3.18213 37.2612 3.18213 37.2618 3.18213 37.2625C3.18213 37.2632 3.18213 37.2639 3.18213 37.2645C3.18213 37.2652 3.18213 37.2659 3.18213 37.2666C3.18213 37.2672 3.18213 37.2679 3.18213 37.2686C3.18213 37.2693 3.18213 37.2699 3.18213 37.2706C3.18213 37.2713 3.18213 37.272 3.18213 37.2726C3.18213 37.2733 3.18213 37.274 3.18213 37.2747C3.18213 37.2753 3.18213 37.276 3.18213 37.2767C3.18213 37.2774 3.18213 37.278 3.18213 37.2787C3.18213 37.2794 3.18213 37.2801 3.18213 37.2807C3.18213 37.2814 3.18213 37.2821 3.18213 37.2828C3.18213 37.2834 3.18213 37.2841 3.18213 37.2848C3.18213 37.2855 3.18213 37.2861 3.18213 37.2868C3.18213 37.2875 3.18213 37.2882 3.18213 37.2888C3.18213 37.2895 3.18213 37.2902 3.18213 37.2909C3.18213 37.2915 3.18213 37.2922 3.18213 37.2929C3.18213 37.2936 3.18213 37.2943 3.18213 37.2949C3.18213 37.2956 3.18213 37.2963 3.18213 37.297C3.18213 37.2976 3.18213 37.2983 3.18213 37.299C3.18213 37.2997 3.18213 37.3003 3.18213 37.301C3.18213 37.3017 3.18213 37.3024 3.18213 37.303C3.18213 37.3037 3.18213 37.3044 3.18213 37.3051C3.18213 37.3057 3.18213 37.3064 3.18213 37.3071C3.18213 37.3078 3.18213 37.3084 3.18213 37.3091C3.18213 37.3098 3.18213 37.3105 3.18213 37.3111C3.18213 37.3118 3.18213 37.3125 3.18213 37.3132C3.18213 37.3138 3.18213 37.3145 3.18213 37.3152C3.18213 37.3159 3.18213 37.3165 3.18213 37.3172C3.18213 37.3179 3.18213 37.3186 3.18213 37.3192C3.18213 37.3199 3.18213 37.3206 3.18213 37.3213C3.18213 37.322 3.18213 37.3226 3.18213 37.3233C3.18213 37.324 3.18213 37.3247 3.18213 37.3253C3.18213 37.326 3.18213 37.3267 3.18213 37.3274C3.18213 37.328 3.18213 37.3287 3.18213 37.3294C3.18213 37.3301 3.18213 37.3307 3.18213 37.3314C3.18213 37.3321 3.18213 37.3328 3.18213 37.3334C3.18213 37.3341 3.18213 37.3348 3.18213 37.3355C3.18213 37.3361 3.18213 37.3368 3.18213 37.3375C3.18213 37.3382 3.18213 37.3388 3.18213 37.3395C3.18213 37.3402 3.18213 37.3409 3.18213 37.3416C3.18213 37.3422 3.18213 37.3429 3.18213 37.3436C3.18213 37.3443 3.18213 37.3449 3.18213 37.3456C3.18213 37.3463 3.18213 37.347 3.18213 37.3476C3.18213 37.3483 3.18213 37.349 3.18213 37.3497C3.18213 37.3503 3.18213 37.351 3.18213 37.3517C3.18213 37.3524 3.18213 37.353 3.18213 37.3537C3.18213 37.3544 3.18213 37.3551 3.18213 37.3558C3.18213 37.3564 3.18213 37.3571 3.18213 37.3578C3.18213 37.3585 3.18213 37.3591 3.18213 37.3598C3.18213 37.3605 3.18213 37.3612 3.18213 37.3618C3.18213 37.3625 3.18213 37.3632 3.18213 37.3639C3.18213 37.3645 3.18213 37.3652 3.18213 37.3659C3.18213 37.3666 3.18213 37.3672 3.18213 37.3679C3.18213 37.3686 3.18213 37.3693 3.18213 37.37C3.18213 37.3706 3.18213 37.3713 3.18213 37.372C3.18213 37.3727 3.18213 37.3733 3.18213 37.374C3.18213 37.3747 3.18213 37.3754 3.18213 37.376C3.18213 37.3767 3.18213 37.3774 3.18213 37.3781C3.18213 37.3787 3.18213 37.3794 3.18213 37.3801C3.18213 37.3808 3.18213 37.3815 3.18213 37.3821C3.18213 37.3828 3.18213 37.3835 3.18213 37.3842C3.18213 37.3848 3.18213 37.3855 3.18213 37.3862C3.18213 37.3869 3.18213 37.3875 3.18213 37.3882C3.18213 37.3889 3.18213 37.3896 3.18213 37.3903C3.18213 37.3909 3.18213 37.3916 3.18213 37.3923C3.18213 37.393 3.18213 37.3936 3.18213 37.3943C3.18213 37.395 3.18213 37.3957 3.18213 37.3963C3.18213 37.397 3.18213 37.3977 3.18213 37.3984C3.18213 37.3991 3.18213 37.3997 3.18213 37.4004C3.18213 37.4011 3.18213 37.4018 3.18213 37.4024C3.18213 37.4031 3.18213 37.4038 3.18213 37.4045C3.18213 37.4051 3.18213 37.4058 3.18213 37.4065C3.18213 37.4072 3.18213 37.4079 3.18213 37.4085C3.18213 37.4092 3.18213 37.4099 3.18213 37.4106C3.18213 37.4112 3.18213 37.4119 3.18213 37.4126C3.18213 37.4133 3.18213 37.4139 3.18213 37.4146C3.18213 37.4153 3.18213 37.416 3.18213 37.4167C3.18213 37.4173 3.18213 37.418 3.18213 37.4187C3.18213 37.4194 3.18213 37.42 3.18213 37.4207C3.18213 37.4214 3.18213 37.4221 3.18213 37.4227C3.18213 37.4234 3.18213 37.4241 3.18213 37.4248C3.18213 37.4255 3.18213 37.4261 3.18213 37.4268C3.18213 37.4275 3.18213 37.4282 3.18213 37.4288C3.18213 37.4295 3.18213 37.4302 3.18213 37.4309C3.18213 37.4315 3.18213 37.4322 3.18213 37.4329C3.18213 37.4336 3.18213 37.4343 3.18213 37.4349C3.18213 37.4356 3.18213 37.4363 3.18213 37.437C3.18213 37.4376 3.18213 37.4383 3.18213 37.439C3.18213 37.4397 3.18213 37.4404 3.18213 37.441C3.18213 37.4417 3.18213 37.4424 3.18213 37.4431C3.18213 37.4437 3.18213 37.4444 3.18213 37.4451C3.18213 37.4458 3.18213 37.4465 3.18213 37.4471C3.18213 37.4478 3.18213 37.4485 3.18213 37.4492C3.18213 37.4498 3.18213 37.4505 3.18213 37.4512C3.18213 37.4519 3.18213 37.4525 3.18213 37.4532C3.18213 37.4539 3.18213 37.4546 3.18213 37.4553C3.18213 37.4559 3.18213 37.4566 3.18213 37.4573C3.18213 37.458 3.18213 37.4586 3.18213 37.4593C3.18213 37.46 3.18213 37.4607 3.18213 37.4614C3.18213 37.462 3.18213 37.4627 3.18213 37.4634C3.18213 37.4641 3.18213 37.4647 3.18213 37.4654C3.18213 37.4661 3.18213 37.4668 3.18213 37.4675C3.18213 37.4681 3.18213 37.4688 3.18213 37.4695C3.18213 37.4702 3.18213 37.4708 3.18213 37.4715C3.18213 37.4722 3.18213 37.4729 3.18213 37.4736C3.18213 37.4742 3.18213 37.4749 3.18213 37.4756C3.18213 37.4763 3.18213 37.4769 3.18213 37.4776C3.18213 37.4783 3.18213 37.479 3.18213 37.4797C3.18213 37.4803 3.18213 37.481 3.18213 37.4817C3.18213 37.4824 3.18213 37.483 3.18213 37.4837C3.18213 37.4844 3.18213 37.4851 3.18213 37.4858C3.18213 37.4864 3.18213 37.4871 3.18213 37.4878C3.18213 37.4885 3.18213 37.4892 3.18213 37.4898C3.18213 37.4905 3.18213 37.4912 3.18213 37.4919C3.18213 37.4925 3.18213 37.4932 3.18213 37.4939C3.18213 37.4946 3.18213 37.4953 3.18213 37.4959C3.18213 37.4966 3.18213 37.4973 3.18213 37.498C3.18213 37.4986 3.18213 37.4993 3.18213 37.5L3.68213 37.5ZM3.68212 34.4131L4.18212 34.4131C4.18212 33.7309 4.18212 33.0162 4.18212 32.3606L3.68212 32.3606L3.18212 32.3606C3.18212 33.0551 3.18212 33.692 3.18212 34.4131L3.68212 34.4131ZM3.68212 30.3028L4.18212 30.3028C4.18211 29.6195 4.18211 28.9077 4.18211 28.2475L3.68211 28.2475L3.18211 28.2475C3.18211 28.9361 3.18211 29.5912 3.18212 30.3028L3.68212 30.3028ZM3.68211 26.193L4.18211 26.193C4.18211 25.4904 4.18211 24.8246 4.1821 24.1384L3.6821 24.1384L3.1821 24.1384C3.18211 24.791 3.18211 25.524 3.18211 26.193L3.68211 26.193ZM3.6821 22.0833L4.1821 22.0833C4.1821 21.3936 4.1821 20.7104 4.1821 20.0276L3.6821 20.0276L3.1821 20.0276C3.1821 20.7202 3.1821 21.3839 3.1821 22.0833L3.6821 22.0833ZM3.68209 17.9722L4.18209 17.9722C4.18209 17.2931 4.18209 16.6002 4.18209 15.917L3.68209 15.917L3.18209 15.917C3.18209 16.6099 3.18209 17.2835 3.18209 17.9722L3.68209 17.9722ZM3.68209 13.862L4.18209 13.862C4.18208 13.1581 4.18208 12.5253 4.18208 11.8072L3.68208 11.8072L3.18208 11.8072C3.18208 12.4821 3.18208 13.2013 3.18209 13.862L3.68209 13.862ZM3.68208 9.7522L4.18208 9.7522C4.18208 9.07543 4.18208 8.39483 4.18207 7.69637L3.68207 7.69637L3.18207 7.69638C3.18208 8.38134 3.18208 9.08893 3.18208 9.75221L3.68208 9.7522ZM3.68207 5.63935L4.18207 5.63935C4.18207 4.94364 4.18207 4.30851 4.18207 3.58679L3.68207 3.58679L3.18207 3.58679C3.18207 3.58815 3.18207 3.58951 3.18207 3.59087C3.18207 3.59223 3.18207 3.5936 3.18207 3.59496C3.18207 3.59632 3.18207 3.59768 3.18207 3.59904C3.18207 3.60041 3.18207 3.60177 3.18207 3.60313C3.18207 3.60449 3.18207 3.60585 3.18207 3.60721C3.18207 3.60858 3.18207 3.60994 3.18207 3.6113C3.18207 3.61266 3.18207 3.61402 3.18207 3.61539C3.18207 3.61675 3.18207 3.61811 3.18207 3.61947C3.18207 3.62083 3.18207 3.62219 3.18207 3.62355C3.18207 3.62492 3.18207 3.62628 3.18207 3.62764C3.18207 3.629 3.18207 3.63036 3.18207 3.63172C3.18207 3.63308 3.18207 3.63444 3.18207 3.63581C3.18207 3.63716 3.18207 3.63853 3.18207 3.63989C3.18207 3.64125 3.18207 3.64261 3.18207 3.64397C3.18207 3.64533 3.18207 3.64669 3.18207 3.64805C3.18207 3.64941 3.18207 3.65078 3.18207 3.65213C3.18207 3.65349 3.18207 3.65486 3.18207 3.65621C3.18207 3.65758 3.18207 3.65894 3.18207 3.6603C3.18207 3.66166 3.18207 3.66302 3.18207 3.66438C3.18207 3.66574 3.18207 3.6671 3.18207 3.66846C3.18207 3.66982 3.18207 3.67118 3.18207 3.67254C3.18207 3.6739 3.18207 3.67526 3.18207 3.67662C3.18207 3.67798 3.18207 3.67934 3.18207 3.6807C3.18207 3.68206 3.18207 3.68342 3.18207 3.68478C3.18207 3.68614 3.18207 3.6875 3.18207 3.68886C3.18207 3.69022 3.18207 3.69158 3.18207 3.69294C3.18207 3.6943 3.18207 3.69565 3.18207 3.69701C3.18207 3.69837 3.18207 3.69973 3.18207 3.70109C3.18207 3.70245 3.18207 3.70381 3.18207 3.70517C3.18207 3.70653 3.18207 3.70789 3.18207 3.70925C3.18207 3.71061 3.18207 3.71197 3.18207 3.71332C3.18207 3.71468 3.18207 3.71604 3.18207 3.7174C3.18207 3.71876 3.18207 3.72012 3.18207 3.72148C3.18207 3.72284 3.18207 3.7242 3.18207 3.72555C3.18207 3.72691 3.18207 3.72827 3.18207 3.72963C3.18207 3.73099 3.18207 3.73235 3.18207 3.73371C3.18207 3.73506 3.18207 3.73642 3.18207 3.73778C3.18207 3.73914 3.18207 3.7405 3.18207 3.74186C3.18207 3.74322 3.18207 3.74457 3.18207 3.74593C3.18207 3.74729 3.18207 3.74865 3.18207 3.75001C3.18207 3.75136 3.18207 3.75272 3.18207 3.75408C3.18207 3.75544 3.18207 3.7568 3.18207 3.75815C3.18207 3.75951 3.18207 3.76087 3.18207 3.76223C3.18207 3.76358 3.18207 3.76494 3.18207 3.7663C3.18207 3.76766 3.18207 3.76902 3.18207 3.77037C3.18207 3.77173 3.18207 3.77309 3.18207 3.77445C3.18207 3.7758 3.18207 3.77716 3.18207 3.77852C3.18207 3.77988 3.18207 3.78123 3.18207 3.78259C3.18207 3.78395 3.18207 3.7853 3.18207 3.78666C3.18207 3.78802 3.18207 3.78937 3.18207 3.79073C3.18207 3.79209 3.18207 3.79344 3.18207 3.7948C3.18207 3.79616 3.18207 3.79752 3.18207 3.79887C3.18207 3.80023 3.18207 3.80159 3.18207 3.80294C3.18207 3.8043 3.18207 3.80566 3.18207 3.80701C3.18207 3.80837 3.18207 3.80973 3.18207 3.81108C3.18207 3.81244 3.18207 3.8138 3.18207 3.81515C3.18207 3.81651 3.18207 3.81787 3.18207 3.81922C3.18207 3.82058 3.18207 3.82193 3.18207 3.82329C3.18207 3.82465 3.18207 3.826 3.18207 3.82736C3.18207 3.82872 3.18207 3.83007 3.18207 3.83143C3.18207 3.83278 3.18207 3.83414 3.18207 3.83549C3.18207 3.83685 3.18207 3.83821 3.18207 3.83956C3.18207 3.84092 3.18207 3.84227 3.18207 3.84363C3.18207 3.84499 3.18207 3.84634 3.18207 3.8477C3.18207 3.84905 3.18207 3.85041 3.18207 3.85176C3.18207 3.85312 3.18207 3.85447 3.18207 3.85583C3.18207 3.85718 3.18207 3.85854 3.18207 3.8599C3.18207 3.86125 3.18207 3.86261 3.18207 3.86396C3.18207 3.86532 3.18207 3.86667 3.18207 3.86803C3.18207 3.86938 3.18207 3.87073 3.18207 3.87209C3.18207 3.87345 3.18207 3.8748 3.18207 3.87615C3.18207 3.87751 3.18207 3.87886 3.18207 3.88022C3.18207 3.88158 3.18207 3.88293 3.18207 3.88428C3.18207 3.88564 3.18207 3.88699 3.18207 3.88835C3.18207 3.8897 3.18207 3.89106 3.18207 3.89241C3.18207 3.89376 3.18207 3.89512 3.18207 3.89648C3.18207 3.89783 3.18207 3.89918 3.18207 3.90054C3.18207 3.90189 3.18207 3.90325 3.18207 3.9046C3.18207 3.90595 3.18207 3.90731 3.18207 3.90866C3.18207 3.91001 3.18207 3.91137 3.18207 3.91272C3.18207 3.91408 3.18207 3.91543 3.18207 3.91679C3.18207 3.91814 3.18207 3.91949 3.18207 3.92084C3.18207 3.9222 3.18207 3.92355 3.18207 3.92491C3.18207 3.92626 3.18207 3.92762 3.18207 3.92897C3.18207 3.93032 3.18207 3.93167 3.18207 3.93303C3.18207 3.93438 3.18207 3.93573 3.18207 3.93709C3.18207 3.93844 3.18207 3.9398 3.18207 3.94115C3.18207 3.9425 3.18207 3.94385 3.18207 3.94521C3.18207 3.94656 3.18207 3.94791 3.18207 3.94927C3.18207 3.95062 3.18207 3.95197 3.18207 3.95333C3.18207 3.95468 3.18207 3.95603 3.18207 3.95738C3.18207 3.95874 3.18207 3.96009 3.18207 3.96144C3.18207 3.96279 3.18207 3.96414 3.18207 3.9655C3.18207 3.96685 3.18207 3.9682 3.18207 3.96956C3.18207 3.97091 3.18207 3.97226 3.18207 3.97361C3.18207 3.97497 3.18207 3.97632 3.18207 3.97767C3.18207 3.97902 3.18207 3.98038 3.18207 3.98173C3.18207 3.98308 3.18207 3.98443 3.18207 3.98578C3.18207 3.98714 3.18207 3.98849 3.18207 3.98984C3.18207 3.99119 3.18207 3.99254 3.18207 3.9939C3.18207 3.99525 3.18207 3.9966 3.18207 3.99795C3.18207 3.9993 3.18207 4.00066 3.18207 4.00201C3.18207 4.00336 3.18207 4.00471 3.18207 4.00606C3.18207 4.00741 3.18207 4.00876 3.18207 4.01012C3.18207 4.01147 3.18207 4.01282 3.18207 4.01417C3.18207 4.01552 3.18207 4.01687 3.18207 4.01822C3.18207 4.01957 3.18207 4.02092 3.18207 4.02228C3.18207 4.02363 3.18207 4.02498 3.18207 4.02633C3.18207 4.02768 3.18207 4.02903 3.18207 4.03038C3.18207 4.03173 3.18207 4.03308 3.18207 4.03443C3.18207 4.03578 3.18207 4.03714 3.18207 4.03849C3.18207 4.03984 3.18207 4.04119 3.18207 4.04254C3.18207 4.04389 3.18207 4.04524 3.18207 4.04659C3.18207 4.04794 3.18207 4.04929 3.18207 4.05064C3.18207 4.05199 3.18207 4.05334 3.18207 4.05469C3.18207 4.05604 3.18207 4.05739 3.18207 4.05874C3.18207 4.06009 3.18207 4.06144 3.18207 4.06279C3.18207 4.06414 3.18207 4.06549 3.18207 4.06684C3.18207 4.06819 3.18207 4.06954 3.18207 4.07089C3.18207 4.07224 3.18207 4.07359 3.18207 4.07494C3.18207 4.07629 3.18207 4.07764 3.18207 4.07899C3.18207 4.08034 3.18207 4.08169 3.18207 4.08304C3.18207 4.08439 3.18207 4.08574 3.18207 4.08709C3.18207 4.08844 3.18207 4.08979 3.18207 4.09114C3.18207 4.09249 3.18207 4.09384 3.18207 4.09518C3.18207 4.09653 3.18207 4.09788 3.18207 4.09923C3.18207 4.10058 3.18207 4.10193 3.18207 4.10328C3.18207 4.10463 3.18207 4.10598 3.18207 4.10733C3.18207 4.10868 3.18207 4.11002 3.18207 4.11137C3.18207 4.11272 3.18207 4.11407 3.18207 4.11542C3.18207 4.11677 3.18207 4.11812 3.18207 4.11946C3.18207 4.12081 3.18207 4.12216 3.18207 4.12351C3.18207 4.12486 3.18207 4.12621 3.18207 4.12755C3.18207 4.12891 3.18207 4.13025 3.18207 4.1316C3.18207 4.13295 3.18207 4.1343 3.18207 4.13565C3.18207 4.137 3.18207 4.13834 3.18207 4.13969C3.18207 4.14104 3.18207 4.14239 3.18207 4.14374C3.18207 4.14508 3.18207 4.14643 3.18207 4.14778C3.18207 4.14913 3.18207 4.15047 3.18207 4.15182C3.18207 4.15317 3.18207 4.15452 3.18207 4.15587C3.18207 4.15721 3.18207 4.15856 3.18207 4.15991C3.18207 4.16126 3.18207 4.1626 3.18207 4.16395C3.18207 4.1653 3.18207 4.16665 3.18207 4.16799C3.18207 4.16934 3.18207 4.17069 3.18207 4.17203C3.18207 4.17338 3.18207 4.17473 3.18207 4.17608C3.18207 4.17742 3.18207 4.17877 3.18207 4.18012C3.18207 4.18147 3.18207 4.18281 3.18207 4.18416C3.18207 4.18551 3.18207 4.18685 3.18207 4.1882C3.18207 4.18955 3.18207 4.19089 3.18207 4.19224C3.18207 4.19359 3.18207 4.19493 3.18207 4.19628C3.18207 4.19763 3.18207 4.19897 3.18207 4.20032C3.18207 4.20167 3.18207 4.20301 3.18207 4.20436C3.18207 4.20571 3.18207 4.20705 3.18207 4.2084C3.18207 4.20975 3.18207 4.21109 3.18207 4.21244C3.18207 4.21379 3.18207 4.21513 3.18207 4.21648C3.18207 4.21783 3.18207 4.21917 3.18207 4.22052C3.18207 4.22186 3.18207 4.22321 3.18207 4.22456C3.18207 4.2259 3.18207 4.22725 3.18207 4.22859C3.18207 4.22994 3.18207 4.23128 3.18207 4.23263C3.18207 4.23398 3.18207 4.23532 3.18207 4.23667C3.18207 4.23801 3.18207 4.23936 3.18207 4.2407C3.18207 4.24205 3.18207 4.2434 3.18207 4.24474C3.18207 4.24609 3.18207 4.24743 3.18207 4.24878C3.18207 4.25012 3.18207 4.25147 3.18207 4.25281C3.18207 4.25416 3.18207 4.2555 3.18207 4.25685C3.18207 4.25819 3.18207 4.25954 3.18207 4.26088C3.18207 4.26223 3.18207 4.26358 3.18207 4.26492C3.18207 4.26626 3.18207 4.26761 3.18207 4.26895C3.18207 4.2703 3.18207 4.27164 3.18207 4.27299C3.18207 4.27433 3.18207 4.27568 3.18207 4.27702C3.18207 4.27837 3.18207 4.27971 3.18207 4.28105C3.18207 4.2824 3.18207 4.28374 3.18207 4.28509C3.18207 4.28643 3.18207 4.28778 3.18207 4.28912C3.18207 4.29047 3.18207 4.29181 3.18207 4.29315C3.18207 4.2945 3.18207 4.29584 3.18207 4.29719C3.18207 4.29853 3.18207 4.29988 3.18207 4.30122C3.18207 4.30257 3.18207 4.30391 3.18207 4.30525C3.18207 4.3066 3.18207 4.30794 3.18207 4.30928C3.18207 4.31063 3.18207 4.31197 3.18207 4.31332C3.18207 4.31466 3.18207 4.316 3.18207 4.31735C3.18207 4.31869 3.18207 4.32003 3.18207 4.32138C3.18207 4.32272 3.18207 4.32407 3.18207 4.32541C3.18207 4.32675 3.18207 4.32809 3.18207 4.32944C3.18207 4.33078 3.18207 4.33213 3.18207 4.33347C3.18207 4.33481 3.18207 4.33615 3.18207 4.3375C3.18207 4.33884 3.18207 4.34018 3.18207 4.34153C3.18207 4.34287 3.18207 4.34421 3.18207 4.34556C3.18207 4.3469 3.18207 4.34824 3.18207 4.34959C3.18207 4.35093 3.18207 4.35227 3.18207 4.35361C3.18207 4.35496 3.18207 4.3563 3.18207 4.35764C3.18207 4.35898 3.18207 4.36033 3.18207 4.36167C3.18207 4.36301 3.18207 4.36435 3.18207 4.3657C3.18207 4.36704 3.18207 4.36838 3.18207 4.36972C3.18207 4.37107 3.18207 4.37241 3.18207 4.37375C3.18207 4.37509 3.18207 4.37643 3.18207 4.37778C3.18207 4.37912 3.18207 4.38046 3.18207 4.3818C3.18207 4.38314 3.18207 4.38449 3.18207 4.38583C3.18207 4.38717 3.18207 4.38851 3.18207 4.38985C3.18207 4.3912 3.18207 4.39254 3.18207 4.39388C3.18207 4.39522 3.18207 4.39656 3.18207 4.39791C3.18207 4.39925 3.18207 4.40059 3.18207 4.40193C3.18207 4.40327 3.18207 4.40461 3.18207 4.40596C3.18207 4.40729 3.18207 4.40864 3.18207 4.40998C3.18207 4.41132 3.18207 4.41266 3.18207 4.414C3.18207 4.41534 3.18207 4.41668 3.18207 4.41803C3.18207 4.41937 3.18207 4.42071 3.18207 4.42205C3.18207 4.42339 3.18207 4.42473 3.18207 4.42607C3.18207 4.42741 3.18207 4.42875 3.18207 4.43009C3.18207 4.43143 3.18207 4.43278 3.18207 4.43412C3.18207 4.43546 3.18207 4.4368 3.18207 4.43814C3.18207 4.43948 3.18207 4.44082 3.18207 4.44216C3.18207 4.4435 3.18207 4.44484 3.18207 4.44618C3.18207 4.44752 3.18207 4.44886 3.18207 4.4502C3.18207 4.45154 3.18207 4.45288 3.18207 4.45422C3.18207 4.45556 3.18207 4.4569 3.18207 4.45824C3.18207 4.45958 3.18207 4.46093 3.18207 4.46226C3.18207 4.4636 3.18207 4.46494 3.18207 4.46628C3.18207 4.46762 3.18207 4.46896 3.18207 4.4703C3.18207 4.47164 3.18207 4.47298 3.18207 4.47432C3.18207 4.47566 3.18207 4.477 3.18207 4.47834C3.18207 4.47968 3.18207 4.48102 3.18207 4.48236C3.18207 4.4837 3.18207 4.48504 3.18207 4.48638C3.18207 4.48772 3.18207 4.48906 3.18207 4.4904C3.18207 4.49174 3.18207 4.49308 3.18207 4.49441C3.18207 4.49575 3.18207 4.49709 3.18207 4.49843C3.18207 4.49977 3.18207 4.50111 3.18207 4.50245C3.18207 4.50379 3.18207 4.50513 3.18207 4.50646C3.18207 4.5078 3.18207 4.50914 3.18207 4.51048C3.18207 4.51182 3.18207 4.51316 3.18207 4.5145C3.18207 4.51584 3.18207 4.51718 3.18207 4.51852C3.18207 4.51985 3.18207 4.52119 3.18207 4.52253C3.18207 4.52387 3.18207 4.52521 3.18207 4.52655C3.18207 4.52788 3.18207 4.52922 3.18207 4.53056C3.18207 4.5319 3.18207 4.53324 3.18207 4.53458C3.18207 4.53591 3.18207 4.53725 3.18207 4.53859C3.18207 4.53993 3.18207 4.54127 3.18207 4.54261C3.18207 4.54394 3.18207 4.54528 3.18207 4.54662C3.18207 4.54796 3.18207 4.54929 3.18207 4.55063C3.18207 4.55197 3.18207 4.55331 3.18207 4.55464C3.18207 4.55598 3.18207 4.55732 3.18207 4.55866C3.18207 4.56 3.18207 4.56133 3.18207 4.56267C3.18207 4.56401 3.18207 4.56534 3.18207 4.56668C3.18207 4.56802 3.18207 4.56936 3.18207 4.5707C3.18207 4.57203 3.18207 4.57337 3.18207 4.57471C3.18207 4.57605 3.18207 4.57738 3.18207 4.57872C3.18207 4.58005 3.18207 4.58139 3.18207 4.58273C3.18207 4.58407 3.18207 4.5854 3.18207 4.58674C3.18207 4.58808 3.18207 4.58942 3.18207 4.59075C3.18207 4.59209 3.18207 4.59342 3.18207 4.59476C3.18207 4.5961 3.18207 4.59743 3.18207 4.59877C3.18207 4.60011 3.18207 4.60144 3.18207 4.60278C3.18207 4.60412 3.18207 4.60545 3.18207 4.60679C3.18207 4.60813 3.18207 4.60946 3.18207 4.6108C3.18207 4.61214 3.18207 4.61347 3.18207 4.61481C3.18207 4.61615 3.18207 4.61748 3.18207 4.61882C3.18207 4.62015 3.18207 4.62149 3.18207 4.62282C3.18207 4.99434 3.18207 5.27412 3.18207 5.63935L3.68207 5.63935ZM3.68206 1.53064L4.18206 1.53064C4.18206 1.16853 4.18206 0.869035 4.18206 0.499914L3.68206 0.499914L3.18206 0.499915C3.18206 0.869037 3.18206 1.16853 3.18206 1.53064L3.68206 1.53064Z" fill="#00D0FF"/>
</svg>
