<svg width="19" height="30" viewBox="0 0 19 30" fill="none" xmlns="http://www.w3.org/2000/svg">
<path d="M1.06212 0.545273C1.08735 0.270285 0.884884 0.0269109 0.609897 0.00168091C0.334909 -0.023549 0.0915349 0.178919 0.0663051 0.453907L0.564214 0.49959L1.06212 0.545273ZM18.5734 26.3944L13.7182 23.2702L13.4402 29.037L18.5734 26.3944ZM0.000294638 1.44372C-0.0114192 1.71962 0.202741 1.95277 0.478635 1.96448C0.754528 1.9762 0.987681 1.76204 0.999394 1.48614L0.499845 1.46493L0.000294638 1.44372ZM1.00309 3.3769C0.990926 3.10103 0.757426 2.88724 0.481552 2.89941C0.205678 2.91157 -0.00810337 3.14507 0.0040589 3.42094L0.503574 3.39892L1.00309 3.3769ZM0.166675 5.38628C0.19963 5.66045 0.448604 5.85599 0.722773 5.82303C0.996942 5.79008 1.19248 5.5411 1.15953 5.26693L0.663102 5.32661L0.166675 5.38628ZM1.45183 7.1452C1.40016 6.87393 1.13837 6.69592 0.867108 6.74759C0.595843 6.79925 0.417826 7.06105 0.469495 7.33231L0.960664 7.23875L1.45183 7.1452ZM0.900322 9.25276C0.969348 9.52014 1.24206 9.68093 1.50943 9.61191C1.77681 9.54288 1.9376 9.27017 1.86858 9.0028L1.38445 9.12778L0.900322 9.25276ZM2.40212 10.8312C2.31656 10.5686 2.03436 10.4251 1.77181 10.5107C1.50925 10.5963 1.36577 10.8785 1.45133 11.141L1.92672 10.9861L2.40212 10.8312ZM2.11813 12.9905C2.21982 13.2473 2.51038 13.373 2.76712 13.2713C3.02386 13.1696 3.14955 12.879 3.04786 12.6223L2.583 12.8064L2.11813 12.9905ZM3.80443 14.3693C3.68666 14.1196 3.38872 14.0126 3.13895 14.1303C2.88918 14.2481 2.78217 14.5461 2.89993 14.7958L3.35218 14.5826L3.80443 14.3693ZM3.79742 16.5475C3.9315 16.7889 4.23589 16.8759 4.4773 16.7418C4.7187 16.6078 4.80571 16.3034 4.67163 16.062L4.23452 16.3047L3.79742 16.5475ZM5.65186 17.6898C5.501 17.4585 5.1912 17.3933 4.95991 17.5441C4.72863 17.695 4.66343 18.0048 4.8143 18.2361L5.23308 17.9629L5.65186 17.6898ZM5.955 19.8473C6.12328 20.0663 6.43719 20.1073 6.65613 19.939C6.87507 19.7707 6.91614 19.4568 6.74785 19.2379L6.35142 19.5426L5.955 19.8473ZM7.96275 20.6882C7.77637 20.4844 7.4601 20.4703 7.25634 20.6567C7.05258 20.8431 7.0385 21.1593 7.22488 21.3631L7.59381 21.0256L7.96275 20.6882ZM8.62975 22.7611C8.83477 22.9461 9.15093 22.9298 9.33593 22.7248C9.52093 22.5198 9.50471 22.2036 9.29969 22.0186L8.96472 22.3898L8.62975 22.7611ZM10.7611 23.2035C10.5374 23.0417 10.2248 23.0918 10.0629 23.3156C9.90108 23.5393 9.95125 23.8519 10.175 24.0138L10.468 23.6086L10.7611 23.2035ZM11.8577 25.085C12.0993 25.2187 12.4036 25.1312 12.5373 24.8896C12.671 24.6479 12.5835 24.3437 12.3419 24.21L12.0998 24.6475L11.8577 25.085ZM14.0312 25.0049C13.774 24.9045 13.484 25.0316 13.3836 25.2888C13.2832 25.546 13.4103 25.836 13.6675 25.9364L13.8494 25.4707L14.0312 25.0049ZM15.5813 26.5319C15.8502 26.5949 16.1192 26.4279 16.1821 26.1591C16.2451 25.8902 16.0781 25.6212 15.8093 25.5583L15.6953 26.0451L15.5813 26.5319ZM17.6477 25.8495C17.3725 25.8263 17.1306 26.0305 17.1074 26.3056C17.0842 26.5808 17.2884 26.8227 17.5635 26.8459L17.6056 26.3477L17.6477 25.8495ZM0.564214 0.49959L0.0663051 0.453907C0.0364391 0.779423 0.0144822 1.10957 0.000294638 1.44372L0.499845 1.46493L0.999394 1.48614C1.01291 1.16777 1.0338 0.853953 1.06212 0.545273L0.564214 0.49959ZM0.503574 3.39892L0.0040589 3.42094C0.0325434 4.06705 0.0870033 4.72346 0.166675 5.38628L0.663102 5.32661L1.15953 5.26693C1.08274 4.6281 1.03042 3.99683 1.00309 3.3769L0.503574 3.39892ZM0.960664 7.23875L0.469495 7.33231C0.591119 7.97083 0.734922 8.61208 0.900322 9.25276L1.38445 9.12778L1.86858 9.0028C1.70847 8.38262 1.56938 7.76232 1.45183 7.1452L0.960664 7.23875ZM1.92672 10.9861L1.45133 11.141C1.65368 11.762 1.87612 12.3795 2.11813 12.9905L2.583 12.8064L3.04786 12.6223C2.81353 12.0307 2.59811 11.4326 2.40212 10.8312L1.92672 10.9861ZM3.35218 14.5826L2.89993 14.7958C3.18014 15.3901 3.47946 15.975 3.79742 16.5475L4.23452 16.3047L4.67163 16.062C4.36469 15.5093 4.07544 14.9441 3.80443 14.3693L3.35218 14.5826ZM5.23308 17.9629L4.8143 18.2361C5.17573 18.7902 5.55612 19.3284 5.955 19.8473L6.35142 19.5426L6.74785 19.2379C6.36532 18.7402 5.99979 18.2231 5.65186 17.6898L5.23308 17.9629ZM7.59381 21.0256L7.22488 21.3631C7.67402 21.8541 8.14249 22.3214 8.62975 22.7611L8.96472 22.3898L9.29969 22.0186C8.83731 21.6014 8.39144 21.1568 7.96275 20.6882L7.59381 21.0256ZM10.468 23.6086L10.175 24.0138C10.7165 24.4055 11.2776 24.764 11.8577 25.085L12.0998 24.6475L12.3419 24.21C11.7987 23.9094 11.2716 23.5728 10.7611 23.2035L10.468 23.6086ZM13.8494 25.4707L13.6675 25.9364C14.2875 26.1785 14.9257 26.3784 15.5813 26.5319L15.6953 26.0451L15.8093 25.5583C15.2012 25.4159 14.6083 25.2303 14.0312 25.0049L13.8494 25.4707Z" fill="#00D0FF"/>
</svg>
