<svg width="25" height="69" viewBox="0 0 25 69" fill="none" xmlns="http://www.w3.org/2000/svg">
<path d="M7.23773 68.0987C7.36879 68.3417 7.27799 68.645 7.03493 68.7761C6.79187 68.9071 6.48859 68.8163 6.35753 68.5733L6.79763 68.336L7.23773 68.0987ZM24.5861 1.0425L20.844 5.43913L18.9074 9.77888e-05L24.5861 1.0425ZM5.90084 67.7025C5.77536 67.4565 5.87305 67.1554 6.11903 67.0299C6.36502 66.9044 6.66615 67.0021 6.79163 67.2481L6.34624 67.4753L5.90084 67.7025ZM5.95078 65.506C6.06544 65.7572 5.95473 66.0538 5.70351 66.1685C5.4523 66.2831 5.1557 66.1724 5.04105 65.9212L5.49592 65.7136L5.95078 65.506ZM4.25731 64.1056C4.15302 63.8499 4.27575 63.5581 4.53144 63.4538C4.78713 63.3495 5.07896 63.4723 5.18325 63.728L4.72028 63.9168L4.25731 64.1056ZM4.48623 61.9191C4.58057 62.1786 4.44666 62.4655 4.18714 62.5598C3.92761 62.6542 3.64074 62.5203 3.5464 62.2607L4.01631 62.0899L4.48623 61.9191ZM2.90736 60.3964C2.82258 60.1336 2.9669 59.8519 3.22971 59.7671C3.49251 59.6823 3.77429 59.8266 3.85907 60.0894L3.38322 60.2429L2.90736 60.3964ZM3.2972 58.2363C3.37271 58.5019 3.21859 58.7785 2.95297 58.854C2.68735 58.9295 2.41082 58.7754 2.33531 58.5097L2.81625 58.373L3.2972 58.2363ZM1.82838 56.6038C1.7619 56.3357 1.92528 56.0646 2.1933 55.9981C2.46132 55.9316 2.73249 56.095 2.79897 56.363L2.31367 56.4834L1.82838 56.6038ZM2.36307 54.4727C2.42071 54.7427 2.24851 55.0084 1.97845 55.066C1.70839 55.1237 1.44274 54.9515 1.3851 54.6814L1.87408 54.577L2.36307 54.4727ZM1.00433 52.7454C0.955379 52.4737 1.136 52.2137 1.40777 52.1647C1.67954 52.1158 1.93954 52.2964 1.98849 52.5682L1.49641 52.6568L1.00433 52.7454ZM1.67493 50.6552C1.71532 50.9284 1.52662 51.1826 1.25345 51.223C0.980274 51.2634 0.726081 51.0747 0.685689 50.8015L1.18031 50.7284L1.67493 50.6552ZM0.427845 48.8483C0.395952 48.574 0.592457 48.3258 0.866751 48.2939C1.14104 48.262 1.38926 48.4585 1.42115 48.7328L0.924499 48.7905L0.427845 48.8483ZM1.22683 46.8024C1.25025 47.0775 1.04619 47.3195 0.771043 47.343C0.495894 47.3664 0.253857 47.1623 0.230436 46.8872L0.728635 46.8448L1.22683 46.8024ZM0.0934944 44.9206C0.0785555 44.6448 0.289974 44.4092 0.565712 44.3943C0.841451 44.3793 1.07709 44.5907 1.09203 44.8665L0.592762 44.8935L0.0934944 44.9206ZM1.01698 42.9279C1.02339 43.204 0.804798 43.433 0.52873 43.4394C0.252661 43.4458 0.0236642 43.2272 0.0172481 42.9511L0.517113 42.9395L1.01698 42.9279ZM0.00209297 40.9806C0.00427706 40.7044 0.229899 40.4824 0.506033 40.4845C0.782167 40.4867 1.00425 40.7123 1.00206 40.9885L0.502077 40.9845L0.00209297 40.9806ZM1.04793 39.0493C1.03704 39.3252 0.804519 39.5401 0.528591 39.5292C0.252664 39.5183 0.0378154 39.2857 0.0487139 39.0098L0.548324 39.0295L1.04793 39.0493ZM0.158045 37.0414C0.1778 36.7659 0.417099 36.5587 0.692534 36.5784C0.967968 36.5982 1.17524 36.8375 1.15548 37.1129L0.656763 37.0771L0.158045 37.0414ZM1.32575 35.182C1.29696 35.4566 1.05099 35.6559 0.776349 35.6272C0.501711 35.5984 0.30241 35.3524 0.331195 35.0778L0.828471 35.1299L1.32575 35.182ZM0.569707 33.1197C0.607736 32.8462 0.86029 32.6553 1.1338 32.6934C1.40731 32.7314 1.59821 32.984 1.56018 33.2575L1.06494 33.1886L0.569707 33.1197ZM1.86028 31.3423C1.81277 31.6144 1.55374 31.7964 1.28171 31.7489C1.00969 31.7014 0.827683 31.4423 0.875193 31.1703L1.36774 31.2563L1.86028 31.3423ZM1.24936 29.2328C1.30661 28.9626 1.57202 28.79 1.84216 28.8473C2.1123 28.9045 2.28488 29.1699 2.22763 29.4401L1.7385 29.3364L1.24936 29.2328ZM2.66399 27.554C2.59671 27.8218 2.32506 27.9844 2.05724 27.9171C1.78942 27.8498 1.62684 27.5782 1.69412 27.3103L2.17905 27.4321L2.66399 27.554ZM2.21176 25.4056C2.28937 25.1406 2.56712 24.9887 2.83213 25.0663C3.09715 25.1439 3.24907 25.4216 3.17146 25.6867L2.69161 25.5461L2.21176 25.4056ZM3.75284 23.8398C3.66456 24.1015 3.38089 24.2421 3.11924 24.1538C2.85759 24.0655 2.71703 23.7818 2.80531 23.5202L3.27907 23.68L3.75284 23.8398ZM3.47642 21.6607C3.57568 21.4031 3.86505 21.2746 4.12273 21.3739C4.38042 21.4732 4.50884 21.7625 4.40958 22.0202L3.943 21.8405L3.47642 21.6607ZM5.14378 20.2323C5.03321 20.4853 4.73844 20.6008 4.4854 20.4903C4.23236 20.3797 4.11687 20.0849 4.22744 19.8319L4.68561 20.0321L5.14378 20.2323ZM5.06069 18.0386C5.18287 17.791 5.48267 17.6893 5.73031 17.8114C5.97795 17.9336 6.07966 18.2334 5.95748 18.4811L5.50908 18.2598L5.06069 18.0386ZM6.85293 16.7712C6.71887 17.0126 6.41449 17.0997 6.17307 16.9656C5.93165 16.8315 5.84462 16.5272 5.97868 16.2857L6.41581 16.5285L6.85293 16.7712ZM6.98405 14.5783C7.13022 14.344 7.43864 14.2726 7.67293 14.4188C7.90721 14.565 7.97864 14.8734 7.83248 15.1077L7.40827 14.843L6.98405 14.5783ZM8.89612 13.4989C8.73771 13.7251 8.42593 13.7801 8.19974 13.6216C7.97355 13.4632 7.91861 13.1515 8.07702 12.9253L8.48657 13.2121L8.89612 13.4989ZM9.25835 11.3335C9.42903 11.1164 9.74337 11.0788 9.96045 11.2495C10.1775 11.4202 10.2151 11.7345 10.0445 11.9516L9.6514 11.6425L9.25835 11.3335ZM11.2775 10.4723C11.0946 10.6792 10.7787 10.6987 10.5717 10.5158C10.3648 10.333 10.3453 10.017 10.5282 9.81008L10.9028 10.1412L11.2775 10.4723ZM11.8858 8.36223C12.0806 8.16651 12.3972 8.16577 12.5929 8.36058C12.7887 8.55538 12.7894 8.87196 12.5946 9.06768L12.2402 8.71496L11.8858 8.36223ZM13.9929 7.74551C13.7865 7.92903 13.4705 7.91052 13.287 7.70417C13.1035 7.49783 13.122 7.18179 13.3283 6.99827L13.6606 7.37189L13.9929 7.74551ZM14.8512 5.72586C15.0685 5.55547 15.3828 5.5935 15.5532 5.8108C15.7236 6.0281 15.6856 6.34239 15.4683 6.51279L15.1597 6.11933L14.8512 5.72586ZM17.0173 5.37446C16.7897 5.53094 16.4784 5.47335 16.322 5.24582C16.1655 5.01829 16.2231 4.70699 16.4506 4.55051L16.7339 4.96249L17.0173 5.37446ZM18.1215 3.47694C18.3584 3.33501 18.6654 3.41199 18.8074 3.64887C18.9493 3.88575 18.8723 4.19283 18.6354 4.33476L18.3785 3.90585L18.1215 3.47694ZM20.3181 3.3967C20.0728 3.5236 19.7711 3.42766 19.6442 3.1824C19.5173 2.93715 19.6133 2.63545 19.8585 2.50855L20.0883 2.95262L20.3181 3.3967ZM21.6482 1.65105C21.9008 1.53937 22.196 1.65358 22.3077 1.90614C22.4194 2.15869 22.3052 2.45396 22.0526 2.56563L21.8504 2.10835L21.6482 1.65105ZM23.8315 1.84184C23.5728 1.93829 23.2848 1.80672 23.1884 1.54797C23.0919 1.28922 23.2235 1.00127 23.4822 0.904824L23.6569 1.37333L23.8315 1.84184ZM6.79763 68.336L6.35753 68.5733C6.20267 68.2861 6.05044 67.9958 5.90084 67.7025L6.34624 67.4753L6.79163 67.2481C6.93782 67.5347 7.08653 67.8182 7.23773 68.0987L6.79763 68.336ZM5.49592 65.7136L5.04105 65.9212C4.7695 65.3262 4.5082 64.7207 4.25731 64.1056L4.72028 63.9168L5.18325 63.728C5.42911 64.3307 5.68502 64.9237 5.95078 65.506L5.49592 65.7136ZM4.01631 62.0899L3.5464 62.2607C3.3234 61.6473 3.11033 61.0256 2.90736 60.3964L3.38322 60.2429L3.85907 60.0894C4.05835 60.7072 4.26747 61.3173 4.48623 61.9191L4.01631 62.0899ZM2.81625 58.373L2.33531 58.5097C2.15646 57.8806 1.98743 57.245 1.82838 56.6038L2.31367 56.4834L2.79897 56.363C2.95534 56.9935 3.12147 57.6181 3.2972 58.2363L2.81625 58.373ZM1.87408 54.577L1.3851 54.6814C1.24834 54.0407 1.12137 53.3951 1.00433 52.7454L1.49641 52.6568L1.98849 52.5682C2.10365 53.2074 2.22856 53.8425 2.36307 54.4727L1.87408 54.577ZM1.18031 50.7284L0.685689 50.8015C0.589888 50.1536 0.50389 49.5023 0.427845 48.8483L0.924499 48.7905L1.42115 48.7328C1.49601 49.3765 1.58065 50.0176 1.67493 50.6552L1.18031 50.7284ZM0.728635 46.8448L0.230436 46.8872C0.174794 46.2335 0.129096 45.5777 0.0934944 44.9206L0.592762 44.8935L1.09203 44.8665C1.12707 45.5134 1.17206 46.1589 1.22683 46.8024L0.728635 46.8448ZM0.517113 42.9395L0.0172481 42.9511C0.00199572 42.2948 -0.0031038 41.6378 0.00209297 40.9806L0.502077 40.9845L1.00206 40.9885C0.996948 41.6352 1.00197 42.2819 1.01698 42.9279L0.517113 42.9395ZM0.548324 39.0295L0.0487139 39.0098C0.0746565 38.3529 0.111051 37.6966 0.158045 37.0414L0.656763 37.0771L1.15548 37.1129C1.10926 37.7573 1.07346 38.403 1.04793 39.0493L0.548324 39.0295ZM0.828471 35.1299L0.331195 35.0778C0.399814 34.4231 0.479269 33.7702 0.569707 33.1197L1.06494 33.1886L1.56018 33.2575C1.47131 33.8966 1.39321 34.5384 1.32575 35.182L0.828471 35.1299ZM1.36774 31.2563L0.875193 31.1703C0.988571 30.5211 1.11324 29.8751 1.24936 29.2328L1.7385 29.3364L2.22763 29.4401C2.09403 30.0705 1.97163 30.7048 1.86028 31.3423L1.36774 31.2563ZM2.17905 27.4321L1.69412 27.3103C1.85479 26.6707 2.02728 26.0356 2.21176 25.4056L2.69161 25.5461L3.17146 25.6867C2.99068 26.304 2.82157 26.9266 2.66399 27.554L2.17905 27.4321ZM3.27907 23.68L2.80531 23.5202C3.01651 22.8941 3.24016 22.2741 3.47642 21.6607L3.943 21.8405L4.40958 22.0202C4.17849 22.6201 3.95962 23.2269 3.75284 23.8398L3.27907 23.68ZM4.68561 20.0321L4.22744 19.8319C4.49205 19.2263 4.76974 18.6283 5.06069 18.0386L5.50908 18.2598L5.95748 18.4811C5.67351 19.0566 5.40233 19.6406 5.14378 20.2323L4.68561 20.0321ZM6.41581 16.5285L5.97868 16.2857C6.3 15.7071 6.63506 15.1377 6.98405 14.5783L7.40827 14.843L7.83248 15.1077C7.49265 15.6524 7.16618 16.2071 6.85293 16.7712L6.41581 16.5285ZM8.48657 13.2121L8.07702 12.9253C8.45644 12.3835 8.85016 11.8526 9.25835 11.3335L9.6514 11.6425L10.0445 11.9516C9.64788 12.4559 9.26516 12.972 8.89612 13.4989L8.48657 13.2121ZM10.9028 10.1412L10.5282 9.81008C10.966 9.31465 11.4185 8.83177 11.8858 8.36223L12.2402 8.71496L12.5946 9.06768C12.1414 9.523 11.7024 9.99144 11.2775 10.4723L10.9028 10.1412ZM13.6606 7.37189L13.3283 6.99827C13.8211 6.55997 14.3287 6.13557 14.8512 5.72586L15.1597 6.11933L15.4683 6.51279C14.9622 6.90963 14.4704 7.32077 13.9929 7.74551L13.6606 7.37189ZM16.7339 4.96249L16.4506 4.55051C16.993 4.17748 17.5499 3.81937 18.1215 3.47694L18.3785 3.90585L18.6354 4.33476C18.0819 4.66641 17.5425 5.01321 17.0173 5.37446L16.7339 4.96249ZM20.0883 2.95262L19.8585 2.50855C20.4412 2.20707 21.0377 1.92101 21.6482 1.65105L21.8504 2.10835L22.0526 2.56563C21.4607 2.82736 20.8826 3.1046 20.3181 3.3967L20.0883 2.95262Z" fill="#00D0FF"/>
</svg>
