<svg width="17" height="62" viewBox="0 0 17 62" fill="none" xmlns="http://www.w3.org/2000/svg">
<path d="M13.547 60.5756C13.4709 60.841 13.6243 61.1179 13.8897 61.1941C14.1552 61.2702 14.4321 61.1168 14.5082 60.8514L14.0276 60.7135L13.547 60.5756ZM-0.000165035 0.000361172L2.6042 5.15309L5.76441 0.321279L-0.000165035 0.000361172ZM14.7795 59.8601C14.8492 59.5929 14.6892 59.3198 14.422 59.2501C14.1548 59.1804 13.8816 59.3405 13.8119 59.6077L14.2957 59.7339L14.7795 59.8601ZM14.2804 57.6338C14.2223 57.9037 14.3941 58.1697 14.6641 58.2277C14.934 58.2858 15.2 58.114 15.258 57.8441L14.7692 57.7389L14.2804 57.6338ZM15.654 55.8129C15.7017 55.5409 15.52 55.2817 15.248 55.2339C14.9761 55.1861 14.7168 55.3678 14.669 55.6398L15.1615 55.7263L15.654 55.8129ZM14.9864 53.6317C14.9478 53.9052 15.1382 54.1581 15.4117 54.1967C15.6851 54.2352 15.938 54.0448 15.9766 53.7714L15.4815 53.7016L14.9864 53.6317ZM16.233 51.7227C16.2632 51.4482 16.0651 51.2012 15.7906 51.1711C15.5161 51.141 15.2692 51.3391 15.239 51.6135L15.736 51.6681L16.233 51.7227ZM15.432 49.5881C15.4096 49.8633 15.6147 50.1046 15.8899 50.1269C16.1651 50.1492 16.4064 49.9442 16.4287 49.6689L15.9303 49.6285L15.432 49.5881ZM16.5677 47.6117C16.5826 47.336 16.3712 47.1003 16.0955 47.0853C15.8198 47.0704 15.5841 47.2818 15.5691 47.5575L16.0684 47.5846L16.5677 47.6117ZM15.6535 45.5234C15.6455 45.7994 15.8628 46.0296 16.1389 46.0376C16.4149 46.0456 16.6451 45.8283 16.6531 45.5522L16.1533 45.5378L15.6535 45.5234ZM16.6872 43.4917C16.6885 43.2155 16.4656 42.9907 16.1895 42.9894C15.9133 42.9882 15.6885 43.2111 15.6873 43.4872L16.1873 43.4894L16.6872 43.4917ZM15.672 41.4503C15.6773 41.7264 15.9055 41.9459 16.1816 41.9405C16.4577 41.9352 16.6771 41.7071 16.6718 41.431L16.1719 41.4406L15.672 41.4503ZM16.6078 39.3712C16.5961 39.0953 16.3628 38.8812 16.087 38.893C15.8111 38.9048 15.597 39.138 15.6088 39.4139L16.1083 39.3925L16.6078 39.3712ZM15.4982 37.3792C15.5163 37.6548 15.7545 37.8634 16.03 37.8452C16.3055 37.827 16.5142 37.5889 16.496 37.3134L15.9971 37.3463L15.4982 37.3792ZM16.3364 35.2586C16.3118 34.9835 16.0689 34.7805 15.7939 34.8051C15.5188 34.8297 15.3158 35.0726 15.3404 35.3476L15.8384 35.3031L16.3364 35.2586ZM15.1352 33.3204C15.1662 33.5948 15.4138 33.7921 15.6882 33.7611C15.9626 33.73 16.1599 33.4824 16.1289 33.208L15.632 33.2642L15.1352 33.3204ZM15.8728 31.1629C15.8352 30.8894 15.583 30.6981 15.3094 30.7357C15.0358 30.7733 14.8445 31.0255 14.8821 31.2991L15.3775 31.231L15.8728 31.1629ZM14.5802 29.2851C14.6245 29.5576 14.8814 29.7427 15.154 29.6984C15.4265 29.6541 15.6116 29.3972 15.5672 29.1246L15.0737 29.2049L14.5802 29.2851ZM15.2108 27.0946C15.1596 26.8232 14.8981 26.6448 14.6267 26.696C14.3554 26.7473 14.1769 27.0088 14.2282 27.2801L14.7195 27.1873L15.2108 27.0946ZM13.8242 25.2852C13.8826 25.5551 14.1488 25.7265 14.4187 25.6681C14.6886 25.6097 14.86 25.3435 14.8016 25.0736L14.3129 25.1794L13.8242 25.2852ZM14.3371 23.0632C14.2712 22.795 14.0003 22.6311 13.7322 22.6971C13.464 22.763 13.3001 23.0339 13.3661 23.302L13.8516 23.1826L14.3371 23.0632ZM12.8512 21.3336C12.9251 21.5997 13.2007 21.7555 13.4667 21.6816C13.7328 21.6077 13.8886 21.3322 13.8148 21.0661L13.333 21.1998L12.8512 21.3336ZM13.2312 19.085C13.149 18.8214 12.8686 18.6744 12.605 18.7566C12.3414 18.8389 12.1944 19.1192 12.2766 19.3828L12.7539 19.2339L13.2312 19.085ZM11.6387 17.4533C11.7299 17.7139 12.0151 17.8513 12.2758 17.7601C12.5364 17.6689 12.6738 17.3837 12.5826 17.123L12.1106 17.2882L11.6387 17.4533ZM11.8642 15.1841C11.7634 14.927 11.4733 14.8003 11.2162 14.9011C10.9591 15.0019 10.8324 15.292 10.9332 15.5491L11.3987 15.3666L11.8642 15.1841ZM10.1553 13.6754C10.2664 13.9282 10.5614 14.043 10.8142 13.9319C11.067 13.8208 11.1818 13.5258 11.0707 13.273L10.613 13.4742L10.1553 13.6754ZM10.196 11.3956C10.0738 11.148 9.77392 11.0464 9.52632 11.1687C9.27873 11.291 9.17713 11.5908 9.2994 11.8384L9.74771 11.617L10.196 11.3956ZM8.35944 10.0462C8.49382 10.2874 8.79832 10.374 9.03956 10.2396C9.2808 10.1052 9.36742 9.80075 9.23304 9.55951L8.79624 9.80283L8.35944 10.0462ZM8.17393 7.77416C8.02639 7.54073 7.71756 7.47111 7.48414 7.61864C7.25071 7.76617 7.18108 8.075 7.32861 8.30843L7.75127 8.0413L8.17393 7.77416ZM6.19981 6.63757C6.36158 6.86136 6.67415 6.91163 6.89794 6.74986C7.12174 6.58808 7.17201 6.27551 7.01023 6.05172L6.60502 6.34464L6.19981 6.63757ZM5.7332 4.4075C5.55611 4.19562 5.24079 4.16742 5.02891 4.34451C4.81703 4.5216 4.78883 4.83693 4.96592 5.04881L5.34956 4.72815L5.7332 4.4075ZM3.61905 3.5592C3.8124 3.75635 4.12897 3.75943 4.32612 3.56607C4.52328 3.37272 4.52636 3.05615 4.333 2.859L3.97603 3.2091L3.61905 3.5592ZM2.80201 1.42937C2.59179 1.2503 2.27622 1.27555 2.09715 1.48577C1.91809 1.69598 1.94334 2.01155 2.15356 2.19062L2.47778 1.80999L2.80201 1.42937ZM0.570579 0.97089C0.79759 1.12812 1.10908 1.07155 1.26631 0.844536C1.42353 0.617527 1.36696 0.306039 1.13995 0.148813L0.855266 0.559851L0.570579 0.97089ZM14.0276 60.7135L14.5082 60.8514C14.6016 60.5259 14.692 60.1954 14.7795 59.8601L14.2957 59.7339L13.8119 59.6077C13.7264 59.9354 13.6381 60.2581 13.547 60.5756L14.0276 60.7135ZM14.7692 57.7389L15.258 57.8441C15.4005 57.1818 15.5325 56.5042 15.654 55.8129L15.1615 55.7263L14.669 55.6398C14.5497 56.3193 14.42 56.9844 14.2804 57.6338L14.7692 57.7389ZM15.4815 53.7016L15.9766 53.7714C16.0714 53.099 16.157 52.4156 16.233 51.7227L15.736 51.6681L15.239 51.6135C15.164 52.2966 15.0798 52.9697 14.9864 53.6317L15.4815 53.7016ZM15.9303 49.6285L16.4287 49.6689C16.4837 48.9905 16.5301 48.3044 16.5677 47.6117L16.0684 47.5846L15.5691 47.5575C15.532 48.2415 15.4862 48.9187 15.432 49.5881L15.9303 49.6285ZM16.1533 45.5378L16.6531 45.5522C16.6728 44.8702 16.6842 44.183 16.6872 43.4917L16.1873 43.4894L15.6873 43.4872C15.6842 44.1705 15.6729 44.8496 15.6535 45.5234L16.1533 45.5378ZM16.1719 41.4406L16.6718 41.431C16.6586 40.7471 16.6373 40.0602 16.6078 39.3712L16.1083 39.3925L15.6088 39.4139C15.6379 40.0951 15.6589 40.7743 15.672 41.4503L16.1719 41.4406ZM15.9971 37.3463L16.496 37.3134C16.4508 36.6293 16.3977 35.9441 16.3364 35.2586L15.8384 35.3031L15.3404 35.3476C15.4009 36.0254 15.4535 36.7029 15.4982 37.3792L15.9971 37.3463ZM15.632 33.2642L16.1289 33.208C16.0516 32.5254 15.9663 31.8434 15.8728 31.1629L15.3775 31.231L14.8821 31.2991C14.9745 31.9716 15.0589 32.6457 15.1352 33.3204L15.632 33.2642ZM15.0737 29.2049L15.5672 29.1246C15.4568 28.4452 15.338 27.7683 15.2108 27.0946L14.7195 27.1873L14.2282 27.2801C14.3538 27.9453 14.4711 28.6139 14.5802 29.2851L15.0737 29.2049ZM14.3129 25.1794L14.8016 25.0736C14.6555 24.3989 14.5007 23.7284 14.3371 23.0632L13.8516 23.1826L13.3661 23.302C13.5274 23.958 13.6801 24.6193 13.8242 25.2852L14.3129 25.1794ZM13.333 21.1998L13.8148 21.0661C13.6296 20.3989 13.4351 19.7382 13.2312 19.085L12.7539 19.2339L12.2766 19.3828C12.4772 20.0257 12.6687 20.6763 12.8512 21.3336L13.333 21.1998ZM12.1106 17.2882L12.5826 17.123C12.3532 16.4674 12.1138 15.8208 11.8642 15.1841L11.3987 15.3666L10.9332 15.5491C11.1781 16.1738 11.4132 16.8089 11.6387 17.4533L12.1106 17.2882ZM10.613 13.4742L11.0707 13.273C10.7903 12.6349 10.4987 12.0086 10.196 11.3956L9.74771 11.617L9.2994 11.8384C9.59527 12.4376 9.88053 13.0503 10.1553 13.6754L10.613 13.4742ZM8.79624 9.80283L9.23304 9.55951C8.89249 8.94817 8.5395 8.35257 8.17393 7.77416L7.75127 8.0413L7.32861 8.30843C7.68388 8.87053 8.02746 9.45021 8.35944 10.0462L8.79624 9.80283ZM6.60502 6.34464L7.01023 6.05172C6.59878 5.48254 6.17317 4.93388 5.7332 4.4075L5.34956 4.72815L4.96592 5.04881C5.39014 5.55636 5.80141 6.08644 6.19981 6.63757L6.60502 6.34464ZM3.97603 3.2091L4.333 2.859C3.83892 2.35521 3.32866 1.87797 2.80201 1.42937L2.47778 1.80999L2.15356 2.19062C2.65643 2.61898 3.1449 3.07573 3.61905 3.5592L3.97603 3.2091Z" fill="#00D0FF"/>
</svg>
