<svg width="34" height="34" viewBox="0 0 34 34" fill="none" xmlns="http://www.w3.org/2000/svg">
<rect x="1.08317" y="1.08366" width="32.5" height="32.5" rx="16.25" fill="white"/>
<rect x="1.08317" y="1.08366" width="32.5" height="32.5" rx="16.25" stroke="#D9D9D9" stroke-width="0.833333"/>
<path d="M10.6665 15.4158C10.6665 15.2007 10.6665 15.0932 10.6762 15.0026C10.7702 14.1288 11.5207 13.4377 12.4693 13.3511C12.5677 13.3421 12.6907 13.3421 12.9369 13.3421C13.0317 13.3421 13.0792 13.3421 13.1194 13.3399C13.6336 13.3112 14.0838 13.0123 14.2759 12.5721C14.291 12.5376 14.305 12.4988 14.3332 12.4211C14.3613 12.3433 14.3754 12.3045 14.3904 12.27C14.5825 11.8298 15.0328 11.5309 15.5469 11.5022C15.5872 11.5 15.6317 11.5 15.7206 11.5H18.9457C19.0347 11.5 19.0792 11.5 19.1194 11.5022C19.6336 11.5309 20.0838 11.8298 20.2759 12.27C20.291 12.3045 20.305 12.3433 20.3332 12.4211C20.3613 12.4988 20.3754 12.5376 20.3904 12.5721C20.5825 13.0123 21.0328 13.3112 21.5469 13.3399C21.5872 13.3421 21.6346 13.3421 21.7294 13.3421C21.9756 13.3421 22.0987 13.3421 22.197 13.3511C23.1457 13.4377 23.8961 14.1288 23.9901 15.0026C23.9998 15.0932 23.9998 15.2007 23.9998 15.4158V20.2193C23.9998 21.251 23.9998 21.7668 23.7818 22.1609C23.5901 22.5075 23.2841 22.7893 22.9078 22.9659C22.48 23.1667 21.9199 23.1667 20.7998 23.1667H13.8665C12.7464 23.1667 12.1863 23.1667 11.7585 22.9659C11.3822 22.7893 11.0762 22.5075 10.8845 22.1609C10.6665 21.7668 10.6665 21.251 10.6665 20.2193V15.4158Z" fill="#404040"/>
<path d="M17.3332 20.4035C18.8059 20.4035 19.9998 19.3039 19.9998 17.9474C19.9998 16.5909 18.8059 15.4912 17.3332 15.4912C15.8604 15.4912 14.6665 16.5909 14.6665 17.9474C14.6665 19.3039 15.8604 20.4035 17.3332 20.4035Z" fill="#404040"/>
<path d="M10.6665 15.4158C10.6665 15.2007 10.6665 15.0932 10.6762 15.0026C10.7702 14.1288 11.5207 13.4377 12.4693 13.3511C12.5677 13.3421 12.6907 13.3421 12.9369 13.3421C13.0317 13.3421 13.0792 13.3421 13.1194 13.3399C13.6336 13.3112 14.0838 13.0123 14.2759 12.5721C14.291 12.5376 14.305 12.4988 14.3332 12.4211C14.3613 12.3433 14.3754 12.3045 14.3904 12.27C14.5825 11.8298 15.0328 11.5309 15.5469 11.5022C15.5872 11.5 15.6317 11.5 15.7206 11.5H18.9457C19.0347 11.5 19.0792 11.5 19.1194 11.5022C19.6336 11.5309 20.0838 11.8298 20.2759 12.27C20.291 12.3045 20.305 12.3433 20.3332 12.4211C20.3613 12.4988 20.3754 12.5376 20.3904 12.5721C20.5825 13.0123 21.0328 13.3112 21.5469 13.3399C21.5872 13.3421 21.6346 13.3421 21.7294 13.3421C21.9756 13.3421 22.0987 13.3421 22.197 13.3511C23.1457 13.4377 23.8961 14.1288 23.9901 15.0026C23.9998 15.0932 23.9998 15.2007 23.9998 15.4158V20.2193C23.9998 21.251 23.9998 21.7668 23.7818 22.1609C23.5901 22.5075 23.2841 22.7893 22.9078 22.9659C22.48 23.1667 21.9199 23.1667 20.7998 23.1667H13.8665C12.7464 23.1667 12.1863 23.1667 11.7585 22.9659C11.3822 22.7893 11.0762 22.5075 10.8845 22.1609C10.6665 21.7668 10.6665 21.251 10.6665 20.2193V15.4158Z" stroke="#404040" stroke-width="1.66667" stroke-linecap="round" stroke-linejoin="round"/>
<path d="M17.3332 20.4035C18.8059 20.4035 19.9998 19.3039 19.9998 17.9474C19.9998 16.5909 18.8059 15.4912 17.3332 15.4912C15.8604 15.4912 14.6665 16.5909 14.6665 17.9474C14.6665 19.3039 15.8604 20.4035 17.3332 20.4035Z" stroke="#404040" stroke-width="1.66667" stroke-linecap="round" stroke-linejoin="round"/>
<path d="M17.3333 21.2797C19.1743 21.2797 20.6667 19.8658 20.6667 18.1218C20.6667 16.3777 19.1743 14.9639 17.3333 14.9639C15.4924 14.9639 14 16.3777 14 18.1218C14 19.8658 15.4924 21.2797 17.3333 21.2797Z" fill="#404040" stroke="white" stroke-width="1.66667" stroke-linecap="round" stroke-linejoin="round"/>
</svg>
