<svg width="346" height="202" viewBox="0 0 346 202" fill="none" xmlns="http://www.w3.org/2000/svg">
<path d="M46.0232 41.9457C45.9423 42.2097 45.6627 42.3581 45.3987 42.2772C45.1346 42.1963 44.9862 41.9166 45.0671 41.6526L45.5452 41.7992L46.0232 41.9457ZM78.5284 11.0769L73.4629 13.8472L73.5965 8.07521L78.5284 11.0769ZM45.377 40.6984C45.4665 40.4372 45.7508 40.2979 46.012 40.3874C46.2733 40.4769 46.4125 40.7612 46.3231 41.0224L45.85 40.8604L45.377 40.6984ZM47.01 39.1924C46.9059 39.4481 46.6142 39.5711 46.3584 39.467C46.1027 39.3629 45.9797 39.0712 46.0838 38.8154L46.5469 39.0039L47.01 39.1924ZM46.8857 36.9761C47.002 36.7256 47.2993 36.6168 47.5498 36.7331C47.8003 36.8494 47.909 37.1467 47.7928 37.3972L47.3393 37.1866L46.8857 36.9761ZM48.6588 35.6325C48.532 35.8778 48.2304 35.9739 47.9851 35.8471C47.7398 35.7203 47.6437 35.4187 47.7705 35.1733L48.2147 35.4029L48.6588 35.6325ZM48.7228 33.4156C48.8589 33.1753 49.164 33.0909 49.4042 33.227C49.6445 33.3631 49.729 33.6682 49.5929 33.9084L49.1578 33.662L48.7228 33.4156ZM50.5922 32.216C50.4476 32.4513 50.1397 32.5248 49.9044 32.3803C49.6691 32.2357 49.5956 31.9278 49.7402 31.6925L50.1662 31.9543L50.5922 32.216ZM50.817 30.0052C50.9695 29.7749 51.2797 29.7119 51.5099 29.8643C51.7402 30.0168 51.8033 30.327 51.6508 30.5573L51.2339 30.2812L50.817 30.0052ZM52.7634 28.9354C52.6035 29.1605 52.2914 29.2134 52.0662 29.0535C51.8411 28.8936 51.7882 28.5815 51.9481 28.3563L52.3558 28.6458L52.7634 28.9354ZM53.1316 26.7457C53.2986 26.5258 53.6123 26.483 53.8322 26.65C54.052 26.8171 54.0949 27.1308 53.9278 27.3507L53.5297 27.0482L53.1316 26.7457ZM55.143 25.8037C54.9689 26.0181 54.654 26.0507 54.4397 25.8767C54.2253 25.7026 54.1926 25.3877 54.3667 25.1733L54.7549 25.4885L55.143 25.8037ZM55.6525 23.6417C55.8335 23.4332 56.1493 23.4109 56.3579 23.5919C56.5664 23.7729 56.5887 24.0887 56.4077 24.2972L56.0301 23.9695L55.6525 23.6417ZM57.7212 22.8344C57.5332 23.0367 57.2169 23.0483 57.0146 22.8604C56.8123 22.6724 56.8007 22.356 56.9886 22.1537L57.3549 22.4941L57.7212 22.8344ZM58.3765 20.7117C58.5715 20.5161 58.8881 20.5157 59.0836 20.7108C59.2791 20.9058 59.2795 21.2224 59.0845 21.4179L58.7305 21.0648L58.3765 20.7117ZM60.4978 20.0527C60.2956 20.2408 59.9792 20.2293 59.7912 20.027C59.6031 19.8248 59.6146 19.5085 59.8168 19.3204L60.1573 19.6866L60.4978 20.0527ZM61.3108 17.9859C61.5204 17.8061 61.8361 17.8304 62.0158 18.0401C62.1955 18.2497 62.1712 18.5654 61.9616 18.7451L61.6362 18.3655L61.3108 17.9859ZM63.4766 17.5024C63.2592 17.6728 62.9449 17.6346 62.7746 17.4172C62.6043 17.1999 62.6425 16.8856 62.8598 16.7153L63.1682 17.1089L63.4766 17.5024ZM64.4704 15.5145C64.6958 15.355 65.0078 15.4084 65.1673 15.6338C65.3269 15.8592 65.2734 16.1713 65.048 16.3308L64.7592 15.9226L64.4704 15.5145ZM66.6749 15.2435C66.4411 15.3905 66.1324 15.3202 65.9855 15.0864C65.8385 14.8526 65.9088 14.544 66.1426 14.397L66.4087 14.8203L66.6749 15.2435ZM67.8772 13.3781C68.1196 13.2458 68.4233 13.3351 68.5556 13.5775C68.6879 13.8199 68.5986 14.1237 68.3562 14.2559L68.1167 13.817L67.8772 13.3781ZM70.098 13.3823C69.8469 13.4971 69.5502 13.3865 69.4355 13.1353C69.3208 12.8841 69.4314 12.5875 69.6825 12.4727L69.8903 12.9275L70.098 13.3823ZM71.5558 11.7063C71.8155 11.6125 72.102 11.7471 72.1958 12.0069C72.2895 12.2666 72.1549 12.5532 71.8951 12.6469L71.7254 12.1766L71.5558 11.7063ZM73.7421 12.0763C73.4746 12.1448 73.2023 11.9834 73.1338 11.7159C73.0653 11.4483 73.2267 11.176 73.4942 11.1075L73.6182 11.5919L73.7421 12.0763ZM75.4939 10.7103C75.7674 10.672 76.0201 10.8627 76.0583 11.1361C76.0966 11.4096 75.906 11.6623 75.6325 11.7006L75.5632 11.2054L75.4939 10.7103ZM77.5437 11.554C77.2675 11.5571 77.0412 11.3358 77.038 11.0597C77.0349 10.7835 77.2562 10.5572 77.5323 10.554L77.538 11.054L77.5437 11.554ZM45.5452 41.7992L45.0671 41.6526C45.1637 41.3375 45.2671 41.0194 45.377 40.6984L45.85 40.8604L46.3231 41.0224C46.2165 41.3335 46.1165 41.6414 46.0232 41.9457L45.5452 41.7992ZM46.5469 39.0039L46.0838 38.8154C46.3307 38.2089 46.5984 37.595 46.8857 36.9761L47.3393 37.1866L47.7928 37.3972C47.5118 38.0023 47.2506 38.6014 47.01 39.1924L46.5469 39.0039ZM48.2147 35.4029L47.7705 35.1733C48.0722 34.5897 48.3899 34.0032 48.7228 33.4156L49.1578 33.662L49.5929 33.9084C49.2662 34.4852 48.9545 35.0605 48.6588 35.6325L48.2147 35.4029ZM50.1662 31.9543L49.7402 31.6925C50.0864 31.1291 50.4456 30.5661 50.817 30.0052L51.2339 30.2812L51.6508 30.5573C51.2856 31.1089 50.9324 31.6623 50.5922 32.216L50.1662 31.9543ZM52.3558 28.6458L51.9481 28.3563C52.3321 27.8157 52.7268 27.2783 53.1316 26.7457L53.5297 27.0482L53.9278 27.3507C53.5296 27.8747 53.1412 28.4034 52.7634 28.9354L52.3558 28.6458ZM54.7549 25.4885L54.3667 25.1733C54.7865 24.6564 55.2154 24.1454 55.6525 23.6417L56.0301 23.9695L56.4077 24.2972C55.9778 24.7925 55.556 25.2951 55.143 25.8037L54.7549 25.4885ZM57.3549 22.4941L56.9886 22.1537C57.4438 21.6638 57.9067 21.1827 58.3765 20.7117L58.7305 21.0648L59.0845 21.4179C58.6233 21.8803 58.1686 22.353 57.7212 22.8344L57.3549 22.4941ZM60.1573 19.6866L59.8168 19.3204C60.3086 18.8631 60.8069 18.4178 61.3108 17.9859L61.6362 18.3655L61.9616 18.7451C61.4683 19.168 60.9801 19.6043 60.4978 20.0527L60.1573 19.6866ZM63.1682 17.1089L62.8598 16.7153C63.3917 16.2986 63.9288 15.8977 64.4704 15.5145L64.7592 15.9226L65.048 16.3308C64.5203 16.7042 63.9962 17.0953 63.4766 17.5024L63.1682 17.1089ZM66.4087 14.8203L66.1426 14.397C66.7172 14.0357 67.2957 13.6954 67.8772 13.3781L68.1167 13.817L68.3562 14.2559C67.7937 14.5629 67.2329 14.8927 66.6749 15.2435L66.4087 14.8203ZM69.8903 12.9275L69.6825 12.4727C70.3049 12.1884 70.9297 11.9321 71.5558 11.7063L71.7254 12.1766L71.8951 12.6469C71.2964 12.8629 70.697 13.1087 70.098 13.3823L69.8903 12.9275ZM73.6182 11.5919L73.4942 11.1075C74.1611 10.9369 74.8282 10.8034 75.4939 10.7103L75.5632 11.2054L75.6325 11.7006C75.0058 11.7883 74.3752 11.9143 73.7421 12.0763L73.6182 11.5919Z" fill="#00D0FF"/>
<path d="M103.656 4.26562V18.3906H101.984V11.1562H100.484V17.7031H98.8438V4.51562H100.484V9.71875H101.984V4.26562H103.656ZM97.4531 5.79688V14.75H91.9062V5.79688H97.4531ZM93.5312 7.17188V13.375H95.8281V7.17188H93.5312ZM113.272 5.84375V7.21875H110.256C110.264 8.78906 111.498 10.3281 113.756 10.9219L112.944 12.2656C111.303 11.8359 110.1 10.8672 109.444 9.625C108.803 11.0078 107.6 12.0938 105.913 12.5938L105.069 11.25C107.311 10.5938 108.514 8.91406 108.522 7.21875H105.506V5.84375H108.522V4.28125H110.272V5.84375H113.272ZM116.663 4.28125V12.8438H114.913V4.28125H116.663ZM111.881 13.0938C114.85 13.0938 116.694 14.0625 116.694 15.7344C116.694 17.4062 114.85 18.375 111.881 18.375C108.881 18.375 107.053 17.4062 107.053 15.7344C107.053 14.0625 108.881 13.0938 111.881 13.0938ZM111.881 14.4375C109.881 14.4375 108.803 14.9062 108.803 15.7344C108.803 16.5781 109.881 17.0312 111.881 17.0312C113.866 17.0312 114.975 16.5781 114.991 15.7344C114.975 14.9062 113.866 14.4375 111.881 14.4375ZM133.55 4.28125V15.0312H131.816V12.25H129.722V10.8594H131.816V9.28125H129.722V7.875H131.816V4.28125H133.55ZM129.644 5.84375V7.23438H121.753V5.84375H124.909V4.26562H126.644V5.84375H129.644ZM125.753 7.8125C127.675 7.8125 129.05 8.9375 129.066 10.5625C129.05 12.1875 127.675 13.3125 125.753 13.3125C123.847 13.3125 122.472 12.1875 122.487 10.5625C122.472 8.9375 123.847 7.8125 125.753 7.8125ZM125.753 9.17188C124.784 9.1875 124.097 9.70312 124.112 10.5625C124.097 11.4531 124.784 11.9688 125.753 11.9688C126.722 11.9688 127.425 11.4531 127.425 10.5625C127.425 9.70312 126.722 9.1875 125.753 9.17188ZM133.862 16.7031V18.1094H124.237V14.1094H126.003V16.7031H133.862ZM146.338 4.28125V8.375H148.244V9.79688H146.338V13.8281H144.603V4.28125H146.338ZM141.666 13.9531C144.666 13.9531 146.4 14.75 146.416 16.1875C146.4 17.625 144.666 18.3906 141.666 18.3906C138.619 18.3906 136.9 17.625 136.9 16.1875C136.9 14.75 138.619 13.9531 141.666 13.9531ZM141.666 15.2344C139.634 15.2188 138.634 15.5469 138.634 16.1875C138.634 16.7812 139.634 17.1094 141.666 17.1094C143.666 17.1094 144.65 16.7812 144.666 16.1875C144.65 15.5469 143.666 15.2188 141.666 15.2344ZM135.025 12.0156C136.095 12.0156 137.314 12.0156 138.588 11.9688V11.0469C137.002 10.8672 136.025 10.1484 136.025 9.07812C136.025 7.82812 137.353 7.0625 139.431 7.0625C141.509 7.0625 142.838 7.82812 142.838 9.07812C142.838 10.1406 141.884 10.8516 140.322 11.0312V11.9062C141.525 11.8516 142.736 11.75 143.869 11.5938L144.009 12.7969C140.994 13.3125 137.713 13.3594 135.213 13.3594L135.025 12.0156ZM143.494 5.35938V6.64062H135.384V5.35938H138.588V4.15625H140.322V5.35938H143.494ZM139.431 8.21875C138.338 8.21875 137.681 8.54688 137.697 9.07812C137.681 9.64062 138.338 9.95312 139.431 9.95312C140.525 9.95312 141.181 9.64062 141.181 9.07812C141.181 8.54688 140.525 8.21875 139.431 8.21875Z" fill="#00D0FF"/>
<path d="M155 4.48438C158.219 4.48438 160.078 5.34375 160.094 6.90625C160.078 8.48438 158.219 9.32812 155 9.34375C151.781 9.32812 149.906 8.48438 149.906 6.90625C149.906 5.34375 151.781 4.48438 155 4.48438ZM155 5.76562C152.844 5.76562 151.719 6.17188 151.734 6.90625C151.719 7.6875 152.844 8.04688 155 8.04688C157.188 8.04688 158.297 7.6875 158.297 6.90625C158.297 6.17188 157.188 5.76562 155 5.76562ZM161.453 10.0938V11.4844H148.578V10.0938H161.453ZM159.844 12.4375V15.8906H151.812V16.9375H160.234V18.2656H150.109V14.6562H158.141V13.7188H150.094V12.4375H159.844ZM176.544 4.28125V8.71875H178.512V10.1562H176.544V14.8281H174.809V4.28125H176.544ZM173.794 5.84375V7.23438H165.419V5.84375H168.747V4.26562H170.481V5.84375H173.794ZM169.606 7.8125C171.637 7.8125 173.044 8.89062 173.059 10.5156C173.044 12.125 171.637 13.1875 169.606 13.1875C167.559 13.1875 166.137 12.125 166.137 10.5156C166.137 8.89062 167.559 7.8125 169.606 7.8125ZM169.606 9.15625C168.528 9.15625 167.825 9.65625 167.825 10.5156C167.825 11.3594 168.528 11.8594 169.606 11.8438C170.684 11.8594 171.403 11.3594 171.403 10.5156C171.403 9.65625 170.684 9.15625 169.606 9.15625ZM177.106 16.7031V18.1094H167.497V14H169.231V16.7031H177.106ZM190.269 8.25V9.625H180.519V4.70312H182.269V8.25H190.269ZM191.722 11.0312V12.4062H186.269V15.0469H184.55V12.4062H178.831V11.0312H191.722ZM190.378 16.7031V18.1094H180.394V13.9062H182.113V16.7031H190.378ZM204.447 4.26562V18.3906H202.775V4.26562H204.447ZM201.541 4.51562V17.7031H199.884V10.9844H198.541C198.377 13.7344 197.197 15.4375 195.447 15.4219C193.603 15.4375 192.4 13.4844 192.4 10.375C192.4 7.26562 193.603 5.34375 195.447 5.34375C197.158 5.34375 198.322 6.9375 198.525 9.57812H199.884V4.51562H201.541ZM195.447 6.98438C194.556 6.96875 193.994 8.17188 194.009 10.375C193.994 12.5781 194.556 13.7812 195.447 13.7656C196.384 13.7812 196.947 12.5781 196.947 10.375C196.947 8.17188 196.384 6.96875 195.447 6.98438ZM221.991 15.2656V16.6875H209.084V15.2656H214.647V12.5156H210.506V5.20312H212.241V7.51562H218.787V5.20312H220.522V12.5156H216.366V15.2656H221.991ZM212.241 11.1094H218.787V8.90625H212.241V11.1094ZM226.919 7.96875C226.919 10.25 227.716 12.625 229.622 13.8281L228.669 15.1562C227.395 14.3906 226.567 13.0703 226.106 11.5156C225.591 13.2266 224.684 14.6719 223.356 15.4844L222.278 14.1875C224.325 12.9375 225.247 10.4531 225.247 8.04688V5.51562H226.919V7.96875ZM234.7 4.26562V18.3906H233.028V4.26562H234.7ZM231.762 4.51562V17.7031H230.122V10.5625H228.106V9.125H230.122V4.51562H231.762ZM248.847 15.25V16.6719H235.941V15.25H238.925V11.6719C237.8 11.0312 237.12 10.0234 237.128 8.76562C237.113 6.51562 239.331 5.03125 242.363 5.03125C245.409 5.03125 247.628 6.51562 247.628 8.76562C247.628 10 246.972 10.9922 245.878 11.6406V15.25H248.847ZM242.363 6.40625C240.253 6.40625 238.816 7.29688 238.831 8.76562C238.816 10.2188 240.253 11.125 242.363 11.125C244.472 11.125 245.925 10.2188 245.925 8.76562C245.925 7.29688 244.472 6.40625 242.363 6.40625ZM240.644 15.25H244.113V12.2969C243.573 12.4219 242.988 12.4844 242.363 12.4844C241.753 12.4844 241.175 12.4219 240.644 12.3125V15.25ZM252.275 5.6875L252.103 13.6719H250.337L250.15 5.6875H252.275ZM251.228 17.125C250.556 17.125 250.009 16.5781 250.009 15.9062C250.009 15.25 250.556 14.7031 251.228 14.7031C251.869 14.7031 252.431 15.25 252.431 15.9062C252.431 16.5781 251.869 17.125 251.228 17.125Z" fill="white"/>
<path d="M52.7969 188.281C52.7969 190.594 54.1562 193.031 56.4375 193.984L55.4844 195.359C53.8125 194.641 52.5938 193.156 51.9531 191.359C51.2969 193.297 50.0625 194.922 48.4062 195.703L47.4062 194.344C49.6406 193.312 51.0312 190.688 51.0312 188.281V187.094H47.9219V185.656H55.8906V187.094H52.7969V188.281ZM59.2188 184.266V198.391H57.4688V184.266H59.2188ZM72.7406 184.281V194.969H70.9906V193.734H68.225V192.516H70.9906V184.281H72.7406ZM73.0688 196.703V198.109H62.7094V193.938H64.4438V196.703H73.0688ZM60.8344 190.625C63.4438 190.609 66.9438 190.578 69.9438 190.203L70.0375 191.453C68.8734 191.648 67.6703 191.781 66.475 191.859V194.578H64.7406V191.953C63.4203 192.008 62.1625 192.016 61.0531 192.016L60.8344 190.625ZM65.4438 184.797C67.5063 184.797 68.9438 185.812 68.9594 187.297C68.9438 188.812 67.5063 189.781 65.4438 189.781C63.35 189.781 61.9125 188.812 61.9125 187.297C61.9125 185.812 63.35 184.797 65.4438 184.797ZM65.4438 186.078C64.3188 186.078 63.5531 186.531 63.5531 187.297C63.5531 188.062 64.3188 188.516 65.4438 188.516C66.5219 188.516 67.2875 188.062 67.3031 187.297C67.2875 186.531 66.5219 186.078 65.4438 186.078ZM79.3875 188.281C79.3875 190.469 80.6844 192.953 82.9188 193.984L81.95 195.359C80.3563 194.609 79.1766 193.094 78.5438 191.328C77.9031 193.266 76.6688 194.922 75.0438 195.703L74.0281 194.344C76.2781 193.281 77.6375 190.625 77.6531 188.281V187.094H74.575V185.656H82.3406V187.094H79.3875V188.281ZM85.3875 184.266V189.766H87.5594V191.219H85.3875V198.391H83.6531V184.266H85.3875ZM98.5094 185.438C98.5094 187.219 100.494 189.016 103.509 189.406L102.822 190.812C100.423 190.453 98.5172 189.273 97.6031 187.672C96.6734 189.273 94.775 190.453 92.4 190.812L91.7125 189.406C94.6969 189.016 96.6813 187.219 96.6813 185.438V184.719H98.5094V185.438ZM104.025 192.031V193.469H98.4156V198.391H96.6969V193.469H91.15V192.031H104.025ZM108.797 185.141C110.969 185.141 112.625 186.547 112.641 188.547C112.625 190.273 111.406 191.547 109.688 191.875V193.953C110.859 193.898 112.039 193.805 113.141 193.656L113.266 194.953C110.312 195.484 107.078 195.5 104.656 195.469L104.406 194.047C105.469 194.047 106.688 194.047 107.953 194.016V191.875C106.18 191.578 104.953 190.297 104.969 188.547C104.953 186.547 106.578 185.141 108.797 185.141ZM108.797 186.609C107.562 186.625 106.656 187.359 106.656 188.547C106.656 189.734 107.562 190.484 108.797 190.469C110.016 190.484 110.922 189.734 110.922 188.547C110.922 187.359 110.016 186.625 108.797 186.609ZM115.688 184.266V189.906H117.734V191.375H115.688V198.391H113.953V184.266H115.688ZM133.591 184.266V198.391H131.919V191.156H130.419V197.703H128.778V184.516H130.419V189.719H131.919V184.266H133.591ZM127.387 185.797V194.75H121.841V185.797H127.387ZM123.466 187.172V193.375H125.762V187.172H123.466ZM143.206 185.844V187.219H140.191C140.198 188.789 141.433 190.328 143.691 190.922L142.878 192.266C141.238 191.836 140.034 190.867 139.378 189.625C138.738 191.008 137.534 192.094 135.847 192.594L135.003 191.25C137.245 190.594 138.448 188.914 138.456 187.219H135.441V185.844H138.456V184.281H140.206V185.844H143.206ZM146.597 184.281V192.844H144.847V184.281H146.597ZM141.816 193.094C144.784 193.094 146.628 194.062 146.628 195.734C146.628 197.406 144.784 198.375 141.816 198.375C138.816 198.375 136.988 197.406 136.988 195.734C136.988 194.062 138.816 193.094 141.816 193.094ZM141.816 194.438C139.816 194.438 138.738 194.906 138.738 195.734C138.738 196.578 139.816 197.031 141.816 197.031C143.8 197.031 144.909 196.578 144.925 195.734C144.909 194.906 143.8 194.438 141.816 194.438ZM157.016 187.141C157.016 188.891 158.219 190.609 160.469 191.312L159.578 192.672C157.977 192.148 156.812 191.094 156.172 189.75C155.531 191.211 154.336 192.375 152.656 192.953L151.766 191.578C154.031 190.828 155.25 189 155.266 187.141V186.734H152.219V185.344H159.984V186.734H157.016V187.141ZM163.422 184.281V194.531H161.672V184.281H163.422ZM163.812 196.703V198.109H154.078V193.594H155.828V196.703H163.812ZM177.162 184.266V193.141H175.506V189.297H174.131V192.672H172.506V184.547H174.131V187.891H175.506V184.266H177.162ZM172.037 185.797V187.156H165.006V185.797H167.678V184.391H169.397V185.797H172.037ZM168.537 187.734C170.334 187.734 171.6 188.703 171.616 190.172C171.6 191.641 170.334 192.609 168.537 192.609C166.772 192.609 165.491 191.641 165.506 190.172C165.491 188.703 166.772 187.734 168.537 187.734ZM168.537 188.984C167.662 188.984 167.053 189.438 167.053 190.172C167.053 190.906 167.647 191.359 168.537 191.359C169.428 191.359 170.037 190.906 170.037 190.172C170.037 189.438 169.428 188.984 168.537 188.984ZM172.397 193.312C175.412 193.312 177.225 194.234 177.241 195.859C177.225 197.453 175.412 198.375 172.397 198.375C169.381 198.375 167.553 197.453 167.553 195.859C167.553 194.234 169.381 193.312 172.397 193.312ZM172.397 194.641C170.381 194.625 169.287 195.031 169.287 195.859C169.287 196.641 170.381 197.047 172.397 197.047C174.397 197.047 175.491 196.641 175.491 195.859C175.491 195.031 174.397 194.625 172.397 194.641ZM186.909 186.516C186.909 188.297 188.066 189.969 190.238 190.656L189.3 192.016C187.777 191.5 186.683 190.469 186.081 189.156C185.456 190.656 184.316 191.836 182.691 192.406L181.753 191.047C184.034 190.25 185.159 188.375 185.175 186.359V185.016H186.909V186.516ZM193.05 184.266V187.703H195.019V189.141H193.05V192.719H191.316V184.266H193.05ZM188.456 193.031C191.378 193.016 193.175 194.016 193.191 195.688C193.175 197.391 191.378 198.375 188.456 198.375C185.503 198.375 183.675 197.391 183.675 195.688C183.675 194.016 185.503 193.016 188.456 193.031ZM188.456 194.391C186.519 194.391 185.409 194.859 185.409 195.688C185.409 196.562 186.519 197 188.456 197C190.394 197 191.472 196.562 191.472 195.688C191.472 194.859 190.394 194.391 188.456 194.391ZM206.525 184.281V188.375H208.431V189.797H206.525V193.828H204.791V184.281H206.525ZM201.853 193.953C204.853 193.953 206.587 194.75 206.603 196.188C206.587 197.625 204.853 198.391 201.853 198.391C198.806 198.391 197.087 197.625 197.087 196.188C197.087 194.75 198.806 193.953 201.853 193.953ZM201.853 195.234C199.822 195.219 198.822 195.547 198.822 196.188C198.822 196.781 199.822 197.109 201.853 197.109C203.853 197.109 204.837 196.781 204.853 196.188C204.837 195.547 203.853 195.219 201.853 195.234ZM195.212 192.016C196.283 192.016 197.502 192.016 198.775 191.969V191.047C197.189 190.867 196.212 190.148 196.212 189.078C196.212 187.828 197.541 187.062 199.619 187.062C201.697 187.062 203.025 187.828 203.025 189.078C203.025 190.141 202.072 190.852 200.509 191.031V191.906C201.712 191.852 202.923 191.75 204.056 191.594L204.197 192.797C201.181 193.312 197.9 193.359 195.4 193.359L195.212 192.016ZM203.681 185.359V186.641H195.572V185.359H198.775V184.156H200.509V185.359H203.681ZM199.619 188.219C198.525 188.219 197.869 188.547 197.884 189.078C197.869 189.641 198.525 189.953 199.619 189.953C200.712 189.953 201.369 189.641 201.369 189.078C201.369 188.547 200.712 188.219 199.619 188.219ZM215.188 184.484C218.406 184.484 220.266 185.344 220.281 186.906C220.266 188.484 218.406 189.328 215.188 189.344C211.969 189.328 210.094 188.484 210.094 186.906C210.094 185.344 211.969 184.484 215.188 184.484ZM215.188 185.766C213.031 185.766 211.906 186.172 211.922 186.906C211.906 187.688 213.031 188.047 215.188 188.047C217.375 188.047 218.484 187.688 218.484 186.906C218.484 186.172 217.375 185.766 215.188 185.766ZM221.641 190.094V191.484H208.766V190.094H221.641ZM220.031 192.438V195.891H212V196.938H220.422V198.266H210.297V194.656H218.328V193.719H210.281V192.438H220.031ZM236.731 184.266V187.109H238.7V188.547H236.731V191.359H234.997V184.266H236.731ZM236.731 191.969V195.672H229.231V196.844H237.169V198.219H227.512V194.406H234.997V193.312H227.497V191.969H236.731ZM229.497 184.734C231.653 184.734 233.231 186.031 233.247 187.906C233.231 189.75 231.653 191.062 229.497 191.062C227.341 191.062 225.731 189.75 225.747 187.906C225.731 186.031 227.341 184.734 229.497 184.734ZM229.497 186.141C228.309 186.141 227.434 186.828 227.45 187.906C227.434 188.969 228.309 189.688 229.497 189.688C230.684 189.688 231.559 188.969 231.559 187.906C231.559 186.828 230.684 186.141 229.497 186.141ZM250.847 184.266V198.406H249.113V192.609H246.534V191.188H249.113V188.766H246.581V187.344H249.113V184.266H250.847ZM245.784 185.484V190.766H241.253V193.766C243.12 193.75 244.745 193.672 246.644 193.391L246.784 194.812C244.613 195.156 242.816 195.203 240.628 195.203H239.534V189.406H244.081V186.875H239.488V185.484H245.784ZM263.916 190.891V192.281H254.009V185.5H263.806V186.906H255.728V190.891H263.916ZM265.353 195.156V196.594H252.447V195.156H265.353ZM277.703 184.266V198.406H275.969V192.609H273.391V191.188H275.969V188.766H273.438V187.344H275.969V184.266H277.703ZM272.641 185.484V190.766H268.109V193.766C269.977 193.75 271.602 193.672 273.5 193.391L273.641 194.812C271.469 195.156 269.672 195.203 267.484 195.203H266.391V189.406H270.938V186.875H266.344V185.484H272.641ZM292.209 195.25V196.672H279.303V195.25H282.288V191.672C281.163 191.031 280.483 190.023 280.491 188.766C280.475 186.516 282.694 185.031 285.725 185.031C288.772 185.031 290.991 186.516 290.991 188.766C290.991 190 290.334 190.992 289.241 191.641V195.25H292.209ZM285.725 186.406C283.616 186.406 282.178 187.297 282.194 188.766C282.178 190.219 283.616 191.125 285.725 191.125C287.834 191.125 289.288 190.219 289.288 188.766C289.288 187.297 287.834 186.406 285.725 186.406ZM284.006 195.25H287.475V192.297C286.936 192.422 286.35 192.484 285.725 192.484C285.116 192.484 284.538 192.422 284.006 192.312V195.25ZM294.45 197.125C293.778 197.125 293.231 196.578 293.231 195.906C293.231 195.25 293.778 194.703 294.45 194.703C295.091 194.703 295.653 195.25 295.653 195.906C295.653 196.578 295.091 197.125 294.45 197.125Z" fill="white"/>
<g filter="url(#filter0_d_1637_6505)">
<rect x="13" y="48" width="101.333" height="106" rx="12" fill="white" shape-rendering="crispEdges"/>
<rect x="12.5" y="47.5" width="102.333" height="107" rx="12.5" stroke="#F2F2F2" shape-rendering="crispEdges"/>
<circle cx="33" cy="72" r="4" fill="#119739"/>
<path d="M33.9902 90.4687C33.9902 92.0547 35.166 93.5449 37.0527 94.1465L36.3828 95.1582C34.9746 94.6934 33.9082 93.7295 33.3613 92.5059C32.8076 93.8389 31.7207 94.8916 30.2578 95.4043L29.5879 94.3789C31.4883 93.7363 32.6641 92.1504 32.6777 90.4687V89.9355H29.9297V88.8828H36.6836V89.9355H33.9902V90.4687ZM39.6094 87.9258V96.8672H38.3105V87.9258H39.6094ZM39.9785 98.8496V99.9023H31.5977V96.0195H32.9102V98.8496H39.9785ZM51.6461 87.9121V95.6367H50.4156V92.2187H48.9938V95.2129H47.777V88.1445H48.9938V91.1523H50.4156V87.9121H51.6461ZM47.3258 89.3066V90.332H41.1324V89.3066H43.607V88.0078H44.8922V89.3066H47.3258ZM44.2359 90.9062C45.7945 90.9062 46.8883 91.7402 46.8883 93.0117C46.8883 94.2832 45.7945 95.1172 44.2359 95.1172C42.7047 95.1172 41.6109 94.2832 41.6109 93.0117C41.6109 91.7402 42.7047 90.9062 44.2359 90.9062ZM44.2359 91.8633C43.3746 91.8633 42.773 92.3145 42.773 93.0117C42.773 93.709 43.3746 94.1738 44.2359 94.1738C45.1246 94.1738 45.7125 93.709 45.7125 93.0117C45.7125 92.3145 45.1246 91.8633 44.2359 91.8633ZM47.5445 95.8145C50.1422 95.8145 51.7008 96.5937 51.7145 97.9883C51.7008 99.3555 50.1422 100.148 47.5445 100.135C44.9469 100.148 43.3883 99.3555 43.402 97.9883C43.3883 96.5937 44.9469 95.8145 47.5445 95.8145ZM47.5445 96.8125C45.7262 96.8125 44.6734 97.2227 44.6871 97.9883C44.6734 98.7266 45.7262 99.1504 47.5445 99.1367C49.3766 99.1504 50.402 98.7266 50.4156 97.9883C50.402 97.2227 49.3766 96.8125 47.5445 96.8125ZM64.1203 93.5859V94.6387H59.1711V95.8145C61.4201 95.9375 62.7531 96.6963 62.7531 97.9746C62.7531 99.3691 61.1672 100.148 58.5285 100.135C55.8625 100.148 54.2766 99.3691 54.2766 97.9746C54.2766 96.6963 55.6096 95.9375 57.8859 95.8145V94.6387H52.9504V93.5859H64.1203ZM58.5285 96.7988C56.6555 96.7988 55.5891 97.2227 55.5891 97.9746C55.5891 98.7129 56.6555 99.1504 58.5285 99.1367C60.3742 99.1504 61.4543 98.7129 61.4543 97.9746C61.4543 97.2227 60.3742 96.7988 58.5285 96.7988ZM63.1223 88.4727V89.5117H59.4035C59.5881 90.6943 61.3107 91.6992 63.5461 91.918L63.0813 92.9434C60.9621 92.6973 59.2053 91.8018 58.5422 90.4961C57.8586 91.8018 56.1086 92.6973 53.9895 92.9434L53.5383 91.918C55.7395 91.6992 57.4689 90.6943 57.6535 89.5117H53.9758V88.4727H63.1223Z" fill="#595959"/>
<path d="M37.6484 118.031V135H34.1094V121.383H34.0156L30.125 123.82V120.703L34.3203 118.031H37.6484ZM47.2203 135.234C43.6813 135.234 41.1031 133.148 41.0328 130.219H44.4547C44.525 131.555 45.7438 132.445 47.2203 132.445C48.9781 132.445 50.2203 131.203 50.2203 129.445C50.2203 127.641 48.9547 126.398 47.1734 126.375C45.9078 126.375 45.0172 126.844 44.5016 127.805H41.3141L42.2281 118.031H52.6813V120.914H45.1344L44.6656 125.203H44.8063C45.4391 124.359 46.7047 123.773 48.2047 123.773C51.3219 123.773 53.6422 126.094 53.6422 129.352C53.6422 132.773 51.0406 135.234 47.2203 135.234Z" fill="#0D0D0D"/>
<path d="M68.2969 120.281V130.641H66.5625V125.891H63.8438V124.453H66.5625V120.281H68.2969ZM63.9375 121.344C63.9375 125.062 61.4688 127.859 57.3906 129.156L56.6563 127.766C59.7031 126.797 61.7109 125 62.0469 122.766H57.3906V121.344H63.9375ZM68.6563 132.703V134.109H59.0938V129.594H60.8594V132.703H68.6563Z" fill="#0D0D0D"/>
</g>
<g filter="url(#filter1_d_1637_6505)">
<rect x="122.334" y="48" width="101.333" height="106" rx="12" fill="white" shape-rendering="crispEdges"/>
<rect x="121.834" y="47.5" width="102.333" height="107" rx="12.5" stroke="#F2F2F2" shape-rendering="crispEdges"/>
<circle cx="142" cy="72" r="4" fill="#FF4C14"/>
<path d="M143.529 94.4199V96.5391C144.65 96.4775 145.785 96.3818 146.852 96.2246L146.947 97.1816C144.172 97.6875 141.205 97.7148 139.018 97.7148L138.854 96.6484C139.838 96.6416 141 96.6348 142.23 96.5937V94.4199H143.529ZM146.277 89.4707V90.5234H143.529C143.598 91.959 144.76 93.2031 146.592 93.6953L145.99 94.707C144.527 94.29 143.434 93.4014 142.887 92.2324C142.347 93.4629 141.273 94.3926 139.797 94.8164L139.182 93.832C141.007 93.3125 142.155 92.0273 142.217 90.5234H139.51V89.4707H142.23V88.0078H143.529V89.4707H146.277ZM148.916 87.9121V100.189H147.617V87.9121H148.916ZM160.324 88.6367V89.6074C160.324 90.6465 160.324 91.8633 160.023 93.4766H161.746V94.543H150.535V93.4766H158.711C159.032 91.8838 159.039 90.7217 159.039 89.6895H151.943V88.6367H160.324ZM160.693 98.8359V99.9023H151.998V95.8145H153.283V98.8359H160.693ZM169.071 88.459C170.862 88.459 172.12 89.4434 172.134 90.9062C172.12 92.1504 171.177 93.0664 169.755 93.2852V94.3652C170.842 94.3105 171.929 94.2148 172.94 94.0645L173.036 95.0215C170.466 95.4863 167.581 95.5273 165.475 95.5273L165.339 94.4746C166.255 94.4814 167.328 94.4746 168.456 94.4336V93.2988C166.993 93.0937 166.009 92.1709 166.022 90.9062C166.009 89.4434 167.28 88.459 169.071 88.459ZM169.071 89.457C167.991 89.457 167.225 90.0176 167.239 90.9062C167.225 91.7676 167.991 92.3418 169.071 92.3418C170.165 92.3418 170.903 91.7676 170.903 90.9062C170.903 90.0176 170.165 89.457 169.071 89.457ZM174.991 87.9258V91.9727H176.741V93.0664H174.991V97.291H173.692V87.9258H174.991ZM175.429 98.8359V99.9023H167.075V96.4707H168.374V98.8359H175.429ZM188.313 97.6055V98.6992H177.102V97.6055H180.164V95.4453H178.469V91.5488H185.661V89.8398H178.442V88.7734H186.946V92.6016H179.754V94.3789H187.233V95.4453H185.373V97.6055H188.313ZM181.422 97.6055H184.102V95.4453H181.422V97.6055Z" fill="#595959"/>
<path d="M146.045 135.234C142.178 135.234 139.389 133.195 139.389 130.43C139.389 128.297 141.029 126.562 143.139 126.234V126.117C141.311 125.766 140.045 124.219 140.045 122.367C140.045 119.719 142.576 117.797 146.045 117.797C149.514 117.797 152.045 119.719 152.068 122.367C152.045 124.242 150.756 125.766 148.975 126.117V126.234C151.037 126.562 152.701 128.297 152.701 130.43C152.701 133.195 149.912 135.234 146.045 135.234ZM146.045 132.539C147.826 132.539 149.021 131.531 149.021 130.078C149.021 128.602 147.779 127.523 146.045 127.523C144.311 127.523 143.045 128.602 143.068 130.078C143.045 131.531 144.24 132.539 146.045 132.539ZM146.045 125.039C147.545 125.039 148.623 124.078 148.623 122.719C148.623 121.406 147.568 120.469 146.045 120.469C144.521 120.469 143.49 121.383 143.49 122.719C143.49 124.078 144.545 125.039 146.045 125.039Z" fill="#0D0D0D"/>
<path d="M167.631 120.281V130.641H165.896V125.891H163.178V124.453H165.896V120.281H167.631ZM163.271 121.344C163.271 125.062 160.803 127.859 156.725 129.156L155.99 127.766C159.037 126.797 161.045 125 161.381 122.766H156.725V121.344H163.271ZM167.99 132.703V134.109H158.428V129.594H160.193V132.703H167.99Z" fill="#0D0D0D"/>
</g>
<g filter="url(#filter2_d_1637_6505)">
<rect x="231.666" y="48" width="101.333" height="106" rx="12" fill="white" shape-rendering="crispEdges"/>
<rect x="231.166" y="47.5" width="102.333" height="107" rx="12.5" stroke="#F2F2F2" shape-rendering="crispEdges"/>
<circle cx="252" cy="72" r="4" fill="#0370FF"/>
<path d="M258.33 87.9258V96.8945H257.031V92.2871H254.693V91.2344H257.031V87.9258H258.33ZM258.658 98.8496V99.9023H250.373V96.0879H251.672V98.8496H258.658ZM252.506 90.4004C252.506 91.9316 253.613 93.4629 255.459 94.0781L254.789 95.1172C253.415 94.6318 252.396 93.6475 251.863 92.4375C251.33 93.7842 250.257 94.8711 248.801 95.3906L248.131 94.3379C250.018 93.6953 251.18 92.082 251.18 90.4004V89.9219H248.527V88.8555H255.131V89.9219H252.506V90.4004ZM263.531 91.6719C263.531 93.5996 264.42 95.5684 266.115 96.4707L265.39 97.4277C264.208 96.7988 263.38 95.623 262.943 94.2285C262.499 95.7256 261.678 97.0107 260.496 97.7148L259.73 96.7305C261.425 95.7461 262.3 93.6543 262.314 91.6719V91.1797H260.099V90.1133H262.314V88.3496H263.531V90.1133H265.705V91.1797H263.531V91.6719ZM270.38 87.9121V100.162H269.136V87.9121H270.38ZM267.892 88.1719V99.5469H266.662V93.7637H264.898V92.6836H266.662V88.1719H267.892ZM285.225 87.9121V100.162H283.981V93.7773H282.464V99.5605H281.233V88.1445H282.464V92.7109H283.981V87.9121H285.225ZM279.852 89.293V96.9355H275.095V89.293H279.852ZM276.325 90.3184V95.8965H278.636V90.3184H276.325ZM290.987 90.4551C290.987 91.918 292.19 93.2852 294.09 93.8047L293.475 94.8164C292.039 94.4199 290.946 93.5312 290.371 92.3691C289.825 93.6475 288.745 94.6523 287.268 95.1172L286.625 94.0918C288.512 93.5176 289.688 92.041 289.688 90.4551V90.3867H286.967V89.3477H289.688V87.9121H291V89.3477H293.694V90.3867H290.987V90.4551ZM296.592 87.9258V95.3906H295.293V87.9258H296.592ZM292.477 95.623C295.047 95.623 296.633 96.457 296.633 97.8789C296.633 99.3145 295.047 100.148 292.477 100.135C289.893 100.148 288.307 99.3145 288.307 97.8789C288.307 96.457 289.893 95.623 292.477 95.623ZM292.477 96.6484C290.659 96.6484 289.62 97.0996 289.62 97.8789C289.62 98.6855 290.659 99.1367 292.477 99.1367C294.295 99.1367 295.348 98.6855 295.348 97.8789C295.348 97.0996 294.295 96.6484 292.477 96.6484Z" fill="#595959"/>
<path d="M255.283 135.234C251.557 135.234 248.885 133.172 248.814 130.219H252.377C252.447 131.484 253.666 132.328 255.307 132.328C256.994 132.328 258.213 131.367 258.189 130.008C258.213 128.625 256.971 127.641 254.979 127.641H253.408V125.039H254.979C256.643 125.039 257.814 124.125 257.814 122.789C257.814 121.5 256.83 120.609 255.33 120.609C253.83 120.609 252.588 121.453 252.541 122.742H249.166C249.213 119.812 251.861 117.797 255.33 117.797C258.869 117.797 261.236 119.883 261.213 122.578C261.236 124.477 259.9 125.836 258.002 126.164V126.305C260.486 126.609 261.869 128.133 261.846 130.242C261.869 133.148 259.104 135.234 255.283 135.234ZM264.386 135L271.535 121.031V120.914H263.214V118.031H275.191V120.961L268.043 135H264.386Z" fill="#0D0D0D"/>
<path d="M289.963 120.281V130.641H288.229V125.891H285.51V124.453H288.229V120.281H289.963ZM285.604 121.344C285.604 125.062 283.135 127.859 279.057 129.156L278.322 127.766C281.369 126.797 283.377 125 283.713 122.766H279.057V121.344H285.604ZM290.322 132.703V134.109H280.76V129.594H282.525V132.703H290.322Z" fill="#0D0D0D"/>
</g>
<defs>
<filter id="filter0_d_1637_6505" x="-1.90735e-06" y="35" width="127.333" height="132" filterUnits="userSpaceOnUse" color-interpolation-filters="sRGB">
<feFlood flood-opacity="0" result="BackgroundImageFix"/>
<feColorMatrix in="SourceAlpha" type="matrix" values="0 0 0 0 0 0 0 0 0 0 0 0 0 0 0 0 0 0 127 0" result="hardAlpha"/>
<feOffset/>
<feGaussianBlur stdDeviation="6"/>
<feComposite in2="hardAlpha" operator="out"/>
<feColorMatrix type="matrix" values="0 0 0 0 0 0 0 0 0 0 0 0 0 0 0 0 0 0 0.03 0"/>
<feBlend mode="normal" in2="BackgroundImageFix" result="effect1_dropShadow_1637_6505"/>
<feBlend mode="normal" in="SourceGraphic" in2="effect1_dropShadow_1637_6505" result="shape"/>
</filter>
<filter id="filter1_d_1637_6505" x="109.334" y="35" width="127.333" height="132" filterUnits="userSpaceOnUse" color-interpolation-filters="sRGB">
<feFlood flood-opacity="0" result="BackgroundImageFix"/>
<feColorMatrix in="SourceAlpha" type="matrix" values="0 0 0 0 0 0 0 0 0 0 0 0 0 0 0 0 0 0 127 0" result="hardAlpha"/>
<feOffset/>
<feGaussianBlur stdDeviation="6"/>
<feComposite in2="hardAlpha" operator="out"/>
<feColorMatrix type="matrix" values="0 0 0 0 0 0 0 0 0 0 0 0 0 0 0 0 0 0 0.03 0"/>
<feBlend mode="normal" in2="BackgroundImageFix" result="effect1_dropShadow_1637_6505"/>
<feBlend mode="normal" in="SourceGraphic" in2="effect1_dropShadow_1637_6505" result="shape"/>
</filter>
<filter id="filter2_d_1637_6505" x="218.666" y="35" width="127.333" height="132" filterUnits="userSpaceOnUse" color-interpolation-filters="sRGB">
<feFlood flood-opacity="0" result="BackgroundImageFix"/>
<feColorMatrix in="SourceAlpha" type="matrix" values="0 0 0 0 0 0 0 0 0 0 0 0 0 0 0 0 0 0 127 0" result="hardAlpha"/>
<feOffset/>
<feGaussianBlur stdDeviation="6"/>
<feComposite in2="hardAlpha" operator="out"/>
<feColorMatrix type="matrix" values="0 0 0 0 0 0 0 0 0 0 0 0 0 0 0 0 0 0 0.03 0"/>
<feBlend mode="normal" in2="BackgroundImageFix" result="effect1_dropShadow_1637_6505"/>
<feBlend mode="normal" in="SourceGraphic" in2="effect1_dropShadow_1637_6505" result="shape"/>
</filter>
</defs>
</svg>
