<svg width="320" height="194" viewBox="0 0 320 194" fill="none" xmlns="http://www.w3.org/2000/svg">
<path d="M33.0237 41.9457C32.9428 42.2097 32.6632 42.3581 32.3991 42.2772C32.1351 42.1963 31.9867 41.9166 32.0676 41.6526L32.5457 41.7992L33.0237 41.9457ZM65.5289 11.0769L60.4634 13.8472L60.597 8.07521L65.5289 11.0769ZM32.3775 40.6984C32.467 40.4372 32.7513 40.2979 33.0125 40.3874C33.2738 40.4769 33.413 40.7612 33.3235 41.0224L32.8505 40.8604L32.3775 40.6984ZM34.0105 39.1924C33.9064 39.4481 33.6147 39.5711 33.3589 39.467C33.1032 39.3629 32.9802 39.0712 33.0843 38.8154L33.5474 39.0039L34.0105 39.1924ZM33.8862 36.9761C34.0025 36.7256 34.2998 36.6168 34.5503 36.7331C34.8008 36.8494 34.9095 37.1467 34.7933 37.3972L34.3397 37.1866L33.8862 36.9761ZM35.6593 35.6325C35.5325 35.8778 35.2309 35.9739 34.9856 35.8471C34.7403 35.7203 34.6442 35.4187 34.771 35.1733L35.2152 35.4029L35.6593 35.6325ZM35.7233 33.4156C35.8594 33.1753 36.1645 33.0909 36.4047 33.227C36.645 33.3631 36.7295 33.6682 36.5934 33.9084L36.1583 33.662L35.7233 33.4156ZM37.5927 32.216C37.4481 32.4513 37.1402 32.5248 36.9049 32.3803C36.6696 32.2357 36.5961 31.9278 36.7407 31.6925L37.1667 31.9543L37.5927 32.216ZM37.8175 30.0052C37.9699 29.7749 38.2802 29.7119 38.5104 29.8643C38.7407 30.0168 38.8037 30.327 38.6513 30.5573L38.2344 30.2812L37.8175 30.0052ZM39.7639 28.9354C39.604 29.1605 39.2919 29.2134 39.0667 29.0535C38.8416 28.8936 38.7887 28.5815 38.9486 28.3563L39.3563 28.6458L39.7639 28.9354ZM40.132 26.7457C40.2991 26.5258 40.6128 26.483 40.8327 26.65C41.0525 26.8171 41.0953 27.1308 40.9283 27.3507L40.5302 27.0482L40.132 26.7457ZM42.1435 25.8037C41.9694 26.0181 41.6545 26.0507 41.4402 25.8767C41.2258 25.7026 41.1931 25.3877 41.3672 25.1733L41.7554 25.4885L42.1435 25.8037ZM42.653 23.6417C42.834 23.4332 43.1498 23.4109 43.3584 23.5919C43.5669 23.7729 43.5892 24.0887 43.4082 24.2972L43.0306 23.9695L42.653 23.6417ZM44.7217 22.8344C44.5337 23.0367 44.2174 23.0483 44.0151 22.8604C43.8128 22.6724 43.8011 22.356 43.9891 22.1537L44.3554 22.4941L44.7217 22.8344ZM45.377 20.7117C45.572 20.5161 45.8886 20.5157 46.0841 20.7108C46.2796 20.9058 46.28 21.2224 46.085 21.4179L45.731 21.0648L45.377 20.7117ZM47.4983 20.0527C47.2961 20.2408 46.9797 20.2293 46.7917 20.027C46.6036 19.8248 46.6151 19.5085 46.8173 19.3204L47.1578 19.6866L47.4983 20.0527ZM48.3113 17.9859C48.5209 17.8061 48.8366 17.8304 49.0163 18.0401C49.196 18.2497 49.1717 18.5654 48.9621 18.7451L48.6367 18.3655L48.3113 17.9859ZM50.4771 17.5024C50.2597 17.6728 49.9454 17.6346 49.7751 17.4172C49.6048 17.1999 49.6429 16.8856 49.8603 16.7153L50.1687 17.1089L50.4771 17.5024ZM51.4709 15.5145C51.6963 15.355 52.0083 15.4084 52.1678 15.6338C52.3274 15.8592 52.2739 16.1713 52.0485 16.3308L51.7597 15.9226L51.4709 15.5145ZM53.6754 15.2435C53.4416 15.3905 53.1329 15.3202 52.9859 15.0864C52.839 14.8526 52.9093 14.544 53.1431 14.397L53.4092 14.8203L53.6754 15.2435ZM54.8777 13.3781C55.1201 13.2458 55.4238 13.3351 55.5561 13.5775C55.6884 13.8199 55.5991 14.1237 55.3567 14.2559L55.1172 13.817L54.8777 13.3781ZM57.0985 13.3823C56.8474 13.4971 56.5507 13.3865 56.436 13.1353C56.3212 12.8841 56.4318 12.5875 56.683 12.4727L56.8908 12.9275L57.0985 13.3823ZM58.5562 11.7063C58.816 11.6125 59.1025 11.7471 59.1963 12.0069C59.29 12.2666 59.1554 12.5532 58.8956 12.6469L58.7259 12.1766L58.5562 11.7063ZM60.7426 12.0763C60.4751 12.1448 60.2027 11.9834 60.1343 11.7159C60.0658 11.4483 60.2272 11.176 60.4947 11.1075L60.6187 11.5919L60.7426 12.0763ZM62.4944 10.7103C62.7678 10.672 63.0206 10.8627 63.0588 11.1361C63.0971 11.4096 62.9064 11.6623 62.633 11.7006L62.5637 11.2054L62.4944 10.7103ZM64.5442 11.554C64.268 11.5571 64.0416 11.3358 64.0385 11.0597C64.0354 10.7835 64.2567 10.5572 64.5328 10.554L64.5385 11.054L64.5442 11.554ZM32.5457 41.7992L32.0676 41.6526C32.1642 41.3375 32.2676 41.0194 32.3775 40.6984L32.8505 40.8604L33.3235 41.0224C33.217 41.3335 33.117 41.6414 33.0237 41.9457L32.5457 41.7992ZM33.5474 39.0039L33.0843 38.8154C33.3312 38.2089 33.5989 37.595 33.8862 36.9761L34.3397 37.1866L34.7933 37.3972C34.5123 38.0023 34.251 38.6014 34.0105 39.1924L33.5474 39.0039ZM35.2152 35.4029L34.771 35.1733C35.0727 34.5897 35.3904 34.0032 35.7233 33.4156L36.1583 33.662L36.5934 33.9084C36.2667 34.4852 35.955 35.0605 35.6593 35.6325L35.2152 35.4029ZM37.1667 31.9543L36.7407 31.6925C37.0869 31.1291 37.4461 30.5661 37.8175 30.0052L38.2344 30.2812L38.6513 30.5573C38.2861 31.1089 37.9329 31.6623 37.5927 32.216L37.1667 31.9543ZM39.3563 28.6458L38.9486 28.3563C39.3326 27.8157 39.7273 27.2783 40.132 26.7457L40.5302 27.0482L40.9283 27.3507C40.5301 27.8747 40.1417 28.4034 39.7639 28.9354L39.3563 28.6458ZM41.7554 25.4885L41.3672 25.1733C41.787 24.6564 42.2158 24.1454 42.653 23.6417L43.0306 23.9695L43.4082 24.2972C42.9783 24.7925 42.5565 25.2951 42.1435 25.8037L41.7554 25.4885ZM44.3554 22.4941L43.9891 22.1537C44.4443 21.6638 44.9072 21.1827 45.377 20.7117L45.731 21.0648L46.085 21.4179C45.6237 21.8803 45.169 22.353 44.7217 22.8344L44.3554 22.4941ZM47.1578 19.6866L46.8173 19.3204C47.3091 18.8631 47.8074 18.4178 48.3113 17.9859L48.6367 18.3655L48.9621 18.7451C48.4687 19.168 47.9805 19.6043 47.4983 20.0527L47.1578 19.6866ZM50.1687 17.1089L49.8603 16.7153C50.3922 16.2986 50.9293 15.8977 51.4709 15.5145L51.7597 15.9226L52.0485 16.3308C51.5208 16.7042 50.9967 17.0953 50.4771 17.5024L50.1687 17.1089ZM53.4092 14.8203L53.1431 14.397C53.7176 14.0357 54.2962 13.6954 54.8777 13.3781L55.1172 13.817L55.3567 14.2559C54.7942 14.5629 54.2334 14.8927 53.6754 15.2435L53.4092 14.8203ZM56.8908 12.9275L56.683 12.4727C57.3054 12.1884 57.9302 11.9321 58.5562 11.7063L58.7259 12.1766L58.8956 12.6469C58.2969 12.8629 57.6975 13.1087 57.0985 13.3823L56.8908 12.9275ZM60.6187 11.5919L60.4947 11.1075C61.1616 10.9369 61.8287 10.8034 62.4944 10.7103L62.5637 11.2054L62.633 11.7006C62.0063 11.7883 61.3757 11.9143 60.7426 12.0763L60.6187 11.5919Z" fill="#00D0FF"/>
<path d="M90.2969 12.5312H88.5625V10.9688H85.2031V9.5625H88.5625V8.04688H85.3359C84.8932 9.16667 84.1641 10.1198 83.1484 10.9062C82.138 11.6875 80.8594 12.2917 79.3125 12.7188L78.6094 11.3438C80.2344 10.901 81.4948 10.2786 82.3906 9.47656C83.2865 8.67448 83.8047 7.73958 83.9453 6.67188H79.3594V5.26562H85.8438C85.8438 5.77083 85.8021 6.23958 85.7188 6.67188H88.5625V4.28125H90.2969V12.5312ZM85.625 12.6875C86.5729 12.6875 87.4062 12.8021 88.125 13.0312C88.8438 13.2604 89.401 13.5859 89.7969 14.0078C90.1927 14.4297 90.3906 14.9271 90.3906 15.5C90.3906 16.0729 90.1927 16.5703 89.7969 16.9922C89.401 17.4141 88.8438 17.7396 88.125 17.9688C87.4062 18.1979 86.5729 18.3125 85.625 18.3125C84.6667 18.3125 83.8255 18.1979 83.1016 17.9688C82.3776 17.7396 81.8177 17.4141 81.4219 16.9922C81.026 16.5703 80.8281 16.0729 80.8281 15.5C80.8281 14.9271 81.026 14.4297 81.4219 14.0078C81.8177 13.5859 82.3776 13.2604 83.1016 13.0312C83.8255 12.8021 84.6667 12.6875 85.625 12.6875ZM85.625 14.0469C84.6615 14.0469 83.9089 14.1745 83.3672 14.4297C82.8307 14.6797 82.5625 15.0365 82.5625 15.5C82.5625 15.9583 82.8333 16.3125 83.375 16.5625C83.9167 16.8125 84.6667 16.9375 85.625 16.9375C86.5625 16.9375 87.3021 16.8125 87.8438 16.5625C88.3854 16.3125 88.6562 15.9583 88.6562 15.5C88.6562 15.0365 88.3854 14.6797 87.8438 14.4297C87.3073 14.1745 86.5677 14.0469 85.625 14.0469ZM98.6469 9.35938H94.1938V11.0938H94.5063C95.5688 11.0938 96.4516 11.0703 97.1547 11.0234C97.8578 10.9714 98.5583 10.8802 99.2563 10.75L99.4281 12.1562C98.626 12.2917 97.8057 12.3802 96.9672 12.4219C96.1339 12.4635 94.9802 12.4844 93.5063 12.4844H92.475V8.0625H96.9125V6.48438H92.4438V5.10938H98.6469V9.35938ZM103.725 12.9688H101.991V10.6406H99.4906V9.25H101.991V7.67188H99.4906V6.28125H101.991V4.28125H103.725V12.9688ZM103.725 18.3906H101.991V15.0312H94.0688V13.6406H103.725V18.3906ZM110.544 7.65625C110.544 8.54167 110.679 9.39844 110.95 10.2266C111.226 11.0495 111.627 11.7786 112.153 12.4141C112.684 13.0495 113.315 13.526 114.044 13.8438L112.997 15.2344C112.216 14.8542 111.541 14.3073 110.973 13.5938C110.411 12.8802 109.976 12.0521 109.669 11.1094C109.351 12.1094 108.903 12.9896 108.325 13.75C107.752 14.5104 107.07 15.0938 106.278 15.5L105.184 14.0938C105.929 13.7448 106.57 13.2344 107.106 12.5625C107.648 11.8906 108.059 11.1276 108.341 10.2734C108.627 9.41927 108.773 8.54688 108.778 7.65625V5.40625H110.544V7.65625ZM117.169 18.4062H115.45V10.2344H112.481V8.82812H115.45V4.26562H117.169V18.4062Z" fill="#00D0FF"/>
<path d="M131.644 11.9844H118.737V10.6719H131.644V11.9844ZM130.081 16.0469H121.987V17.0312H130.503V18.2344H120.253V14.9219H128.362V14.0469H120.237V12.8281H130.081V16.0469ZM130.05 7.76562H122.097V8.6875H130.3V9.875H120.378V6.64062H128.316V5.78125H120.331V4.57812H130.05V7.76562ZM140.641 6.71875C140.641 7.30729 140.766 7.8776 141.016 8.42969C141.271 8.97656 141.648 9.46615 142.148 9.89844C142.654 10.3307 143.266 10.6667 143.984 10.9062L143.109 12.25C142.339 11.9948 141.672 11.6172 141.109 11.1172C140.547 10.612 140.107 10.0208 139.789 9.34375C139.471 10.0833 139.018 10.7266 138.43 11.2734C137.846 11.8151 137.151 12.224 136.344 12.5L135.422 11.1562C136.161 10.9115 136.792 10.5625 137.312 10.1094C137.833 9.65104 138.227 9.13021 138.492 8.54688C138.758 7.95833 138.891 7.34896 138.891 6.71875V6.54688H135.906V5.15625H143.578V6.54688H140.641V6.71875ZM146.719 7.79688H148.688V9.25H146.719V12.7812H144.984V4.26562H146.719V7.79688ZM146.719 18.3906H144.984V14.8281H137.312V13.4375H146.719V18.3906ZM154.178 6.29688C154.173 6.94792 154.295 7.5625 154.545 8.14062C154.795 8.71875 155.17 9.22917 155.67 9.67188C156.176 10.1094 156.787 10.4427 157.506 10.6719L156.569 12.0312C155.808 11.7656 155.157 11.3854 154.616 10.8906C154.079 10.3958 153.657 9.80729 153.35 9.125C153.032 9.91146 152.577 10.5938 151.983 11.1719C151.389 11.7448 150.673 12.1771 149.834 12.4688L148.912 11.0625C149.673 10.8125 150.316 10.4505 150.842 9.97656C151.368 9.5026 151.764 8.95573 152.03 8.33594C152.295 7.71615 152.428 7.0625 152.428 6.375V5.03125H154.178V6.29688ZM160.834 12.5781H159.1V8.42188H156.287V7H159.1V4.26562H160.834V12.5781ZM156.053 12.9531C157.048 12.9531 157.907 13.0599 158.631 13.2734C159.36 13.487 159.918 13.7995 160.303 14.2109C160.689 14.6172 160.881 15.1042 160.881 15.6719C160.881 16.2396 160.689 16.7266 160.303 17.1328C159.918 17.5391 159.363 17.8464 158.639 18.0547C157.915 18.2682 157.053 18.375 156.053 18.375C155.058 18.375 154.199 18.2682 153.475 18.0547C152.756 17.8464 152.204 17.5391 151.819 17.1328C151.439 16.7266 151.251 16.2396 151.256 15.6719C151.251 15.1042 151.439 14.6172 151.819 14.2109C152.204 13.7995 152.759 13.487 153.483 13.2734C154.207 13.0599 155.064 12.9531 156.053 12.9531ZM156.053 14.2969C155.064 14.2969 154.303 14.4167 153.772 14.6562C153.241 14.8906 152.975 15.2292 152.975 15.6719C152.975 16.1042 153.241 16.4375 153.772 16.6719C154.308 16.901 155.069 17.0156 156.053 17.0156C157.037 17.0156 157.798 16.8984 158.334 16.6641C158.876 16.4297 159.147 16.099 159.147 15.6719C159.147 15.2292 158.879 14.8906 158.342 14.6562C157.806 14.4167 157.043 14.2969 156.053 14.2969ZM169.325 7.90625H162.403V6.51562H165.028V4.67188H166.747V6.51562H169.325V7.90625ZM165.887 8.65625C166.481 8.65625 167.01 8.79688 167.473 9.07812C167.942 9.35417 168.307 9.74219 168.567 10.2422C168.833 10.7422 168.966 11.3073 168.966 11.9375C168.966 12.5781 168.833 13.151 168.567 13.6562C168.307 14.1615 167.942 14.5573 167.473 14.8438C167.01 15.125 166.481 15.2656 165.887 15.2656C165.299 15.2656 164.77 15.125 164.302 14.8438C163.833 14.5573 163.466 14.1615 163.2 13.6562C162.934 13.151 162.804 12.5781 162.809 11.9375C162.804 11.3073 162.934 10.7422 163.2 10.2422C163.466 9.74219 163.833 9.35417 164.302 9.07812C164.77 8.79688 165.299 8.65625 165.887 8.65625ZM165.887 10.0938C165.58 10.0938 165.309 10.1719 165.075 10.3281C164.841 10.4792 164.658 10.6953 164.528 10.9766C164.398 11.2526 164.335 11.5729 164.341 11.9375C164.335 12.3125 164.398 12.6406 164.528 12.9219C164.658 13.2031 164.841 13.4193 165.075 13.5703C165.309 13.7161 165.58 13.7865 165.887 13.7812C166.19 13.7865 166.458 13.7161 166.692 13.5703C166.927 13.4193 167.109 13.2031 167.239 12.9219C167.369 12.6406 167.434 12.3125 167.434 11.9375C167.434 11.5729 167.369 11.2526 167.239 10.9766C167.109 10.6953 166.927 10.4792 166.692 10.3281C166.458 10.1719 166.19 10.0938 165.887 10.0938ZM174.575 18.3906H172.919V11.4844H171.544V17.75H169.919V4.5625H171.544V10.0781H172.919V4.26562H174.575V18.3906ZM188.769 16.6875H175.863V15.2656H181.425V12.5156H177.284V5.20312H179.019V7.51562H185.566V5.20312H187.3V12.5156H183.144V15.2656H188.769V16.6875ZM185.566 11.1094V8.90625H179.019V11.1094H185.566ZM193.697 7.96875C193.697 8.76042 193.791 9.52865 193.978 10.2734C194.171 11.0182 194.47 11.7005 194.877 12.3203C195.283 12.9401 195.791 13.4427 196.4 13.8281L195.447 15.1562C194.832 14.7865 194.311 14.2917 193.884 13.6719C193.457 13.0469 193.121 12.3307 192.877 11.5234C192.611 12.4036 192.249 13.1849 191.791 13.8672C191.332 14.5495 190.78 15.0885 190.134 15.4844L189.056 14.1875C189.718 13.7865 190.27 13.2604 190.713 12.6094C191.155 11.9583 191.483 11.2422 191.697 10.4609C191.916 9.67969 192.025 8.875 192.025 8.04688V5.51562H193.697V7.96875ZM201.478 18.3906H199.806V4.26562H201.478V18.3906ZM198.541 17.7031H196.9V10.5625H194.884V9.125H196.9V4.51562H198.541V17.7031ZM215.625 16.6719H202.719V15.25H205.703V11.6797C205.13 11.3464 204.685 10.9323 204.367 10.4375C204.055 9.94271 203.901 9.38542 203.906 8.76562C203.901 8.03125 204.122 7.38021 204.57 6.8125C205.018 6.24479 205.641 5.80729 206.438 5.5C207.234 5.1875 208.135 5.03125 209.141 5.03125C210.151 5.03125 211.055 5.1875 211.852 5.5C212.654 5.80729 213.279 6.24479 213.727 6.8125C214.18 7.375 214.406 8.02604 214.406 8.76562C214.406 9.36979 214.253 9.91927 213.945 10.4141C213.643 10.9036 213.214 11.3125 212.656 11.6406V15.25H215.625V16.6719ZM209.141 6.40625C208.438 6.40625 207.818 6.5026 207.281 6.69531C206.75 6.88281 206.336 7.15365 206.039 7.50781C205.747 7.86198 205.604 8.28125 205.609 8.76562C205.604 9.24479 205.747 9.66146 206.039 10.0156C206.336 10.3698 206.753 10.6432 207.289 10.8359C207.826 11.0286 208.443 11.125 209.141 11.125C209.839 11.125 210.456 11.0286 210.992 10.8359C211.534 10.6432 211.953 10.3698 212.25 10.0156C212.552 9.66146 212.703 9.24479 212.703 8.76562C212.703 8.28646 212.552 7.86979 212.25 7.51562C211.953 7.15625 211.536 6.88281 211 6.69531C210.464 6.5026 209.844 6.40625 209.141 6.40625ZM210.891 15.25V12.3047C210.339 12.4245 209.755 12.4844 209.141 12.4844C208.552 12.4844 207.979 12.4271 207.422 12.3125V15.25H210.891ZM218.881 13.6719H217.116L216.928 5.6875H219.053L218.881 13.6719ZM218.006 17.125C217.788 17.125 217.584 17.0703 217.397 16.9609C217.209 16.8516 217.061 16.7031 216.952 16.5156C216.842 16.3281 216.788 16.125 216.788 15.9062C216.788 15.6927 216.842 15.4948 216.952 15.3125C217.061 15.125 217.209 14.9766 217.397 14.8672C217.584 14.7578 217.788 14.7031 218.006 14.7031C218.215 14.7031 218.41 14.7578 218.592 14.8672C218.78 14.9766 218.928 15.125 219.038 15.3125C219.152 15.4948 219.209 15.6927 219.209 15.9062C219.209 16.125 219.152 16.3281 219.038 16.5156C218.928 16.7031 218.78 16.8516 218.592 16.9609C218.41 17.0703 218.215 17.125 218.006 17.125Z" fill="white"/>
<path d="M67.2656 176.266V190.391H65.5156V176.266H67.2656ZM63.0469 177.766C63.0469 181.969 61.4219 185.547 56.4688 187.891L55.5625 186.5C59.2578 184.742 60.9766 182.352 61.2812 179.141H56.2812V177.766H63.0469ZM76.7875 177.312V178.156C76.7719 179.125 76.7719 180.516 76.4438 182.312L74.725 182.156C74.9984 180.695 75.0531 179.617 75.0844 178.75H69.5844V177.312H76.7875ZM73.225 180.531V183.344C74.6859 183.289 76.1859 183.18 77.5531 182.984L77.6469 184.234C74.7094 184.766 71.3813 184.812 68.8969 184.828L68.7406 183.438C69.5766 183.43 70.5141 183.422 71.5063 183.406V180.531H73.225ZM80.1625 176.266V180.672H81.9906V182.125H80.1625V186.844H78.3813V176.266H80.1625ZM80.6156 188.703V190.109H70.85V185.906H72.6V188.703H80.6156ZM94.5125 176.266V190.391H92.8406V176.266H94.5125ZM91.6063 176.516V189.703H89.95V182.984H88.6063C88.4422 185.734 87.2625 187.438 85.5125 187.422C83.6688 187.438 82.4656 185.484 82.4656 182.375C82.4656 179.266 83.6688 177.344 85.5125 177.344C87.2234 177.344 88.3875 178.938 88.5906 181.578H89.95V176.516H91.6063ZM85.5125 178.984C84.6219 178.969 84.0594 180.172 84.075 182.375C84.0594 184.578 84.6219 185.781 85.5125 185.766C86.45 185.781 87.0125 184.578 87.0125 182.375C87.0125 180.172 86.45 178.969 85.5125 178.984ZM100.972 179.656C100.972 182.281 102.222 184.859 104.472 185.844L103.425 187.234C101.823 186.453 100.698 184.953 100.097 183.109C99.4797 185.055 98.3312 186.672 96.7062 187.5L95.6125 186.094C97.9094 185.016 99.1906 182.297 99.2062 179.656V177.406H100.972V179.656ZM107.597 176.266V190.406H105.878V182.234H102.909V180.828H105.878V176.266H107.597ZM119.828 177.453V180.078H122.672V176.281H124.406V186.562H122.672V181.469H119.828V184.156H113.188V177.453H119.828ZM114.922 178.828V182.781H118.109V178.828H114.922ZM124.766 188.703V190.109H115.141V185.594H116.875V188.703H124.766ZM137.85 176.266V190.406H136.116V182.688H133.397V181.266H136.116V176.266H137.85ZM131.194 180.016C131.194 182.453 132.506 185.047 134.787 186.031L133.756 187.422C132.116 186.641 130.944 185.07 130.334 183.203C129.702 185.195 128.506 186.875 126.866 187.703L125.819 186.344C128.084 185.281 129.412 182.594 129.428 180.016V179.078H126.397V177.656H134.225V179.078H131.194V180.016ZM154.659 176.281V186.641H152.925V183.141H149.566C148.886 183.898 147.886 184.359 146.753 184.359C144.628 184.359 143.019 182.828 143.019 180.75C143.019 178.641 144.628 177.125 146.753 177.125C147.878 177.125 148.87 177.578 149.55 178.328H152.925V176.281H154.659ZM155.019 188.703V190.109H145.394V185.578H147.128V188.703H155.019ZM146.753 178.672C145.534 178.672 144.675 179.484 144.675 180.75C144.675 182 145.534 182.812 146.753 182.812C147.909 182.812 148.784 182 148.8 180.75C148.784 179.484 147.909 178.672 146.753 178.672ZM150.316 179.734C150.402 180.055 150.456 180.391 150.456 180.75C150.456 181.094 150.409 181.422 150.331 181.734H152.925V179.734H150.316ZM163.244 177.078V181.266H158.541V182.844C160.939 182.836 162.58 182.758 164.509 182.422L164.697 183.812C162.588 184.172 160.759 184.266 157.963 184.266H156.806V179.922H161.541V178.484H156.791V177.078H163.244ZM167.4 176.281V179.734H169.384V181.172H167.4V184.859H165.666V176.281H167.4ZM167.4 185.531V190.375H165.666V186.922H157.994V185.531H167.4ZM181.438 176.266V190.406H179.688V176.266H181.438ZM173.828 177.297C175.953 177.297 177.5 179.234 177.516 182.281C177.5 185.359 175.953 187.281 173.828 187.281C171.688 187.281 170.141 185.359 170.141 182.281C170.141 179.234 171.688 177.297 173.828 177.297ZM173.828 178.859C172.625 178.859 171.812 180.125 171.812 182.281C171.812 184.453 172.625 185.719 173.828 185.719C175.016 185.719 175.828 184.453 175.828 182.281C175.828 180.125 175.016 178.859 173.828 178.859ZM192.934 176.406C196.153 176.406 198.012 177.266 198.028 178.828C198.012 180.266 196.473 181.094 193.778 181.234V182.141H199.387V183.531H186.512V182.141H192.059V181.234C189.38 181.086 187.841 180.258 187.841 178.828C187.841 177.266 189.716 176.406 192.934 176.406ZM192.934 177.703C190.778 177.703 189.653 178.094 189.669 178.828C189.653 179.609 190.778 179.969 192.934 179.984C195.122 179.969 196.231 179.609 196.231 178.828C196.231 178.094 195.122 177.703 192.934 177.703ZM197.778 184.438V187.891H189.747V188.938H198.169V190.266H188.044V186.656H196.075V185.75H188.028V184.438H197.778ZM210.697 177.438C210.697 179.219 212.681 181.016 215.697 181.406L215.009 182.812C212.611 182.453 210.705 181.273 209.791 179.672C208.861 181.273 206.962 182.453 204.587 182.812L203.9 181.406C206.884 181.016 208.869 179.219 208.869 177.438V176.719H210.697V177.438ZM216.212 184.031V185.469H210.603V190.391H208.884V185.469H203.337V184.031H216.212ZM225.178 185.453C225.178 186.625 225.717 187.859 226.928 188.625C228.155 187.805 228.725 186.523 228.741 185.453V184.875H230.444V185.453C230.428 186.938 231.303 188.312 233.163 188.906L232.319 190.172C230.944 189.711 230.03 188.812 229.538 187.688C229.084 188.797 228.248 189.789 226.975 190.297C225.631 189.812 224.788 188.859 224.35 187.734C223.842 188.82 222.944 189.703 221.631 190.172L220.772 188.906C222.6 188.266 223.475 186.828 223.491 185.453V184.875H225.178V185.453ZM231.928 176.281V184.281H230.178V176.281H231.928ZM224.225 177.031C226.397 177.031 228.022 178.406 228.022 180.391C228.022 182.359 226.397 183.734 224.225 183.734C222.038 183.734 220.413 182.359 220.413 180.391C220.413 178.406 222.038 177.031 224.225 177.031ZM224.225 178.5C222.991 178.5 222.1 179.234 222.116 180.391C222.1 181.547 222.991 182.297 224.225 182.297C225.444 182.297 226.319 181.547 226.319 180.391C226.319 179.234 225.444 178.5 224.225 178.5ZM237.45 177.297C239.364 177.297 240.778 178.891 241.028 181.469H243.716V176.266H245.434V190.406H243.716V182.875H241.044C240.856 185.602 239.419 187.281 237.45 187.281C235.325 187.281 233.825 185.359 233.825 182.281C233.825 179.234 235.325 177.297 237.45 177.297ZM237.45 178.859C236.278 178.859 235.481 180.125 235.497 182.281C235.481 184.453 236.278 185.719 237.45 185.719C238.622 185.719 239.403 184.453 239.419 182.281C239.403 180.125 238.622 178.859 237.45 178.859ZM259.925 187.25V188.672H247.019V187.25H250.003V183.672C248.878 183.031 248.198 182.023 248.206 180.766C248.191 178.516 250.409 177.031 253.441 177.031C256.488 177.031 258.706 178.516 258.706 180.766C258.706 182 258.05 182.992 256.956 183.641V187.25H259.925ZM253.441 178.406C251.331 178.406 249.894 179.297 249.909 180.766C249.894 182.219 251.331 183.125 253.441 183.125C255.55 183.125 257.003 182.219 257.003 180.766C257.003 179.297 255.55 178.406 253.441 178.406ZM251.722 187.25H255.191V184.297C254.652 184.422 254.066 184.484 253.441 184.484C252.831 184.484 252.253 184.422 251.722 184.312V187.25ZM262.166 189.125C261.494 189.125 260.947 188.578 260.947 187.906C260.947 187.25 261.494 186.703 262.166 186.703C262.806 186.703 263.369 187.25 263.369 187.906C263.369 188.578 262.806 189.125 262.166 189.125Z" fill="white"/>
<rect x="0.5" y="47.5" width="319" height="99" rx="11.5" fill="white"/>
<rect x="0.5" y="47.5" width="319" height="99" rx="11.5" stroke="#D9D9D9"/>
<path d="M30.6641 76.4258V83.6719H29.3652V82.1816H26.2754V81.1152H29.3652V79.625H26.4053C25.6123 81.5938 23.7734 82.9814 21.1211 83.7402L20.6016 82.7285C23.5 81.9014 25.1953 80.3428 25.4277 78.3672H21.2305V77.3008H26.8359C26.8359 77.752 26.7881 78.1895 26.7061 78.5996H29.3652V76.4258H30.6641ZM22.502 86.2012C22.502 84.7178 24.1152 83.8154 26.6309 83.8086C29.1123 83.8154 30.7393 84.7178 30.7461 86.2012C30.7393 87.6914 29.1123 88.6074 26.6309 88.6074C24.1152 88.6074 22.502 87.6914 22.502 86.2012ZM23.7871 86.2012C23.7871 87.0625 24.8809 87.5615 26.6309 87.5684C28.3467 87.5615 29.4404 87.0625 29.4473 86.2012C29.4404 85.3262 28.3467 84.8271 26.6309 84.834C24.8809 84.8271 23.7871 85.3262 23.7871 86.2012ZM38.1787 77.1504V80.7188H34.1318V82.4141C36.2646 82.4141 37.4267 82.3662 38.8076 82.1133L38.9306 83.166C37.4336 83.4189 36.1757 83.46 33.7353 83.4668H32.8466V79.7344H36.8798V78.1895H32.833V77.1504H38.1787ZM34.2412 85.627V84.5742H42.5537V88.6758H41.2548V85.627H34.2412ZM38.958 81.7988V80.7598H41.2548V79.2422H38.958V78.2031H41.2548V76.4258H42.5537V83.959H41.2548V81.7988H38.958ZM48.6464 79.5293C48.6464 81.7715 49.9042 84.0068 51.7773 84.8477L50.9843 85.8867C49.5966 85.1895 48.5439 83.8086 48.0038 82.1338C47.4638 83.8975 46.3974 85.3877 44.9823 86.1191L44.162 85.0664C46.0624 84.1572 47.3271 81.7988 47.3339 79.5293V77.4375H48.6464V79.5293ZM50.4237 81.5391V80.4863H53.1581V76.4121H54.4433V88.6895H53.1581V81.5391H50.4237ZM67.3173 82.0312V83.0293H56.1063V82.0312H67.3173ZM57.4325 84.8203V83.8906H65.9364V86.584H58.745V87.5957H66.3192V88.5117H57.4462V85.7227H64.6512V84.8203H57.4325ZM57.5145 77.6426V76.7266H65.9091V79.3789H58.827V80.3086H66.1141V81.2246H57.5419V78.5176H64.6102V77.6426H57.5145ZM74.8816 80.1582C74.8816 82.0654 75.7703 84.0342 77.4793 84.9297L76.741 85.9004C75.5516 85.2715 74.7244 84.1025 74.2801 82.7217C73.8494 84.1982 73.0291 85.4766 71.8465 86.1602L71.0809 85.2031C72.7693 84.2188 73.6512 82.1338 73.6648 80.1582V79.707H71.3953V78.627H73.6648V76.8496H74.8816V78.627H77.1102V79.707H74.8816V80.1582ZM77.8621 88.0605V76.6445H79.0926V81.2793H80.5555V76.4121H81.7996V88.6621H80.5555V82.373H79.0926V88.0605H77.8621ZM94.3045 83.3711V84.4512H89.3005V88.6621H88.0291V84.4512H83.0935V83.3711H94.3045ZM84.3103 79.5977C84.3172 77.9297 86.0808 76.877 88.6716 76.877C91.2625 76.877 93.0398 77.9297 93.033 79.5977C93.0398 81.2451 91.2625 82.291 88.6716 82.291C86.0808 82.291 84.3172 81.2451 84.3103 79.5977ZM85.6502 79.5977C85.6433 80.6162 86.8533 81.252 88.6716 81.252C90.4968 81.252 91.7 80.6162 91.7068 79.5977C91.7 78.5654 90.4968 77.9229 88.6716 77.916C86.8533 77.9229 85.6433 78.5654 85.6502 79.5977ZM101.245 77.4512V78.4902H103.911V76.4258H105.21V85.3535H103.911V82.1816H101.245V83.248H95.5573V77.4512H101.245ZM96.8425 82.2227H99.9734V78.5039H96.8425V82.2227ZM97.2116 88.4023V84.5332H98.5241V87.3496H105.483V88.4023H97.2116ZM101.245 81.1152H103.911V79.5566H101.245V81.1152ZM116.315 77.5469V78.627H112.008V84.6016C114.066 84.5879 115.467 84.5127 117.081 84.2051L117.231 85.2715C115.467 85.6064 113.977 85.6816 111.667 85.6816H110.696V77.5469H116.315ZM115.618 81.8672V80.7871H119.022V76.4121H120.321V88.6895H119.022V81.8672H115.618ZM134.817 76.4121V79.1055H136.594V80.1855H134.817V82.6328H133.518V76.4121H134.817ZM125.67 82.2363V77.2051H131.399V82.2363H125.67ZM126.422 88.334V83.6992H127.694V87.2676C128.412 87.2334 129.239 87.1309 130.018 86.8711L130.21 87.8965C129.068 88.2861 127.967 88.334 127.051 88.334H126.422ZM126.942 81.1973H130.128V78.2441H126.942V81.1973ZM129.786 84.793V83.8359H132.26V82.8105H133.532V83.8359H135.965V84.793H129.786ZM130.565 86.9121C130.551 85.8525 131.495 85.2031 132.876 85.1895C134.229 85.2031 135.186 85.8525 135.186 86.9121C135.186 87.9717 134.229 88.6348 132.876 88.6348C131.495 88.6348 130.551 87.9717 130.565 86.9121ZM131.713 86.9121C131.713 87.4316 132.199 87.7461 132.876 87.7461C133.539 87.7461 134.017 87.4316 134.024 86.9121C134.017 86.4062 133.539 86.1055 132.876 86.0918C132.199 86.1055 131.713 86.4062 131.713 86.9121ZM148.251 82.8105V83.8496H137.082V82.8105H148.251ZM138.285 79.2695C138.278 77.7314 139.994 76.8154 142.66 76.8223C145.312 76.8154 147.028 77.7314 147.035 79.2695C147.028 80.8145 145.312 81.751 142.66 81.7578C139.994 81.751 138.278 80.8145 138.285 79.2695ZM138.49 88.4023V84.8477H139.802V87.3496H146.994V88.4023H138.49ZM139.625 79.2695C139.618 80.1787 140.78 80.6914 142.66 80.6914C144.533 80.6914 145.702 80.1787 145.695 79.2695C145.702 78.3945 144.533 77.8613 142.66 77.8613C140.78 77.8613 139.618 78.3945 139.625 79.2695ZM155.652 76.8223C157.497 76.8359 158.858 77.9639 158.865 79.5703C158.858 81.1836 157.497 82.3047 155.652 82.3047C153.786 82.3047 152.432 81.1836 152.425 79.5703C152.432 77.9639 153.786 76.8359 155.652 76.8223ZM153.697 79.5703C153.69 80.582 154.524 81.252 155.652 81.252C156.773 81.252 157.607 80.582 157.607 79.5703C157.607 78.5723 156.773 77.9023 155.652 77.916C154.524 77.9023 153.69 78.5723 153.697 79.5703ZM154.285 84.2461V83.207H162.337V86.2969H155.583V87.4727H162.747V88.5117H154.326V85.3262H161.052V84.2461H154.285ZM161.039 82.6465V76.4121H162.337V82.6465H161.039ZM168.334 80.0215C168.328 81.9561 169.606 84.1162 171.465 84.998L170.727 86.0098C169.353 85.3535 168.259 83.9727 167.705 82.373C167.145 84.1162 165.996 85.627 164.602 86.3242L163.836 85.2988C165.696 84.4033 167.042 82.0928 167.049 80.0215V78.7227H164.288V77.6426H171V78.7227H168.334V80.0215ZM172.313 88.6621V76.4121H173.612V81.2656H175.58V82.3594H173.612V88.6621H172.313ZM186.13 76.4121V88.6895H184.831V76.4121H186.13ZM176.642 78.5723V77.5195H182.384V81.9902H177.982V84.6699C179.971 84.6631 181.701 84.5674 183.751 84.2324L183.874 85.2988C181.707 85.6611 179.862 85.7432 177.695 85.75H176.656V80.9512H181.058V78.5723H176.642ZM202.226 83.7949V84.8613H197.277V88.6758H195.991V84.8613H191.056V83.7949H202.226ZM191.712 81.9082C194.036 81.6143 195.909 80.3154 195.991 78.9414H192.109V77.8887H195.991V76.4121H197.277V77.8887H201.159V78.9414H197.29C197.359 80.3018 199.211 81.6143 201.542 81.9082L201.077 82.9473C199.109 82.6738 197.434 81.751 196.641 80.5C195.848 81.7646 194.166 82.6738 192.191 82.9473L191.712 81.9082ZM207.239 79.3242C207.239 80.8691 208.394 82.291 210.274 82.8789L209.645 83.9043C208.237 83.46 207.177 82.5303 206.616 81.334C206.083 82.6123 205.024 83.6172 203.574 84.0957L202.946 83.084C204.819 82.4824 205.953 80.9717 205.953 79.3242V79.0371H203.287V77.9844H205.953V76.4941H207.252V77.9844H209.905V79.0371H207.239V79.3242ZM205.201 88.4023V84.7383H206.5V87.3496H213.487V88.4023H205.201ZM209.481 81.1836V80.1309H211.86V76.4258H213.158V85.5449H211.86V81.1836H209.481ZM220.413 76.6172C223.175 76.6104 224.781 77.3555 224.788 78.7227C224.781 80.0967 223.175 80.8418 220.413 80.8418C217.652 80.8418 216.031 80.0967 216.038 78.7227C216.031 77.3555 217.652 76.6104 220.413 76.6172ZM214.835 82.6328V81.5938H226.005V82.6328H214.835ZM216.175 84.5469V83.5762H224.597V86.4473H217.46V87.541H224.939V88.5391H216.189V85.5039H223.312V84.5469H216.175ZM217.392 78.7227C217.385 79.4814 218.465 79.8711 220.413 79.8711C222.375 79.8711 223.455 79.4814 223.448 78.7227C223.455 77.998 222.375 77.5742 220.413 77.5742C218.465 77.5742 217.385 77.998 217.392 78.7227ZM239.558 76.4121V79.3105H241.335V80.3906H239.558V83.5625H238.259V76.4121H239.558ZM230.411 82.8516V77.1094H231.683V78.8867H234.896V77.1094H236.181V82.8516H230.411ZM231.683 81.8262H234.896V79.9121H231.683V81.8262ZM231.751 88.4844V84.2051H239.653V85.2441H233.05V87.459H239.872V88.4844H231.751ZM245.104 77.3281C246.936 77.335 248.241 79.0029 248.248 81.6211C248.241 84.2666 246.936 85.9346 245.104 85.9277C243.272 85.9346 241.966 84.2666 241.973 81.6211C241.966 79.0029 243.272 77.335 245.104 77.3281ZM243.217 81.6211C243.21 83.5693 243.989 84.7656 245.104 84.7656C246.238 84.7656 247.004 83.5693 247.004 81.6211C247.004 79.7002 246.238 78.4971 245.104 78.4902C243.989 78.4971 243.21 79.7002 243.217 81.6211ZM250.066 88.6621V76.4121H251.365V81.2109H253.334V82.3047H251.365V88.6621H250.066ZM264.923 86.0508V87.1309H253.712V86.0508H256.392V82.8516C255.387 82.2979 254.772 81.4229 254.778 80.3223C254.772 78.3945 256.665 77.1299 259.29 77.123C261.922 77.1299 263.815 78.3945 263.815 80.3223C263.815 81.4023 263.228 82.2705 262.243 82.8242V86.0508H264.923ZM256.036 80.3223C256.036 81.6348 257.369 82.4893 259.29 82.4961C261.197 82.4893 262.551 81.6348 262.558 80.3223C262.551 79.0029 261.197 78.1621 259.29 78.1621C257.369 78.1621 256.036 79.0029 256.036 80.3223ZM257.677 86.0508H260.931V83.3301C260.432 83.4463 259.878 83.5078 259.29 83.5078C258.716 83.5078 258.169 83.4463 257.677 83.3301V86.0508Z" fill="#737373"/>
<path d="M33.834 101.191V110.473H31.8828V108.715H28.1035V107.133H31.8828V105.428H28.2617C27.251 107.959 24.9395 109.726 21.4766 110.684L20.6855 109.137C24.4033 108.126 26.3809 106.245 26.6973 103.881H21.5293V102.299H28.8242C28.8242 102.853 28.7803 103.38 28.6836 103.881H31.8828V101.191H33.834ZM28.5781 110.648C31.7949 110.648 33.9395 111.861 33.9395 113.812C33.9395 115.764 31.7949 116.977 28.5781 116.977C25.3262 116.977 23.1816 115.764 23.1816 113.812C23.1816 111.861 25.3262 110.648 28.5781 110.648ZM28.5781 112.178C26.4336 112.178 25.1328 112.758 25.1328 113.812C25.1328 114.85 26.4336 115.43 28.5781 115.43C30.6699 115.43 31.9883 114.85 31.9883 113.812C31.9883 112.758 30.6699 112.178 28.5781 112.178ZM43.4077 102.123V106.904H38.398V108.855C40.9468 108.864 42.4146 108.785 44.0933 108.469L44.2866 110.051C42.3882 110.367 40.7359 110.42 37.6245 110.42H36.4644V105.445H41.4566V103.67H36.4292V102.123H43.4077ZM49.1206 101.191V110.965H47.1695V108.346H44.357V106.781H47.1695V105.006H44.357V103.441H47.1695V101.191H49.1206ZM49.1206 111.721V117.064H47.1695V113.285H38.2573V111.721H49.1206ZM56.9717 104.988C56.9717 107.941 58.378 110.842 60.9092 111.949L59.7315 113.514C57.9297 112.635 56.6641 110.947 55.9873 108.873C55.293 111.062 54.001 112.881 52.1729 113.812L50.9424 112.23C53.5264 111.018 54.9678 107.959 54.9854 104.988V102.457H56.9717V104.988ZM64.4248 101.174V117.082H62.4912V107.889H59.1514V106.307H62.4912V101.174H64.4248ZM75.2403 106.008C75.2403 108.434 76.2423 110.93 78.4923 112.107L77.3848 113.549C75.8995 112.775 74.9063 111.387 74.3438 109.717C73.7813 111.51 72.7794 113.048 71.2852 113.9L70.1602 112.459C72.3751 111.158 73.3946 108.521 73.3946 106.008V105.568H70.6173V103.969H73.3946V101.736H75.2403V103.969H77.9825V105.568H75.2403V106.008ZM84.17 101.174V117.064H82.3067V109.014H80.672V116.291H78.8262V101.455H80.672V107.396H82.3067V101.174H84.17ZM100.177 110.121V111.738H93.8492V117.064H91.9156V111.738H85.6578V110.121H100.177ZM92.8824 101.736C96.2574 101.754 98.6129 103.125 98.6129 105.305C98.6129 107.467 96.2574 108.82 92.8824 108.82C89.4898 108.82 87.1695 107.467 87.1871 105.305C87.1695 103.125 89.4898 101.754 92.8824 101.736ZM92.8824 103.318C90.6324 103.318 89.1734 104.057 89.191 105.305C89.1734 106.535 90.6324 107.273 92.8824 107.273C95.1324 107.273 96.5914 106.535 96.5914 105.305C96.5914 104.057 95.1324 103.318 92.8824 103.318ZM113.935 102.633V104.162C113.917 106.131 113.917 108.346 113.302 111.668L111.333 111.457C111.948 108.363 111.948 106.104 111.966 104.197H102.474V102.633H113.935ZM115.446 113.408V115.008H100.962V113.408H106.306V107.889H108.239V113.408H115.446ZM124.75 101.684C127.158 101.684 128.951 103.178 128.969 105.27C128.951 107.379 127.158 108.855 124.75 108.855C122.324 108.855 120.531 107.379 120.531 105.27C120.531 103.178 122.324 101.684 124.75 101.684ZM124.75 103.301C123.414 103.301 122.43 104.057 122.43 105.27C122.43 106.5 123.414 107.273 124.75 107.273C126.086 107.273 127.07 106.5 127.07 105.27C127.07 104.057 126.086 103.301 124.75 103.301ZM133.486 101.174V109.207H131.518V101.174H133.486ZM133.486 109.893V114.041H124.891V115.324H133.961V116.871H122.975V112.6H131.535V111.422H122.94V109.893H133.486ZM141.232 105.691C141.232 108.152 142.691 110.947 145.205 112.107L144.115 113.654C142.322 112.811 140.995 111.105 140.283 109.119C139.562 111.299 138.174 113.162 136.345 114.041L135.203 112.512C137.734 111.316 139.263 108.328 139.281 105.691V104.355H135.818V102.738H144.554V104.355H141.232V105.691ZM147.982 101.174V107.361H150.425V108.996H147.982V117.064H146.031V101.174H147.982ZM164.06 101.174V117.082H162.126V101.174H164.06ZM159.173 102.562V108.521H153.706V111.721C156.211 111.703 158.373 111.58 160.843 111.158L161.019 112.758C158.312 113.232 155.939 113.32 153.091 113.32H151.702V106.975H157.187V104.145H151.685V102.562H159.173ZM184.596 110.719V112.318H178.303V117.082H176.369V112.318H170.112V110.719H184.596ZM183.242 103.055V104.602H178.338C178.523 106.175 180.588 107.818 183.77 108.205L183.049 109.752C180.421 109.418 178.382 108.258 177.354 106.729C176.308 108.275 174.251 109.418 171.606 109.752L170.903 108.205C174.075 107.818 176.158 106.201 176.352 104.602H171.447V103.055H176.369V101.191H178.303V103.055H183.242ZM191.111 104.936C191.111 106.834 192.429 108.662 194.943 109.436L193.994 110.965C192.192 110.42 190.891 109.269 190.162 107.801C189.459 109.383 188.149 110.631 186.295 111.229L185.345 109.699C187.842 108.908 189.16 106.975 189.16 104.936V104.689H185.838V103.143H189.16V101.279H191.129V103.143H194.433V104.689H191.111V104.936ZM198.705 101.191V112.986H196.754V107.484H193.906V105.92H196.754V101.191H198.705ZM199.109 115.166V116.748H188.281V111.967H190.232V115.166H199.109ZM217.22 101.174V104.865H219.434V106.482H217.22V110.438H215.268V101.174H217.22ZM207.165 102.105V104.268H210.874V102.105H212.807V109.594H205.231V102.105H207.165ZM207.165 108.047H210.874V105.779H207.165V108.047ZM217.325 111.211V112.775H208.923V115.289H217.624V116.836H206.971V111.211H217.325ZM233.244 101.174V117.064H231.276V101.174H233.244ZM228.498 102.861C228.498 107.59 226.67 111.615 221.098 114.252L220.078 112.688C224.236 110.71 226.169 108.021 226.512 104.408H220.887V102.861H228.498Z" fill="#262626"/>
<path d="M280.799 109.5H295.199M295.199 109.5L289.799 115.5M295.199 109.5L289.799 103.5" stroke="#0D0D0D" stroke-width="1.5" stroke-linecap="round" stroke-linejoin="round"/>
</svg>
