<svg width="336" height="345" viewBox="0 0 336 345" fill="none" xmlns="http://www.w3.org/2000/svg">
<g filter="url(#filter0_d_1632_6604)">
<rect x="8" y="38" width="320" height="275" rx="12" fill="white"/>
<rect x="8.5" y="38.5" width="319" height="274" rx="11.5" stroke="#F2F2F2"/>
<rect x="28" y="58" width="95" height="26" rx="4" fill="#F4FFF6"/>
<rect x="36" y="68" width="6" height="6" rx="3" fill="#119739"/>
<path d="M49.6309 66.0215C50.2064 66.0215 50.7248 66.1336 51.186 66.3579C51.6473 66.578 52.0091 66.8848 52.2715 67.2783C52.5381 67.6719 52.6735 68.1162 52.6777 68.6113C52.6735 69.1107 52.5381 69.5571 52.2715 69.9507C52.0091 70.3442 51.6473 70.651 51.186 70.8711C50.7248 71.0911 50.2064 71.2012 49.6309 71.2012C49.0511 71.2012 48.5285 71.0911 48.063 70.8711C47.6017 70.651 47.2399 70.3442 46.9775 69.9507C46.7152 69.5571 46.584 69.1107 46.584 68.6113C46.584 68.1162 46.7152 67.6719 46.9775 67.2783C47.2399 66.8848 47.6038 66.578 48.0693 66.3579C48.5348 66.1336 49.0553 66.0215 49.6309 66.0215ZM49.6309 67.1895C49.3092 67.1895 49.0215 67.2487 48.7676 67.3672C48.5137 67.4814 48.3148 67.6465 48.1709 67.8623C48.027 68.0739 47.9551 68.3236 47.9551 68.6113C47.9551 68.9033 48.027 69.1593 48.1709 69.3794C48.3148 69.5952 48.5137 69.7624 48.7676 69.8809C49.0215 69.9993 49.3092 70.0586 49.6309 70.0586C49.9525 70.0586 50.2402 69.9993 50.4941 69.8809C50.748 69.7624 50.9469 69.5952 51.0908 69.3794C51.2347 69.1593 51.3066 68.9033 51.3066 68.6113C51.3066 68.3236 51.2347 68.0739 51.0908 67.8623C50.9469 67.6465 50.748 67.4814 50.4941 67.3672C50.2402 67.2487 49.9525 67.1895 49.6309 67.1895ZM55.9404 71.4551H54.5186V65.6533H55.9404V71.4551ZM55.9404 74.9463H49.7324V75.873H56.2832V76.9902H48.3486V73.9053H54.5312V73.0547H48.3232V71.9502H55.9404V74.9463ZM61.4045 68.916C61.4045 69.5169 61.5188 70.1221 61.7473 70.7314C61.98 71.3408 62.3122 71.8952 62.7438 72.3945C63.1797 72.8939 63.6896 73.279 64.2736 73.5498L63.4865 74.667C62.856 74.3708 62.3037 73.937 61.8298 73.3657C61.3558 72.7902 60.9855 72.1322 60.7189 71.3916C60.4523 72.1999 60.0736 72.9172 59.5827 73.5435C59.0918 74.1698 58.5227 74.6374 57.8752 74.9463L57.05 73.8418C57.6382 73.5625 58.1545 73.1584 58.5988 72.6294C59.0474 72.1004 59.3902 71.5101 59.6271 70.8584C59.8684 70.2067 59.9911 69.5592 59.9953 68.916V67.9512H57.4943V66.7832H63.8039V67.9512H61.4045V68.916ZM66.2795 70.1221H68.0441V71.3027H66.2795V77.1299H64.8703V65.6533H66.2795V70.1221ZM77.7611 77.1426H76.3646V65.6533H77.7611V77.1426ZM74.2318 70.96H70.2836V73.2705C71.2527 73.262 72.1413 73.2282 72.9496 73.1689C73.7621 73.1097 74.5915 73.0081 75.4379 72.8643L75.5648 74.0195C74.655 74.1803 73.76 74.2882 72.8798 74.3433C71.9996 74.3983 70.9861 74.4258 69.8393 74.4258H68.8363V69.8428H72.7973V67.7988H68.8236V66.6562H74.2318V70.96ZM92.3582 75.7334H81.8719V74.5781H86.3914V72.0771H83.0271V66.542H91.1521V72.0771H87.7879V74.5781H92.3582V75.7334ZM84.4109 70.9727H89.7557V67.6719H84.4109V70.9727ZM99.5488 67.4688H97.1367C97.1452 67.9215 97.2594 68.3574 97.4795 68.7764C97.6995 69.1911 98.019 69.5614 98.438 69.8872C98.8612 70.2088 99.3669 70.4521 99.9551 70.6172L99.2441 71.7217C98.5924 71.527 98.0275 71.2329 97.5493 70.8394C97.0754 70.4458 96.7051 69.9782 96.4385 69.4365C96.1761 70.0205 95.7995 70.5262 95.3086 70.9536C94.8219 71.381 94.2422 71.7005 93.5693 71.9121L92.8584 70.8076C93.4508 70.6341 93.9608 70.376 94.3882 70.0332C94.8156 69.6904 95.1393 69.299 95.3594 68.8589C95.5837 68.4146 95.7021 67.9512 95.7148 67.4688H93.2393V66.3389H99.5488V67.4688ZM102.342 71.874H100.92V65.6533H102.342V71.874ZM96.1465 73.5625H100.933V72.3818H102.342V76.9902H94.75V72.3818H96.1465V73.5625ZM100.933 75.8477V74.6543H96.1465V75.8477H100.933ZM114.154 72.0645H109.609V73.0229C110.645 73.0907 111.449 73.3001 112.021 73.6514C112.592 73.9984 112.88 74.4681 112.884 75.0605C112.88 75.4964 112.719 75.8688 112.402 76.1777C112.084 76.4867 111.629 76.7194 111.037 76.876C110.444 77.0368 109.736 77.1172 108.91 77.1172C108.077 77.1172 107.359 77.0368 106.758 76.876C106.162 76.7194 105.705 76.4867 105.387 76.1777C105.07 75.8688 104.911 75.4964 104.911 75.0605C104.911 74.4681 105.199 73.9963 105.775 73.645C106.35 73.2938 107.163 73.0864 108.212 73.0229V72.0645H103.693V70.9219H114.154V72.0645ZM108.91 74.083C108.068 74.0915 107.429 74.1782 106.993 74.3433C106.557 74.5041 106.342 74.7432 106.346 75.0605C106.342 75.3779 106.557 75.6213 106.993 75.7905C107.433 75.9556 108.072 76.0381 108.91 76.0381C109.731 76.0381 110.362 75.9556 110.802 75.7905C111.246 75.6213 111.471 75.3779 111.475 75.0605C111.471 74.7474 111.248 74.5083 110.808 74.3433C110.368 74.1782 109.736 74.0915 108.91 74.083ZM113.214 67.291H109.907C109.983 67.6084 110.182 67.9067 110.504 68.186C110.829 68.4653 111.261 68.7023 111.799 68.897C112.34 69.0916 112.96 69.2207 113.658 69.2842L113.163 70.4014C112.131 70.2956 111.242 70.048 110.497 69.6587C109.752 69.2694 109.224 68.7827 108.91 68.1987C108.597 68.7827 108.07 69.2715 107.33 69.665C106.593 70.0544 105.711 70.2998 104.683 70.4014L104.2 69.2842C104.882 69.2207 105.489 69.0916 106.022 68.897C106.555 68.7023 106.985 68.4653 107.311 68.186C107.637 67.9025 107.84 67.6042 107.92 67.291H104.645V66.1611H113.214V67.291Z" fill="#119739"/>
<path d="M38.1182 99.7041V106.877H36.9756V103.703H35.6553V106.483H34.5254V99.9199H35.6553V102.713H36.9756V99.7041H38.1182ZM34.1064 100.999V101.951H28.3555V100.999H30.6533V99.793H31.8467V100.999H34.1064ZM31.2373 102.484C32.6846 102.484 33.7002 103.259 33.7002 104.439C33.7002 105.62 32.6846 106.395 31.2373 106.395C29.8154 106.395 28.7998 105.62 28.7998 104.439C28.7998 103.259 29.8154 102.484 31.2373 102.484ZM31.2373 103.373C30.4375 103.373 29.8789 103.792 29.8789 104.439C29.8789 105.087 30.4375 105.519 31.2373 105.519C32.0625 105.519 32.6084 105.087 32.6084 104.439C32.6084 103.792 32.0625 103.373 31.2373 103.373ZM34.3096 107.042C36.7217 107.042 38.1689 107.766 38.1816 109.061C38.1689 110.33 36.7217 111.066 34.3096 111.054C31.8975 111.066 30.4502 110.33 30.4629 109.061C30.4502 107.766 31.8975 107.042 34.3096 107.042ZM34.3096 107.969C32.6211 107.969 31.6436 108.35 31.6562 109.061C31.6436 109.746 32.6211 110.14 34.3096 110.127C36.0107 110.14 36.9629 109.746 36.9756 109.061C36.9629 108.35 36.0107 107.969 34.3096 107.969ZM49.7014 105.506V106.483H39.3293V105.506H43.9123V104.274H40.6877V99.9707H41.8811V101.202H47.1496V99.9707H48.3557V104.274H45.1057V105.506H49.7014ZM48.4318 107.499V111.079H47.2131V108.464H40.4846V107.499H48.4318ZM41.8811 103.31H47.1496V102.104H41.8811V103.31ZM54.1879 102.599C54.1752 104.617 55.3432 106.674 57.0443 107.499L56.2953 108.464C55.0575 107.823 54.099 106.547 53.6039 105.023C53.0897 106.648 52.0932 108.007 50.7982 108.68L50.0492 107.702C51.8012 106.864 52.9818 104.681 52.9818 102.599V100.656H54.1879V102.599ZM59.101 99.7041V104.236H60.9291V105.265H59.101V111.079H57.8949V99.7041H59.101ZM70.0875 99.7168V102.497H71.7506V103.5H70.0875V106.56H68.8814V99.7168H70.0875ZM66.7867 100.402V103.589H62.8258V104.973C64.7999 104.966 66.1964 104.896 67.8531 104.617L67.9801 105.595C66.2154 105.912 64.7174 105.976 62.5338 105.963H61.6197V102.662H65.6061V101.38H61.607V100.402H66.7867ZM66.4059 106.864C68.7418 106.864 70.1891 107.651 70.1891 108.972C70.1891 110.292 68.7418 111.054 66.4059 111.054C64.0318 111.054 62.5846 110.292 62.5846 108.972C62.5846 107.651 64.0318 106.864 66.4059 106.864ZM66.4059 107.816C64.7428 107.816 63.7652 108.235 63.7652 108.972C63.7652 109.708 64.7428 110.14 66.4059 110.127C68.0563 110.14 69.0084 109.708 69.0084 108.972C69.0084 108.235 68.0563 107.816 66.4059 107.816ZM82.4705 108.654V109.657H72.0604V108.654H74.5486V105.684C73.6155 105.169 73.0506 104.351 73.0506 103.335C73.0506 101.545 74.8025 100.364 77.24 100.364C79.6902 100.364 81.4422 101.545 81.4422 103.335C81.4422 104.338 80.8963 105.144 79.9822 105.658V108.654H82.4705ZM77.24 101.329C75.45 101.329 74.2186 102.104 74.2186 103.335C74.2186 104.554 75.45 105.354 77.24 105.354C79.0174 105.354 80.2742 104.554 80.2742 103.335C80.2742 102.104 79.0174 101.329 77.24 101.329ZM75.742 108.654H78.7635V106.115C78.3001 106.236 77.7859 106.293 77.24 106.293C76.7068 106.293 76.199 106.236 75.742 106.128V108.654ZM93.5205 101.316V102.307H91.9082V103.754H93.5205V104.757H91.9082V106.42H90.7021V99.7041H91.9082V101.316H93.5205ZM86.1699 100.364C87.9092 100.364 89.1914 101.469 89.2041 103.068C89.1914 104.655 87.9092 105.76 86.1699 105.772C84.4307 105.76 83.1357 104.655 83.1484 103.068C83.1357 101.469 84.4307 100.364 86.1699 100.364ZM86.1699 101.38C85.1035 101.38 84.3164 102.065 84.3291 103.068C84.3164 104.084 85.1035 104.744 86.1699 104.757C87.2363 104.744 88.0234 104.084 88.0234 103.068C88.0234 102.065 87.2363 101.38 86.1699 101.38ZM88.2393 106.725C90.5625 106.725 92.0098 107.524 92.0098 108.896C92.0098 110.254 90.5625 111.066 88.2393 111.054C85.8906 111.066 84.418 110.254 84.418 108.896C84.418 107.524 85.8906 106.725 88.2393 106.725ZM88.2393 107.702C86.5889 107.702 85.6113 108.134 85.624 108.896C85.6113 109.67 86.5889 110.089 88.2393 110.089C89.877 110.089 90.8291 109.67 90.8291 108.896C90.8291 108.134 89.877 107.702 88.2393 107.702ZM103.58 99.7041V108.235H102.438V99.7041H103.58ZM101.321 99.9072V107.905H100.165V103.487H98.5022V102.497H100.165V99.9072H101.321ZM103.91 109.86V110.838H96.0393V107.194H97.2326V109.86H103.91ZM97.3215 102.116C97.3215 103.449 98.0705 104.795 99.5178 105.43L98.8449 106.356C97.842 105.899 97.1374 105.081 96.7629 104.097C96.3439 105.195 95.5886 106.141 94.5285 106.648L93.8557 105.722C95.3537 105.011 96.1535 103.462 96.1535 102.116V100.491H97.3215V102.116ZM114.275 99.7041V111.104H113.081V104.896H110.822V103.906H113.081V99.7041H114.275ZM110.631 100.72V101.697H106.531V103.906H110.149V104.871H106.531V107.41C108.435 107.404 109.755 107.359 111.266 107.093L111.393 108.07C109.743 108.337 108.308 108.4 106.201 108.413H105.312V100.72H110.631Z" fill="#404040"/>
<path d="M35.9277 132.412C39.25 132.412 41.3242 133.555 41.3242 135.506C41.3242 137.492 39.25 138.635 35.9277 138.635C32.5352 138.635 30.4434 137.492 30.4434 135.506C30.4434 133.555 32.5352 132.412 35.9277 132.412ZM35.9277 134.152C33.8184 134.152 32.6758 134.592 32.6934 135.506C32.6758 136.42 33.8184 136.895 35.9277 136.895C38.002 136.895 39.1094 136.42 39.1094 135.506C39.1094 134.592 38.002 134.152 35.9277 134.152ZM41.166 122.621V126.33H43.3281V128.211H41.166V132.061H38.916V122.621H41.166ZM31.1816 123.623V125.645H34.4512V123.623H36.7012V131.146H28.9492V123.623H31.1816ZM31.1816 129.371H34.4512V127.385H31.1816V129.371ZM58.2063 130.531V132.307H52.177V135.066H49.9621V132.307H43.5637V130.531H58.2063ZM56.3254 123.324V129.213H45.3918V123.324H56.3254ZM47.5891 125.064V127.473H54.1281V125.064H47.5891ZM56.5891 136.543V138.336H45.2863V133.678H47.5188V136.543H56.5891ZM73.3305 134.908V136.754H58.6879V134.908H61.9574V130.988C60.7182 130.25 59.9711 129.116 59.9711 127.701C59.9711 125.117 62.5023 123.395 65.9828 123.395C69.4457 123.395 71.9945 125.117 72.0121 127.701C72.0033 129.081 71.2738 130.206 70.0785 130.953V134.908H73.3305ZM65.9828 125.17C63.6977 125.17 62.1859 126.084 62.1859 127.701C62.1859 129.266 63.6977 130.232 65.9828 130.232C68.2504 130.232 69.7797 129.266 69.7973 127.701C69.7797 126.084 68.2504 125.17 65.9828 125.17ZM64.1723 134.908H67.8109V131.797C67.2396 131.911 66.6244 131.973 65.9828 131.973C65.3412 131.973 64.7348 131.92 64.1723 131.797V134.908ZM88.5602 124.607V126.436H86.4859V128.088H88.5602V129.934H86.4859V131.973H84.2359V122.621H86.4859V124.607H88.5602ZM78.2945 123.5C80.773 123.482 82.6539 125.1 82.6539 127.367C82.6539 129.635 80.773 131.234 78.2945 131.234C75.7984 131.234 73.9 129.635 73.9 127.367C73.9 125.1 75.7984 123.482 78.2945 123.5ZM78.2945 125.381C77.0289 125.363 76.0973 126.137 76.1148 127.367C76.0973 128.615 77.0289 129.354 78.2945 129.354C79.525 129.354 80.4566 128.615 80.4742 127.367C80.4566 126.137 79.525 125.363 78.2945 125.381ZM81.2477 132.289C84.5348 132.289 86.6441 133.484 86.6441 135.471C86.6441 137.439 84.5348 138.617 81.2477 138.617C77.8902 138.617 75.7633 137.439 75.7633 135.471C75.7633 133.484 77.8902 132.289 81.2477 132.289ZM81.2477 134.064C79.1383 134.064 77.9957 134.539 78.0133 135.471C77.9957 136.402 79.1383 136.842 81.2477 136.842C83.3219 136.842 84.4293 136.402 84.4293 135.471C84.4293 134.539 83.3219 134.064 81.2477 134.064ZM94.948 123.676L90.8348 138.916H88.6023L92.698 123.676H94.948ZM101.143 124.273V137H98.4883V126.787H98.418L95.5 128.615V126.277L98.6465 124.273H101.143ZM107.671 123.096C110.097 123.096 111.943 124.607 111.943 126.752C111.943 128.861 110.097 130.391 107.671 130.391C105.193 130.391 103.364 128.861 103.364 126.752C103.364 124.607 105.193 123.096 107.671 123.096ZM107.671 124.924C106.441 124.924 105.527 125.592 105.544 126.752C105.527 127.895 106.441 128.58 107.671 128.58C108.884 128.58 109.78 127.895 109.78 126.752C109.78 125.592 108.884 124.924 107.671 124.924ZM116.513 122.621V130.637H114.263V122.621H116.513ZM116.513 131.305V135.646H108.005V136.684H116.952V138.441H105.808V134.012H114.28V133.027H105.773V131.305H116.513ZM127.091 124.098C129.728 124.115 132.224 125.68 132.224 130.303C132.242 134.627 130.185 137.176 126.986 137.176C124.42 137.176 122.679 135.576 122.416 133.414H125.017C125.228 134.346 125.966 134.908 126.986 134.908C128.726 134.908 129.64 133.361 129.64 130.812H129.535C128.937 131.938 127.689 132.605 126.265 132.605C123.98 132.605 122.293 130.883 122.275 128.51C122.275 125.943 124.209 124.08 127.091 124.098ZM127.109 126.172C125.808 126.172 124.841 127.174 124.859 128.439C124.859 129.688 125.791 130.672 127.091 130.672C128.375 130.672 129.377 129.652 129.377 128.422C129.359 127.209 128.41 126.172 127.109 126.172ZM139.262 126.242C139.262 129.178 140.598 132.131 143.305 133.273L141.987 135.066C140.159 134.24 138.893 132.649 138.173 130.672C137.443 132.825 136.134 134.565 134.182 135.453L132.829 133.59C135.624 132.412 136.977 129.354 136.995 126.242V123.852H139.262V126.242ZM146.434 122.621V138.652H144.167V122.621H146.434ZM160.838 122.621V127.104H163V128.949H160.838V134.082H158.57V122.621H160.838ZM156.479 123.816C156.479 128.141 153.771 131.164 148.973 132.518L148.041 130.742C151.618 129.74 153.648 127.886 154.018 125.645H148.744V123.816H156.479ZM161.383 136.543V138.336H150.432V132.904H152.699V136.543H161.383ZM176.982 132.676V138.617H174.732V134.451H165.538V132.676H176.982ZM176.982 122.621V131.938H174.732V122.621H176.982ZM167.437 124.555C167.437 125.952 167.63 127.587 168.562 128.844C169.449 127.596 169.652 125.979 169.669 124.555V123.535H171.761V124.555C171.761 126.523 172.271 128.65 174.134 129.758L172.921 131.34C171.814 130.681 171.128 129.652 170.724 128.439C170.337 129.696 169.678 130.821 168.562 131.533C167.437 130.821 166.769 129.696 166.382 128.422C165.969 129.635 165.292 130.681 164.202 131.34L162.972 129.758C164.853 128.615 165.327 126.453 165.327 124.555V123.535H167.437V124.555ZM196.648 131.445V133.238H190.425V138.617H188.211V133.238H182.058V131.445H196.648ZM195.347 123.465V125.223H190.689C190.909 126.787 192.675 128.36 195.962 128.756L195.154 130.514C192.341 130.136 190.329 128.932 189.371 127.279C188.386 128.932 186.391 130.136 183.605 130.514L182.779 128.756C186.013 128.36 187.797 126.787 188.052 125.223H183.377V123.465H195.347ZM202.614 137.176C199.977 137.158 197.481 135.594 197.481 130.936C197.481 126.646 199.538 124.098 202.72 124.098C205.286 124.098 207.026 125.715 207.29 127.807H204.688C204.477 126.91 203.739 126.365 202.72 126.365C200.997 126.365 200.083 127.93 200.065 130.426H200.188C200.768 129.301 202.034 128.633 203.44 128.633C205.725 128.633 207.43 130.355 207.43 132.746C207.43 135.33 205.479 137.193 202.614 137.176ZM202.596 135.084C203.897 135.084 204.864 134.1 204.864 132.816C204.864 131.551 203.932 130.549 202.632 130.549C201.331 130.549 200.346 131.568 200.329 132.816C200.346 134.064 201.296 135.084 202.596 135.084ZM212.834 123.096C215.26 123.096 217.105 124.607 217.105 126.752C217.105 128.861 215.26 130.391 212.834 130.391C210.355 130.391 208.527 128.861 208.527 126.752C208.527 124.607 210.355 123.096 212.834 123.096ZM212.834 124.924C211.604 124.924 210.689 125.592 210.707 126.752C210.689 127.895 211.604 128.58 212.834 128.58C214.047 128.58 214.943 127.895 214.943 126.752C214.943 125.592 214.047 124.924 212.834 124.924ZM221.676 122.621V130.637H219.426V122.621H221.676ZM221.676 131.305V135.646H213.168V136.684H222.115V138.441H210.971V134.012H219.443V133.027H210.936V131.305H221.676ZM241.729 134.908V136.754H227.086V134.908H233.256V131.639H228.633V123.799H240.094V131.639H235.489V134.908H241.729ZM230.848 125.592V129.881H237.879V125.592H230.848ZM251.65 123.5V125.293H248.451C248.556 126.98 249.76 128.668 252.265 129.354L251.14 131.094C249.312 130.575 248.029 129.477 247.308 128.07C246.579 129.591 245.269 130.795 243.371 131.375L242.246 129.617C244.795 128.879 246.034 127.104 246.148 125.293H242.861V123.5H251.65ZM255.587 122.621V131.305H253.337V122.621H255.587ZM247.097 131.973V133.467H253.355V131.973H255.587V138.441H244.882V131.973H247.097ZM247.097 136.648H253.355V135.207H247.097V136.648Z" fill="#0D0D0D"/>
<rect x="28" y="151" width="74" height="26" rx="4" fill="#F0F5FF"/>
<path d="M40.5957 160.621C40.5957 161.095 40.6994 161.556 40.9067 162.005C41.1141 162.449 41.4209 162.849 41.8271 163.205C42.2334 163.556 42.7243 163.829 43.2998 164.023L42.5889 165.115C41.9626 164.912 41.4209 164.605 40.9639 164.195C40.5111 163.784 40.1556 163.304 39.8975 162.754C39.6393 163.368 39.2712 163.903 38.793 164.36C38.3148 164.813 37.7435 165.149 37.0791 165.369L36.3555 164.252C36.9479 164.057 37.4536 163.774 37.8726 163.401C38.2957 163.025 38.6152 162.597 38.8311 162.119C39.0511 161.637 39.1611 161.142 39.1611 160.634V160.481H36.7744V159.352H42.9697V160.481H40.5957V160.621ZM45.9912 170.13H44.582V167.172H38.1709V166.042H45.9912V170.13ZM45.9912 165.496H44.582V162.652H42.627V161.497H44.582V158.653H45.9912V165.496ZM56.343 161.484H57.9426V162.652H56.343V165.356H54.9338V158.653H56.343V161.484ZM50.3254 166.804H54.9338V165.813H56.343V169.99H48.9289V165.813H50.3254V166.804ZM54.9338 168.873V167.896H50.3254V168.873H54.9338ZM54.1086 160.85H47.3039V159.72H50.008V158.564H51.4172V159.72H54.1086V160.85ZM50.7063 161.243C51.2564 161.243 51.743 161.328 52.1662 161.497C52.5894 161.662 52.9174 161.897 53.1501 162.202C53.3871 162.506 53.5077 162.86 53.5119 163.262C53.5077 163.664 53.3871 164.017 53.1501 164.322C52.9174 164.626 52.5894 164.863 52.1662 165.033C51.743 165.198 51.2564 165.28 50.7063 165.28C50.1519 165.28 49.661 165.198 49.2336 165.033C48.8104 164.863 48.4803 164.626 48.2434 164.322C48.0064 164.017 47.8879 163.664 47.8879 163.262C47.8879 162.86 48.0064 162.506 48.2434 162.202C48.4803 161.897 48.8104 161.662 49.2336 161.497C49.661 161.328 50.1519 161.243 50.7063 161.243ZM50.7063 162.284C50.2661 162.284 49.9149 162.371 49.6525 162.544C49.3902 162.718 49.259 162.957 49.259 163.262C49.259 163.571 49.3881 163.812 49.6462 163.985C49.9086 164.155 50.2619 164.239 50.7063 164.239C51.1506 164.239 51.5039 164.153 51.7663 163.979C52.0329 163.806 52.1662 163.566 52.1662 163.262C52.1662 162.961 52.0329 162.724 51.7663 162.551C51.4997 162.373 51.1464 162.284 50.7063 162.284ZM67.5199 164.988H64.1176V167.616H68.6879V168.771H58.2016V167.616H62.7211V164.988H59.4711V159.504H67.4311V160.634H60.8803V163.871H67.5199V164.988ZM81.1902 162.513H77.8006V163.668H82.3328V164.798H71.8719V163.668H76.3914V162.513H73.2303V158.882H74.6395V161.383H81.1902V162.513ZM81.1902 166.804H79.5652V168.848H81.3172V169.99H72.9129V168.848H74.6395V166.804H73.0018V165.712H81.1902V166.804ZM78.1688 168.848V166.804H76.0359V168.848H78.1688ZM88 158.882C88.8421 158.882 89.5721 158.971 90.1899 159.148C90.812 159.326 91.2902 159.584 91.6245 159.923C91.9631 160.257 92.1344 160.655 92.1387 161.116C92.1344 161.569 91.9631 161.96 91.6245 162.291C91.2902 162.621 90.812 162.872 90.1899 163.046C89.5721 163.219 88.8421 163.304 88 163.3C87.1663 163.304 86.4364 163.219 85.8101 163.046C85.188 162.872 84.7077 162.621 84.3691 162.291C84.0306 161.96 83.8613 161.569 83.8613 161.116C83.8613 160.655 84.0306 160.257 84.3691 159.923C84.7077 159.584 85.188 159.326 85.8101 159.148C86.4364 158.971 87.1663 158.882 88 158.882ZM88 159.986C87.1536 159.986 86.4956 160.084 86.0259 160.278C85.5604 160.473 85.3298 160.752 85.334 161.116C85.3298 161.463 85.5604 161.73 86.0259 161.916C86.4956 162.102 87.1536 162.2 88 162.208C88.8464 162.2 89.5044 162.102 89.9741 161.916C90.4438 161.73 90.6787 161.463 90.6787 161.116C90.6787 160.752 90.4438 160.473 89.9741 160.278C89.5044 160.084 88.8464 159.986 88 159.986ZM91.9736 169.99H84.0137V166.131H91.9736V169.99ZM85.4102 168.848H90.6025V167.248H85.4102V168.848ZM93.2432 165.217H82.7822V164.074H93.2432V165.217Z" fill="#0370FF"/>
<rect x="108" y="151" width="60" height="26" rx="4" fill="#F0F5FF"/>
<path d="M125.94 158.666V166.956H124.519V158.666H125.94ZM126.258 168.759V169.901H118.349V166.118H119.771V168.759H126.258ZM119.682 159.415C121.421 159.415 122.767 160.621 122.767 162.284C122.767 163.985 121.421 165.166 119.682 165.166C117.93 165.166 116.584 163.985 116.584 162.284C116.584 160.621 117.93 159.415 119.682 159.415ZM119.682 160.646C118.704 160.646 117.955 161.294 117.968 162.284C117.955 163.3 118.704 163.935 119.682 163.935C120.634 163.935 121.383 163.3 121.383 162.284C121.383 161.294 120.634 160.646 119.682 160.646ZM136.876 158.653V170.13H135.454V158.653H136.876ZM133.448 159.872C133.448 163.287 132.128 166.194 128.104 168.099L127.367 166.969C130.37 165.541 131.766 163.598 132.014 160.989H127.951V159.872H133.448ZM143.369 165.826C145.857 165.839 147.431 166.626 147.444 167.984C147.431 169.317 145.857 170.117 143.369 170.117C140.893 170.117 139.306 169.317 139.306 167.984C139.306 166.626 140.893 165.839 143.369 165.826ZM143.369 166.893C141.718 166.893 140.715 167.286 140.728 167.984C140.715 168.657 141.718 169.025 143.369 169.025C145.032 169.025 146.035 168.657 146.047 167.984C146.035 167.286 145.032 166.893 143.369 166.893ZM147.368 159.199V160.151C147.368 161.053 147.368 162.018 147.05 163.198L145.654 163.071C145.939 161.954 145.958 161.148 145.958 160.316H139.42V159.199H147.368ZM148.637 163.858V165.001H138.227V163.858H142.264V161.776H143.661V163.858H148.637ZM158.481 159.707V160.812C158.468 162.233 158.468 163.833 158.024 166.232L156.602 166.08C157.046 163.846 157.046 162.214 157.059 160.837H150.204V159.707H158.481ZM159.573 167.489V168.645H149.112V167.489H152.971V163.503H154.368V167.489H159.573Z" fill="#0370FF"/>
<path d="M33.4463 194.024C33.4463 195.184 33.3109 196.221 33.04 197.135H34.6523V192.996H35.7949V203.521H34.6523V198.112H32.6719C32.3418 198.836 31.889 199.5 31.3135 200.105C30.738 200.711 30.0143 201.257 29.1426 201.743L28.457 200.905C29.2611 200.457 29.9233 199.959 30.4438 199.414C30.9686 198.863 31.377 198.263 31.6689 197.611L28.6221 197.922L28.457 196.881L32.0054 196.665C32.145 196.14 32.2339 195.59 32.272 195.015H29.0156V194.024H33.4463ZM37.0518 192.704H38.1943V204.079H37.0518V192.704ZM42.4143 193.555C42.9263 193.555 43.3876 193.694 43.798 193.974C44.2085 194.253 44.5407 194.649 44.7946 195.161C45.0528 195.673 45.2115 196.276 45.2707 196.97H47.6193V192.704H48.8127V204.104H47.6193V197.947H45.2834C45.2411 198.679 45.093 199.316 44.8391 199.858C44.5852 200.4 44.2487 200.816 43.8298 201.108C43.4108 201.396 42.939 201.54 42.4143 201.54C41.8514 201.54 41.35 201.377 40.9099 201.051C40.474 200.725 40.1333 200.26 39.8879 199.655C39.6467 199.05 39.5282 198.345 39.5324 197.541C39.5282 196.745 39.6467 196.047 39.8879 195.446C40.1333 194.841 40.474 194.376 40.9099 194.05C41.35 193.72 41.8514 193.555 42.4143 193.555ZM40.675 197.541C40.675 198.133 40.7469 198.65 40.8908 199.09C41.0389 199.53 41.2442 199.868 41.5065 200.105C41.7689 200.342 42.0715 200.461 42.4143 200.461C42.757 200.461 43.0596 200.342 43.322 200.105C43.5843 199.868 43.7875 199.53 43.9313 199.09C44.0795 198.65 44.1535 198.133 44.1535 197.541C44.1535 196.957 44.0795 196.447 43.9313 196.011C43.7832 195.571 43.578 195.233 43.3156 194.996C43.0575 194.754 42.757 194.634 42.4143 194.634C42.0715 194.634 41.7689 194.754 41.5065 194.996C41.2484 195.233 41.0453 195.571 40.8972 196.011C40.7491 196.447 40.675 196.957 40.675 197.541ZM59.1771 195.789H60.8275V196.805H59.1771V200.004H57.9711V192.704H59.1771V195.789ZM50.2523 193.923H53.0453V192.615H54.2514V193.923H57.0316V194.875H50.2523V193.923ZM50.8744 197.427C50.8744 197.025 50.9887 196.671 51.2172 196.367C51.4457 196.058 51.7694 195.819 52.1884 195.649C52.6073 195.48 53.0919 195.396 53.642 195.396C54.1837 195.396 54.6618 195.48 55.0766 195.649C55.4955 195.819 55.8192 196.058 56.0478 196.367C56.2805 196.671 56.3969 197.025 56.3969 197.427C56.3969 197.829 56.2805 198.182 56.0478 198.487C55.8192 198.787 55.4955 199.02 55.0766 199.185C54.6618 199.35 54.1837 199.433 53.642 199.433C53.0961 199.433 52.6116 199.35 52.1884 199.185C51.7694 199.02 51.4457 198.787 51.2172 198.487C50.9887 198.182 50.8744 197.829 50.8744 197.427ZM51.7758 202.086C51.7715 201.671 51.9197 201.316 52.2201 201.02C52.5206 200.719 52.9543 200.491 53.5214 200.334C54.0927 200.173 54.7676 200.093 55.5463 200.093C56.3165 200.093 56.983 200.173 57.5458 200.334C58.1129 200.491 58.5466 200.719 58.8471 201.02C59.1518 201.316 59.3041 201.671 59.3041 202.086C59.3041 202.496 59.1518 202.85 58.8471 203.146C58.5466 203.442 58.1129 203.667 57.5458 203.819C56.983 203.975 56.3165 204.054 55.5463 204.054C54.7676 204.054 54.0948 203.975 53.5277 203.819C52.9607 203.667 52.5248 203.442 52.2201 203.146C51.9197 202.85 51.7715 202.496 51.7758 202.086ZM52.0424 197.427C52.0382 197.647 52.1016 197.839 52.2328 198.004C52.364 198.169 52.5502 198.296 52.7914 198.385C53.0368 198.474 53.3204 198.519 53.642 198.519C54.1286 198.519 54.5201 198.421 54.8163 198.227C55.1125 198.028 55.2628 197.761 55.267 197.427C55.2628 197.198 55.1929 196.999 55.0575 196.83C54.9221 196.661 54.7317 196.53 54.4862 196.437C54.245 196.343 53.9636 196.297 53.642 196.297C53.3204 196.297 53.039 196.343 52.7978 196.437C52.5565 196.53 52.3682 196.661 52.2328 196.83C52.1016 196.999 52.0382 197.198 52.0424 197.427ZM52.9691 202.086C52.9649 202.42 53.1892 202.681 53.642 202.867C54.0948 203.049 54.7296 203.14 55.5463 203.14C56.3546 203.14 56.983 203.049 57.4315 202.867C57.8801 202.681 58.1065 202.42 58.1107 202.086C58.1065 201.743 57.8801 201.481 57.4315 201.299C56.9872 201.117 56.3588 201.024 55.5463 201.02C54.7211 201.024 54.0842 201.117 53.6356 201.299C53.1871 201.481 52.9649 201.743 52.9691 202.086ZM70.2018 197.071H66.9264V198.392H71.5221V199.369H61.15V198.392H65.733V197.071H62.4703V193.174H70.2018V197.071ZM62.3053 200.448H70.2525V204.079H69.0338V201.4H62.3053V200.448ZM69.0084 196.106V194.126H63.651V196.106H69.0084Z" fill="#737373"/>
<path d="M88.5576 194.342C88.5449 195.916 89.624 197.351 91.376 197.935L90.7666 198.887C89.4526 198.423 88.4624 197.497 87.9482 196.31C87.4404 197.585 86.4438 198.595 85.0918 199.077L84.4824 198.138C86.2598 197.503 87.3262 195.967 87.3262 194.342V193.25H88.5576V194.342ZM93.8516 200.08V204.079H92.6455V201.058H86.1455V200.08H93.8516ZM93.8516 192.704V199.534H92.6455V192.704H93.8516ZM99.2775 195.599C99.2648 197.617 100.433 199.674 102.134 200.499L101.385 201.464C100.147 200.823 99.1887 199.547 98.6936 198.023C98.1794 199.648 97.1828 201.007 95.8879 201.68L95.1389 200.702C96.8908 199.864 98.0715 197.681 98.0715 195.599V193.656H99.2775V195.599ZM104.191 192.704V197.236H106.019V198.265H104.191V204.079H102.985V192.704H104.191ZM116.65 201.667V202.67H106.24V201.667H110.823V199.331H107.433V193.479H108.639V195.434H114.225V193.479H115.418V199.331H112.016V201.667H116.65ZM108.639 198.354H114.225V196.411H108.639V198.354ZM127.56 201.667V202.657H117.15V201.667H121.746V198.976H122.952V201.667H127.56ZM122.964 194.773C122.964 196.513 124.932 198.062 127.103 198.404L126.621 199.356C124.786 199.007 123.091 197.941 122.355 196.449C121.612 197.96 119.93 199.058 118.128 199.407L117.632 198.455C119.753 198.1 121.708 196.513 121.708 194.773V194.672H118.013V193.682H126.659V194.672H122.964V194.773ZM130.104 202.124L129.089 205.628H128.01L128.682 202.124H130.104ZM143.33 192.704V204.104H142.124V192.704H143.33ZM137.249 193.555C138.938 193.555 140.182 195.104 140.182 197.541C140.182 199.991 138.938 201.54 137.249 201.54C135.535 201.54 134.304 199.991 134.304 197.541C134.304 195.104 135.535 193.555 137.249 193.555ZM137.249 194.634C136.196 194.634 135.472 195.751 135.472 197.541C135.472 199.344 136.196 200.461 137.249 200.461C138.29 200.461 139.014 199.344 139.014 197.541C139.014 195.751 138.29 194.634 137.249 194.634ZM155.205 198.239V199.204H144.821V198.239H149.429V197.033H146.116V193.225H153.923V194.177H147.309V196.068H153.999V197.033H150.597V198.239H155.205ZM150 199.94C152.451 199.94 153.923 200.689 153.923 202.01C153.923 203.33 152.451 204.066 150 204.079C147.537 204.066 146.052 203.33 146.052 202.01C146.052 200.689 147.537 199.94 150 199.94ZM150 200.88C148.261 200.88 147.271 201.286 147.271 202.01C147.271 202.733 148.261 203.14 150 203.127C151.714 203.14 152.717 202.733 152.717 202.01C152.717 201.286 151.714 200.88 150 200.88ZM166.141 201.667V202.67H155.731V201.667H160.314V199.331H156.924V193.479H158.13V195.434H163.716V193.479H164.91V199.331H161.507V201.667H166.141ZM158.13 198.354H163.716V196.411H158.13V198.354ZM177.052 201.667V202.657H166.641V201.667H171.237V198.976H172.443V201.667H177.052ZM172.456 194.773C172.456 196.513 174.424 198.062 176.595 198.404L176.112 199.356C174.278 199.007 172.583 197.941 171.846 196.449C171.104 197.96 169.422 199.058 167.619 199.407L167.124 198.455C169.244 198.1 171.199 196.513 171.199 194.773V194.672H167.505V193.682H176.15V194.672H172.456V194.773Z" fill="#262626"/>
<path d="M37.5088 215.377V216.278C37.5088 217.243 37.5088 218.373 37.2295 219.871H38.8291V220.861H28.4189V219.871H36.0107C36.3091 218.392 36.3154 217.313 36.3154 216.354H29.7266V215.377H37.5088ZM37.8516 224.848V225.838H29.7773V222.042H30.9707V224.848H37.8516ZM49.7268 221.229V222.207H45.0803V226.066H43.8996V222.207H39.3166V221.229H49.7268ZM48.4191 215.313V219.782H40.6242V215.313H48.4191ZM41.8049 216.278V218.843H47.2131V216.278H41.8049ZM53.4643 215.085C55.1781 215.098 56.435 216.151 56.4477 217.637C56.435 219.135 55.1781 220.176 53.4643 220.176C51.7377 220.176 50.4682 219.135 50.4682 217.637C50.4682 216.151 51.7377 215.098 53.4643 215.085ZM53.4643 216.101C52.4105 216.088 51.6361 216.71 51.6488 217.637C51.6361 218.576 52.4105 219.198 53.4643 219.198C54.5053 219.198 55.2797 218.576 55.2797 217.637C55.2797 216.71 54.5053 216.088 53.4643 216.101ZM59.6723 214.704V220.493H58.4662V214.704H59.6723ZM59.6723 221.014V223.883H53.4008V224.975H60.0531V225.939H52.2328V222.981H58.4789V221.979H52.1947V221.014H59.6723ZM70.6334 214.704V221.471H69.4273V218.589H67.3072V217.599H69.4273V214.704H70.6334ZM66.8248 221.788C69.2115 221.788 70.6715 222.575 70.6715 223.934C70.6715 225.292 69.2115 226.066 66.8248 226.079C64.4381 226.066 62.9654 225.292 62.9781 223.934C62.9654 222.575 64.4381 221.788 66.8248 221.788ZM66.8248 222.728C65.1617 222.728 64.1715 223.159 64.1715 223.934C64.1715 224.695 65.1617 225.14 66.8248 225.127C68.4879 225.14 69.4781 224.695 69.4781 223.934C69.4781 223.159 68.4879 222.728 66.8248 222.728ZM65.2252 216.71C65.2252 218.157 66.2535 219.554 67.9674 220.138L67.3453 221.09C66.0694 220.646 65.13 219.738 64.6412 218.614C64.1397 219.89 63.1432 220.912 61.7848 221.407L61.15 220.442C62.9146 219.833 63.9938 218.297 63.9938 216.723V216.469H61.5309V215.491H67.6627V216.469H65.2252V216.71Z" fill="#737373"/>
<path d="M93.4707 215.174V219.071H90.1953V220.392H94.791V221.369H84.4189V220.392H89.002V219.071H85.7393V215.174H93.4707ZM86.9199 216.126V218.106H92.2773V216.126H86.9199ZM93.5215 222.448V226.079H92.3027V223.4H85.5742V222.448H93.5215ZM97.3732 224.124L96.3576 227.628H95.2785L95.9514 224.124H97.3732ZM104.404 215.085C106.118 215.098 107.375 216.151 107.387 217.637C107.375 219.135 106.118 220.176 104.404 220.176C102.677 220.176 101.408 219.135 101.408 217.637C101.408 216.151 102.677 215.098 104.404 215.085ZM104.404 216.101C103.35 216.088 102.576 216.71 102.588 217.637C102.576 218.576 103.35 219.198 104.404 219.198C105.445 219.198 106.219 218.576 106.219 217.637C106.219 216.71 105.445 216.088 104.404 216.101ZM110.612 214.704V220.493H109.406V214.704H110.612ZM110.612 221.014V223.883H104.34V224.975H110.993V225.939H103.172V222.981H109.419V221.979H103.134V221.014H110.612ZM118.823 215.809V225H117.414V217.205H117.363L115.167 218.64V217.307L117.452 215.809H118.823ZM123.957 225.127C122.218 225.127 120.91 224.061 120.847 222.601H122.205C122.281 223.388 123.03 223.959 123.957 223.959C125.074 223.959 125.874 223.146 125.874 222.055C125.874 220.938 125.049 220.125 123.894 220.112C123.157 220.112 122.599 220.354 122.281 220.925H120.961L121.558 215.809H126.763V217.002H122.713L122.408 219.579H122.497C122.878 219.211 123.526 218.957 124.224 218.957C125.95 218.957 127.233 220.239 127.233 222.017C127.233 223.832 125.874 225.127 123.957 225.127ZM129.294 223.819C128.799 223.819 128.38 223.413 128.393 222.918C128.38 222.423 128.799 222.017 129.294 222.017C129.777 222.017 130.196 222.423 130.196 222.918C130.196 223.413 129.777 223.819 129.294 223.819ZM129.294 218.805C128.799 218.805 128.38 218.398 128.393 217.903C128.38 217.408 128.799 217.002 129.294 217.002C129.777 217.002 130.196 217.408 130.196 217.903C130.196 218.398 129.777 218.805 129.294 218.805ZM134.695 225.127C132.562 225.127 131.318 223.413 131.318 220.404C131.318 217.421 132.588 215.682 134.695 215.682C136.802 215.682 138.072 217.421 138.072 220.404C138.072 223.413 136.815 225.127 134.695 225.127ZM134.695 223.921C135.939 223.921 136.675 222.702 136.675 220.404C136.675 218.119 135.926 216.862 134.695 216.862C133.463 216.862 132.714 218.119 132.714 220.404C132.714 222.702 133.451 223.921 134.695 223.921ZM142.393 225.127C140.261 225.127 139.016 223.413 139.016 220.404C139.016 217.421 140.286 215.682 142.393 215.682C144.501 215.682 145.77 217.421 145.77 220.404C145.77 223.413 144.513 225.127 142.393 225.127ZM142.393 223.921C143.638 223.921 144.374 222.702 144.374 220.404C144.374 218.119 143.625 216.862 142.393 216.862C141.162 216.862 140.413 218.119 140.413 220.404C140.413 222.702 141.149 223.921 142.393 223.921ZM147.299 220.163C147.718 219.693 148.238 219.452 148.81 219.452C149.8 219.452 150.676 220.176 151.641 220.176C152.225 220.176 152.732 219.922 153.126 219.414V220.633C152.694 221.103 152.187 221.344 151.615 221.344C150.625 221.344 149.736 220.62 148.771 220.62C148.2 220.62 147.705 220.874 147.299 221.382V220.163ZM158.323 215.809V225H156.914V217.205H156.863L154.667 218.64V217.307L156.952 215.809H158.323ZM163.496 215.682C165.184 215.694 166.961 216.71 166.961 220.074C166.961 223.299 165.578 225.127 163.369 225.127C161.68 225.127 160.487 224.086 160.271 222.588H161.655C161.845 223.362 162.442 223.908 163.369 223.908C164.79 223.908 165.616 222.664 165.628 220.569H165.514C165.019 221.344 164.156 221.813 163.165 221.813C161.515 221.813 160.195 220.557 160.195 218.792C160.195 217.04 161.502 215.669 163.496 215.682ZM163.496 216.85C162.378 216.85 161.553 217.713 161.553 218.767C161.553 219.833 162.353 220.671 163.47 220.671C164.575 220.671 165.438 219.77 165.438 218.754C165.438 217.764 164.625 216.85 163.496 216.85ZM169.01 223.819C168.515 223.819 168.096 223.413 168.109 222.918C168.096 222.423 168.515 222.017 169.01 222.017C169.493 222.017 169.912 222.423 169.912 222.918C169.912 223.413 169.493 223.819 169.01 223.819ZM169.01 218.805C168.515 218.805 168.096 218.398 168.109 217.903C168.096 217.408 168.515 217.002 169.01 217.002C169.493 217.002 169.912 217.408 169.912 217.903C169.912 218.398 169.493 218.805 169.01 218.805ZM174.411 225.127C172.278 225.127 171.034 223.413 171.034 220.404C171.034 217.421 172.304 215.682 174.411 215.682C176.518 215.682 177.788 217.421 177.788 220.404C177.788 223.413 176.531 225.127 174.411 225.127ZM174.411 223.921C175.655 223.921 176.391 222.702 176.391 220.404C176.391 218.119 175.642 216.862 174.411 216.862C173.179 216.862 172.43 218.119 172.43 220.404C172.43 222.702 173.167 223.921 174.411 223.921ZM182.109 225.127C179.977 225.127 178.732 223.413 178.732 220.404C178.732 217.421 180.002 215.682 182.109 215.682C184.217 215.682 185.486 217.421 185.486 220.404C185.486 223.413 184.229 225.127 182.109 225.127ZM182.109 223.921C183.354 223.921 184.09 222.702 184.09 220.404C184.09 218.119 183.341 216.862 182.109 216.862C180.878 216.862 180.129 218.119 180.129 220.404C180.129 222.702 180.865 223.921 182.109 223.921Z" fill="#262626"/>
<path d="M37.5088 237.377V238.278C37.5088 239.243 37.5088 240.373 37.2295 241.871H38.8291V242.861H28.4189V241.871H36.0107C36.3091 240.392 36.3154 239.313 36.3154 238.354H29.7266V237.377H37.5088ZM37.8516 246.848V247.838H29.7773V244.042H30.9707V246.848H37.8516ZM49.7268 243.229V244.207H45.0803V248.066H43.8996V244.207H39.3166V243.229H49.7268ZM48.4191 237.313V241.782H40.6242V237.313H48.4191ZM41.8049 238.278V240.843H47.2131V238.278H41.8049ZM54.4291 240.056C54.4291 241.96 55.6732 243.928 57.4252 244.677L56.765 245.616C55.4257 245.026 54.3593 243.775 53.8324 242.252C53.3056 243.877 52.2328 245.261 50.9125 245.908L50.2143 244.956C51.9281 244.156 53.1977 242.011 53.2104 240.056V238.85H50.6078V237.847H57.0189V238.85H54.4291V240.056ZM59.6596 236.704V248.079H58.4535V236.704H59.6596ZM70.6334 244.004V248.079H69.4273V244.956H62.9273V244.004H70.6334ZM70.6334 236.704V243.407H69.4273V241.846H66.6217C66.0948 242.468 65.2633 242.842 64.2984 242.836C62.5846 242.849 61.315 241.706 61.315 240.081C61.315 238.481 62.5846 237.326 64.2984 237.339C65.2633 237.333 66.0885 237.707 66.6217 238.329H69.4273V236.704H70.6334ZM64.2984 238.354C63.232 238.354 62.4703 239.065 62.4703 240.081C62.4703 241.122 63.232 241.82 64.2984 241.82C65.3268 241.82 66.1012 241.122 66.1012 240.081C66.1012 239.065 65.3268 238.354 64.2984 238.354ZM67.1549 240.855H69.4273V239.319H67.1549C67.2184 239.561 67.2564 239.814 67.2564 240.081C67.2564 240.354 67.2184 240.614 67.1549 240.855Z" fill="#8C8C8C"/>
<path d="M88.5195 239.599C88.5195 241.681 89.6875 243.75 91.4268 244.537L90.6904 245.502C89.3955 244.854 88.4243 243.566 87.9229 242.011C87.4214 243.648 86.4248 245.032 85.1172 245.718L84.3555 244.74C86.1201 243.902 87.3008 241.706 87.3008 239.599V237.656H88.5195V239.599ZM93.9023 236.704V248.104H92.709V241.465H90.1699V240.487H92.709V236.704H93.9023ZM100.509 236.831C103.073 236.831 104.571 237.529 104.571 238.786C104.571 240.056 103.073 240.754 100.509 240.754C97.9445 240.754 96.4465 240.056 96.4465 238.786C96.4465 237.529 97.9445 236.831 100.509 236.831ZM100.509 237.732C98.6936 237.745 97.6906 238.113 97.7033 238.786C97.6906 239.497 98.6936 239.853 100.509 239.853C102.324 239.853 103.327 239.497 103.327 238.786C103.327 238.113 102.324 237.745 100.509 237.732ZM105.701 241.427V242.379H101.106V243.356H104.394V246.022H97.7668V247.038H104.711V247.965H96.5861V245.146H103.2V244.258H96.5734V243.356H99.8996V242.379H95.3293V241.427H105.701ZM110.416 239.599C110.404 241.681 111.661 243.763 113.425 244.55L112.702 245.502C111.394 244.88 110.359 243.604 109.832 242.049C109.299 243.712 108.252 245.089 106.887 245.756L106.151 244.74C107.941 243.94 109.198 241.77 109.198 239.599V237.656H110.416V239.599ZM115.66 236.704V248.104H114.454V236.704H115.66ZM125.75 237.834V245.223H120.43V237.834H125.75ZM121.611 238.786V244.245H124.556V238.786H121.611ZM128.86 236.704V241.16H130.688V242.176H128.86V248.079H127.654V236.704H128.86ZM141.319 245.692V246.721H130.909V245.692H135.479V243.268H131.823V242.315H133.524V238.735H131.798V237.758H140.367V238.735H138.628V242.315H140.329V243.268H136.673V245.692H141.319ZM134.718 242.315H137.447V238.735H134.718V242.315ZM150.871 237.415V238.418C150.871 239.497 150.871 240.665 150.554 242.29H152.192V243.28H147.583V248.092H146.364V243.28H141.82V242.29H149.335C149.678 240.671 149.678 239.478 149.678 238.418V238.405H143.089V237.415H150.871Z" fill="#262626"/>
<path d="M33.8125 270.656C33.8073 271.526 33.9505 272.372 34.2422 273.195C34.5339 274.018 34.9557 274.75 35.5078 275.391C36.0599 276.031 36.7083 276.51 37.4531 276.828L36.4219 278.219C35.625 277.849 34.9297 277.312 34.3359 276.609C33.7474 275.901 33.2865 275.076 32.9531 274.133C32.6198 275.148 32.1484 276.039 31.5391 276.805C30.9349 277.57 30.2135 278.151 29.375 278.547L28.3125 277.094C29.0781 276.766 29.7422 276.271 30.3047 275.609C30.8672 274.943 31.2969 274.18 31.5938 273.32C31.8906 272.461 32.0417 271.573 32.0469 270.656V268.406H33.8125V270.656ZM38.4688 267.266H40.2188V281.406H38.4688V267.266ZM45.1938 276.938H51.4594V275.312H53.1781V281.219H43.4906V275.312H45.1938V276.938ZM41.8969 272.875H51.1625C51.2979 272.203 51.3865 271.589 51.4281 271.031C51.4698 270.469 51.4906 269.88 51.4906 269.266H43.4906V267.875H53.225V268.969V269.391C53.225 269.979 53.2016 270.544 53.1547 271.086C53.113 271.628 53.0219 272.224 52.8813 272.875H54.8031V274.266H41.8969V272.875ZM51.4594 279.812V278.281H45.1938V279.812H51.4594Z" fill="#0370FF"/>
<path d="M69.7656 280H67.4062V270.922H67.3438L64.75 272.547V270.469L67.5469 268.688H69.7656V280ZM71.975 278.297L76.0375 274.562C76.4385 274.177 76.7484 273.859 76.9672 273.609C77.1911 273.354 77.363 273.102 77.4828 272.852C77.6026 272.596 77.6625 272.323 77.6625 272.031C77.6625 271.703 77.5844 271.417 77.4281 271.172C77.2771 270.922 77.0635 270.732 76.7875 270.602C76.5167 270.471 76.2094 270.406 75.8656 270.406C75.3292 270.401 74.9021 270.557 74.5844 270.875C74.2667 271.188 74.1104 271.615 74.1156 272.156H71.8812C71.8812 271.432 72.0479 270.797 72.3812 270.25C72.7198 269.698 73.1911 269.273 73.7953 268.977C74.4047 268.68 75.1052 268.531 75.8969 268.531C76.6937 268.531 77.3969 268.674 78.0062 268.961C78.6156 269.242 79.087 269.635 79.4203 270.141C79.7589 270.646 79.9281 271.224 79.9281 271.875C79.9281 272.323 79.8422 272.753 79.6703 273.164C79.4984 273.57 79.199 274.023 78.7719 274.523C78.35 275.023 77.751 275.625 76.975 276.328L75.2562 278V278.062H80.0844V280H71.9906L71.975 278.297ZM82.5438 283.297H80.8875L81.6688 278.844H83.8875L82.5438 283.297ZM89.4719 280.156C88.5292 280.156 87.7167 279.93 87.0344 279.477C86.3521 279.018 85.8286 278.354 85.4641 277.484C85.1047 276.615 84.925 275.568 84.925 274.344C84.925 273.125 85.1073 272.081 85.4719 271.211C85.8365 270.336 86.3599 269.672 87.0422 269.219C87.7245 268.76 88.5344 268.531 89.4719 268.531C90.4094 268.531 91.2193 268.76 91.9016 269.219C92.5839 269.672 93.1073 270.336 93.4719 271.211C93.8365 272.081 94.0187 273.125 94.0187 274.344C94.0187 275.573 93.8365 276.622 93.4719 277.492C93.1073 278.362 92.5839 279.023 91.9016 279.477C91.2245 279.93 90.4146 280.156 89.4719 280.156ZM87.3312 274.414C87.3312 275.664 87.5214 276.612 87.9016 277.258C88.2818 277.898 88.8052 278.219 89.4719 278.219C90.1437 278.219 90.6698 277.893 91.05 277.242C91.4302 276.586 91.6177 275.62 91.6125 274.344C91.6125 273.5 91.5266 272.789 91.3547 272.211C91.1828 271.628 90.9354 271.19 90.6125 270.898C90.2896 270.607 89.9094 270.458 89.4719 270.453C88.8 270.458 88.274 270.797 87.8937 271.469C87.5187 272.141 87.3312 273.122 87.3312 274.414ZM99.6344 280.156C98.6917 280.156 97.8792 279.93 97.1969 279.477C96.5146 279.018 95.9911 278.354 95.6266 277.484C95.2672 276.615 95.0875 275.568 95.0875 274.344C95.0875 273.125 95.2698 272.081 95.6344 271.211C95.999 270.336 96.5224 269.672 97.2047 269.219C97.887 268.76 98.6969 268.531 99.6344 268.531C100.572 268.531 101.382 268.76 102.064 269.219C102.746 269.672 103.27 270.336 103.634 271.211C103.999 272.081 104.181 273.125 104.181 274.344C104.181 275.573 103.999 276.622 103.634 277.492C103.27 278.362 102.746 279.023 102.064 279.477C101.387 279.93 100.577 280.156 99.6344 280.156ZM97.4937 274.414C97.4937 275.664 97.6839 276.612 98.0641 277.258C98.4443 277.898 98.9677 278.219 99.6344 278.219C100.306 278.219 100.832 277.893 101.212 277.242C101.593 276.586 101.78 275.62 101.775 274.344C101.775 273.5 101.689 272.789 101.517 272.211C101.345 271.628 101.098 271.19 100.775 270.898C100.452 270.607 100.072 270.458 99.6344 270.453C98.9625 270.458 98.4365 270.797 98.0562 271.469C97.6812 272.141 97.4937 273.122 97.4937 274.414ZM109.797 280.156C108.854 280.156 108.042 279.93 107.359 279.477C106.677 279.018 106.154 278.354 105.789 277.484C105.43 276.615 105.25 275.568 105.25 274.344C105.25 273.125 105.432 272.081 105.797 271.211C106.161 270.336 106.685 269.672 107.367 269.219C108.049 268.76 108.859 268.531 109.797 268.531C110.734 268.531 111.544 268.76 112.227 269.219C112.909 269.672 113.432 270.336 113.797 271.211C114.161 272.081 114.344 273.125 114.344 274.344C114.344 275.573 114.161 276.622 113.797 277.492C113.432 278.362 112.909 279.023 112.227 279.477C111.549 279.93 110.74 280.156 109.797 280.156ZM107.656 274.414C107.656 275.664 107.846 276.612 108.227 277.258C108.607 277.898 109.13 278.219 109.797 278.219C110.469 278.219 110.995 277.893 111.375 277.242C111.755 276.586 111.943 275.62 111.938 274.344C111.938 273.5 111.852 272.789 111.68 272.211C111.508 271.628 111.26 271.19 110.938 270.898C110.615 270.607 110.234 270.458 109.797 270.453C109.125 270.458 108.599 270.797 108.219 271.469C107.844 272.141 107.656 273.122 107.656 274.414Z" fill="#262626"/>
<path d="M126.91 277.223H125.16V276.238H122.781V275.049H125.16V267.83H126.91V277.223ZM116.328 273.34C117.891 273.331 119.322 273.303 120.621 273.258C121.92 273.208 123.15 273.112 124.312 272.971L124.408 274.215C123.46 274.374 122.458 274.493 121.4 274.57V276.936H119.65V278.645H127.184V280.039H117.914V276.32H119.65V274.673C118.785 274.705 117.745 274.721 116.533 274.721L116.328 273.34ZM117.244 270.482C117.244 270.045 117.376 269.658 117.641 269.32C117.905 268.983 118.274 268.721 118.748 268.534C119.222 268.347 119.764 268.254 120.375 268.254C120.972 268.254 121.505 268.347 121.975 268.534C122.444 268.721 122.811 268.983 123.075 269.32C123.344 269.658 123.479 270.045 123.479 270.482C123.479 270.92 123.344 271.305 123.075 271.638C122.811 271.97 122.444 272.226 121.975 272.403C121.505 272.581 120.972 272.67 120.375 272.67C119.76 272.67 119.215 272.581 118.741 272.403C118.272 272.226 117.905 271.97 117.641 271.638C117.376 271.305 117.244 270.92 117.244 270.482ZM118.898 270.482C118.894 270.779 119.026 271.009 119.295 271.173C119.568 271.332 119.938 271.412 120.402 271.412C120.822 271.412 121.161 271.33 121.421 271.166C121.685 271.002 121.82 270.774 121.824 270.482C121.82 270.182 121.683 269.947 121.414 269.778C121.15 269.61 120.803 269.525 120.375 269.525C119.924 269.525 119.564 269.61 119.295 269.778C119.026 269.947 118.894 270.182 118.898 270.482Z" fill="#262626"/>
<path d="M229.797 281L229.785 280.227L232.68 277.18C233.688 276.113 234.168 275.539 234.168 274.754C234.168 273.887 233.43 273.312 232.48 273.312C231.473 273.312 230.828 273.957 230.828 274.906H229.832C229.82 273.406 230.98 272.398 232.516 272.398C234.051 272.398 235.152 273.43 235.152 274.754C235.152 275.703 234.707 276.441 233.207 277.988L231.262 279.992V280.062H235.305V281H229.797ZM239.305 281.117C237.77 281.117 236.61 280.168 236.552 278.867H237.571C237.653 279.629 238.391 280.191 239.305 280.191C240.407 280.191 241.204 279.383 241.204 278.316C241.204 277.215 240.372 276.406 239.235 276.395C238.52 276.383 237.97 276.605 237.653 277.156H236.634L237.231 272.516H241.825V273.453H238.11L237.794 275.938H237.876C238.251 275.645 238.825 275.445 239.423 275.445C241.04 275.445 242.235 276.641 242.235 278.293C242.235 279.934 240.993 281.117 239.305 281.117ZM243.81 281.07C243.4 281.07 243.048 280.73 243.06 280.309C243.048 279.898 243.4 279.559 243.81 279.559C244.22 279.559 244.56 279.898 244.56 280.309C244.56 280.73 244.22 281.07 243.81 281.07ZM248.303 281.117C246.416 281.117 245.338 279.535 245.338 276.758C245.338 274.004 246.44 272.398 248.303 272.398C250.166 272.398 251.268 274.004 251.268 276.758C251.268 279.535 250.178 281.117 248.303 281.117ZM248.303 280.18C249.522 280.18 250.237 278.949 250.237 276.758C250.237 274.566 249.522 273.312 248.303 273.312C247.084 273.312 246.358 274.566 246.358 276.758C246.358 278.949 247.073 280.18 248.303 280.18ZM255.198 272.398C256.663 272.41 258.28 273.289 258.28 276.418C258.28 279.43 257.05 281.117 255.058 281.117C253.57 281.117 252.515 280.203 252.304 278.855H253.347C253.534 279.617 254.109 280.18 255.058 280.18C256.441 280.18 257.284 278.984 257.296 276.922H257.179C256.687 277.625 255.913 278.047 255.011 278.047C253.487 278.047 252.234 276.887 252.234 275.246C252.234 273.664 253.394 272.387 255.198 272.398ZM255.198 273.324C254.085 273.324 253.253 274.191 253.265 275.234C253.265 276.289 254.05 277.121 255.163 277.121C256.265 277.121 257.132 276.207 257.132 275.211C257.132 274.238 256.323 273.324 255.198 273.324ZM259.855 281.07C259.445 281.07 259.094 280.73 259.105 280.309C259.094 279.898 259.445 279.559 259.855 279.559C260.266 279.559 260.605 279.898 260.605 280.309C260.605 280.73 260.266 281.07 259.855 281.07ZM261.876 281L261.864 280.227L264.759 277.18C265.766 276.113 266.247 275.539 266.247 274.754C266.247 273.887 265.509 273.312 264.559 273.312C263.552 273.312 262.907 273.957 262.907 274.906H261.911C261.899 273.406 263.059 272.398 264.595 272.398C266.13 272.398 267.231 273.43 267.231 274.754C267.231 275.703 266.786 276.441 265.286 277.988L263.341 279.992V280.062H267.384V281H261.876ZM271.548 281.117C269.861 281.117 268.654 280.215 268.595 278.867H269.662C269.72 279.676 270.529 280.18 271.537 280.18C272.65 280.18 273.47 279.57 273.47 278.691C273.47 277.766 272.732 277.109 271.408 277.109H270.716V276.184H271.408C272.439 276.184 273.154 275.609 273.154 274.73C273.154 273.887 272.533 273.312 271.572 273.312C270.67 273.312 269.838 273.816 269.791 274.648H268.771C268.83 273.301 270.072 272.398 271.584 272.398C273.201 272.398 274.185 273.453 274.173 274.672C274.185 275.633 273.623 276.348 272.732 276.594V276.652C273.834 276.828 274.513 277.613 274.502 278.691C274.513 280.086 273.236 281.117 271.548 281.117Z" fill="#262626"/>
<path d="M279.797 281L279.785 280.227L282.68 277.18C283.688 276.113 284.168 275.539 284.168 274.754C284.168 273.887 283.43 273.312 282.48 273.312C281.473 273.312 280.828 273.957 280.828 274.906H279.832C279.82 273.406 280.98 272.398 282.516 272.398C284.051 272.398 285.152 273.43 285.152 274.754C285.152 275.703 284.707 276.441 283.207 277.988L281.262 279.992V280.062H285.305V281H279.797ZM289.54 272.516V281H288.473V273.617H288.427L286.364 274.988V273.922L288.473 272.516H289.54ZM292.228 279.875C291.818 279.875 291.466 279.535 291.478 279.113C291.466 278.703 291.818 278.363 292.228 278.363C292.638 278.363 292.978 278.703 292.978 279.113C292.978 279.535 292.638 279.875 292.228 279.875ZM292.228 275.164C291.818 275.164 291.466 274.824 291.478 274.402C291.466 273.992 291.818 273.652 292.228 273.652C292.638 273.652 292.978 273.992 292.978 274.402C292.978 274.824 292.638 275.164 292.228 275.164ZM297.026 281.117C295.139 281.117 294.061 279.535 294.061 276.758C294.061 274.004 295.163 272.398 297.026 272.398C298.889 272.398 299.991 274.004 299.991 276.758C299.991 279.535 298.901 281.117 297.026 281.117ZM297.026 280.18C298.245 280.18 298.959 278.949 298.959 276.758C298.959 274.566 298.245 273.312 297.026 273.312C295.807 273.312 295.08 274.566 295.08 276.758C295.08 278.949 295.795 280.18 297.026 280.18ZM303.874 281.117C301.987 281.117 300.909 279.535 300.909 276.758C300.909 274.004 302.011 272.398 303.874 272.398C305.737 272.398 306.839 274.004 306.839 276.758C306.839 279.535 305.749 281.117 303.874 281.117ZM303.874 280.18C305.093 280.18 305.808 278.949 305.808 276.758C305.808 274.566 305.093 273.312 303.874 273.312C302.655 273.312 301.929 274.566 301.929 276.758C301.929 278.949 302.644 280.18 303.874 280.18Z" fill="#262626"/>
</g>
<path d="M21.625 11.1406H19.5312V18.3594H17.7969V4.26562H19.5312V9.71875H21.625V11.1406ZM10.6875 13.4375C12.8281 13.401 14.8333 13.1875 16.7031 12.7969L16.8906 14.2656C14.8333 14.6719 12.5885 14.875 10.1562 14.875H8.96875V5.64062H10.6875V13.4375ZM34.0844 18.3906H32.4125V4.26562H34.0844V18.3906ZM31.1781 17.7031H29.5219V10.9844H28.1781C28.126 11.8958 27.9646 12.6875 27.6938 13.3594C27.4281 14.026 27.0714 14.5391 26.6234 14.8984C26.1755 15.2526 25.6625 15.4271 25.0844 15.4219C24.475 15.4271 23.9385 15.2266 23.475 14.8203C23.0167 14.4089 22.6625 13.8229 22.4125 13.0625C22.1625 12.2969 22.0375 11.401 22.0375 10.375C22.0375 9.34896 22.1625 8.45833 22.4125 7.70312C22.6625 6.94271 23.0167 6.35938 23.475 5.95312C23.9385 5.54688 24.475 5.34375 25.0844 5.34375C25.6521 5.34375 26.1547 5.51302 26.5922 5.85156C27.0349 6.1901 27.3891 6.67708 27.6547 7.3125C27.9255 7.94792 28.0948 8.70312 28.1625 9.57812H29.5219V4.51562H31.1781V17.7031ZM25.0844 6.98438C24.7875 6.97917 24.5297 7.10677 24.3109 7.36719C24.0922 7.6276 23.9255 8.01302 23.8109 8.52344C23.6964 9.03385 23.6417 9.65104 23.6469 10.375C23.6417 11.099 23.6964 11.7161 23.8109 12.2266C23.9255 12.737 24.0922 13.1224 24.3109 13.3828C24.5297 13.6432 24.7875 13.7708 25.0844 13.7656C25.5583 13.776 25.9255 13.487 26.1859 12.8984C26.4516 12.3099 26.5844 11.4688 26.5844 10.375C26.5844 9.28125 26.4516 8.4401 26.1859 7.85156C25.9255 7.26302 25.5583 6.97396 25.0844 6.98438ZM47.5125 18.3906H45.8563V4.26562H47.5125V18.3906ZM44.5125 17.7188H42.8719V11.2188H40.3484C39.4995 12.901 38.1167 14.2969 36.2 15.4062L35.2156 14.1719C36.6531 13.3281 37.7339 12.3516 38.4578 11.2422C39.1818 10.1276 39.6115 8.84375 39.7469 7.39062H35.9344V5.98438H41.4656C41.4656 7.40625 41.2833 8.6875 40.9188 9.82812H42.8719V4.60938H44.5125V17.7188ZM63.5875 7.89062H65.2594V9.34375H63.5875V12.7031H61.8375V4.26562H63.5875V7.89062ZM63.5875 18.4062H61.8375V14.6875H53.9313V13.2969H63.5875V18.4062ZM56.1813 6.78125H54.2125V10.4062C54.9521 10.3802 55.6604 10.2917 56.3375 10.1406L56.4938 11.5781C55.9833 11.6823 55.5042 11.75 55.0563 11.7812C54.6135 11.8125 54.0667 11.8333 53.4156 11.8438H53.2438H52.5563V5.39062H56.1813V6.78125ZM60.6969 6.78125H58.6031V10.4141C59.0979 10.3984 59.5328 10.3698 59.9078 10.3281C60.2828 10.2812 60.6708 10.2135 61.0719 10.125L61.2438 11.5625C60.7281 11.6719 60.2281 11.7448 59.7438 11.7812C59.2594 11.8125 58.5719 11.8333 57.6813 11.8438H56.9313V5.39062H60.6969V6.78125ZM76.1469 11.3438H69.4594V5.20312H76.1469V11.3438ZM71.1625 9.95312H74.4437V6.59375H71.1625V9.95312ZM80.1156 7.4375H82.0844V8.875H80.1156V12.2344H78.3812V4.26562H80.1156V7.4375ZM80.3187 14.3281H76.5609C76.6547 14.7344 76.8917 15.1224 77.2719 15.4922C77.6521 15.8568 78.1521 16.1745 78.7719 16.4453C79.3969 16.7109 80.1104 16.901 80.9125 17.0156L80.2875 18.3438C79.199 18.1875 78.2458 17.888 77.4281 17.4453C76.6156 17.0026 76.0036 16.4583 75.5922 15.8125C75.1807 16.4583 74.5714 17 73.7641 17.4375C72.9568 17.8802 72.0115 18.1719 70.9281 18.3125L70.2875 17C71.0948 16.8906 71.8083 16.7057 72.4281 16.4453C73.0531 16.1797 73.5505 15.8646 73.9203 15.5C74.2953 15.1354 74.5323 14.7448 74.6312 14.3281H70.8656V12.9531H80.3187V14.3281ZM93.8406 9.64062H84.0594V4.78125H85.7781V8.26562H93.8406V9.64062ZM95.2937 12.6562H82.3875V11.2812H95.2937V12.6562ZM93.9344 18.0625H83.9344V13.9062H85.6687V16.6562H93.9344V18.0625ZM152.403 11.9844H139.497V10.6719H152.403V11.9844ZM150.841 16.0469H142.747V17.0312H151.262V18.2344H141.012V14.9219H149.122V14.0469H140.997V12.8281H150.841V16.0469ZM150.809 7.76562H142.856V8.6875H151.059V9.875H141.137V6.64062H149.075V5.78125H141.091V4.57812H150.809V7.76562ZM161.416 7.15625C161.416 7.67188 161.543 8.16667 161.798 8.64062C162.054 9.11458 162.434 9.53646 162.939 9.90625C163.444 10.276 164.056 10.5573 164.775 10.75L163.994 12.0781C163.192 11.8698 162.499 11.5443 161.916 11.1016C161.337 10.6536 160.887 10.1224 160.564 9.50781C160.246 10.1797 159.791 10.7604 159.197 11.25C158.608 11.7396 157.905 12.1042 157.087 12.3438L156.259 10.9688C156.983 10.776 157.603 10.487 158.119 10.1016C158.634 9.71615 159.022 9.26823 159.283 8.75781C159.548 8.2474 159.681 7.71354 159.681 7.15625V7.10938H156.728V5.73438H159.681V4.20312H161.431V5.73438H164.369V7.10938H161.416V7.15625ZM167.478 7.54688H169.447V8.98438H167.478V12.3594H165.744V4.26562H167.478V7.54688ZM167.681 14.4062H163.947C164.056 14.8021 164.301 15.1771 164.681 15.5312C165.067 15.8854 165.567 16.1953 166.181 16.4609C166.796 16.7214 167.494 16.9062 168.275 17.0156L167.65 18.3438C166.556 18.1875 165.603 17.888 164.791 17.4453C163.978 17.0026 163.364 16.4557 162.947 15.8047C162.535 16.4453 161.926 16.9844 161.119 17.4219C160.317 17.8594 159.374 18.1562 158.291 18.3125L157.65 17C158.442 16.8906 159.142 16.7083 159.752 16.4531C160.366 16.1979 160.861 15.8958 161.236 15.5469C161.616 15.1927 161.861 14.8125 161.97 14.4062H158.228V13.0156H167.681V14.4062ZM173.562 5.29688C174.271 5.29688 174.901 5.5026 175.453 5.91406C176.005 6.32031 176.438 6.90104 176.75 7.65625C177.068 8.40625 177.229 9.28125 177.234 10.2812C177.229 11.2917 177.068 12.1745 176.75 12.9297C176.438 13.6849 176.005 14.2656 175.453 14.6719C174.901 15.0781 174.271 15.2812 173.562 15.2812C172.849 15.2812 172.214 15.0781 171.656 14.6719C171.099 14.2604 170.664 13.6771 170.352 12.9219C170.039 12.1667 169.885 11.2865 169.891 10.2812C169.885 9.28646 170.039 8.41146 170.352 7.65625C170.664 6.90104 171.099 6.32031 171.656 5.91406C172.214 5.5026 172.849 5.29688 173.562 5.29688ZM173.562 6.85938C173.167 6.85938 172.818 6.9974 172.516 7.27344C172.214 7.54427 171.979 7.9375 171.812 8.45312C171.646 8.96354 171.562 9.57292 171.562 10.2812C171.562 10.9948 171.646 11.6094 171.812 12.125C171.979 12.6406 172.214 13.0365 172.516 13.3125C172.818 13.5833 173.167 13.7188 173.562 13.7188C173.964 13.7188 174.315 13.5833 174.617 13.3125C174.919 13.0365 175.151 12.6406 175.312 12.125C175.479 11.6094 175.562 10.9948 175.562 10.2812C175.562 9.57292 175.479 8.96094 175.312 8.44531C175.151 7.92969 174.919 7.53646 174.617 7.26562C174.315 6.99479 173.964 6.85938 173.562 6.85938ZM180.828 9.6875H183V11.1562H180.828V18.3906H179.094V4.26562H180.828V9.6875ZM196.1 16.6875H183.194V15.2656H188.756V12.5156H184.616V5.20312H186.35V7.51562H192.897V5.20312H194.631V12.5156H190.475V15.2656H196.1V16.6875ZM192.897 11.1094V8.90625H186.35V11.1094H192.897ZM201.028 7.96875C201.028 8.76042 201.122 9.52865 201.309 10.2734C201.502 11.0182 201.802 11.7005 202.208 12.3203C202.614 12.9401 203.122 13.4427 203.731 13.8281L202.778 15.1562C202.164 14.7865 201.643 14.2917 201.216 13.6719C200.789 13.0469 200.453 12.3307 200.208 11.5234C199.942 12.4036 199.58 13.1849 199.122 13.8672C198.664 14.5495 198.111 15.0885 197.466 15.4844L196.387 14.1875C197.049 13.7865 197.601 13.2604 198.044 12.6094C198.486 11.9583 198.815 11.2422 199.028 10.4609C199.247 9.67969 199.356 8.875 199.356 8.04688V5.51562H201.028V7.96875ZM208.809 18.3906H207.137V4.26562H208.809V18.3906ZM205.872 17.7031H204.231V10.5625H202.216V9.125H204.231V4.51562H205.872V17.7031ZM222.956 16.6719H210.05V15.25H213.034V11.6797C212.461 11.3464 212.016 10.9323 211.698 10.4375C211.386 9.94271 211.232 9.38542 211.238 8.76562C211.232 8.03125 211.454 7.38021 211.902 6.8125C212.349 6.24479 212.972 5.80729 213.769 5.5C214.566 5.1875 215.467 5.03125 216.472 5.03125C217.482 5.03125 218.386 5.1875 219.183 5.5C219.985 5.80729 220.61 6.24479 221.058 6.8125C221.511 7.375 221.738 8.02604 221.738 8.76562C221.738 9.36979 221.584 9.91927 221.277 10.4141C220.974 10.9036 220.545 11.3125 219.988 11.6406V15.25H222.956V16.6719ZM216.472 6.40625C215.769 6.40625 215.149 6.5026 214.613 6.69531C214.081 6.88281 213.667 7.15365 213.37 7.50781C213.079 7.86198 212.935 8.28125 212.941 8.76562C212.935 9.24479 213.079 9.66146 213.37 10.0156C213.667 10.3698 214.084 10.6432 214.62 10.8359C215.157 11.0286 215.774 11.125 216.472 11.125C217.17 11.125 217.787 11.0286 218.323 10.8359C218.865 10.6432 219.284 10.3698 219.581 10.0156C219.883 9.66146 220.034 9.24479 220.034 8.76562C220.034 8.28646 219.883 7.86979 219.581 7.51562C219.284 7.15625 218.868 6.88281 218.331 6.69531C217.795 6.5026 217.175 6.40625 216.472 6.40625ZM218.222 15.25V12.3047C217.67 12.4245 217.086 12.4844 216.472 12.4844C215.883 12.4844 215.31 12.4271 214.753 12.3125V15.25H218.222ZM226.212 13.6719H224.447L224.259 5.6875H226.384L226.212 13.6719ZM225.337 17.125C225.119 17.125 224.916 17.0703 224.728 16.9609C224.541 16.8516 224.392 16.7031 224.283 16.5156C224.173 16.3281 224.119 16.125 224.119 15.9062C224.119 15.6927 224.173 15.4948 224.283 15.3125C224.392 15.125 224.541 14.9766 224.728 14.8672C224.916 14.7578 225.119 14.7031 225.337 14.7031C225.546 14.7031 225.741 14.7578 225.923 14.8672C226.111 14.9766 226.259 15.125 226.369 15.3125C226.483 15.4948 226.541 15.6927 226.541 15.9062C226.541 16.125 226.483 16.3281 226.369 16.5156C226.259 16.7031 226.111 16.8516 225.923 16.9609C225.741 17.0703 225.546 17.125 225.337 17.125Z" fill="white"/>
<path d="M103.228 4.71875C103.936 4.71875 104.574 4.85677 105.142 5.13281C105.71 5.40365 106.155 5.78125 106.478 6.26562C106.806 6.75 106.973 7.29688 106.978 7.90625C106.973 8.52083 106.806 9.07031 106.478 9.55469C106.155 10.0391 105.71 10.4167 105.142 10.6875C104.574 10.9583 103.936 11.0938 103.228 11.0938C102.515 11.0938 101.871 10.9583 101.298 10.6875C100.731 10.4167 100.285 10.0391 99.9625 9.55469C99.6396 9.07031 99.4781 8.52083 99.4781 7.90625C99.4781 7.29688 99.6396 6.75 99.9625 6.26562C100.285 5.78125 100.733 5.40365 101.306 5.13281C101.879 4.85677 102.52 4.71875 103.228 4.71875ZM103.228 6.15625C102.832 6.15625 102.478 6.22917 102.166 6.375C101.853 6.51562 101.608 6.71875 101.431 6.98438C101.254 7.24479 101.166 7.55208 101.166 7.90625C101.166 8.26562 101.254 8.58073 101.431 8.85156C101.608 9.11719 101.853 9.32292 102.166 9.46875C102.478 9.61458 102.832 9.6875 103.228 9.6875C103.624 9.6875 103.978 9.61458 104.291 9.46875C104.603 9.32292 104.848 9.11719 105.025 8.85156C105.202 8.58073 105.291 8.26562 105.291 7.90625C105.291 7.55208 105.202 7.24479 105.025 6.98438C104.848 6.71875 104.603 6.51562 104.291 6.375C103.978 6.22917 103.624 6.15625 103.228 6.15625ZM110.994 11.4062H109.244V4.26562H110.994V11.4062ZM110.994 15.7031H103.353V16.8438H111.416V18.2188H101.65V14.4219H109.259V13.375H101.619V12.0156H110.994V15.7031ZM117.719 8.28125C117.719 9.02083 117.859 9.76562 118.141 10.5156C118.427 11.2656 118.836 11.9479 119.367 12.5625C119.904 13.1771 120.531 13.651 121.25 13.9844L120.281 15.3594C119.505 14.9948 118.826 14.4609 118.242 13.7578C117.659 13.0495 117.203 12.2396 116.875 11.3281C116.547 12.3229 116.081 13.2057 115.477 13.9766C114.872 14.7474 114.172 15.3229 113.375 15.7031L112.359 14.3438C113.083 14 113.719 13.5026 114.266 12.8516C114.818 12.2005 115.24 11.474 115.531 10.6719C115.828 9.86979 115.979 9.07292 115.984 8.28125V7.09375H112.906V5.65625H120.672V7.09375H117.719V8.28125ZM123.719 9.76562H125.891V11.2188H123.719V18.3906H121.984V4.26562H123.719V9.76562ZM137.85 18.4062H136.131V4.26562H137.85V18.4062ZM133.506 10.7969H128.647V13.6406C129.84 13.6302 130.933 13.5885 131.928 13.5156C132.928 13.4427 133.949 13.3177 134.991 13.1406L135.147 14.5625C134.027 14.7604 132.926 14.8932 131.842 14.9609C130.759 15.0286 129.511 15.0625 128.1 15.0625H126.866V9.42188H131.741V6.90625H126.85V5.5H133.506V10.7969Z" fill="#00D0FF"/>
<path d="M20.3125 327.281V337.969H18.5625V336.734H15.7969V335.516H18.5625V327.281H20.3125ZM20.6406 339.703V341.109H10.2812V336.938H12.0156V339.703H20.6406ZM8.40625 333.625C11.0156 333.609 14.5156 333.578 17.5156 333.203L17.6094 334.453C16.4453 334.648 15.2422 334.781 14.0469 334.859V337.578H12.3125V334.953C10.9922 335.008 9.73438 335.016 8.625 335.016L8.40625 333.625ZM13.0156 327.797C15.0781 327.797 16.5156 328.812 16.5312 330.297C16.5156 331.812 15.0781 332.781 13.0156 332.781C10.9219 332.781 9.48438 331.812 9.48438 330.297C9.48438 328.812 10.9219 327.797 13.0156 327.797ZM13.0156 329.078C11.8906 329.078 11.125 329.531 11.125 330.297C11.125 331.062 11.8906 331.516 13.0156 331.516C14.0938 331.516 14.8594 331.062 14.875 330.297C14.8594 329.531 14.0938 329.078 13.0156 329.078ZM32.9594 327.266V332.891H35.1313V334.328H32.9594V341.391H31.2406V327.266H32.9594ZM30.1469 329.438V330.828H21.8188V329.438H25.1625V327.469H26.8969V329.438H30.1469ZM26.0375 331.75C28.0688 331.75 29.5844 333.125 29.5844 335.078C29.5844 337.031 28.0688 338.391 26.0375 338.391C23.975 338.391 22.4594 337.031 22.475 335.078C22.4594 333.125 23.975 331.75 26.0375 331.75ZM26.0375 333.172C24.9281 333.172 24.1313 333.922 24.1313 335.078C24.1313 336.234 24.9281 336.969 26.0375 336.953C27.1156 336.969 27.9125 336.234 27.9281 335.078C27.9125 333.922 27.1156 333.172 26.0375 333.172ZM46.7625 331.266V332.641H36.9813V327.781H38.7V331.266H46.7625ZM48.2156 334.281V335.656H35.3094V334.281H48.2156ZM46.8563 339.656V341.062H36.8563V336.906H38.5906V339.656H46.8563ZM58.5094 336.094C61.5719 336.109 63.5094 337.078 63.525 338.75C63.5094 340.391 61.5719 341.375 58.5094 341.375C55.4625 341.375 53.5094 340.391 53.5094 338.75C53.5094 337.078 55.4625 336.109 58.5094 336.094ZM58.5094 337.406C56.4781 337.406 55.2438 337.891 55.2594 338.75C55.2438 339.578 56.4781 340.031 58.5094 340.031C60.5563 340.031 61.7906 339.578 61.8063 338.75C61.7906 337.891 60.5563 337.406 58.5094 337.406ZM63.4313 327.938V329.109C63.4313 330.219 63.4313 331.406 63.0406 332.859L61.3219 332.703C61.6734 331.328 61.6969 330.336 61.6969 329.312H53.65V327.938H63.4313ZM64.9938 333.672V335.078H52.1813V333.672H57.15V331.109H58.8688V333.672H64.9938ZM77.1094 328.562V329.922C77.0938 331.672 77.0938 333.641 76.5469 336.594L74.7969 336.406C75.3438 333.656 75.3438 331.648 75.3594 329.953H66.9219V328.562H77.1094ZM78.4531 338.141V339.562H65.5781V338.141H70.3281V333.234H72.0469V338.141H78.4531ZM91.8969 333.672V334.984H78.9906V333.672H91.8969ZM90.3344 335.828V339.047H82.2406V340.031H90.7562V341.234H80.5062V337.922H88.6156V337.047H80.4906V335.828H90.3344ZM90.3031 327.578V330.766H82.35V331.688H90.5531V332.875H80.6312V329.641H88.5687V328.781H80.5844V327.578H90.3031ZM107.331 331.797V333.203H97.4563V327.938H99.1906V331.797H107.331ZM108.738 334.984V336.406H103.097V341.391H101.347V336.406H95.8313V334.984H108.738ZM122.166 338.297V339.719H109.259V338.297H122.166ZM120.634 328.266V332.812H112.525V334.656H120.963V336.031H110.791V331.422H118.916V329.672H110.759V328.266H120.634ZM129.938 328.453V329.578H132.781V327.281H134.516V337.562H132.781V334H129.938V335.219H123.297V328.453H129.938ZM125.031 329.828V333.859H128.219V329.828H125.031ZM134.828 339.703V341.109H125.203V336.609H126.969V339.703H134.828ZM129.938 332.609H132.781V331H129.938V332.609ZM150.575 327.266V332.641H152.747V334.109H150.575V341.391H148.841V327.266H150.575ZM141.731 328.422V331.953H145.059V328.422H146.794V338.078H140.012V328.422H141.731ZM141.731 336.656H145.059V333.312H141.731V336.656ZM165.847 338.312V339.75H152.941V338.312H158.503V336.016H154.472V331.391H162.597V329.641H154.441V328.234H164.316V332.766H156.206V334.594H164.644V336.016H160.222V338.312H165.847ZM175.094 331.281C175.094 333.594 176.453 336.031 178.734 336.984L177.781 338.359C176.109 337.641 174.891 336.156 174.25 334.359C173.594 336.297 172.359 337.922 170.703 338.703L169.703 337.344C171.938 336.312 173.328 333.688 173.328 331.281V330.094H170.219V328.656H178.188V330.094H175.094V331.281ZM181.516 327.266V341.391H179.766V327.266H181.516ZM195.038 327.281V337.969H193.288V336.734H190.522V335.516H193.288V327.281H195.038ZM195.366 339.703V341.109H185.006V336.938H186.741V339.703H195.366ZM183.131 333.625C185.741 333.609 189.241 333.578 192.241 333.203L192.334 334.453C191.17 334.648 189.967 334.781 188.772 334.859V337.578H187.038V334.953C185.717 335.008 184.459 335.016 183.35 335.016L183.131 333.625ZM187.741 327.797C189.803 327.797 191.241 328.812 191.256 330.297C191.241 331.812 189.803 332.781 187.741 332.781C185.647 332.781 184.209 331.812 184.209 330.297C184.209 328.812 185.647 327.797 187.741 327.797ZM187.741 329.078C186.616 329.078 185.85 329.531 185.85 330.297C185.85 331.062 186.616 331.516 187.741 331.516C188.819 331.516 189.584 331.062 189.6 330.297C189.584 329.531 188.819 329.078 187.741 329.078ZM207.762 327.234V330.422H209.747V331.828H207.762V334.938H206.028V327.234H207.762ZM207.762 335.562V338.969H200.262V339.969H208.2V341.266H198.544V337.766H206.028V336.828H198.528V335.562H207.762ZM205.012 328.406V329.734H196.637V328.406H199.966V327.156H201.7V328.406H205.012ZM200.825 330.172C202.919 330.188 204.262 331.078 204.278 332.484C204.262 333.938 202.919 334.797 200.825 334.797C198.731 334.797 197.356 333.938 197.356 332.484C197.356 331.078 198.731 330.188 200.825 330.172ZM200.825 331.422C199.731 331.422 199.044 331.812 199.044 332.484C199.044 333.172 199.731 333.547 200.825 333.547C201.919 333.547 202.622 333.172 202.622 332.484C202.622 331.812 201.919 331.422 200.825 331.422ZM220.806 328.438C220.806 330.219 222.791 332.016 225.806 332.406L225.119 333.812C222.72 333.453 220.814 332.273 219.9 330.672C218.97 332.273 217.072 333.453 214.697 333.812L214.009 332.406C216.994 332.016 218.978 330.219 218.978 328.438V327.719H220.806V328.438ZM226.322 335.031V336.469H220.712V341.391H218.994V336.469H213.447V335.031H226.322ZM235.288 336.453C235.288 337.625 235.827 338.859 237.038 339.625C238.264 338.805 238.834 337.523 238.85 336.453V335.875H240.553V336.453C240.538 337.938 241.413 339.312 243.272 339.906L242.428 341.172C241.053 340.711 240.139 339.812 239.647 338.688C239.194 339.797 238.358 340.789 237.084 341.297C235.741 340.812 234.897 339.859 234.459 338.734C233.952 339.82 233.053 340.703 231.741 341.172L230.881 339.906C232.709 339.266 233.584 337.828 233.6 336.453V335.875H235.288V336.453ZM242.038 327.281V335.281H240.288V327.281H242.038ZM234.334 328.031C236.506 328.031 238.131 329.406 238.131 331.391C238.131 333.359 236.506 334.734 234.334 334.734C232.147 334.734 230.522 333.359 230.522 331.391C230.522 329.406 232.147 328.031 234.334 328.031ZM234.334 329.5C233.1 329.5 232.209 330.234 232.225 331.391C232.209 332.547 233.1 333.297 234.334 333.297C235.553 333.297 236.428 332.547 236.428 331.391C236.428 330.234 235.553 329.5 234.334 329.5ZM247.559 328.297C249.473 328.297 250.887 329.891 251.137 332.469H253.825V327.266H255.544V341.406H253.825V333.875H251.153C250.966 336.602 249.528 338.281 247.559 338.281C245.434 338.281 243.934 336.359 243.934 333.281C243.934 330.234 245.434 328.297 247.559 328.297ZM247.559 329.859C246.387 329.859 245.591 331.125 245.606 333.281C245.591 335.453 246.387 336.719 247.559 336.719C248.731 336.719 249.512 335.453 249.528 333.281C249.512 331.125 248.731 329.859 247.559 329.859ZM270.034 338.25V339.672H257.128V338.25H260.113V334.672C258.988 334.031 258.308 333.023 258.316 331.766C258.3 329.516 260.519 328.031 263.55 328.031C266.597 328.031 268.816 329.516 268.816 331.766C268.816 333 268.159 333.992 267.066 334.641V338.25H270.034ZM263.55 329.406C261.441 329.406 260.003 330.297 260.019 331.766C260.003 333.219 261.441 334.125 263.55 334.125C265.659 334.125 267.113 333.219 267.113 331.766C267.113 330.297 265.659 329.406 263.55 329.406ZM261.831 338.25H265.3V335.297C264.761 335.422 264.175 335.484 263.55 335.484C262.941 335.484 262.363 335.422 261.831 335.312V338.25ZM272.275 340.125C271.603 340.125 271.056 339.578 271.056 338.906C271.056 338.25 271.603 337.703 272.275 337.703C272.916 337.703 273.478 338.25 273.478 338.906C273.478 339.578 272.916 340.125 272.275 340.125Z" fill="white"/>
<defs>
<filter id="filter0_d_1632_6604" x="0" y="30" width="336" height="291" filterUnits="userSpaceOnUse" color-interpolation-filters="sRGB">
<feFlood flood-opacity="0" result="BackgroundImageFix"/>
<feColorMatrix in="SourceAlpha" type="matrix" values="0 0 0 0 0 0 0 0 0 0 0 0 0 0 0 0 0 0 127 0" result="hardAlpha"/>
<feOffset/>
<feGaussianBlur stdDeviation="4"/>
<feComposite in2="hardAlpha" operator="out"/>
<feColorMatrix type="matrix" values="0 0 0 0 0 0 0 0 0 0 0 0 0 0 0 0 0 0 0.08 0"/>
<feBlend mode="normal" in2="BackgroundImageFix" result="effect1_dropShadow_1632_6604"/>
<feBlend mode="normal" in="SourceGraphic" in2="effect1_dropShadow_1632_6604" result="shape"/>
</filter>
</defs>
</svg>
