<svg width="259" height="111" viewBox="0 0 259 111" fill="none" xmlns="http://www.w3.org/2000/svg">
<path d="M102.22 45.6962C102.149 45.4292 101.876 45.2699 101.609 45.3404C101.342 45.4109 101.182 45.6845 101.253 45.9515L101.736 45.8238L102.22 45.6962ZM143.684 87.4568L138.662 84.6083L138.706 90.3816L143.684 87.4568ZM101.515 46.8967C101.592 47.1619 101.87 47.3143 102.135 47.2372C102.4 47.1601 102.553 46.8827 102.475 46.6175L101.995 46.7571L101.515 46.8967ZM103.057 48.46C102.969 48.1986 102.685 48.0587 102.423 48.1476C102.162 48.2365 102.022 48.5206 102.111 48.782L102.584 48.621L103.057 48.46ZM102.784 50.6381C102.883 50.8958 103.172 51.0244 103.43 50.9253C103.688 50.8261 103.816 50.5368 103.717 50.2791L103.25 50.4586L102.784 50.6381ZM104.445 52.0739C104.337 51.8198 104.043 51.7015 103.789 51.8097C103.535 51.9179 103.416 52.2115 103.525 52.4656L103.985 52.2697L104.445 52.0739ZM104.326 54.2652C104.442 54.5157 104.739 54.6244 104.99 54.5082C105.24 54.3919 105.349 54.0946 105.233 53.8441L104.779 54.0546L104.326 54.2652ZM106.075 55.5898C105.952 55.3429 105.651 55.243 105.404 55.3667C105.158 55.4904 105.058 55.7908 105.181 56.0377L105.628 55.8137L106.075 55.5898ZM106.087 57.7838C106.218 58.0271 106.521 58.1185 106.764 57.9879C107.008 57.8573 107.099 57.5542 106.969 57.3109L106.528 57.5474L106.087 57.7838ZM107.909 59.0076C107.772 58.7678 107.466 58.6846 107.227 58.8216C106.987 58.9586 106.904 59.2641 107.041 59.5038L107.475 59.2557L107.909 59.0076ZM108.038 61.1979C108.181 61.4341 108.489 61.5094 108.725 61.3663C108.961 61.2231 109.037 60.9156 108.893 60.6795L108.466 60.9387L108.038 61.1979ZM109.92 62.3263C109.771 62.0938 109.462 62.0262 109.23 62.1753C108.997 62.3243 108.929 62.6336 109.079 62.866L109.499 62.5962L109.92 62.3263ZM110.16 64.5077C110.315 64.7364 110.626 64.7964 110.854 64.6417C111.083 64.4869 111.143 64.1761 110.988 63.9473L110.574 64.2275L110.16 64.5077ZM112.096 65.5418C111.936 65.317 111.623 65.2647 111.398 65.425C111.174 65.5853 111.121 65.8975 111.282 66.1224L111.689 65.8321L112.096 65.5418ZM112.443 67.709C112.608 67.9299 112.922 67.9745 113.143 67.8087C113.364 67.6429 113.408 67.3294 113.242 67.1086L112.842 67.4088L112.443 67.709ZM114.427 68.6464C114.256 68.4298 113.941 68.393 113.725 68.5643C113.508 68.7355 113.471 69.0499 113.643 69.2666L114.035 68.9565L114.427 68.6464ZM114.881 70.7935C115.058 71.0057 115.373 71.0345 115.586 70.8578C115.798 70.6811 115.827 70.3658 115.65 70.1536L115.266 70.4736L114.881 70.7935ZM116.911 71.6284C116.729 71.4209 116.413 71.4004 116.205 71.5825C115.998 71.7647 115.977 72.0806 116.159 72.2882L116.535 71.9583L116.911 71.6284ZM117.476 73.7484C117.664 73.9509 117.98 73.9629 118.183 73.7752C118.385 73.5875 118.397 73.2711 118.21 73.0686L117.843 73.4085L117.476 73.7484ZM119.547 74.4717C119.354 74.2746 119.037 74.2715 118.84 74.4649C118.643 74.6583 118.64 74.9748 118.834 75.172L119.19 74.8218L119.547 74.4717ZM120.233 76.5569C120.432 76.7482 120.748 76.7418 120.94 76.5427C121.131 76.3435 121.125 76.027 120.925 75.8357L120.579 76.1963L120.233 76.5569ZM122.344 77.1563C122.139 76.9714 121.823 76.9877 121.638 77.1928C121.453 77.3979 121.469 77.7141 121.674 77.899L122.009 77.5277L122.344 77.1563ZM123.159 79.1941C123.371 79.3721 123.686 79.3451 123.864 79.1339C124.042 78.9227 124.015 78.6073 123.804 78.4294L123.482 78.8117L123.159 79.1941ZM125.306 79.6498C125.089 79.4796 124.774 79.518 124.604 79.7355C124.434 79.953 124.473 80.2673 124.69 80.4374L124.998 80.0436L125.306 79.6498ZM126.267 81.6229C126.491 81.7844 126.804 81.7337 126.965 81.5097C127.127 81.2857 127.076 80.9732 126.852 80.8117L126.56 81.2173L126.267 81.6229ZM128.443 81.9081C128.212 81.7564 127.902 81.8204 127.75 82.0511C127.599 82.2819 127.663 82.5919 127.893 82.7436L128.168 82.3259L128.443 81.9081ZM129.57 83.7912C129.808 83.9318 130.114 83.8533 130.255 83.6156C130.396 83.378 130.317 83.0713 130.079 82.9307L129.825 83.3609L129.57 83.7912ZM131.762 83.8695C131.517 83.7414 131.215 83.8359 131.087 84.0805C130.959 84.3251 131.053 84.6273 131.298 84.7554L131.53 84.3125L131.762 83.8695ZM133.079 85.6243C133.331 85.738 133.627 85.6262 133.74 85.3746C133.854 85.1229 133.742 84.8267 133.491 84.713L133.285 85.1687L133.079 85.6243ZM135.264 85.4476C135.006 85.3504 134.717 85.4811 134.62 85.7396C134.523 85.9981 134.654 86.2864 134.912 86.3836L135.088 85.9156L135.264 85.4476ZM136.796 87.0167C137.061 87.0949 137.339 86.9437 137.417 86.6788C137.496 86.414 137.344 86.1359 137.08 86.0576L136.938 86.5371L136.796 87.0167ZM138.935 86.5266C138.665 86.47 138.4 86.6433 138.343 86.9135C138.287 87.1838 138.46 87.4488 138.73 87.5054L138.833 87.016L138.935 86.5266ZM140.702 87.8281C140.977 87.8602 141.225 87.6639 141.257 87.3896C141.289 87.1153 141.093 86.867 140.819 86.8349L140.76 87.3315L140.702 87.8281ZM142.717 86.9643C142.441 86.9593 142.213 87.1791 142.208 87.4552C142.203 87.7313 142.423 87.9592 142.699 87.9642L142.708 87.4643L142.717 86.9643ZM101.736 45.8238L101.253 45.9515C101.335 46.2641 101.423 46.5793 101.515 46.8967L101.995 46.7571L102.475 46.6175C102.385 46.3078 102.3 46.0006 102.22 45.6962L101.736 45.8238ZM102.584 48.621L102.111 48.782C102.319 49.3944 102.544 50.0135 102.784 50.6381L103.25 50.4586L103.717 50.2791C103.481 49.6662 103.261 49.0594 103.057 48.46L102.584 48.621ZM103.985 52.2697L103.525 52.4656C103.779 53.062 104.046 53.6622 104.326 54.2652L104.779 54.0546L105.233 53.8441C104.957 53.2506 104.694 52.6602 104.445 52.0739L103.985 52.2697ZM105.628 55.8137L105.181 56.0377C105.472 56.6185 105.775 57.2008 106.087 57.7838L106.528 57.5474L106.969 57.3109C106.66 56.7361 106.362 56.162 106.075 55.5898L105.628 55.8137ZM107.475 59.2557L107.041 59.5038C107.364 60.0691 107.696 60.6341 108.038 61.1979L108.466 60.9387L108.893 60.6795C108.556 60.1229 108.228 59.5653 107.909 59.0076L107.475 59.2557ZM109.499 62.5962L109.079 62.866C109.431 63.4154 109.791 63.9629 110.16 64.5077L110.574 64.2275L110.988 63.9473C110.624 63.4093 110.268 62.8687 109.92 62.3263L109.499 62.5962ZM111.689 65.8321L111.282 66.1224C111.661 66.6549 112.048 67.1841 112.443 67.709L112.842 67.4088L113.242 67.1086C112.853 66.5902 112.471 66.0677 112.096 65.5418L111.689 65.8321ZM114.035 68.9565L113.643 69.2666C114.049 69.7807 114.462 70.29 114.881 70.7935L115.266 70.4736L115.65 70.1536C115.236 69.6567 114.828 69.154 114.427 68.6464L114.035 68.9565ZM116.535 71.9583L116.159 72.2882C116.593 72.7817 117.032 73.2687 117.476 73.7484L117.843 73.4085L118.21 73.0686C117.771 72.5956 117.338 72.1153 116.911 71.6284L116.535 71.9583ZM119.19 74.8218L118.834 75.172C119.295 75.6422 119.761 76.1041 120.233 76.5569L120.579 76.1963L120.925 75.8357C120.461 75.3899 120.002 74.935 119.547 74.4717L119.19 74.8218ZM122.009 77.5277L121.674 77.899C122.165 78.3414 122.66 78.7734 123.159 79.1941L123.482 78.8117L123.804 78.4294C123.313 78.016 122.826 77.5914 122.344 77.1563L122.009 77.5277ZM124.998 80.0436L124.69 80.4374C125.212 80.8457 125.738 81.2412 126.267 81.6229L126.56 81.2173L126.852 80.8117C126.334 80.4379 125.818 80.0503 125.306 79.6498L124.998 80.0436ZM128.168 82.3259L127.893 82.7436C128.449 83.109 129.008 83.4585 129.57 83.7912L129.825 83.3609L130.079 82.9307C129.532 82.6063 128.986 82.2651 128.443 81.9081L128.168 82.3259ZM131.53 84.3125L131.298 84.7554C131.889 85.065 132.483 85.355 133.079 85.6243L133.285 85.1687L133.491 84.713C132.913 84.4521 132.337 84.1705 131.762 83.8695L131.53 84.3125ZM135.088 85.9156L134.912 86.3836C135.539 86.6192 136.167 86.8307 136.796 87.0167L136.938 86.5371L137.08 86.0576C136.475 85.8789 135.869 85.6751 135.264 85.4476L135.088 85.9156ZM138.833 87.016L138.73 87.5054C139.387 87.643 140.045 87.7511 140.702 87.8281L140.76 87.3315L140.819 86.8349C140.192 86.7615 139.564 86.6583 138.935 86.5266L138.833 87.016Z" fill="#00D0FF"/>
<path d="M4.32812 5.29688C6.24219 5.29688 7.65625 6.89062 7.90625 9.46875H10.5938V4.26562H12.3125V18.4062H10.5938V10.875H7.92188C7.73438 13.6016 6.29688 15.2812 4.32812 15.2812C2.20312 15.2812 0.703125 13.3594 0.703125 10.2812C0.703125 7.23438 2.20312 5.29688 4.32812 5.29688ZM4.32812 6.85938C3.15625 6.85938 2.35938 8.125 2.375 10.2812C2.35938 12.4531 3.15625 13.7188 4.32812 13.7188C5.5 13.7188 6.28125 12.4531 6.29688 10.2812C6.28125 8.125 5.5 6.85938 4.32812 6.85938ZM26.8031 15.2969V16.7188H13.8969V15.2969H26.8031ZM25.2719 5.26562V9.8125H17.1625V11.6562H25.6V13.0312H15.4281V8.42188H23.5531V6.67188H15.3969V5.26562H25.2719ZM39.0906 4.28125V14.5938H37.3406V4.28125H39.0906ZM39.4813 16.7031V18.1094H29.7469V13.6094H31.4969V16.7031H39.4813ZM32.5906 6.4375C32.5906 8.40625 33.7469 10.2656 35.9813 11.0156L35.0906 12.3906C33.4813 11.8281 32.3328 10.7031 31.7156 9.26562C31.075 10.8047 29.9109 12.0391 28.2469 12.6406L27.3406 11.2656C29.6375 10.4531 30.7938 8.46875 30.7938 6.4375V5.0625H32.5906V6.4375ZM48.6437 5.73438V6.73438C48.6437 8 48.6437 9.76562 48.2531 12.2031L46.5344 12.0625C46.8703 9.92188 46.9094 8.34375 46.925 7.125H41.3781V5.73438H48.6437ZM45.0812 9.76562V13.9375C46.5187 13.8828 47.9953 13.7812 49.3469 13.6094L49.4406 14.9062C46.5187 15.375 43.2844 15.4375 40.8 15.4219L40.6281 14.0312C41.4641 14.0234 42.3937 14.0156 43.3625 13.9844V9.76562H45.0812ZM51.8312 4.26562V10.0156H53.8781V11.4844H51.8312V18.3906H50.0812V4.26562H51.8312ZM63.9375 13.0938C67 13.1094 68.9375 14.0781 68.9531 15.75C68.9375 17.3906 67 18.375 63.9375 18.375C60.8906 18.375 58.9375 17.3906 58.9375 15.75C58.9375 14.0781 60.8906 13.1094 63.9375 13.0938ZM63.9375 14.4062C61.9062 14.4062 60.6719 14.8906 60.6875 15.75C60.6719 16.5781 61.9062 17.0312 63.9375 17.0312C65.9844 17.0312 67.2188 16.5781 67.2344 15.75C67.2188 14.8906 65.9844 14.4062 63.9375 14.4062ZM68.8594 4.9375V6.10938C68.8594 7.21875 68.8594 8.40625 68.4688 9.85938L66.75 9.70312C67.1016 8.32812 67.125 7.33594 67.125 6.3125H59.0781V4.9375H68.8594ZM70.4219 10.6719V12.0781H57.6094V10.6719H62.5781V8.10938H64.2969V10.6719H70.4219ZM82.5375 5.5625V6.92188C82.5219 8.67188 82.5219 10.6406 81.975 13.5938L80.225 13.4062C80.7719 10.6562 80.7719 8.64844 80.7875 6.95312H72.35V5.5625H82.5375ZM83.8812 15.1406V16.5625H71.0062V15.1406H75.7562V10.2344H77.475V15.1406H83.8812ZM97.325 10.6719V11.9844H84.4187V10.6719H97.325ZM95.7625 12.8281V16.0469H87.6687V17.0312H96.1844V18.2344H85.9344V14.9219H94.0437V14.0469H85.9187V12.8281H95.7625ZM95.7312 4.57812V7.76562H87.7781V8.6875H95.9812V9.875H86.0594V6.64062H93.9969V5.78125H86.0125V4.57812H95.7312ZM114.15 10.8125V12.2344H101.259V10.8125H114.15ZM112.666 8.3125V9.70312H102.838V4.71875H112.588V6.125H104.572V8.3125H112.666ZM107.681 13.2188C110.728 13.2031 112.556 14.1406 112.572 15.7812C112.556 17.4375 110.728 18.375 107.681 18.375C104.603 18.375 102.759 17.4375 102.759 15.7812C102.759 14.1406 104.603 13.2031 107.681 13.2188ZM107.681 14.5469C105.619 14.5469 104.509 14.9844 104.525 15.7812C104.509 16.6094 105.619 17.0312 107.681 17.0312C109.697 17.0312 110.822 16.6094 110.838 15.7812C110.822 14.9844 109.697 14.5469 107.681 14.5469ZM127.578 11.9062V13.3125H114.672V11.9062H120.266V10.7344H116.312V6.98438H124.25V5.9375H116.266V4.57812H125.984V8.25H118.031V9.375H126.266V10.7344H121.984V11.9062H127.578ZM126.062 14.2031V18.2969H124.312V15.5781H116.109V14.2031H126.062ZM139.178 4.26562V9.89062H141.35V11.3281H139.178V18.3906H137.459V4.26562H139.178ZM136.366 6.4375V7.82812H128.037V6.4375H131.381V4.46875H133.116V6.4375H136.366ZM132.256 8.75C134.287 8.75 135.803 10.125 135.803 12.0781C135.803 14.0312 134.287 15.3906 132.256 15.3906C130.194 15.3906 128.678 14.0312 128.694 12.0781C128.678 10.125 130.194 8.75 132.256 8.75ZM132.256 10.1719C131.147 10.1719 130.35 10.9219 130.35 12.0781C130.35 13.2344 131.147 13.9688 132.256 13.9531C133.334 13.9688 134.131 13.2344 134.147 12.0781C134.131 10.9219 133.334 10.1719 132.256 10.1719ZM145.95 7.96875C145.95 10.25 146.747 12.625 148.653 13.8281L147.7 15.1562C146.427 14.3906 145.598 13.0703 145.137 11.5156C144.622 13.2266 143.716 14.6719 142.387 15.4844L141.309 14.1875C143.356 12.9375 144.278 10.4531 144.278 8.04688V5.51562H145.95V7.96875ZM153.731 4.26562V18.3906H152.059V4.26562H153.731ZM150.794 4.51562V17.7031H149.153V10.5625H147.137V9.125H149.153V4.51562H150.794ZM167.878 15.25V16.6719H154.972V15.25H157.956V11.6719C156.831 11.0312 156.152 10.0234 156.159 8.76562C156.144 6.51562 158.363 5.03125 161.394 5.03125C164.441 5.03125 166.659 6.51562 166.659 8.76562C166.659 10 166.003 10.9922 164.909 11.6406V15.25H167.878ZM161.394 6.40625C159.284 6.40625 157.847 7.29688 157.863 8.76562C157.847 10.2188 159.284 11.125 161.394 11.125C163.503 11.125 164.956 10.2188 164.956 8.76562C164.956 7.29688 163.503 6.40625 161.394 6.40625ZM159.675 15.25H163.144V12.2969C162.605 12.4219 162.019 12.4844 161.394 12.4844C160.784 12.4844 160.206 12.4219 159.675 12.3125V15.25ZM170.119 17.125C169.447 17.125 168.9 16.5781 168.9 15.9062C168.9 15.25 169.447 14.7031 170.119 14.7031C170.759 14.7031 171.322 15.25 171.322 15.9062C171.322 16.5781 170.759 17.125 170.119 17.125Z" fill="white"/>
<path d="M4.32812 27.2969C5.60938 27.2969 6.66406 28.0078 7.29688 29.25H10.5938V26.2656H12.3125V40.4062H10.5938V35.0625H7.42188C6.8125 36.4688 5.69531 37.2812 4.32812 37.2812C2.20312 37.2812 0.703125 35.3594 0.703125 32.2812C0.703125 29.2344 2.20312 27.2969 4.32812 27.2969ZM4.32812 28.8594C3.15625 28.8594 2.35938 30.125 2.375 32.2812C2.35938 34.4531 3.15625 35.7188 4.32812 35.7188C5.5 35.7188 6.28125 34.4531 6.29688 32.2812C6.28125 30.125 5.5 28.8594 4.32812 28.8594ZM7.78125 30.6719C7.88281 31.1641 7.9375 31.7031 7.9375 32.2812C7.9375 32.7734 7.89844 33.2266 7.82812 33.6562H10.5938V30.6719H7.78125ZM25.6938 26.2656V40.3906H23.9438V26.2656H25.6938ZM21.475 27.7656C21.475 31.9688 19.85 35.5469 14.8969 37.8906L13.9906 36.5C17.6859 34.7422 19.4047 32.3516 19.7094 29.1406H14.7094V27.7656H21.475ZM40.2156 32.6719V33.9844H27.3094V32.6719H40.2156ZM38.6531 34.8281V38.0469H30.5594V39.0312H39.075V40.2344H28.825V36.9219H36.9344V36.0469H28.8094V34.8281H38.6531ZM38.6219 26.5781V29.7656H30.6688V30.6875H38.8719V31.875H28.95V28.6406H36.8875V27.7812H28.9031V26.5781H38.6219ZM55.5563 29.3125V30.7031H45.8063V26.4531H47.5094V29.3125H55.5563ZM57.0406 31.6562V33.0625H51.4156V34.2969H55.4625V37.8125H47.4313V38.9219H55.9313V40.2656H45.6813V36.5938H53.7438V35.6094H45.6656V34.2969H49.7125V33.0625H44.1344V31.6562H57.0406ZM69.4062 26.2656V40.4062H67.6719V32.8906H65.25V31.4688H67.6719V26.2656H69.4062ZM64.4375 27.5V32.6719H59.8125V35.6406C61.9062 35.6328 63.6016 35.5625 65.5 35.2188L65.6406 36.6406C63.5312 37.0156 61.6562 37.0938 59.2188 37.0938H58.0938V31.2656H62.7344V28.9062H58.0469V27.5H64.4375ZM144.403 32.6719V33.9844H131.497V32.6719H144.403ZM142.841 34.8281V38.0469H134.747V39.0312H143.262V40.2344H133.012V36.9219H141.122V36.0469H132.997V34.8281H142.841ZM142.809 26.5781V29.7656H134.856V30.6875H143.059V31.875H133.137V28.6406H141.075V27.7812H133.091V26.5781H142.809ZM154.759 26.4062C157.978 26.4062 159.837 27.2656 159.853 28.8281C159.837 30.2656 158.298 31.0938 155.603 31.2344V32.1406H161.212V33.5312H148.337V32.1406H153.884V31.2344C151.205 31.0859 149.666 30.2578 149.666 28.8281C149.666 27.2656 151.541 26.4062 154.759 26.4062ZM154.759 27.7031C152.603 27.7031 151.478 28.0938 151.494 28.8281C151.478 29.6094 152.603 29.9688 154.759 29.9844C156.947 29.9688 158.056 29.6094 158.056 28.8281C158.056 28.0938 156.947 27.7031 154.759 27.7031ZM159.603 34.4375V37.8906H151.572V38.9375H159.994V40.2656H149.869V36.6562H157.9V35.75H149.853V34.4375H159.603ZM169.047 26.9375V30.6406H164.203V31.9219C166.852 31.9141 168.453 31.8516 170.375 31.5469L170.547 32.8594C168.469 33.2031 166.688 33.2656 163.672 33.2656H162.484V29.4062H167.328V28.2656H162.438V26.9375H169.047ZM173.531 34.2031V37.7969H165.938V38.9219H173.953V40.2656H164.188V36.5312H171.75V35.5312H164.156V34.2031H173.531ZM173.531 26.2656V33.6562H171.781V26.2656H173.531ZM185.95 27.4375C185.95 29.2188 187.934 31.0156 190.95 31.4062L190.262 32.8125C187.864 32.4531 185.958 31.2734 185.044 29.6719C184.114 31.2734 182.216 32.4531 179.841 32.8125L179.153 31.4062C182.137 31.0156 184.122 29.2188 184.122 27.4375V26.7188H185.95V27.4375ZM191.466 34.0312V35.4688H185.856V40.3906H184.137V35.4688H178.591V34.0312H191.466ZM200.431 35.4531C200.431 36.625 200.97 37.8594 202.181 38.625C203.408 37.8047 203.978 36.5234 203.994 35.4531V34.875H205.697V35.4531C205.681 36.9375 206.556 38.3125 208.416 38.9062L207.572 40.1719C206.197 39.7109 205.283 38.8125 204.791 37.6875C204.337 38.7969 203.502 39.7891 202.228 40.2969C200.884 39.8125 200.041 38.8594 199.603 37.7344C199.095 38.8203 198.197 39.7031 196.884 40.1719L196.025 38.9062C197.853 38.2656 198.728 36.8281 198.744 35.4531V34.875H200.431V35.4531ZM207.181 26.2812V34.2812H205.431V26.2812H207.181ZM199.478 27.0312C201.65 27.0312 203.275 28.4062 203.275 30.3906C203.275 32.3594 201.65 33.7344 199.478 33.7344C197.291 33.7344 195.666 32.3594 195.666 30.3906C195.666 28.4062 197.291 27.0312 199.478 27.0312ZM199.478 28.5C198.244 28.5 197.353 29.2344 197.369 30.3906C197.353 31.5469 198.244 32.2969 199.478 32.2969C200.697 32.2969 201.572 31.5469 201.572 30.3906C201.572 29.2344 200.697 28.5 199.478 28.5ZM212.703 27.2969C214.617 27.2969 216.031 28.8906 216.281 31.4688H218.969V26.2656H220.688V40.4062H218.969V32.875H216.297C216.109 35.6016 214.672 37.2812 212.703 37.2812C210.578 37.2812 209.078 35.3594 209.078 32.2812C209.078 29.2344 210.578 27.2969 212.703 27.2969ZM212.703 28.8594C211.531 28.8594 210.734 30.125 210.75 32.2812C210.734 34.4531 211.531 35.7188 212.703 35.7188C213.875 35.7188 214.656 34.4531 214.672 32.2812C214.656 30.125 213.875 28.8594 212.703 28.8594ZM235.178 37.25V38.6719H222.272V37.25H225.256V33.6719C224.131 33.0312 223.452 32.0234 223.459 30.7656C223.444 28.5156 225.663 27.0312 228.694 27.0312C231.741 27.0312 233.959 28.5156 233.959 30.7656C233.959 32 233.303 32.9922 232.209 33.6406V37.25H235.178ZM228.694 28.4062C226.584 28.4062 225.147 29.2969 225.163 30.7656C225.147 32.2188 226.584 33.125 228.694 33.125C230.803 33.125 232.256 32.2188 232.256 30.7656C232.256 29.2969 230.803 28.4062 228.694 28.4062ZM226.975 37.25H230.444V34.2969C229.905 34.4219 229.319 34.4844 228.694 34.4844C228.084 34.4844 227.506 34.4219 226.975 34.3125V37.25ZM237.419 39.125C236.747 39.125 236.2 38.5781 236.2 37.9062C236.2 37.25 236.747 36.7031 237.419 36.7031C238.059 36.7031 238.622 37.25 238.622 37.9062C238.622 38.5781 238.059 39.125 237.419 39.125Z" fill="white"/>
<path d="M85.7 27.125V28.3906C85.7 29.7109 85.7 31.1562 85.325 33.1562H87.2781V34.5625H81.6687V40.4062H79.9187V34.5625H74.4031V33.1562H83.5594C83.95 31.2344 83.9656 29.7969 83.9656 28.5312H75.9187V27.125H85.7ZM99.5969 26.2812V36.4844H97.8469V26.2812H99.5969ZM99.9875 38.7031V40.1094H90.2531V35.4531H92.0031V38.7031H99.9875ZM91.8938 27.2031C94.0344 27.2031 95.6906 28.6875 95.6906 30.7344C95.6906 32.8281 94.0344 34.2812 91.8938 34.2812C89.7375 34.2812 88.0813 32.8281 88.0813 30.7344C88.0813 28.6875 89.7375 27.2031 91.8938 27.2031ZM91.8938 28.7188C90.6906 28.7188 89.7688 29.5156 89.7844 30.7344C89.7688 31.9844 90.6906 32.7656 91.8938 32.7656C93.0656 32.7656 93.9875 31.9844 93.9875 30.7344C93.9875 29.5156 93.0656 28.7188 91.8938 28.7188ZM111.016 35.0938C114.078 35.1094 116.016 36.0781 116.031 37.75C116.016 39.3906 114.078 40.375 111.016 40.375C107.969 40.375 106.016 39.3906 106.016 37.75C106.016 36.0781 107.969 35.1094 111.016 35.0938ZM111.016 36.4062C108.984 36.4062 107.75 36.8906 107.766 37.75C107.75 38.5781 108.984 39.0312 111.016 39.0312C113.062 39.0312 114.297 38.5781 114.312 37.75C114.297 36.8906 113.062 36.4062 111.016 36.4062ZM115.938 26.9375V28.1094C115.938 29.2188 115.938 30.4062 115.547 31.8594L113.828 31.7031C114.18 30.3281 114.203 29.3359 114.203 28.3125H106.156V26.9375H115.938ZM117.5 32.6719V34.0781H104.688V32.6719H109.656V30.1094H111.375V32.6719H117.5ZM129.616 27.5625V28.9219C129.6 30.6719 129.6 32.6406 129.053 35.5938L127.303 35.4062C127.85 32.6562 127.85 30.6484 127.866 28.9531H119.428V27.5625H129.616ZM130.959 37.1406V38.5625H118.084V37.1406H122.834V32.2344H124.553V37.1406H130.959Z" fill="#00D0FF"/>
<rect x="149.5" y="65.5" width="109" height="45" rx="22.5" fill="#0370FF"/>
<rect x="149.5" y="65.5" width="109" height="45" rx="22.5" stroke="#0370FF"/>
<path d="M178.182 83.9595L175.04 80.818C174.776 80.5543 174.419 80.4062 174.046 80.4062C173.673 80.4062 173.315 80.5543 173.052 80.818L164.381 89.4882C164.25 89.6184 164.146 89.7734 164.075 89.944C164.004 90.1147 163.968 90.2977 163.969 90.4824V93.6247C163.969 93.9977 164.117 94.3553 164.381 94.6191C164.644 94.8828 165.002 95.0309 165.375 95.0309H177.188C177.411 95.0309 177.626 94.9421 177.784 94.7838C177.942 94.6256 178.031 94.411 178.031 94.1872C178.031 93.9634 177.942 93.7488 177.784 93.5906C177.626 93.4323 177.411 93.3434 177.188 93.3434H170.789L178.182 85.9487C178.313 85.8181 178.417 85.663 178.487 85.4924C178.558 85.3217 178.595 85.1388 178.595 84.9541C178.595 84.7694 178.558 84.5865 178.487 84.4158C178.417 84.2452 178.313 84.0901 178.182 83.9595ZM168.398 93.3434H165.656V90.6013L171.563 84.695L174.305 87.4372L168.398 93.3434ZM175.5 86.2419L172.758 83.4997L174.047 82.2102L176.79 84.9524L175.5 86.2419Z" fill="white"/>
<path d="M194.828 90.0938C197.891 90.1094 199.828 91.0781 199.844 92.75C199.828 94.3906 197.891 95.375 194.828 95.375C191.781 95.375 189.828 94.3906 189.828 92.75C189.828 91.0781 191.781 90.1094 194.828 90.0938ZM194.828 91.4062C192.797 91.4062 191.562 91.8906 191.578 92.75C191.562 93.5781 192.797 94.0312 194.828 94.0312C196.875 94.0312 198.109 93.5781 198.125 92.75C198.109 91.8906 196.875 91.4062 194.828 91.4062ZM199.75 81.9375V83.1094C199.75 84.2188 199.75 85.4062 199.359 86.8594L197.641 86.7031C197.992 85.3281 198.016 84.3359 198.016 83.3125H189.969V81.9375H199.75ZM201.312 87.6719V89.0781H188.5V87.6719H193.469V85.1094H195.188V87.6719H201.312ZM213.428 82.5625V83.9219C213.413 85.6719 213.413 87.6406 212.866 90.5938L211.116 90.4062C211.663 87.6562 211.663 85.6484 211.678 83.9531H203.241V82.5625H213.428ZM214.772 92.1406V93.5625H201.897V92.1406H206.647V87.2344H208.366V92.1406H214.772ZM231.612 87.8125V89.2344H218.722V87.8125H231.612ZM230.128 85.3125V86.7031H220.3V81.7188H230.05V83.125H222.034V85.3125H230.128ZM225.144 90.2188C228.191 90.2031 230.019 91.1406 230.034 92.7812C230.019 94.4375 228.191 95.375 225.144 95.375C222.066 95.375 220.222 94.4375 220.222 92.7812C220.222 91.1406 222.066 90.2031 225.144 90.2188ZM225.144 91.5469C223.081 91.5469 221.972 91.9844 221.987 92.7812C221.972 93.6094 223.081 94.0312 225.144 94.0312C227.159 94.0312 228.284 93.6094 228.3 92.7812C228.284 91.9844 227.159 91.5469 225.144 91.5469ZM245.041 88.9062V90.3125H232.134V88.9062H237.728V87.7344H233.775V83.9844H241.713V82.9375H233.728V81.5781H243.447V85.25H235.494V86.375H243.728V87.7344H239.447V88.9062H245.041ZM243.525 91.2031V95.2969H241.775V92.5781H233.572V91.2031H243.525Z" fill="white"/>
</svg>
