<svg width="320" height="117" viewBox="0 0 320 117" fill="none" xmlns="http://www.w3.org/2000/svg">
<rect width="320" height="52" rx="8" fill="#F2F2F2"/>
<g filter="url(#filter0_d_1632_6704)">
<mask id="path-2-inside-1_1632_6704" fill="white">
<path d="M6 11C6 7.68629 8.68629 5 12 5H100C103.314 5 106 7.68629 106 11V41C106 44.3137 103.314 47 100 47H12C8.68629 47 6 44.3137 6 41V11Z"/>
</mask>
<path d="M6 11C6 7.68629 8.68629 5 12 5H100C103.314 5 106 7.68629 106 11V41C106 44.3137 103.314 47 100 47H12C8.68629 47 6 44.3137 6 41V11Z" fill="white" shape-rendering="crispEdges"/>
<path d="M5 11C5 7.13401 8.13401 4 12 4H100C103.866 4 107 7.13401 107 11H105C105 8.23858 102.761 6 100 6H12C9.23858 6 7 8.23858 7 11H5ZM7 11M106 47H6H106M12 47C8.13401 47 5 43.866 5 40V11C5 7.13401 8.13401 4 12 4V6C9.23858 6 7 8.23858 7 11V41C7 44.3137 9.23858 47 12 47ZM100 4C103.866 4 107 7.13401 107 11V40C107 43.866 103.866 47 100 47C102.761 47 105 44.3137 105 41V11C105 8.23858 102.761 6 100 6V4Z" fill="#595959" mask="url(#path-2-inside-1_1632_6704)"/>
<path d="M5 11C5 7.13401 8.13401 4 12 4H100C103.866 4 107 7.13401 107 11H105C105 8.23858 102.761 6 100 6H12C9.23858 6 7 8.23858 7 11H5ZM7 11M106 47H6H106M12 47C8.13401 47 5 43.866 5 40V11C5 7.13401 8.13401 4 12 4V6C9.23858 6 7 8.23858 7 11V41C7 44.3137 9.23858 47 12 47ZM100 4C103.866 4 107 7.13401 107 11V40C107 43.866 103.866 47 100 47C102.761 47 105 44.3137 105 41V11C105 8.23858 102.761 6 100 6V4Z" fill="white" mask="url(#path-2-inside-1_1632_6704)"/>
<path d="M43.4391 20.125C43.4234 23.7656 41.0328 26.3125 36.9234 27.4688L36.2203 26.1094C39.3844 25.2422 41.2594 23.5938 41.5797 21.5312H36.9859V20.125H43.4391ZM47.9547 19.2812V27.2344H46.2203V24.1562H43.5016V22.7344H46.2203V19.2812H47.9547ZM47.9547 27.7969V33.2031H38.6578V27.7969H47.9547ZM40.3609 29.1719V31.8281H46.2359V29.1719H40.3609ZM61.0391 26.375V27.7656H56.8672V30.3438H62.4609V31.7344H49.5547V30.3438H55.1172V27.7656H51.1328V20.3125H60.9141V21.7188H52.8984V23.3125H60.5859V24.6875H52.8984V26.375H61.0391ZM75.8578 25.75V27.1562H70.2641V28.3281C72.7953 28.5 74.2797 29.375 74.2953 30.8438C74.2797 32.4688 72.4516 33.375 69.4047 33.375C66.3266 33.375 64.4828 32.4688 64.4828 30.8438C64.4828 29.375 65.9828 28.4922 68.5453 28.3281V27.1562H62.9828V25.75H75.8578ZM69.4047 29.6406C67.3422 29.6562 66.2328 30.0625 66.2484 30.8438C66.2328 31.625 67.3422 32.0469 69.4047 32.0469C71.4203 32.0469 72.5453 31.625 72.5609 30.8438C72.5453 30.0625 71.4203 29.6562 69.4047 29.6406ZM74.7016 19.8906V21.2812H70.6391C70.9125 22.4453 72.6 23.4922 75.2484 23.7344L74.6391 25.1094C72.0766 24.8516 70.1703 23.8281 69.4047 22.3906C68.6391 23.8203 66.7641 24.8516 64.2016 25.1094L63.6078 23.7344C66.2016 23.4922 67.8891 22.4297 68.1859 21.2812H64.1547V19.8906H74.7016Z" fill="#0370FF"/>
</g>
<path d="M157.887 19.3281V22.8438H159.919V24.0938H157.887V27.4844H156.403V19.3281H157.887ZM150.403 28.0625V29.4219H156.403V28.0625H157.887V33.1562H148.934V28.0625H150.403ZM150.403 31.9688H156.403V30.5781H150.403V31.9688ZM155.247 20.7031V21.8906H146.903V20.7031H150.341V19.2031H151.825V20.7031H155.247ZM151.075 22.4688C153.091 22.4688 154.466 23.4219 154.466 24.9219C154.466 26.4062 153.091 27.3906 151.075 27.375C149.028 27.3906 147.669 26.4062 147.669 24.9219C147.669 23.4219 149.028 22.4688 151.075 22.4688ZM151.075 23.5781C149.887 23.5625 149.091 24.1094 149.106 24.9219C149.091 25.75 149.887 26.2812 151.075 26.2812C152.262 26.2812 153.059 25.75 153.075 24.9219C153.059 24.1094 152.262 23.5625 151.075 23.5781ZM167.738 20.25C167.738 20.7812 167.683 21.2812 167.581 21.7656H170.503V19.3438H171.988V27.6719H170.503V25.9219H166.972V24.7188H170.503V22.9531H167.206C166.261 25.1484 164.113 26.7188 161.081 27.5312L160.519 26.3594C163.847 25.4609 165.87 23.6797 166.144 21.4531H161.253V20.25H167.738ZM171.988 28.2812V33.2969H170.503V29.4531H162.503V28.2812H171.988Z" fill="#737373"/>
<path d="M257.966 20.7188V29.8125H251.419V20.7188H257.966ZM252.872 21.8906V28.6094H256.497V21.8906H252.872ZM261.794 19.3281V24.8125H264.044V26.0625H261.794V33.3281H260.309V19.3281H261.794ZM275.316 19.3281V22.625H277.347V23.8594H275.316V27.2344H273.831V19.3281H275.316ZM271.456 20.2031C271.441 23.7969 269.019 26.3125 264.847 27.4375L264.253 26.25C267.597 25.3672 269.573 23.6094 269.847 21.4219H264.909V20.2031H271.456ZM275.316 27.8281V33.1406H266.347V27.8281H275.316ZM267.831 29.0625V31.9531H273.847V29.0625H267.831Z" fill="#737373"/>
<path d="M38.7969 81.2812C38.7969 82.0573 38.9427 82.8255 39.2344 83.5859C39.5312 84.3411 39.9531 85.0208 40.5 85.625C41.0521 86.224 41.6979 86.6771 42.4375 86.9844L41.4844 88.3594C40.6667 88.0104 39.9557 87.487 39.3516 86.7891C38.7474 86.0911 38.2786 85.2812 37.9453 84.3594C37.612 85.349 37.1406 86.2266 36.5312 86.9922C35.9271 87.7526 35.2188 88.3229 34.4062 88.7031L33.4062 87.3438C34.1302 87.0104 34.7656 86.5208 35.3125 85.875C35.8646 85.2292 36.2891 84.5052 36.5859 83.7031C36.8828 82.8958 37.0312 82.0885 37.0312 81.2812V80.0938H33.9219V78.6562H41.8906V80.0938H38.7969V81.2812ZM45.2188 91.3906H43.4688V77.2656H45.2188V91.3906ZM58.7406 87.9688H56.9906V86.7344H54.225V85.5156H56.9906V77.2812H58.7406V87.9688ZM59.0688 91.1094H48.7094V86.9375H50.4438V89.7031H59.0688V91.1094ZM46.8344 83.625C48.6677 83.6146 50.3135 83.5833 51.7719 83.5312C53.2302 83.4792 54.6208 83.3698 55.9438 83.2031L56.0375 84.4531C54.9073 84.6406 53.7198 84.776 52.475 84.8594V87.5781H50.7406V84.9531C49.7354 84.9948 48.5063 85.0156 47.0531 85.0156L46.8344 83.625ZM51.4438 77.7969C52.126 77.7969 52.7302 77.9036 53.2563 78.1172C53.7875 78.3255 54.2016 78.6198 54.4984 79C54.8005 79.375 54.9542 79.8073 54.9594 80.2969C54.9542 80.7969 54.8031 81.2344 54.5063 81.6094C54.2094 81.9844 53.7953 82.2734 53.2641 82.4766C52.7328 82.6797 52.126 82.7812 51.4438 82.7812C50.751 82.7812 50.1365 82.6797 49.6 82.4766C49.0688 82.2734 48.6547 81.9844 48.3578 81.6094C48.0609 81.2344 47.9125 80.7969 47.9125 80.2969C47.9125 79.8073 48.0609 79.375 48.3578 79C48.6547 78.6198 49.0688 78.3255 49.6 78.1172C50.1365 77.9036 50.751 77.7969 51.4438 77.7969ZM51.4438 79.0781C50.876 79.0781 50.4177 79.1875 50.0688 79.4062C49.725 79.6198 49.5531 79.9167 49.5531 80.2969C49.5531 80.6771 49.725 80.9766 50.0688 81.1953C50.4177 81.4089 50.876 81.5156 51.4438 81.5156C51.9906 81.5156 52.4359 81.4062 52.7797 81.1875C53.1234 80.9688 53.2979 80.6719 53.3031 80.2969C53.2979 79.9219 53.1234 79.625 52.7797 79.4062C52.4359 79.1875 51.9906 79.0781 51.4438 79.0781ZM75.55 88.0312H73.8156V85.25H71.7219V83.8594H73.8156V82.2812H71.7219V80.875H73.8156V77.2812H75.55V88.0312ZM71.6437 80.2344H63.7531V78.8438H66.9094V77.2656H68.6437V78.8438H71.6437V80.2344ZM67.7531 80.8125C68.3885 80.8125 68.9562 80.9297 69.4562 81.1641C69.9562 81.3932 70.3469 81.7161 70.6281 82.1328C70.9146 82.5495 71.0604 83.026 71.0656 83.5625C71.0604 84.099 70.9146 84.5755 70.6281 84.9922C70.3469 85.4089 69.9562 85.7344 69.4562 85.9688C68.9562 86.1979 68.3885 86.3125 67.7531 86.3125C67.1229 86.3125 66.5578 86.1979 66.0578 85.9688C65.563 85.7344 65.175 85.4089 64.8937 84.9922C64.6177 84.5703 64.4823 84.0938 64.4875 83.5625C64.4823 83.0312 64.6177 82.5573 64.8937 82.1406C65.175 81.7188 65.563 81.3932 66.0578 81.1641C66.5578 80.9297 67.1229 80.8125 67.7531 80.8125ZM67.7531 82.1719C67.2583 82.1823 66.8599 82.3125 66.5578 82.5625C66.2557 82.8073 66.1073 83.1406 66.1125 83.5625C66.1073 84 66.2557 84.3438 66.5578 84.5938C66.8599 84.8438 67.2583 84.9688 67.7531 84.9688C68.2479 84.9688 68.649 84.8438 68.9562 84.5938C69.2687 84.3438 69.425 84 69.425 83.5625C69.425 83.1406 69.2687 82.8073 68.9562 82.5625C68.649 82.3125 68.2479 82.1823 67.7531 82.1719ZM75.8625 91.1094H66.2375V87.1094H68.0031V89.7031H75.8625V91.1094ZM88.3375 81.375H90.2438V82.7969H88.3375V86.8281H86.6031V77.2812H88.3375V81.375ZM83.6656 86.9531C84.6656 86.9531 85.5198 87.0391 86.2281 87.2109C86.9365 87.3828 87.4755 87.638 87.8453 87.9766C88.2203 88.3099 88.4104 88.7135 88.4156 89.1875C88.4104 89.901 87.9938 90.4453 87.1656 90.8203C86.3427 91.2005 85.176 91.3906 83.6656 91.3906C82.1344 91.3906 80.9573 91.2005 80.1344 90.8203C79.3115 90.4453 78.9 89.901 78.9 89.1875C78.9 88.7083 79.0849 88.3021 79.4547 87.9688C79.8245 87.6354 80.3661 87.3828 81.0797 87.2109C81.7932 87.0391 82.6552 86.9531 83.6656 86.9531ZM83.6656 88.2344C81.6448 88.2188 80.6344 88.5365 80.6344 89.1875C80.6344 89.4896 80.887 89.7188 81.3922 89.875C81.9026 90.0312 82.6604 90.1094 83.6656 90.1094C84.6552 90.1094 85.4 90.0312 85.9 89.875C86.4 89.7188 86.6552 89.4896 86.6656 89.1875C86.65 88.5365 85.65 88.2188 83.6656 88.2344ZM77.025 85.0156C78.551 85.0156 79.7385 85.0026 80.5875 84.9766V84.0469C79.7906 83.9583 79.163 83.7422 78.7047 83.3984C78.2516 83.0495 78.025 82.6094 78.025 82.0781C78.025 81.6667 78.163 81.3099 78.4391 81.0078C78.7203 80.7005 79.1161 80.4661 79.6266 80.3047C80.1422 80.1432 80.7438 80.0625 81.4313 80.0625C82.1188 80.0625 82.7177 80.1432 83.2281 80.3047C83.7438 80.4661 84.1396 80.7005 84.4156 81.0078C84.6969 81.3099 84.8375 81.6667 84.8375 82.0781C84.8375 82.6042 84.6135 83.0391 84.1656 83.3828C83.7229 83.7266 83.1083 83.9453 82.3219 84.0391V84.9141C83.6292 84.8464 84.8115 84.7396 85.8688 84.5938L86.0094 85.7969C84.6656 86.026 83.2724 86.1771 81.8297 86.25C80.3922 86.3229 78.8531 86.3594 77.2125 86.3594L77.025 85.0156ZM85.4938 79.6406H77.3844V78.3594H80.5875V77.1562H82.3219V78.3594H85.4938V79.6406ZM81.4313 81.2188C80.8844 81.2188 80.4547 81.2969 80.1422 81.4531C79.8349 81.6042 79.6865 81.8125 79.6969 82.0781C79.6917 82.3594 79.8401 82.5755 80.1422 82.7266C80.4495 82.8776 80.8792 82.9531 81.4313 82.9531C81.9833 82.9531 82.413 82.8776 82.7203 82.7266C83.0276 82.5755 83.1813 82.3594 83.1813 82.0781C83.1813 81.8125 83.025 81.6042 82.7125 81.4531C82.4052 81.2969 81.9781 81.2188 81.4313 81.2188Z" fill="#00D0FF"/>
<path d="M97 77.4844C98.0729 77.4844 98.987 77.5781 99.7422 77.7656C100.503 77.9531 101.083 78.2292 101.484 78.5938C101.885 78.9531 102.089 79.3906 102.094 79.9062C102.089 80.6875 101.643 81.2865 100.758 81.7031C99.8724 82.1198 98.6198 82.3333 97 82.3438C95.375 82.3333 94.1198 82.1198 93.2344 81.7031C92.349 81.2865 91.9062 80.6875 91.9062 79.9062C91.9062 79.3906 92.1068 78.9531 92.5078 78.5938C92.9089 78.2292 93.4896 77.9531 94.25 77.7656C95.0104 77.5781 95.9271 77.4844 97 77.4844ZM97 78.7656C95.9271 78.7656 95.112 78.8646 94.5547 79.0625C93.9974 79.2552 93.724 79.5365 93.7344 79.9062C93.7292 80.2917 94 80.5781 94.5469 80.7656C95.0938 80.9531 95.9115 81.0469 97 81.0469C98.1042 81.0469 98.9297 80.9531 99.4766 80.7656C100.023 80.5781 100.297 80.2917 100.297 79.9062C100.297 79.5365 100.018 79.2552 99.4609 79.0625C98.9036 78.8646 98.0833 78.7656 97 78.7656ZM103.453 84.4844H90.5781V83.0938H103.453V84.4844ZM101.844 88.8906H93.8125V89.9375H102.234V91.2656H92.1094V87.6562H100.141V86.7188H92.0938V85.4375H101.844V88.8906ZM118.591 81.3906H120.497V82.8281H118.591V86.8281H116.856V77.2812H118.591V81.3906ZM107.278 85.1406C108.591 85.1406 109.778 85.1276 110.841 85.1016V84.2344C110.049 84.1354 109.424 83.9062 108.966 83.5469C108.507 83.1823 108.278 82.724 108.278 82.1719C108.278 81.7448 108.419 81.3724 108.7 81.0547C108.981 80.737 109.38 80.4948 109.895 80.3281C110.411 80.1562 111.007 80.0729 111.684 80.0781C112.367 80.0729 112.963 80.1562 113.473 80.3281C113.989 80.4948 114.387 80.737 114.669 81.0547C114.95 81.3724 115.091 81.7448 115.091 82.1719C115.091 82.7188 114.867 83.1719 114.419 83.5312C113.971 83.8906 113.356 84.1224 112.575 84.2266V85.0312C113.882 84.974 115.065 84.875 116.122 84.7344L116.262 85.9375C114.924 86.1719 113.544 86.3255 112.122 86.3984C110.705 86.4661 109.153 86.5 107.466 86.5L107.278 85.1406ZM118.591 91.3906H116.856V88.7969H109.059V87.4375H118.591V91.3906ZM115.747 79.6719H107.637V78.3906H110.841V77.1562H112.575V78.3906H115.747V79.6719ZM111.684 81.25C111.132 81.2396 110.703 81.3151 110.395 81.4766C110.093 81.638 109.945 81.8698 109.95 82.1719C109.94 82.4635 110.091 82.6953 110.403 82.8672C110.716 83.0339 111.143 83.1146 111.684 83.1094C112.226 83.1146 112.653 83.0339 112.966 82.8672C113.278 82.6953 113.434 82.4635 113.434 82.1719C113.434 81.8698 113.281 81.638 112.973 81.4766C112.666 81.3151 112.236 81.2396 111.684 81.25ZM132.597 87.4844H130.847V77.2812H132.597V87.4844ZM132.988 91.1094H123.253V86.4531H125.003V89.7031H132.988V91.1094ZM124.894 78.2031C125.602 78.2031 126.245 78.3568 126.823 78.6641C127.402 78.9661 127.857 79.3854 128.191 79.9219C128.524 80.4583 128.691 81.0625 128.691 81.7344C128.691 82.4167 128.524 83.0286 128.191 83.5703C127.857 84.1068 127.402 84.526 126.823 84.8281C126.245 85.1302 125.602 85.2812 124.894 85.2812C124.18 85.2812 123.532 85.1302 122.948 84.8281C122.37 84.526 121.915 84.1068 121.581 83.5703C121.248 83.0286 121.081 82.4167 121.081 81.7344C121.081 81.0625 121.248 80.4583 121.581 79.9219C121.915 79.3854 122.37 78.9661 122.948 78.6641C123.532 78.3568 124.18 78.2031 124.894 78.2031ZM124.894 79.7188C124.493 79.7188 124.131 79.8021 123.808 79.9688C123.485 80.1354 123.232 80.3724 123.05 80.6797C122.868 80.987 122.779 81.3385 122.784 81.7344C122.779 82.1406 122.868 82.4974 123.05 82.8047C123.232 83.112 123.485 83.349 123.808 83.5156C124.131 83.6823 124.493 83.7656 124.894 83.7656C125.284 83.7656 125.639 83.6823 125.956 83.5156C126.274 83.349 126.524 83.112 126.706 82.8047C126.894 82.4974 126.988 82.1406 126.988 81.7344C126.988 81.3385 126.894 80.987 126.706 80.6797C126.524 80.3724 126.274 80.1354 125.956 79.9688C125.639 79.8021 125.284 79.7188 124.894 79.7188ZM145.322 82.8906H147.494V84.3281H145.322V91.3906H143.603V77.2656H145.322V82.8906ZM142.509 80.8281H134.181V79.4375H137.525V77.4688H139.259V79.4375H142.509V80.8281ZM138.4 81.75C139.072 81.75 139.676 81.8932 140.213 82.1797C140.754 82.4609 141.179 82.8542 141.486 83.3594C141.793 83.8646 141.947 84.4375 141.947 85.0781C141.947 85.7188 141.793 86.2917 141.486 86.7969C141.179 87.2969 140.754 87.6875 140.213 87.9688C139.676 88.25 139.072 88.3906 138.4 88.3906C137.718 88.3906 137.106 88.25 136.564 87.9688C136.022 87.6875 135.598 87.2969 135.291 86.7969C134.983 86.2917 134.832 85.7188 134.838 85.0781C134.832 84.4375 134.983 83.8646 135.291 83.3594C135.598 82.8542 136.022 82.4609 136.564 82.1797C137.106 81.8932 137.718 81.75 138.4 81.75ZM138.4 83.1719C138.03 83.1719 137.699 83.25 137.408 83.4062C137.121 83.5625 136.897 83.7865 136.736 84.0781C136.574 84.3646 136.494 84.6979 136.494 85.0781C136.494 85.4583 136.574 85.7917 136.736 86.0781C136.897 86.3594 137.121 86.5781 137.408 86.7344C137.699 86.8854 138.03 86.9583 138.4 86.9531C138.759 86.9583 139.08 86.8854 139.361 86.7344C139.647 86.5781 139.871 86.3594 140.033 86.0781C140.199 85.7917 140.285 85.4583 140.291 85.0781C140.285 84.6979 140.199 84.3646 140.033 84.0781C139.871 83.7917 139.647 83.5703 139.361 83.4141C139.08 83.2526 138.759 83.1719 138.4 83.1719ZM152.094 80.9688C152.094 81.7604 152.188 82.5286 152.375 83.2734C152.568 84.0182 152.867 84.7005 153.273 85.3203C153.68 85.9401 154.188 86.4427 154.797 86.8281L153.844 88.1562C153.229 87.7865 152.708 87.2917 152.281 86.6719C151.854 86.0469 151.518 85.3307 151.273 84.5234C151.008 85.4036 150.646 86.1849 150.188 86.8672C149.729 87.5495 149.177 88.0885 148.531 88.4844L147.453 87.1875C148.115 86.7865 148.667 86.2604 149.109 85.6094C149.552 84.9583 149.88 84.2422 150.094 83.4609C150.312 82.6797 150.422 81.875 150.422 81.0469V78.5156H152.094V80.9688ZM159.875 91.3906H158.203V77.2656H159.875V91.3906ZM156.938 90.7031H155.297V83.5625H153.281V82.125H155.297V77.5156H156.938V90.7031ZM174.022 89.6719H161.116V88.25H164.1V84.6797C163.527 84.3464 163.082 83.9323 162.764 83.4375C162.452 82.9427 162.298 82.3854 162.303 81.7656C162.298 81.0312 162.519 80.3802 162.967 79.8125C163.415 79.2448 164.037 78.8073 164.834 78.5C165.631 78.1875 166.532 78.0312 167.537 78.0312C168.548 78.0312 169.452 78.1875 170.248 78.5C171.051 78.8073 171.676 79.2448 172.123 79.8125C172.577 80.375 172.803 81.026 172.803 81.7656C172.803 82.3698 172.649 82.9193 172.342 83.4141C172.04 83.9036 171.61 84.3125 171.053 84.6406V88.25H174.022V89.6719ZM167.537 79.4062C166.834 79.4062 166.215 79.5026 165.678 79.6953C165.147 79.8828 164.733 80.1536 164.436 80.5078C164.144 80.862 164.001 81.2812 164.006 81.7656C164.001 82.2448 164.144 82.6615 164.436 83.0156C164.733 83.3698 165.149 83.6432 165.686 83.8359C166.222 84.0286 166.84 84.125 167.537 84.125C168.235 84.125 168.853 84.0286 169.389 83.8359C169.931 83.6432 170.35 83.3698 170.647 83.0156C170.949 82.6615 171.1 82.2448 171.1 81.7656C171.1 81.2865 170.949 80.8698 170.647 80.5156C170.35 80.1562 169.933 79.8828 169.397 79.6953C168.86 79.5026 168.241 79.4062 167.537 79.4062ZM169.287 88.25V85.3047C168.735 85.4245 168.152 85.4844 167.537 85.4844C166.949 85.4844 166.376 85.4271 165.819 85.3125V88.25H169.287ZM177.278 86.6719H175.512L175.325 78.6875H177.45L177.278 86.6719ZM176.403 90.125C176.184 90.125 175.981 90.0703 175.794 89.9609C175.606 89.8516 175.458 89.7031 175.348 89.5156C175.239 89.3281 175.184 89.125 175.184 88.9062C175.184 88.6927 175.239 88.4948 175.348 88.3125C175.458 88.125 175.606 87.9766 175.794 87.8672C175.981 87.7578 176.184 87.7031 176.403 87.7031C176.611 87.7031 176.807 87.7578 176.989 87.8672C177.177 87.9766 177.325 88.125 177.434 88.3125C177.549 88.4948 177.606 88.6927 177.606 88.9062C177.606 89.125 177.549 89.3281 177.434 89.5156C177.325 89.7031 177.177 89.8516 176.989 89.9609C176.807 90.0703 176.611 90.125 176.403 90.125Z" fill="white"/>
<path d="M44.6094 99.2656V102.75H46.5781V104.188H44.6094V107.516H42.875V99.2656H44.6094ZM37.2031 108.078V109.297H42.875V108.078H44.6094V113.219H35.4844V108.078H37.2031ZM37.2031 111.844H42.875V110.641H37.2031V111.844ZM41.8594 100.578V101.969H33.4844V100.578H36.8125V99.1562H38.5469V100.578H41.8594ZM37.6719 102.453C39.7188 102.453 41.1094 103.438 41.125 104.938C41.1094 106.438 39.7188 107.422 37.6719 107.422C35.6094 107.422 34.2031 106.438 34.2031 104.938C34.2031 103.438 35.6094 102.453 37.6719 102.453ZM37.6719 103.734C36.5938 103.734 35.8906 104.188 35.8906 104.938C35.8906 105.703 36.5938 106.141 37.6719 106.141C38.75 106.141 39.4688 105.703 39.4688 104.938C39.4688 104.188 38.75 103.734 37.6719 103.734ZM54.4125 100.172C54.4125 100.688 54.3656 101.172 54.2875 101.641H56.9906V99.2812H58.725V107.672H56.9906V106.031H53.6V104.625H56.9906V103.031H53.85C52.8969 105.227 50.7797 106.781 47.7406 107.594L47.0844 106.203C50.3422 105.344 52.2563 103.664 52.5531 101.594H47.85V100.172H54.4125ZM58.725 108.266V113.344H56.9906V109.641H49.1V108.266H58.725ZM76.6281 110.234V111.641H63.7219V110.234H69.2531V106.969H70.9719V110.234H76.6281ZM71.0187 101.156C71.0187 103.297 73.1594 105.406 76.1281 105.875L75.3781 107.312C72.9875 106.859 71.0344 105.492 70.0969 103.641C69.1594 105.484 67.2219 106.875 64.8469 107.312L64.0969 105.875C67.05 105.406 69.1594 103.281 69.175 101.156V100.125H71.0187V101.156ZM82.4156 101.281C82.4156 103.141 83.5719 104.891 85.8219 105.594L84.9625 106.969C83.3297 106.422 82.1656 105.352 81.5406 103.969C80.8922 105.453 79.7125 106.633 78.0406 107.203L77.1656 105.844C79.4469 105.062 80.6188 103.203 80.6188 101.281V99.9375H82.4156V101.281ZM88.9156 108.359V113.391H87.1656V109.75H79.275V108.359H88.9156ZM88.9156 99.2656V107.719H87.1656V99.2656H88.9156ZM103.453 106.562V107.953H90.5781V106.562H103.453ZM102 111.703V113.109H92.1719V109H93.9062V111.703H102ZM97 99.7188C100.078 99.7188 102.078 100.797 102.094 102.578C102.078 104.375 100.078 105.469 97 105.469C93.9219 105.469 91.9062 104.375 91.9062 102.578C91.9062 100.797 93.9219 99.7188 97 99.7188ZM97 101.109C94.9531 101.109 93.7031 101.641 93.7188 102.578C93.7031 103.531 94.9531 104.062 97 104.047C99.0625 104.062 100.297 103.531 100.297 102.578C100.297 101.641 99.0625 101.109 97 101.109ZM111.262 100.297C112.544 100.297 113.598 101.008 114.231 102.25H117.528V99.2656H119.247V113.406H117.528V108.062H114.356C113.747 109.469 112.63 110.281 111.262 110.281C109.137 110.281 107.637 108.359 107.637 105.281C107.637 102.234 109.137 100.297 111.262 100.297ZM111.262 101.859C110.091 101.859 109.294 103.125 109.309 105.281C109.294 107.453 110.091 108.719 111.262 108.719C112.434 108.719 113.216 107.453 113.231 105.281C113.216 103.125 112.434 101.859 111.262 101.859ZM114.716 103.672C114.817 104.164 114.872 104.703 114.872 105.281C114.872 105.773 114.833 106.227 114.762 106.656H117.528V103.672H114.716ZM132.628 99.2656V113.391H130.878V99.2656H132.628ZM128.409 100.766C128.409 104.969 126.784 108.547 121.831 110.891L120.925 109.5C124.62 107.742 126.339 105.352 126.644 102.141H121.644V100.766H128.409ZM139.478 102.656C139.478 105.281 140.728 107.859 142.978 108.844L141.931 110.234C140.33 109.453 139.205 107.953 138.603 106.109C137.986 108.055 136.838 109.672 135.213 110.5L134.119 109.094C136.416 108.016 137.697 105.297 137.713 102.656V100.406H139.478V102.656ZM146.103 99.2656V113.406H144.384V105.234H141.416V103.828H144.384V99.2656H146.103ZM162.272 99.2812V103.391H164.178V104.828H162.272V108.828H160.537V99.2812H162.272ZM150.959 107.141C152.022 107.141 153.248 107.133 154.522 107.094V106.234C152.952 106.039 151.959 105.281 151.959 104.172C151.959 102.875 153.319 102.062 155.366 102.078C157.428 102.062 158.772 102.875 158.772 104.172C158.772 105.273 157.803 106.023 156.256 106.219V107.031C157.459 106.977 158.67 106.883 159.803 106.734L159.944 107.938C156.928 108.469 153.631 108.5 151.147 108.5L150.959 107.141ZM162.272 109.438V113.391H160.537V110.797H152.741V109.438H162.272ZM159.428 100.391V101.672H151.319V100.391H154.522V99.1562H156.256V100.391H159.428ZM155.366 103.25C154.272 103.234 153.616 103.562 153.631 104.172C153.616 104.75 154.272 105.125 155.366 105.109C156.459 105.125 157.116 104.75 157.116 104.172C157.116 103.562 156.459 103.234 155.366 103.25ZM176.278 99.2812V109.484H174.528V99.2812H176.278ZM176.669 111.703V113.109H166.934V108.453H168.684V111.703H176.669ZM168.575 100.203C170.716 100.203 172.372 101.688 172.372 103.734C172.372 105.828 170.716 107.281 168.575 107.281C166.419 107.281 164.762 105.828 164.762 103.734C164.762 101.688 166.419 100.203 168.575 100.203ZM168.575 101.719C167.372 101.719 166.45 102.516 166.466 103.734C166.45 104.984 167.372 105.766 168.575 105.766C169.747 105.766 170.669 104.984 170.669 103.734C170.669 102.516 169.747 101.719 168.575 101.719ZM189.081 99.2344V102.422H191.066V103.828H189.081V106.938H187.347V99.2344H189.081ZM189.081 107.562V110.969H181.581V111.969H189.519V113.266H179.863V109.766H187.347V108.828H179.847V107.562H189.081ZM186.331 100.406V101.734H177.956V100.406H181.284V99.1562H183.019V100.406H186.331ZM182.144 102.172C184.238 102.188 185.581 103.078 185.597 104.484C185.581 105.938 184.238 106.797 182.144 106.797C180.05 106.797 178.675 105.938 178.675 104.484C178.675 103.078 180.05 102.188 182.144 102.172ZM182.144 103.422C181.05 103.422 180.363 103.812 180.363 104.484C180.363 105.172 181.05 105.547 182.144 105.547C183.238 105.547 183.941 105.172 183.941 104.484C183.941 103.812 183.238 103.422 182.144 103.422ZM202.125 100.438C202.125 102.219 204.109 104.016 207.125 104.406L206.438 105.812C204.039 105.453 202.133 104.273 201.219 102.672C200.289 104.273 198.391 105.453 196.016 105.812L195.328 104.406C198.312 104.016 200.297 102.219 200.297 100.438V99.7188H202.125V100.438ZM207.641 107.031V108.469H202.031V113.391H200.312V108.469H194.766V107.031H207.641ZM216.606 108.453C216.606 109.625 217.145 110.859 218.356 111.625C219.583 110.805 220.153 109.523 220.169 108.453V107.875H221.872V108.453C221.856 109.938 222.731 111.312 224.591 111.906L223.747 113.172C222.372 112.711 221.458 111.812 220.966 110.688C220.512 111.797 219.677 112.789 218.403 113.297C217.059 112.812 216.216 111.859 215.778 110.734C215.27 111.82 214.372 112.703 213.059 113.172L212.2 111.906C214.028 111.266 214.903 109.828 214.919 108.453V107.875H216.606V108.453ZM223.356 99.2812V107.281H221.606V99.2812H223.356ZM215.653 100.031C217.825 100.031 219.45 101.406 219.45 103.391C219.45 105.359 217.825 106.734 215.653 106.734C213.466 106.734 211.841 105.359 211.841 103.391C211.841 101.406 213.466 100.031 215.653 100.031ZM215.653 101.5C214.419 101.5 213.528 102.234 213.544 103.391C213.528 104.547 214.419 105.297 215.653 105.297C216.872 105.297 217.747 104.547 217.747 103.391C217.747 102.234 216.872 101.5 215.653 101.5ZM228.878 100.297C230.792 100.297 232.206 101.891 232.456 104.469H235.144V99.2656H236.863V113.406H235.144V105.875H232.472C232.284 108.602 230.847 110.281 228.878 110.281C226.753 110.281 225.253 108.359 225.253 105.281C225.253 102.234 226.753 100.297 228.878 100.297ZM228.878 101.859C227.706 101.859 226.909 103.125 226.925 105.281C226.909 107.453 227.706 108.719 228.878 108.719C230.05 108.719 230.831 107.453 230.847 105.281C230.831 103.125 230.05 101.859 228.878 101.859ZM251.353 110.25V111.672H238.447V110.25H241.431V106.672C240.306 106.031 239.627 105.023 239.634 103.766C239.619 101.516 241.837 100.031 244.869 100.031C247.916 100.031 250.134 101.516 250.134 103.766C250.134 105 249.478 105.992 248.384 106.641V110.25H251.353ZM244.869 101.406C242.759 101.406 241.322 102.297 241.337 103.766C241.322 105.219 242.759 106.125 244.869 106.125C246.978 106.125 248.431 105.219 248.431 103.766C248.431 102.297 246.978 101.406 244.869 101.406ZM243.15 110.25H246.619V107.297C246.08 107.422 245.494 107.484 244.869 107.484C244.259 107.484 243.681 107.422 243.15 107.312V110.25ZM253.594 112.125C252.922 112.125 252.375 111.578 252.375 110.906C252.375 110.25 252.922 109.703 253.594 109.703C254.234 109.703 254.797 110.25 254.797 110.906C254.797 111.578 254.234 112.125 253.594 112.125Z" fill="white"/>
<path d="M9.17882 58.9711C9.20405 58.6961 9.00158 58.4527 8.7266 58.4275C8.45161 58.4022 8.20823 58.6047 8.183 58.8797L8.68091 58.9254L9.17882 58.9711ZM26.6901 84.8202L21.8349 81.696L21.5569 87.4628L26.6901 84.8202ZM8.11699 59.8695C8.10528 60.1454 8.31944 60.3786 8.59533 60.3903C8.87123 60.402 9.10438 60.1878 9.11609 59.9119L8.61654 59.8907L8.11699 59.8695ZM9.11979 61.8027C9.10763 61.5268 8.87413 61.313 8.59825 61.3252C8.32238 61.3374 8.1086 61.5708 8.12076 61.8467L8.62027 61.8247L9.11979 61.8027ZM8.28337 63.8121C8.31633 64.0862 8.5653 64.2818 8.83947 64.2488C9.11364 64.2159 9.30918 63.9669 9.27623 63.6927L8.7798 63.7524L8.28337 63.8121ZM9.56853 65.571C9.51686 65.2997 9.25507 65.1217 8.98381 65.1734C8.71254 65.225 8.53452 65.4868 8.58619 65.7581L9.07736 65.6645L9.56853 65.571ZM9.01702 67.6785C9.08605 67.9459 9.35876 68.1067 9.62613 68.0377C9.89351 67.9687 10.0543 67.696 9.98528 67.4286L9.50115 67.5536L9.01702 67.6785ZM10.5188 69.257C10.4333 68.9944 10.1511 68.8509 9.8885 68.9365C9.62595 69.022 9.48247 69.3043 9.56803 69.5668L10.0434 69.4119L10.5188 69.257ZM10.2348 71.4163C10.3365 71.6731 10.6271 71.7988 10.8838 71.6971C11.1406 71.5954 11.2662 71.3048 11.1646 71.0481L10.6997 71.2322L10.2348 71.4163ZM11.9211 72.7951C11.8034 72.5454 11.5054 72.4384 11.2556 72.5561C11.0059 72.6739 10.8989 72.9718 11.0166 73.2216L11.4689 73.0084L11.9211 72.7951ZM11.9141 74.9733C12.0482 75.2147 12.3526 75.3017 12.594 75.1676C12.8354 75.0335 12.9224 74.7291 12.7883 74.4877L12.3512 74.7305L11.9141 74.9733ZM13.7686 76.1155C13.6177 75.8842 13.3079 75.8191 13.0766 75.9699C12.8453 76.1208 12.7801 76.4306 12.931 76.6619L13.3498 76.3887L13.7686 76.1155ZM14.0717 78.2731C14.24 78.492 14.5539 78.5331 14.7728 78.3648C14.9918 78.1965 15.0328 77.8826 14.8645 77.6637L14.4681 77.9684L14.0717 78.2731ZM16.0794 79.1139C15.8931 78.9102 15.5768 78.8961 15.373 79.0825C15.1693 79.2689 15.1552 79.5851 15.3416 79.7889L15.7105 79.4514L16.0794 79.1139ZM16.7465 81.1868C16.9515 81.3718 17.2676 81.3556 17.4526 81.1506C17.6376 80.9456 17.6214 80.6294 17.4164 80.4444L17.0814 80.8156L16.7465 81.1868ZM18.8778 81.6293C18.6541 81.4675 18.3415 81.5176 18.1796 81.7414C18.0178 81.9651 18.068 82.2777 18.2917 82.4395L18.5847 82.0344L18.8778 81.6293ZM19.9744 83.5107C20.216 83.6444 20.5203 83.557 20.654 83.3153C20.7877 83.0737 20.7002 82.7695 20.4586 82.6358L20.2165 83.0733L19.9744 83.5107ZM22.1479 83.4307C21.8907 83.3303 21.6007 83.4574 21.5003 83.7146C21.3999 83.9718 21.527 84.2618 21.7842 84.3622L21.9661 83.8965L22.1479 83.4307ZM23.698 84.9577C23.9669 85.0207 24.2359 84.8537 24.2988 84.5849C24.3618 84.316 24.1948 84.047 23.926 83.984L23.812 84.4709L23.698 84.9577ZM25.7644 84.2753C25.4892 84.252 25.2473 84.4563 25.2241 84.7314C25.2009 85.0066 25.4051 85.2485 25.6802 85.2717L25.7223 84.7735L25.7644 84.2753ZM8.68091 58.9254L8.183 58.8797C8.15314 59.2052 8.13118 59.5354 8.11699 59.8695L8.61654 59.8907L9.11609 59.9119C9.12961 59.5935 9.1505 59.2797 9.17882 58.9711L8.68091 58.9254ZM8.62027 61.8247L8.12076 61.8467C8.14924 62.4928 8.2037 63.1492 8.28337 63.8121L8.7798 63.7524L9.27623 63.6927C9.19944 63.0539 9.14712 62.4226 9.11979 61.8027L8.62027 61.8247ZM9.07736 65.6645L8.58619 65.7581C8.70782 66.3966 8.85162 67.0379 9.01702 67.6785L9.50115 67.5536L9.98528 67.4286C9.82517 66.8084 9.68608 66.1881 9.56853 65.571L9.07736 65.6645ZM10.0434 69.4119L9.56803 69.5668C9.77038 70.1878 9.99282 70.8053 10.2348 71.4163L10.6997 71.2322L11.1646 71.0481C10.9302 70.4564 10.7148 69.8584 10.5188 69.257L10.0434 69.4119ZM11.4689 73.0084L11.0166 73.2216C11.2968 73.8159 11.5962 74.4008 11.9141 74.9733L12.3512 74.7305L12.7883 74.4877C12.4814 73.9351 12.1921 73.3699 11.9211 72.7951L11.4689 73.0084ZM13.3498 76.3887L12.931 76.6619C13.2924 77.216 13.6728 77.7541 14.0717 78.2731L14.4681 77.9684L14.8645 77.6637C14.482 77.166 14.1165 76.6489 13.7686 76.1155L13.3498 76.3887ZM15.7105 79.4514L15.3416 79.7889C15.7907 80.2799 16.2592 80.7471 16.7465 81.1868L17.0814 80.8156L17.4164 80.4444C16.954 80.0272 16.5081 79.5826 16.0794 79.1139L15.7105 79.4514ZM18.5847 82.0344L18.2917 82.4395C18.8332 82.8313 19.3943 83.1897 19.9744 83.5107L20.2165 83.0733L20.4586 82.6358C19.9154 82.3352 19.3883 81.9986 18.8778 81.6293L18.5847 82.0344ZM21.9661 83.8965L21.7842 84.3622C22.4042 84.6043 23.0424 84.8042 23.698 84.9577L23.812 84.4709L23.926 83.984C23.3179 83.8417 22.725 83.656 22.1479 83.4307L21.9661 83.8965Z" fill="#00D0FF"/>
<defs>
<filter id="filter0_d_1632_6704" x="2" y="3" width="108" height="50" filterUnits="userSpaceOnUse" color-interpolation-filters="sRGB">
<feFlood flood-opacity="0" result="BackgroundImageFix"/>
<feColorMatrix in="SourceAlpha" type="matrix" values="0 0 0 0 0 0 0 0 0 0 0 0 0 0 0 0 0 0 127 0" result="hardAlpha"/>
<feOffset dy="2"/>
<feGaussianBlur stdDeviation="2"/>
<feComposite in2="hardAlpha" operator="out"/>
<feColorMatrix type="matrix" values="0 0 0 0 0 0 0 0 0 0 0 0 0 0 0 0 0 0 0.06 0"/>
<feBlend mode="normal" in2="BackgroundImageFix" result="effect1_dropShadow_1632_6704"/>
<feBlend mode="normal" in="SourceGraphic" in2="effect1_dropShadow_1632_6704" result="shape"/>
</filter>
</defs>
</svg>
