<svg width="18" height="18" viewBox="0 0 18 18" fill="none" xmlns="http://www.w3.org/2000/svg">
<path d="M16.1824 4.95954L13.0402 1.81798C12.7765 1.55435 12.4188 1.40625 12.0459 1.40625C11.6731 1.40625 11.3154 1.55435 11.0517 1.81798L2.38079 10.4882C2.24976 10.6184 2.14587 10.7734 2.07514 10.944C2.00442 11.1147 1.96825 11.2977 1.96876 11.4824V14.6247C1.96876 14.9977 2.11691 15.3553 2.38064 15.6191C2.64436 15.8828 3.00204 16.0309 3.37501 16.0309H15.1875C15.4113 16.0309 15.6259 15.9421 15.7841 15.7838C15.9424 15.6256 16.0313 15.411 16.0313 15.1872C16.0313 14.9634 15.9424 14.7488 15.7841 14.5906C15.6259 14.4323 15.4113 14.3434 15.1875 14.3434H8.78907L16.1824 6.94868C16.3131 6.81809 16.4167 6.66304 16.4874 6.49239C16.5581 6.32174 16.5945 6.13883 16.5945 5.95411C16.5945 5.76939 16.5581 5.58648 16.4874 5.41583C16.4167 5.24518 16.3131 5.09013 16.1824 4.95954ZM6.39844 14.3434H3.65626V11.6013L9.56251 5.69501L12.3047 8.4372L6.39844 14.3434ZM13.5 7.24189L10.7578 4.4997L12.0473 3.21017L14.7895 5.95236L13.5 7.24189Z" fill="white"/>
</svg>
