<svg width="340" height="294" viewBox="0 0 340 294" fill="none" xmlns="http://www.w3.org/2000/svg">
<rect width="280" height="198.333" transform="translate(26)" fill="white"/>
<path d="M50.0297 17.9308V23.9388H49.0727V21.2804H47.9668V23.6092H47.0204V18.1115H47.9668V20.451H49.0727V17.9308H50.0297ZM46.6695 19.0154V19.8129H41.8524V19.0154H43.7771V18.0052H44.7767V19.0154H46.6695ZM44.2663 20.2595C45.4785 20.2595 46.3292 20.9082 46.3292 21.8971C46.3292 22.8861 45.4785 23.5347 44.2663 23.5347C43.0753 23.5347 42.2246 22.8861 42.2246 21.8971C42.2246 20.9082 43.0753 20.2595 44.2663 20.2595ZM44.2663 21.0039C43.5964 21.0039 43.1285 21.3548 43.1285 21.8971C43.1285 22.4395 43.5964 22.801 44.2663 22.801C44.9575 22.801 45.4147 22.4395 45.4147 21.8971C45.4147 21.3548 44.9575 21.0039 44.2663 21.0039ZM46.8396 24.077C48.86 24.077 50.0723 24.6832 50.0829 25.7678C50.0723 26.8312 48.86 27.4479 46.8396 27.4373C44.8192 27.4479 43.607 26.8312 43.6176 25.7678C43.607 24.6832 44.8192 24.077 46.8396 24.077ZM46.8396 24.8533C45.4253 24.8533 44.6066 25.1723 44.6172 25.7678C44.6066 26.342 45.4253 26.6717 46.8396 26.661C48.2645 26.6717 49.0621 26.342 49.0727 25.7678C49.0621 25.1723 48.2645 24.8533 46.8396 24.8533ZM59.7319 22.7904V23.6092H51.0442V22.7904H54.8829V21.7589H52.182V18.1541H53.1816V19.1855H57.5945V18.1541H58.6047V21.7589H55.8825V22.7904H59.7319ZM58.6685 24.4599V27.4586H57.6477V25.268H52.0119V24.4599H58.6685ZM53.1816 20.9507H57.5945V19.9405H53.1816V20.9507ZM63.4898 20.3553C63.4792 22.046 64.4575 23.7687 65.8824 24.4599L65.255 25.268C64.2183 24.731 63.4154 23.6623 63.0007 22.3863C62.57 23.7474 61.7353 24.8852 60.6507 25.4488L60.0233 24.63C61.4907 23.9282 62.4796 22.0992 62.4796 20.3553V18.7283H63.4898V20.3553ZM67.6051 17.9308V21.727H69.1363V22.5883H67.6051V27.4586H66.5949V17.9308H67.6051ZM76.8075 17.9414V20.2702H78.2005V21.1102H76.8075V23.673H75.7973V17.9414H76.8075ZM74.0427 18.5156V21.1847H70.725V22.3437C72.3785 22.3384 73.5482 22.2799 74.9359 22.046L75.0423 22.8648C73.5642 23.1306 72.3094 23.1838 70.4804 23.1732H69.7148V20.4084H73.0538V19.3344H69.7042V18.5156H74.0427ZM73.7237 23.9282C75.6803 23.9282 76.8925 24.5875 76.8925 25.6934C76.8925 26.7993 75.6803 27.4373 73.7237 27.4373C71.7352 27.4373 70.523 26.7993 70.523 25.6934C70.523 24.5875 71.7352 23.9282 73.7237 23.9282ZM73.7237 24.7257C72.3307 24.7257 71.5119 25.0766 71.5119 25.6934C71.5119 26.3101 72.3307 26.6717 73.7237 26.661C75.1061 26.6717 75.9036 26.3101 75.9036 25.6934C75.9036 25.0766 75.1061 24.7257 73.7237 24.7257ZM87.1796 25.4275V26.2676H78.4599V25.4275H80.5441V22.9392C79.7626 22.5086 79.2894 21.8227 79.2894 20.972C79.2894 19.4727 80.7568 18.4837 82.7985 18.4837C84.8508 18.4837 86.3182 19.4727 86.3182 20.972C86.3182 21.8121 85.861 22.4873 85.0954 22.918V25.4275H87.1796ZM82.7985 19.2919C81.2991 19.2919 80.2677 19.9405 80.2677 20.972C80.2677 21.9928 81.2991 22.6628 82.7985 22.6628C84.2872 22.6628 85.3399 21.9928 85.3399 20.972C85.3399 19.9405 84.2872 19.2919 82.7985 19.2919ZM81.5437 25.4275H84.0745V23.3008C83.6864 23.4018 83.2557 23.4497 82.7985 23.4497C82.3519 23.4497 81.9265 23.4018 81.5437 23.3114V25.4275ZM96.4351 19.2812V20.1107H95.0846V21.3229H96.4351V22.163H95.0846V23.556H94.0744V17.9308H95.0846V19.2812H96.4351ZM90.2782 18.4837C91.735 18.4837 92.809 19.4089 92.8197 20.7487C92.809 22.0779 91.735 23.003 90.2782 23.0137C88.8214 23.003 87.7368 22.0779 87.7474 20.7487C87.7368 19.4089 88.8214 18.4837 90.2782 18.4837ZM90.2782 19.3344C89.385 19.3344 88.7257 19.9086 88.7363 20.7487C88.7257 21.5994 89.385 22.1523 90.2782 22.163C91.1714 22.1523 91.8307 21.5994 91.8307 20.7487C91.8307 19.9086 91.1714 19.3344 90.2782 19.3344ZM92.0115 23.8112C93.9575 23.8112 95.1697 24.4811 95.1697 25.6296C95.1697 26.7674 93.9575 27.4479 92.0115 27.4373C90.0443 27.4479 88.8108 26.7674 88.8108 25.6296C88.8108 24.4811 90.0443 23.8112 92.0115 23.8112ZM92.0115 24.63C90.6291 24.63 89.8103 24.9915 89.821 25.6296C89.8103 26.2782 90.6291 26.6291 92.0115 26.6291C93.3833 26.6291 94.1808 26.2782 94.1808 25.6296C94.1808 24.9915 93.3833 24.63 92.0115 24.63ZM104.861 17.9308V25.0766H103.904V17.9308H104.861ZM102.968 18.1009V24.8001H102.001V21.0996H100.608V20.2702H102.001V18.1009H102.968ZM105.138 26.4377V27.2565H98.5448V24.2046H99.5444V26.4377H105.138ZM99.6188 19.9512C99.6188 21.0677 100.246 22.1949 101.458 22.7266L100.895 23.5028C100.055 23.12 99.4647 22.4341 99.151 21.61C98.8 22.5298 98.1673 23.322 97.2794 23.7474L96.7158 22.9711C97.9706 22.3757 98.6405 21.0783 98.6405 19.9512V18.5901H99.6188V19.9512ZM113.819 17.9308V27.4798H112.819V22.2799H110.927V21.4505H112.819V17.9308H113.819ZM110.767 18.7815V19.6003H107.333V21.4505H110.363V22.2587H107.333V24.3854C108.928 24.3801 110.033 24.3429 111.299 24.1196L111.405 24.9384C110.023 25.1617 108.821 25.2148 107.056 25.2255H106.312V18.7815H110.767Z" fill="#404040"/>
<path d="M120.903 26.5547V25.704L123.572 23.0137C124.412 22.1311 124.838 21.6419 124.838 20.972C124.838 20.217 124.221 19.7279 123.413 19.7279C122.562 19.7279 122.009 20.2702 122.009 21.089H120.903C120.893 19.6853 121.967 18.7496 123.434 18.7496C124.923 18.7496 125.944 19.6853 125.954 20.9401C125.944 21.8014 125.539 22.482 124.093 23.9069L122.53 25.4913V25.5551H126.082V26.5547H120.903ZM129.787 26.661C128 26.661 126.958 25.2255 126.958 22.7053C126.958 20.2064 128.021 18.7496 129.787 18.7496C131.552 18.7496 132.615 20.2064 132.615 22.7053C132.615 25.2255 131.562 26.661 129.787 26.661ZM129.787 25.6508C130.829 25.6508 131.445 24.63 131.445 22.7053C131.445 20.7912 130.818 19.7385 129.787 19.7385C128.755 19.7385 128.128 20.7912 128.128 22.7053C128.128 24.63 128.744 25.6508 129.787 25.6508ZM133.555 26.5547V25.704L136.224 23.0137C137.064 22.1311 137.49 21.6419 137.49 20.972C137.49 20.217 136.873 19.7279 136.065 19.7279C135.214 19.7279 134.661 20.2702 134.661 21.089H133.555C133.545 19.6853 134.619 18.7496 136.086 18.7496C137.575 18.7496 138.596 19.6853 138.606 20.9401C138.596 21.8014 138.191 22.482 136.745 23.9069L135.182 25.4913V25.5551H138.734V26.5547H133.555ZM142.375 26.661C140.918 26.661 139.823 25.7678 139.769 24.5449H140.907C140.971 25.2042 141.598 25.6827 142.375 25.6827C143.311 25.6827 143.98 25.0022 143.98 24.0877C143.98 23.1519 143.289 22.4714 142.322 22.4607C141.705 22.4607 141.237 22.6628 140.971 23.1413H139.865L140.365 18.8559H144.725V19.8555H141.333L141.077 22.0141H141.152C141.471 21.7057 142.013 21.4931 142.598 21.4931C144.044 21.4931 145.118 22.5671 145.118 24.0558C145.118 25.5764 143.98 26.661 142.375 26.661ZM146.569 26.6291C146.154 26.6291 145.803 26.2888 145.814 25.8741C145.803 25.4594 146.154 25.1191 146.569 25.1191C146.973 25.1191 147.324 25.4594 147.324 25.8741C147.324 26.2888 146.973 26.6291 146.569 26.6291ZM150.805 26.661C149.019 26.661 147.977 25.2255 147.977 22.7053C147.977 20.2064 149.04 18.7496 150.805 18.7496C152.57 18.7496 153.634 20.2064 153.634 22.7053C153.634 25.2255 152.581 26.661 150.805 26.661ZM150.805 25.6508C151.847 25.6508 152.464 24.63 152.464 22.7053C152.464 20.7912 151.837 19.7385 150.805 19.7385C149.774 19.7385 149.146 20.7912 149.146 22.7053C149.146 24.63 149.763 25.6508 150.805 25.6508ZM157.36 26.661C155.935 26.6504 154.446 25.8103 154.446 22.9605C154.446 20.2808 155.605 18.7496 157.455 18.7496C158.87 18.7496 159.859 19.6322 160.039 20.855H158.88C158.731 20.2276 158.232 19.7704 157.455 19.7704C156.264 19.7704 155.573 20.8125 155.573 22.5458H155.658C156.073 21.8971 156.796 21.5037 157.636 21.5037C159.008 21.5037 160.114 22.5564 160.114 24.0345C160.114 25.5232 159.019 26.6717 157.36 26.661ZM157.349 25.6827C158.285 25.6827 158.976 24.9596 158.976 24.0558C158.976 23.1732 158.306 22.4607 157.381 22.4607C156.435 22.4607 155.722 23.2051 155.712 24.0664C155.722 24.9171 156.403 25.6827 157.349 25.6827ZM161.49 26.6291C161.075 26.6291 160.724 26.2888 160.735 25.8741C160.724 25.4594 161.075 25.1191 161.49 25.1191C161.894 25.1191 162.245 25.4594 162.245 25.8741C162.245 26.2888 161.894 26.6291 161.49 26.6291ZM165.726 26.661C163.94 26.661 162.898 25.2255 162.898 22.7053C162.898 20.2064 163.961 18.7496 165.726 18.7496C167.492 18.7496 168.555 20.2064 168.555 22.7053C168.555 25.2255 167.502 26.661 165.726 26.661ZM165.726 25.6508C166.768 25.6508 167.385 24.63 167.385 22.7053C167.385 20.7912 166.758 19.7385 165.726 19.7385C164.695 19.7385 164.067 20.7912 164.067 22.7053C164.067 24.63 164.684 25.6508 165.726 25.6508ZM172.281 26.661C170.856 26.6504 169.367 25.8103 169.367 22.9605C169.367 20.2808 170.526 18.7496 172.377 18.7496C173.791 18.7496 174.78 19.6322 174.961 20.855H173.802C173.653 20.2276 173.153 19.7704 172.377 19.7704C171.186 19.7704 170.494 20.8125 170.494 22.5458H170.58C170.994 21.8971 171.717 21.5037 172.557 21.5037C173.929 21.5037 175.035 22.5564 175.035 24.0345C175.035 25.5232 173.94 26.6717 172.281 26.661ZM172.27 25.6827C173.206 25.6827 173.897 24.9596 173.897 24.0558C173.897 23.1732 173.227 22.4607 172.302 22.4607C171.356 22.4607 170.643 23.2051 170.633 24.0664C170.643 24.9171 171.324 25.6827 172.27 25.6827Z" fill="#0370FF"/>
<path d="M43.1194 56.8763V42.3082H47.3121V43.9944H45.2765V55.1901H47.3121V56.8763H43.1194ZM55.5213 42.8095V44.3286H52.7261C52.7413 45.7489 53.7439 47.1465 55.9618 47.7313L55.0807 49.2504C53.5161 48.8403 52.4223 47.9592 51.7995 46.8503C51.1918 48.1187 50.0829 49.1213 48.4575 49.5998L47.5308 48.0807C49.7639 47.4655 50.7817 45.9008 50.7969 44.3286H48.0169V42.8095H50.7969V41.2904H52.7565V42.8095H55.5213ZM58.605 41.3511V44.6324H60.4735V46.197H58.605V49.691H56.6606V41.3511H58.605ZM54.0781 49.9492C56.9644 49.9492 58.7418 50.9062 58.7418 52.5773C58.7418 54.2179 56.9644 55.1597 54.0781 55.1597C51.1311 55.1597 49.3385 54.2179 49.3385 52.5773C49.3385 50.9062 51.1311 49.9492 54.0781 49.9492ZM54.0781 51.4379C52.24 51.4379 51.2678 51.7873 51.283 52.5773C51.2678 53.3216 52.24 53.7014 54.0781 53.7014C55.8707 53.7014 56.8277 53.3216 56.8277 52.5773C56.8277 51.7873 55.8707 51.4379 54.0781 51.4379ZM73.3312 47.8832V49.4023H60.6923V47.8832H66.0699V46.6984H62.2266V41.9588H71.8121V43.4627H64.1558V45.1793H71.888V46.6984H67.9688V47.8832H73.3312ZM66.9813 50.1011C69.974 50.1011 71.7817 51.0126 71.7969 52.6532C71.7817 54.2635 69.974 55.1901 66.9813 55.1901C63.9583 55.1901 62.1354 54.2635 62.1354 52.6532C62.1354 51.0126 63.9583 50.1011 66.9813 50.1011ZM66.9813 51.5747C65.0673 51.5747 64.0951 51.9392 64.1102 52.6532C64.0951 53.3824 65.0673 53.7166 66.9813 53.7166C68.8498 53.7166 69.8372 53.3824 69.8524 52.6532C69.8372 51.9392 68.8498 51.5747 66.9813 51.5747ZM78.9731 42.2626L75.4184 55.4332H73.4891L77.0286 42.2626H78.9731ZM83.658 53.9293C81.2426 53.9293 79.5109 52.5924 79.4653 50.6784H81.7743C81.8199 51.4987 82.6098 52.0456 83.6732 52.0456C84.7669 52.0456 85.5569 51.4227 85.5417 50.5417C85.5569 49.6454 84.7517 49.0074 83.4605 49.0074H82.4427V47.3212H83.4605C84.5391 47.3212 85.2986 46.7287 85.2986 45.8628C85.2986 45.0273 84.6606 44.4501 83.6884 44.4501C82.7161 44.4501 81.911 44.997 81.8806 45.8325H79.6931C79.7235 43.9336 81.4401 42.6272 83.6884 42.6272C85.9822 42.6272 87.5165 43.9792 87.5013 45.7261C87.5165 46.9566 86.6506 47.8377 85.4201 48.0503V48.1415C87.0304 48.339 87.9267 49.3264 87.9115 50.6936C87.9267 52.5773 86.1341 53.9293 83.658 53.9293ZM101.316 47.6706V49.2504H88.6771V47.6706H101.316ZM99.8728 45.1641V46.6984H90.2114V41.7157H99.7969V43.2804H92.1406V45.1641H99.8728ZM94.9661 50.0859C97.9588 50.0859 99.7665 50.9974 99.7817 52.6228C99.7665 54.2635 97.9588 55.1749 94.9661 55.1749C91.9431 55.1749 90.1202 54.2635 90.1202 52.6228C90.1202 50.9974 91.9431 50.0859 94.9661 50.0859ZM94.9661 51.5595C93.0521 51.5595 92.0799 51.924 92.0951 52.6228C92.0799 53.352 93.0521 53.7014 94.9661 53.7014C96.8346 53.7014 97.8221 53.352 97.8372 52.6228C97.8221 51.924 96.8346 51.5595 94.9661 51.5595ZM105.15 49.2201V50.6936H110.908V49.2201H112.822V55.023H103.251V49.2201H105.15ZM105.15 53.4583H110.908V52.1671H105.15V53.4583ZM112.882 41.9132V43.0221C112.882 44.0703 112.882 45.1944 112.563 46.7591H114.386V48.3086H101.732V46.7591H110.634C110.908 45.4223 110.946 44.3817 110.953 43.4627H103.282V41.9132H112.882ZM120.013 42.2626L116.458 55.4332H114.529L118.069 42.2626H120.013ZM121.052 53.7773L125.685 44.7235V44.6476H120.293V42.7791H128.055V44.678L123.422 53.7773H121.052ZM133.196 53.9293C130.917 53.9141 128.76 52.5621 128.76 48.5365C128.76 44.8299 130.537 42.6272 133.287 42.6272C135.505 42.6272 137.009 44.0247 137.237 45.8325H134.988C134.806 45.0577 134.168 44.5868 133.287 44.5868C131.798 44.5868 131.008 45.9388 130.993 48.0959H131.099C131.601 47.1237 132.694 46.5464 133.91 46.5464C135.885 46.5464 137.358 48.0352 137.358 50.1011C137.358 52.3342 135.672 53.9444 133.196 53.9293ZM133.181 52.1215C134.305 52.1215 135.14 51.2708 135.14 50.1619C135.14 49.0681 134.335 48.2023 133.211 48.2023C132.087 48.2023 131.236 49.0833 131.221 50.1619C131.236 51.2405 132.056 52.1215 133.181 52.1215ZM142.529 44.8299C142.529 47.0629 143.152 49.372 145.036 50.5872L143.987 52.0911C142.795 51.3696 142.035 50.1847 141.602 48.7643C141.101 50.329 140.273 51.6354 139.02 52.395L137.835 50.967C139.886 49.691 140.645 47.2604 140.645 44.921V42.536H142.529V44.8299ZM150.079 41.3511V55.1749H148.226V41.3511H150.079ZM147.178 41.5486V54.5369H145.37V47.5946H143.577V46.0148H145.37V41.5486H147.178ZM156.374 42.2626L152.819 55.4332H150.89L154.43 42.2626H156.374ZM167.5 41.3663V44.283H169.368V45.8628H167.5V49.1593H165.556V41.3663H167.5ZM167.5 49.7821V55.0078H158.446V49.7821H167.5ZM160.345 51.286V53.4887H165.601V51.286H160.345ZM159.039 42.0195V46.8199C160.71 46.7895 162.51 46.63 164.431 46.2578L164.659 47.8377C162.381 48.2934 160.239 48.4149 158.279 48.4149H157.094V42.0195H159.039ZM174.813 43.2348C174.798 45.0881 175.755 46.7895 177.973 47.4731L176.955 48.9922C175.466 48.4757 174.456 47.5187 173.886 46.273C173.263 47.7161 172.147 48.8555 170.484 49.4175L169.466 47.8681C171.836 47.1085 172.838 45.2552 172.853 43.326V42.0651H174.813V43.2348ZM181.239 41.3511V49.4479H179.309V45.4679H176.712V43.888H179.309V41.3511H181.239ZM176.514 49.8125C179.461 49.8125 181.269 50.7999 181.284 52.5013C181.269 54.2027 179.461 55.1749 176.514 55.1749C173.567 55.1749 171.76 54.2027 171.76 52.5013C171.76 50.7999 173.567 49.8125 176.514 49.8125ZM176.514 51.3164C174.676 51.3164 173.689 51.7114 173.689 52.5013C173.689 53.2609 174.676 53.671 176.514 53.671C178.352 53.671 179.355 53.2609 179.355 52.5013C179.355 51.7114 178.352 51.3164 176.514 51.3164ZM185.559 52.6532L184.253 56.9826H182.642L183.402 52.6532H185.559ZM199.328 48.0503V49.5846H186.72V48.0503H192.052V46.8199H188.254V41.898H197.839V43.4323H190.183V45.2552H197.976V46.8199H193.996V48.0503H199.328ZM197.824 50.5417V55.2205H195.925V52.076H188.117V50.5417H197.824ZM211.426 41.3511V55.1749H209.497V48.2478H206.747V46.668H209.497V41.3511H211.426ZM206.823 42.7943C206.823 46.9718 205.471 50.3746 200.641 52.7747L199.638 51.2556C203.132 49.5315 204.575 47.3364 204.879 44.3134H200.291V42.7943H206.823ZM216.916 56.8763H212.724V55.1901H214.759V43.9944H212.724V42.3082H216.916V56.8763ZM228.139 49.8125C231.01 49.8125 232.803 50.7999 232.803 52.4861C232.803 54.2027 231.01 55.1901 228.139 55.1901C225.207 55.1901 223.4 54.2027 223.4 52.4861C223.4 50.7999 225.207 49.8125 228.139 49.8125ZM228.139 51.3164C226.316 51.3164 225.329 51.6962 225.344 52.4861C225.329 53.276 226.316 53.6862 228.139 53.6862C229.932 53.6862 230.889 53.276 230.889 52.4861C230.889 51.6962 229.932 51.3164 228.139 51.3164ZM232.666 41.3511V44.5564H234.535V46.1819H232.666V49.5087H230.722V41.3511H232.666ZM224.038 42.217V43.964H226.863V42.217H228.808V48.7187H222.109V42.217H224.038ZM224.038 47.1845H226.863V45.4679H224.038V47.1845ZM247.392 48.1871V49.7214H242.182V52.1063H240.268V49.7214H234.738V48.1871H247.392ZM245.767 41.9588V47.0477H236.318V41.9588H245.767ZM238.217 43.4627V45.5438H243.868V43.4627H238.217ZM245.995 53.3824V54.9319H236.227V50.9062H238.156V53.3824H245.995ZM260.463 51.9696V53.5647H247.809V51.9696H250.634V48.582C249.563 47.944 248.918 46.9642 248.918 45.7413C248.918 43.5082 251.105 42.0195 254.113 42.0195C257.105 42.0195 259.308 43.5082 259.323 45.7413C259.316 46.9338 258.685 47.906 257.652 48.5516V51.9696H260.463ZM254.113 43.5538C252.138 43.5538 250.832 44.3437 250.832 45.7413C250.832 47.0933 252.138 47.9288 254.113 47.9288C256.072 47.9288 257.394 47.0933 257.409 45.7413C257.394 44.3437 256.072 43.5538 254.113 43.5538ZM252.548 51.9696H255.693V49.2808C255.199 49.3796 254.667 49.4327 254.113 49.4327C253.558 49.4327 253.034 49.3872 252.548 49.2808V51.9696ZM273.624 43.0677V44.6476H271.832V46.0755H273.624V47.6706H271.832V49.4327H269.887V41.3511H271.832V43.0677H273.624ZM264.753 42.1107C266.895 42.0955 268.52 43.4931 268.52 45.4527C268.52 47.4123 266.895 48.7947 264.753 48.7947C262.595 48.7947 260.955 47.4123 260.955 45.4527C260.955 43.4931 262.595 42.0955 264.753 42.1107ZM264.753 43.7361C263.659 43.7209 262.854 44.3893 262.869 45.4527C262.854 46.5312 263.659 47.1693 264.753 47.1693C265.816 47.1693 266.621 46.5312 266.636 45.4527C266.621 44.3893 265.816 43.7209 264.753 43.7361ZM267.305 49.7062C270.145 49.7062 271.968 50.7391 271.968 52.4557C271.968 54.1571 270.145 55.1749 267.305 55.1749C264.403 55.1749 262.565 54.1571 262.565 52.4557C262.565 50.7391 264.403 49.7062 267.305 49.7062ZM267.305 51.2405C265.482 51.2405 264.494 51.6506 264.51 52.4557C264.494 53.2609 265.482 53.6406 267.305 53.6406C269.097 53.6406 270.054 53.2609 270.054 52.4557C270.054 51.6506 269.097 51.2405 267.305 51.2405ZM279.145 42.2626L275.59 55.4332H273.661L277.2 42.2626H279.145ZM284.498 42.7791V53.7773H282.204V44.9514H282.143L279.622 46.5312V44.5109L282.341 42.7791H284.498ZM45.8993 63.7613C47.9957 63.7613 49.5907 65.0677 49.5907 66.921C49.5907 68.7439 47.9957 70.0655 45.8993 70.0655C43.7574 70.0655 42.1775 68.7439 42.1775 66.921C42.1775 65.0677 43.7574 63.7613 45.8993 63.7613ZM45.8993 65.3411C44.8359 65.3411 44.046 65.9184 44.0612 66.921C44.046 67.9084 44.8359 68.5009 45.8993 68.5009C46.9475 68.5009 47.7222 67.9084 47.7222 66.921C47.7222 65.9184 46.9475 65.3411 45.8993 65.3411ZM53.5404 63.3511V70.2782H51.5959V63.3511H53.5404ZM53.5404 70.8555V74.6076H46.1879V75.5039H53.9201V77.023H44.2891V73.1949H51.6111V72.3442H44.2587V70.8555H53.5404ZM62.6823 64.6272C64.9609 64.6424 67.1181 65.9944 67.1181 69.9896C67.1332 73.7266 65.3559 75.9293 62.5911 75.9293C60.3733 75.9293 58.8694 74.5469 58.6415 72.6784H60.8898C61.072 73.4835 61.7101 73.9696 62.5911 73.9696C64.0951 73.9696 64.885 72.6328 64.885 70.4301H64.7938C64.2773 71.4023 63.1988 71.9796 61.9683 71.9796C59.9935 71.9796 58.5352 70.4909 58.52 68.4401C58.52 66.2222 60.191 64.612 62.6823 64.6272ZM62.6975 66.4197C61.5734 66.4197 60.7378 67.2856 60.753 68.3793C60.753 69.4579 61.5582 70.3086 62.6823 70.3086C63.7912 70.3086 64.6571 69.4275 64.6571 68.3641C64.6419 67.316 63.8216 66.4197 62.6975 66.4197ZM73.2005 66.4805C73.2005 69.0174 74.355 71.5694 76.6944 72.5569L75.5551 74.1063C73.9753 73.3924 72.8815 72.0176 72.2587 70.3086C71.6283 72.1695 70.4965 73.6734 68.8103 74.4405L67.6406 72.8303C70.056 71.8125 71.2257 69.1693 71.2409 66.4805V64.4145H73.2005V66.4805ZM79.3984 63.3511V77.2053H77.4388V63.3511H79.3984ZM91.8459 63.3511V67.2248H93.7144V68.8199H91.8459V73.2556H89.8863V63.3511H91.8459ZM88.0786 64.3841C88.0786 68.1211 85.7392 70.7339 81.592 71.9036L80.7869 70.3694C83.8783 69.5035 85.6328 67.9008 85.9518 65.964H81.3945V64.3841H88.0786ZM92.3168 75.3824V76.9319H82.8529V72.2378H84.8125V75.3824H92.3168ZM105.797 72.0404V77.1749H103.853V73.5747H95.908V72.0404H105.797ZM105.797 63.3511V71.4023H103.853V63.3511H105.797ZM97.5486 65.0221C97.5486 66.2298 97.7157 67.6426 98.5208 68.7287C99.288 67.6502 99.4627 66.2526 99.4779 65.0221V64.1411H101.286V65.0221C101.286 66.7235 101.726 68.5616 103.336 69.5187L102.288 70.8859C101.331 70.3162 100.739 69.4275 100.389 68.3793C100.055 69.4655 99.4855 70.4377 98.5208 71.053C97.5486 70.4377 96.9714 69.4655 96.6372 68.3641C96.2802 69.4123 95.6953 70.3162 94.7535 70.8859L93.6901 69.5187C95.3155 68.5312 95.7257 66.6628 95.7257 65.0221V64.1411H97.5486V65.0221ZM122.793 70.977V72.5265H117.415V77.1749H115.501V72.5265H110.184V70.977H122.793ZM121.669 64.0803V65.5994H117.643C117.833 66.9514 119.36 68.311 122.201 68.6528L121.502 70.1719C119.071 69.8453 117.332 68.8047 116.504 67.3767C115.653 68.8047 113.929 69.8453 111.521 70.1719L110.807 68.6528C113.602 68.311 115.144 66.9514 115.365 65.5994H111.324V64.0803H121.669ZM127.949 75.9293C125.67 75.9141 123.513 74.5621 123.513 70.5365C123.513 66.8299 125.29 64.6272 128.04 64.6272C130.258 64.6272 131.762 66.0247 131.99 67.8325H129.741C129.559 67.0577 128.921 66.5868 128.04 66.5868C126.551 66.5868 125.761 67.9388 125.746 70.0959H125.852C126.354 69.1237 127.447 68.5464 128.663 68.5464C130.638 68.5464 132.111 70.0352 132.111 72.1011C132.111 74.3342 130.425 75.9444 127.949 75.9293ZM127.934 74.1215C129.058 74.1215 129.893 73.2708 129.893 72.1619C129.893 71.0681 129.088 70.2023 127.964 70.2023C126.84 70.2023 125.989 71.0833 125.974 72.1619C125.989 73.2405 126.809 74.1215 127.934 74.1215ZM136.781 63.7613C138.877 63.7613 140.472 65.0677 140.472 66.921C140.472 68.7439 138.877 70.0655 136.781 70.0655C134.639 70.0655 133.059 68.7439 133.059 66.921C133.059 65.0677 134.639 63.7613 136.781 63.7613ZM136.781 65.3411C135.717 65.3411 134.928 65.9184 134.943 66.921C134.928 67.9084 135.717 68.5009 136.781 68.5009C137.829 68.5009 138.604 67.9084 138.604 66.921C138.604 65.9184 137.829 65.3411 136.781 65.3411ZM144.422 63.3511V70.2782H142.477V63.3511H144.422ZM144.422 70.8555V74.6076H137.069V75.5039H144.802V77.023H135.171V73.1949H142.493V72.3442H135.14V70.8555H144.422Z" fill="#0D0D0D"/>
<rect x="41.5547" y="87" width="57.4444" height="20.2222" rx="3.11111" fill="#F0F5FF"/>
<path d="M51.3518 94.5944C51.3518 94.963 51.4324 95.3218 51.5937 95.6707C51.755 96.0163 51.9936 96.3273 52.3096 96.6038C52.6255 96.877 53.0073 97.0893 53.455 97.2407L52.902 98.0898C52.4149 97.9319 51.9936 97.6932 51.6381 97.374C51.286 97.0547 51.0095 96.6811 50.8087 96.2533C50.6079 96.7305 50.3216 97.1469 49.9497 97.5023C49.5777 97.8545 49.1334 98.1162 48.6166 98.2873L48.0538 97.4184C48.5146 97.267 48.9079 97.0465 49.2338 96.7568C49.5629 96.4639 49.8114 96.1315 49.9793 95.7595C50.1504 95.3843 50.236 94.9992 50.236 94.6043V94.4858H48.3797V93.607H53.1982V94.4858H51.3518V94.5944ZM55.5483 101.99H54.4523V99.6895H49.4658V98.8107H55.5483V101.99ZM55.5483 98.3861H54.4523V96.1743H52.9316V95.2757H54.4523V93.0639H55.5483V98.3861ZM63.5997 95.2658H64.8438V96.1743H63.5997V98.2775H62.5036V93.0639H63.5997V95.2658ZM58.9193 99.4031H62.5036V98.6329H63.5997V101.882H57.8332V98.6329H58.9193V99.4031ZM62.5036 101.013V100.252H58.9193V101.013H62.5036ZM61.8618 94.7721H56.5693V93.8933H58.6725V92.9948H59.7685V93.8933H61.8618V94.7721ZM59.2155 95.0782C59.6434 95.0782 60.0219 95.1441 60.3511 95.2757C60.6802 95.4041 60.9353 95.5868 61.1163 95.8237C61.3006 96.0607 61.3944 96.3355 61.3977 96.6482C61.3944 96.9609 61.3006 97.2357 61.1163 97.4727C60.9353 97.7097 60.6802 97.894 60.3511 98.0257C60.0219 98.154 59.6434 98.2182 59.2155 98.2182C58.7844 98.2182 58.4026 98.154 58.0701 98.0257C57.741 97.894 57.4843 97.7097 57.3 97.4727C57.1156 97.2357 57.0235 96.9609 57.0235 96.6482C57.0235 96.3355 57.1156 96.0607 57.3 95.8237C57.4843 95.5868 57.741 95.4041 58.0701 95.2757C58.4026 95.1441 58.7844 95.0782 59.2155 95.0782ZM59.2155 95.8879C58.8732 95.8879 58.6001 95.9554 58.396 96.0903C58.1919 96.2253 58.0899 96.4112 58.0899 96.6482C58.0899 96.8885 58.1903 97.0761 58.391 97.211C58.5951 97.3427 58.8699 97.4085 59.2155 97.4085C59.5611 97.4085 59.836 97.3411 60.04 97.2061C60.2474 97.0712 60.3511 96.8852 60.3511 96.6482C60.3511 96.4145 60.2474 96.2302 60.04 96.0953C59.8327 95.957 59.5578 95.8879 59.2155 95.8879ZM72.2928 97.9911H69.6466V100.035H73.2013V100.934H65.0452V100.035H68.5604V97.9911H66.0326V93.7255H72.2237V94.6043H67.1287V97.1222H72.2928V97.9911ZM82.9253 96.0656H80.2889V96.9642H83.814V97.843H75.6777V96.9642H79.1929V96.0656H76.7342V93.2416H77.8303V95.1868H82.9253V96.0656ZM82.9253 99.4031H81.6614V100.993H83.024V101.882H76.4874V100.993H77.8303V99.4031H76.5565V98.5539H82.9253V99.4031ZM80.5753 100.993V99.4031H78.9164V100.993H80.5753ZM88.2218 93.2416C88.8768 93.2416 89.4445 93.3108 89.9251 93.449C90.4089 93.5872 90.7808 93.788 91.0409 94.0513C91.3042 94.3113 91.4375 94.6207 91.4408 94.9795C91.4375 95.3317 91.3042 95.6361 91.0409 95.8928C90.7808 96.1496 90.4089 96.3454 89.9251 96.4804C89.4445 96.6153 88.8768 96.6811 88.2218 96.6778C87.5734 96.6811 87.0056 96.6153 86.5185 96.4804C86.0347 96.3454 85.6611 96.1496 85.3978 95.8928C85.1345 95.6361 85.0028 95.3317 85.0028 94.9795C85.0028 94.6207 85.1345 94.3113 85.3978 94.0513C85.6611 93.788 86.0347 93.5872 86.5185 93.449C87.0056 93.3108 87.5734 93.2416 88.2218 93.2416ZM88.2218 94.1007C87.5635 94.1007 87.0517 94.1764 86.6864 94.3278C86.3243 94.4792 86.1449 94.6964 86.1482 94.9795C86.1449 95.2494 86.3243 95.4567 86.6864 95.6016C87.0517 95.7464 87.5635 95.8221 88.2218 95.8287C88.8801 95.8221 89.3919 95.7464 89.7572 95.6016C90.1226 95.4567 90.3052 95.2494 90.3052 94.9795C90.3052 94.6964 90.1226 94.4792 89.7572 94.3278C89.3919 94.1764 88.8801 94.1007 88.2218 94.1007ZM91.3124 101.882H85.1213V98.8798H91.3124V101.882ZM86.2075 100.993H90.246V99.7487H86.2075V100.993ZM92.2998 98.1688H84.1635V97.2802H92.2998V98.1688Z" fill="#0370FF"/>
<rect x="103.664" y="87" width="47.4444" height="20.2222" rx="3.11111" fill="#F0F5FF"/>
<path d="M117.618 93.0738V99.5216H116.512V93.0738H117.618ZM117.865 100.924V101.812H111.713V98.8699H112.819V100.924H117.865ZM112.75 93.6564C114.103 93.6564 115.15 94.5944 115.15 95.8879C115.15 97.211 114.103 98.1293 112.75 98.1293C111.388 98.1293 110.341 97.211 110.341 95.8879C110.341 94.5944 111.388 93.6564 112.75 93.6564ZM112.75 94.6141C111.99 94.6141 111.407 95.1177 111.417 95.8879C111.407 96.6778 111.99 97.1715 112.75 97.1715C113.491 97.1715 114.073 96.6778 114.073 95.8879C114.073 95.1177 113.491 94.6141 112.75 94.6141ZM126.124 93.0639V101.99H125.018V93.0639H126.124ZM123.458 94.0118C123.458 96.668 122.431 98.9291 119.301 100.41L118.728 99.5315C121.063 98.4206 122.149 96.9099 122.342 94.8807H119.182V94.0118H123.458ZM131.173 98.6428C133.109 98.6527 134.333 99.2649 134.343 100.321C134.333 101.358 133.109 101.98 131.173 101.98C129.248 101.98 128.014 101.358 128.014 100.321C128.014 99.2649 129.248 98.6527 131.173 98.6428ZM131.173 99.4722C129.89 99.4722 129.11 99.7783 129.12 100.321C129.11 100.845 129.89 101.131 131.173 101.131C132.467 101.131 133.247 100.845 133.257 100.321C133.247 99.7783 132.467 99.4722 131.173 99.4722ZM134.284 93.4885V94.2291C134.284 94.9301 134.284 95.6806 134.037 96.5988L132.951 96.5001C133.173 95.6312 133.188 95.0042 133.188 94.3574H128.103V93.4885H134.284ZM135.271 97.1123V98.001H127.174V97.1123H130.314V95.4929H131.4V97.1123H135.271ZM142.928 93.8835V94.7425C142.918 95.8484 142.918 97.0926 142.572 98.9588L141.466 98.8403C141.812 97.1024 141.812 95.8336 141.822 94.7623H136.49V93.8835H142.928ZM143.777 99.9363V100.835H135.64V99.9363H138.642V96.8358H139.728V99.9363H143.777Z" fill="#0370FF"/>
<path d="M45.2339 123.797C45.2339 125.009 46.074 126.115 47.5202 126.572L47.0417 127.359C45.957 127.013 45.1648 126.296 44.7448 125.392C44.3301 126.434 43.4953 127.258 42.3522 127.657L41.8312 126.849C43.3199 126.359 44.2131 125.126 44.2237 123.807V123.541H42.1289V122.723H47.2862V123.541H45.2339V123.797ZM49.3917 122.042V124.403H50.7741V125.232H49.3917V127.763H48.3815V122.042H49.3917ZM46.3186 127.997C48.2858 127.997 49.4768 128.646 49.4768 129.762C49.4768 130.889 48.2858 131.559 46.3186 131.549C44.3301 131.559 43.1178 130.889 43.1178 129.762C43.1178 128.646 44.3301 127.997 46.3186 127.997ZM46.3186 128.794C44.9362 128.794 44.1174 129.145 44.128 129.762C44.1174 130.4 44.9362 130.751 46.3186 130.751C47.6903 130.751 48.4878 130.4 48.4878 129.762C48.4878 129.145 47.6903 128.794 46.3186 128.794ZM58.9663 122.042V131.57H57.9454V122.042H58.9663ZM56.1271 123.063C56.1271 125.849 54.9361 128.273 51.6716 129.837L51.1399 129.018C53.676 127.811 54.9095 126.094 55.1063 123.871H51.5971V123.063H56.1271ZM68.9024 129.539V130.379H60.1828V129.539H62.267V127.051C61.4854 126.62 61.0122 125.934 61.0122 125.083C61.0122 123.584 62.4796 122.595 64.5213 122.595C66.5736 122.595 68.0411 123.584 68.0411 125.083C68.0411 125.923 67.5838 126.599 66.8182 127.029V129.539H68.9024ZM64.5213 123.403C63.022 123.403 61.9905 124.052 61.9905 125.083C61.9905 126.104 63.022 126.774 64.5213 126.774C66.01 126.774 67.0628 126.104 67.0628 125.083C67.0628 124.052 66.01 123.403 64.5213 123.403ZM63.2665 129.539H65.7974V127.412C65.4092 127.513 64.9786 127.561 64.5213 127.561C64.0747 127.561 63.6494 127.513 63.2665 127.423V129.539ZM78.1579 123.393V124.222H76.8075V125.434H78.1579V126.274H76.8075V127.667H75.7973V122.042H76.8075V123.393H78.1579ZM72.001 122.595C73.4579 122.595 74.5319 123.52 74.5425 124.86C74.5319 126.189 73.4579 127.114 72.001 127.125C70.5442 127.114 69.4596 126.189 69.4702 124.86C69.4596 123.52 70.5442 122.595 72.001 122.595ZM72.001 123.446C71.1078 123.446 70.4485 124.02 70.4592 124.86C70.4485 125.711 71.1078 126.264 72.001 126.274C72.8943 126.264 73.5536 125.711 73.5536 124.86C73.5536 124.02 72.8943 123.446 72.001 123.446ZM73.7343 127.923C75.6803 127.923 76.8925 128.592 76.8925 129.741C76.8925 130.879 75.6803 131.559 73.7343 131.549C71.7671 131.559 70.5336 130.879 70.5336 129.741C70.5336 128.592 71.7671 127.923 73.7343 127.923ZM73.7343 128.741C72.352 128.741 71.5332 129.103 71.5438 129.741C71.5332 130.39 72.352 130.74 73.7343 130.74C75.1061 130.74 75.9036 130.39 75.9036 129.741C75.9036 129.103 75.1061 128.741 73.7343 128.741ZM87.1583 126.519V127.348H78.4599V126.519H87.1583ZM86.1481 124.871V125.689H79.5446V122.382H86.0843V123.212H80.5441V124.871H86.1481ZM82.7985 128.093C84.8508 128.093 86.0843 128.72 86.0843 129.826C86.0843 130.932 84.8508 131.559 82.7985 131.549C80.7356 131.559 79.4914 130.932 79.4914 129.826C79.4914 128.72 80.7356 128.093 82.7985 128.093ZM82.7985 128.869C81.3417 128.88 80.5122 129.22 80.5122 129.826C80.5122 130.432 81.3417 130.772 82.7985 130.772C84.234 130.772 85.0741 130.432 85.0741 129.826C85.0741 129.22 84.234 128.88 82.7985 128.869ZM89.704 127.476V128.667H94.202V127.476H95.191V131.453H88.7044V127.476H89.704ZM89.704 130.623H94.202V129.454H89.704V130.623ZM95.2122 122.457V123.18C95.2122 123.908 95.2122 124.727 94.9677 125.881H96.3182V126.7H87.5985V125.881H93.9787C94.202 124.786 94.2127 123.983 94.2127 123.286H88.6938V122.457H95.2122Z" fill="#737373"/>
<path d="M113.79 130.666V129.815L116.459 127.125C117.299 126.242 117.724 125.753 117.724 125.083C117.724 124.328 117.108 123.839 116.299 123.839C115.449 123.839 114.896 124.382 114.896 125.2H113.79C113.779 123.797 114.853 122.861 116.321 122.861C117.809 122.861 118.83 123.797 118.841 125.051C118.83 125.913 118.426 126.593 116.98 128.018L115.417 129.603V129.666H118.969V130.666H113.79ZM128.308 126.519V127.348H119.61V126.519H128.308ZM127.298 124.871V125.689H120.694V122.382H127.234V123.212H121.694V124.871H127.298ZM123.948 128.093C126 128.093 127.234 128.72 127.234 129.826C127.234 130.932 126 131.559 123.948 131.549C121.885 131.559 120.641 130.932 120.641 129.826C120.641 128.72 121.885 128.093 123.948 128.093ZM123.948 128.869C122.491 128.88 121.662 129.22 121.662 129.826C121.662 130.432 122.491 130.772 123.948 130.772C125.384 130.772 126.224 130.432 126.224 129.826C126.224 129.22 125.384 128.88 123.948 128.869ZM130.799 127.476V128.667H135.297V127.476H136.286V131.453H129.8V127.476H130.799ZM130.799 130.623H135.297V129.454H130.799V130.623ZM136.307 122.457V123.18C136.307 123.908 136.307 124.727 136.063 125.881H137.413V126.7H128.694V125.881H135.074C135.297 124.786 135.308 123.983 135.308 123.286H129.789V122.457H136.307Z" fill="#0D0D0D"/>
<path d="M49.5193 143.828V144.583C49.5193 145.391 49.5193 146.338 49.2854 147.593H50.6252V148.422H41.9056V147.593H48.2645C48.5144 146.354 48.5197 145.45 48.5197 144.647H43.0009V143.828H49.5193ZM49.8064 151.761V152.59H43.0434V149.411H44.043V151.761H49.8064ZM59.7532 148.73V149.549H55.8612V152.782H54.8723V149.549H51.0336V148.73H59.7532ZM58.6579 143.775V147.518H52.1288V143.775H58.6579ZM53.1178 144.583V146.731H57.6477V144.583H53.1178ZM68.9024 150.762V151.602H60.1828V150.762H62.267V148.273C61.4854 147.843 61.0122 147.157 61.0122 146.306C61.0122 144.807 62.4796 143.818 64.5213 143.818C66.5736 143.818 68.0411 144.807 68.0411 146.306C68.0411 147.146 67.5838 147.821 66.8182 148.252V150.762H68.9024ZM64.5213 144.626C63.022 144.626 61.9905 145.275 61.9905 146.306C61.9905 147.327 63.022 147.997 64.5213 147.997C66.01 147.997 67.0628 147.327 67.0628 146.306C67.0628 145.275 66.01 144.626 64.5213 144.626ZM63.2665 150.762H65.7974V148.635C65.4092 148.736 64.9786 148.784 64.5213 148.784C64.0747 148.784 63.6494 148.736 63.2665 148.645V150.762ZM72.0223 143.584C73.4579 143.594 74.5106 144.477 74.5212 145.721C74.5106 146.976 73.4579 147.848 72.0223 147.848C70.5761 147.848 69.5128 146.976 69.5128 145.721C69.5128 144.477 70.5761 143.594 72.0223 143.584ZM72.0223 144.434C71.1397 144.424 70.4911 144.945 70.5017 145.721C70.4911 146.508 71.1397 147.029 72.0223 147.029C72.8943 147.029 73.5429 146.508 73.5429 145.721C73.5429 144.945 72.8943 144.424 72.0223 144.434ZM77.2222 143.265V148.114H76.212V143.265H77.2222ZM77.2222 148.55V150.953H71.9691V151.867H77.5412V152.676H70.9908V150.198H76.2226V149.358H70.9589V148.55H77.2222Z" fill="#737373"/>
<path d="M120.925 143.265V147.252H122.361V148.103H120.925V152.793H119.915V143.265H120.925ZM113.343 150.198C114.093 150.198 114.965 150.198 115.874 150.166V149.198C114.8 149.049 114.098 148.401 114.109 147.476C114.098 146.402 115.023 145.689 116.385 145.689C117.735 145.689 118.671 146.402 118.681 147.476C118.671 148.401 117.958 149.055 116.884 149.209V150.123C117.73 150.092 118.58 150.022 119.373 149.911L119.436 150.655C117.373 151.027 115.14 151.038 113.503 151.038L113.343 150.198ZM119.234 144.392V145.2H113.524V144.392H115.874V143.286H116.884V144.392H119.234ZM116.385 146.476C115.587 146.476 115.055 146.87 115.055 147.476C115.055 148.082 115.587 148.454 116.385 148.454C117.182 148.454 117.714 148.082 117.714 147.476C117.714 146.87 117.182 146.476 116.385 146.476ZM124.256 151.155L123.406 154.09H122.502L123.065 151.155H124.256ZM132.216 144.105C132.206 145.37 133.758 146.561 135.63 146.806L135.236 147.635C133.679 147.385 132.307 146.577 131.695 145.455C131.068 146.582 129.702 147.385 128.154 147.635L127.75 146.806C129.622 146.561 131.153 145.381 131.164 144.105V143.584H132.216V144.105ZM136.023 148.571V149.4H132.153V152.793H131.164V149.4H127.336V148.571H136.023ZM138.132 151.155L137.281 154.09H136.377L136.941 151.155H138.132ZM148.793 143.658V146.923H146.049V148.029H149.899V148.847H141.211V148.029H145.05V146.923H142.317V143.658H148.793ZM143.306 144.456V146.115H147.793V144.456H143.306ZM148.835 149.751V152.793H147.814V150.549H142.178V149.751H148.835Z" fill="#0D0D0D"/>
<path d="M49.5193 165.051V165.806C49.5193 166.614 49.5193 167.561 49.2854 168.815H50.6252V169.645H41.9056V168.815H48.2645C48.5144 167.576 48.5197 166.673 48.5197 165.87H43.0009V165.051H49.5193ZM49.8064 172.984V173.813H43.0434V170.634H44.043V172.984H49.8064ZM59.7532 169.953V170.772H55.8612V174.005H54.8723V170.772H51.0336V169.953H59.7532ZM58.6579 164.998V168.741H52.1288V164.998H58.6579ZM53.1178 165.806V167.954H57.6477V165.806H53.1178ZM63.6813 166.912C63.6706 168.656 64.7234 170.4 66.2014 171.059L65.5953 171.857C64.5 171.336 63.6334 170.267 63.1921 168.964C62.7455 170.357 61.8682 171.511 60.7251 172.069L60.1083 171.219C61.6077 170.549 62.6604 168.73 62.6604 166.912V165.285H63.6813V166.912ZM68.073 164.487V174.036H67.0628V164.487H68.073ZM76.8075 164.487V167.305H78.1898V168.145H76.8075V171.41H75.7866V164.487H76.8075ZM74.2235 165.211C74.2235 167.709 72.5221 169.528 69.7361 170.368L69.3107 169.56C71.5385 168.89 72.9262 167.624 73.1282 166.051H69.7148V165.211H74.2235ZM77.2009 172.994V173.813H70.7569V170.697H71.7777V172.994H77.2009Z" fill="#737373"/>
<path d="M116.47 173.218C114.683 173.218 113.641 171.782 113.641 169.262C113.641 166.763 114.704 165.306 116.47 165.306C118.235 165.306 119.298 166.763 119.298 169.262C119.298 171.782 118.245 173.218 116.47 173.218ZM116.47 172.207C117.512 172.207 118.128 171.187 118.128 169.262C118.128 167.348 117.501 166.295 116.47 166.295C115.438 166.295 114.811 167.348 114.811 169.262C114.811 171.187 115.428 172.207 116.47 172.207ZM122.832 165.306C124.246 165.317 125.735 166.168 125.735 168.985C125.735 171.686 124.575 173.218 122.725 173.218C121.311 173.218 120.311 172.346 120.131 171.091H121.29C121.449 171.74 121.949 172.197 122.725 172.197C123.916 172.197 124.607 171.155 124.618 169.4H124.522C124.108 170.049 123.384 170.442 122.555 170.442C121.173 170.442 120.067 169.39 120.067 167.911C120.067 166.444 121.162 165.296 122.832 165.306ZM122.832 166.285C121.896 166.285 121.205 167.008 121.205 167.89C121.205 168.783 121.875 169.485 122.81 169.485C123.735 169.485 124.458 168.73 124.458 167.88C124.458 167.05 123.778 166.285 122.832 166.285ZM127.396 172.122C126.982 172.122 126.631 171.782 126.641 171.367C126.631 170.953 126.982 170.612 127.396 170.612C127.8 170.612 128.151 170.953 128.151 171.367C128.151 171.782 127.8 172.122 127.396 172.122ZM127.396 167.922C126.982 167.922 126.631 167.582 126.641 167.167C126.631 166.752 126.982 166.412 127.396 166.412C127.8 166.412 128.151 166.752 128.151 167.167C128.151 167.582 127.8 167.922 127.396 167.922ZM131.919 173.218C130.324 173.218 129.186 172.356 129.143 171.102H130.334C130.377 171.782 131.047 172.207 131.908 172.207C132.833 172.207 133.514 171.697 133.514 170.953C133.514 170.198 132.876 169.645 131.78 169.645H131.121V168.688H131.78C132.652 168.688 133.269 168.199 133.269 167.465C133.269 166.763 132.748 166.285 131.929 166.285C131.153 166.285 130.472 166.71 130.441 167.412H129.313C129.345 166.157 130.504 165.306 131.94 165.306C133.45 165.306 134.407 166.263 134.396 167.401C134.407 168.273 133.865 168.911 133.035 169.113V169.166C134.088 169.315 134.694 170.017 134.694 170.995C134.694 172.282 133.514 173.218 131.919 173.218ZM138.334 173.218C136.547 173.218 135.505 171.782 135.505 169.262C135.505 166.763 136.569 165.306 138.334 165.306C140.099 165.306 141.162 166.763 141.162 169.262C141.162 171.782 140.11 173.218 138.334 173.218ZM138.334 172.207C139.376 172.207 139.993 171.187 139.993 169.262C139.993 167.348 139.365 166.295 138.334 166.295C137.302 166.295 136.675 167.348 136.675 169.262C136.675 171.187 137.292 172.207 138.334 172.207ZM144.72 169.06C145.071 168.666 145.507 168.464 145.985 168.464C146.815 168.464 147.548 169.071 148.357 169.071C148.846 169.071 149.271 168.858 149.601 168.433V169.453C149.239 169.847 148.814 170.049 148.335 170.049C147.506 170.049 146.762 169.443 145.953 169.443C145.475 169.443 145.06 169.655 144.72 170.081V169.06ZM156.232 165.413V173.111H155.051V166.582H155.009L153.169 167.784V166.667L155.083 165.413H156.232ZM160.541 173.218C158.755 173.218 157.713 171.782 157.713 169.262C157.713 166.763 158.776 165.306 160.541 165.306C162.306 165.306 163.37 166.763 163.37 169.262C163.37 171.782 162.317 173.218 160.541 173.218ZM160.541 172.207C161.583 172.207 162.2 171.187 162.2 169.262C162.2 167.348 161.573 166.295 160.541 166.295C159.51 166.295 158.882 167.348 158.882 169.262C158.882 171.187 159.499 172.207 160.541 172.207ZM165.01 172.122C164.596 172.122 164.245 171.782 164.255 171.367C164.245 170.953 164.596 170.612 165.01 170.612C165.414 170.612 165.765 170.953 165.765 171.367C165.765 171.782 165.414 172.122 165.01 172.122ZM165.01 167.922C164.596 167.922 164.245 167.582 164.255 167.167C164.245 166.752 164.596 166.412 165.01 166.412C165.414 166.412 165.765 166.752 165.765 167.167C165.765 167.582 165.414 167.922 165.01 167.922ZM169.533 173.218C167.937 173.218 166.8 172.356 166.757 171.102H167.948C167.991 171.782 168.661 172.207 169.522 172.207C170.447 172.207 171.128 171.697 171.128 170.953C171.128 170.198 170.49 169.645 169.394 169.645H168.735V168.688H169.394C170.266 168.688 170.883 168.199 170.883 167.465C170.883 166.763 170.362 166.285 169.543 166.285C168.767 166.285 168.086 166.71 168.054 167.412H166.927C166.959 166.157 168.118 165.306 169.554 165.306C171.064 165.306 172.021 166.263 172.01 167.401C172.021 168.273 171.479 168.911 170.649 169.113V169.166C171.702 169.315 172.308 170.017 172.308 170.995C172.308 172.282 171.128 173.218 169.533 173.218ZM175.948 173.218C174.161 173.218 173.119 171.782 173.119 169.262C173.119 166.763 174.182 165.306 175.948 165.306C177.713 165.306 178.776 166.763 178.776 169.262C178.776 171.782 177.723 173.218 175.948 173.218ZM175.948 172.207C176.99 172.207 177.606 171.187 177.606 169.262C177.606 167.348 176.979 166.295 175.948 166.295C174.916 166.295 174.289 167.348 174.289 169.262C174.289 171.187 174.906 172.207 175.948 172.207Z" fill="#0D0D0D"/>
<path d="M45.4041 188.133C45.3934 189.877 46.4462 191.62 47.9243 192.28L47.3181 193.077C46.2229 192.556 45.3562 191.488 44.9149 190.185C44.4683 191.578 43.591 192.732 42.4479 193.29L41.8312 192.439C43.3305 191.769 44.3832 189.951 44.3832 188.133V186.506H45.4041V188.133ZM49.7958 185.708V195.257H48.7856V185.708H49.7958ZM53.1497 191.142V192.333H57.6477V191.142H58.6366V195.119H52.1501V191.142H53.1497ZM53.1497 194.289H57.6477V193.12H53.1497V194.289ZM58.6579 186.123V186.846C58.6579 187.574 58.6579 188.393 58.4133 189.547H59.7638V190.366H51.0442V189.547H57.4244C57.6477 188.452 57.6583 187.649 57.6583 186.952H52.1395V186.123H58.6579Z" fill="#737373"/>
<path d="M113.79 194.332V193.481L116.459 190.791C117.299 189.908 117.724 189.419 117.724 188.749C117.724 187.994 117.108 187.505 116.299 187.505C115.449 187.505 114.896 188.048 114.896 188.866H113.79C113.779 187.463 114.853 186.527 116.321 186.527C117.809 186.527 118.83 187.463 118.841 188.717C118.83 189.579 118.426 190.259 116.98 191.684L115.417 193.269V193.332H118.969V194.332H113.79ZM122.619 194.438C120.832 194.438 119.79 193.003 119.79 190.483C119.79 187.984 120.854 186.527 122.619 186.527C124.384 186.527 125.447 187.984 125.447 190.483C125.447 193.003 124.395 194.438 122.619 194.438ZM122.619 193.428C123.661 193.428 124.278 192.407 124.278 190.483C124.278 188.569 123.65 187.516 122.619 187.516C121.587 187.516 120.96 188.569 120.96 190.483C120.96 192.407 121.577 193.428 122.619 193.428ZM127.428 193.598L126.578 196.533H125.674L126.237 193.598H127.428ZM128.633 194.332V193.481L131.302 190.791C132.142 189.908 132.567 189.419 132.567 188.749C132.567 187.994 131.951 187.505 131.142 187.505C130.292 187.505 129.739 188.048 129.739 188.866H128.633C128.622 187.463 129.696 186.527 131.164 186.527C132.652 186.527 133.673 187.463 133.684 188.717C133.673 189.579 133.269 190.259 131.823 191.684L130.26 193.269V193.332H133.811V194.332H128.633ZM137.462 194.438C135.675 194.438 134.633 193.003 134.633 190.483C134.633 187.984 135.697 186.527 137.462 186.527C139.227 186.527 140.29 187.984 140.29 190.483C140.29 193.003 139.238 194.438 137.462 194.438ZM137.462 193.428C138.504 193.428 139.121 192.407 139.121 190.483C139.121 188.569 138.493 187.516 137.462 187.516C136.43 187.516 135.803 188.569 135.803 190.483C135.803 192.407 136.42 193.428 137.462 193.428ZM143.856 194.438C142.069 194.438 141.027 193.003 141.027 190.483C141.027 187.984 142.09 186.527 143.856 186.527C145.621 186.527 146.684 187.984 146.684 190.483C146.684 193.003 145.631 194.438 143.856 194.438ZM143.856 193.428C144.898 193.428 145.514 192.407 145.514 190.483C145.514 188.569 144.887 187.516 143.856 187.516C142.824 187.516 142.197 188.569 142.197 190.483C142.197 192.407 142.814 193.428 143.856 193.428ZM155.162 185.719V192.939H154.152V192.025H152.238V191.312H154.152V185.719H155.162ZM155.396 194.215V195.034H148.516V192.237H149.516V194.215H155.396ZM147.198 190.068C148.963 190.057 151.334 190.036 153.365 189.781L153.429 190.504C152.615 190.637 151.759 190.727 150.919 190.78V192.641H149.909V190.834C148.984 190.876 148.096 190.881 147.325 190.876L147.198 190.068ZM150.313 186.08C151.706 186.08 152.674 186.75 152.674 187.76C152.674 188.771 151.706 189.419 150.313 189.419C148.899 189.419 147.942 188.771 147.942 187.76C147.942 186.75 148.899 186.08 150.313 186.08ZM150.313 186.835C149.463 186.825 148.888 187.186 148.899 187.76C148.888 188.324 149.463 188.675 150.313 188.675C151.132 188.675 151.706 188.324 151.717 187.76C151.706 187.186 151.132 186.825 150.313 186.835Z" fill="#0D0D0D"/>
<g filter="url(#filter0_d_1671_6924)">
<rect x="6" y="198" width="320" height="81.7778" rx="10.6667" fill="white" shape-rendering="crispEdges"/>
<rect x="6.5" y="198.5" width="319" height="80.7778" rx="10.1667" stroke="#F2F2F2" shape-rendering="crispEdges"/>
<rect x="24.2218" y="216.222" width="137.778" height="45.3333" rx="10.2222" fill="white"/>
<rect x="24.2218" y="216.222" width="137.778" height="45.3333" rx="10.2222" stroke="#D9D9D9" stroke-width="0.888889"/>
<path d="M54.1788 233.236V234.305C54.1788 235.375 54.1788 236.576 53.901 238.125H55.5538V239.541H43.9844V238.125H52.0955C52.3802 236.708 52.4149 235.653 52.4149 234.653H45.401V233.236H54.1788ZM54.5399 243.514V244.93H45.4566V240.653H47.2066V243.514H54.5399ZM67.476 239.597V241.014H62.5316V245.153H60.7816V241.014H55.9066V239.597H67.476ZM66.0872 233.139V238.236H57.2677V233.139H66.0872ZM59.0177 234.541V236.847H64.3233V234.541H59.0177ZM79.426 242.264V243.694H67.8566V242.264H72.7455V239.444H74.5233V242.264H79.426ZM78.4122 233.486V234.916H74.5649C74.7108 236.583 76.2802 238.132 78.9955 238.528L78.301 239.93C76.0858 239.541 74.4469 238.458 73.6344 236.958C72.8288 238.486 71.2038 239.597 69.0233 240L68.3288 238.597C70.9538 238.173 72.5302 236.59 72.676 234.916H68.8149V233.486H78.4122ZM90.4455 232.541V241.778H88.6816V237.653H86.4177V236.194H88.6816V232.541H90.4455ZM86.5288 233.472C86.5288 236.861 84.376 239.361 80.6816 240.514L79.9594 239.111C82.5774 238.291 84.2649 236.785 84.5983 234.916H80.6121V233.472H86.5288ZM90.7649 243.528V244.944H82.1121V240.847H83.9177V243.528H90.7649ZM106.22 242.264V243.694H94.651V242.264H99.5399V239.444H101.318V242.264H106.22ZM105.207 233.486V234.916H101.359C101.505 236.583 103.075 238.132 105.79 238.528L105.095 239.93C102.88 239.541 101.241 238.458 100.429 236.958C99.6233 238.486 97.9983 239.597 95.8177 240L95.1233 238.597C97.7483 238.173 99.3246 236.59 99.4705 234.916H95.6094V233.486H105.207ZM112.351 232.639C115.254 232.639 116.934 233.403 116.948 234.805C116.934 236.194 115.254 236.958 112.351 236.958C109.434 236.958 107.74 236.194 107.74 234.805C107.74 233.403 109.434 232.639 112.351 232.639ZM112.351 233.944C110.49 233.944 109.587 234.222 109.601 234.805C109.587 235.416 110.49 235.666 112.351 235.666C114.226 235.666 115.115 235.416 115.115 234.805C115.115 234.222 114.226 233.944 112.351 233.944ZM118.115 237.486V238.875H115.226V239.764H116.712V242.986H109.67V243.75H117.045V245.083H107.934V241.75H114.962V241.055H107.92V239.764H109.49V238.875H106.587V237.486H118.115ZM111.24 239.764H113.462V238.875H111.24V239.764ZM128.495 232.528V237.472H130.357V238.93H128.495V245.166H126.745V232.528H128.495ZM125.884 234.416V235.833H118.454V234.416H121.315V232.722H123.093V234.416H125.884ZM122.204 236.541C124.051 236.541 125.426 237.791 125.426 239.555C125.426 241.319 124.051 242.569 122.204 242.569C120.343 242.569 118.968 241.319 118.968 239.555C118.968 237.791 120.343 236.541 122.204 236.541ZM122.204 237.972C121.315 237.986 120.662 238.583 120.662 239.555C120.662 240.541 121.315 241.125 122.204 241.111C123.093 241.125 123.732 240.541 123.732 239.555C123.732 238.583 123.093 237.986 122.204 237.972ZM141.084 232.528V245.166H139.293V232.528H141.084ZM137.293 233.847C137.293 237.68 135.945 240.861 131.432 243L130.501 241.583C133.765 240.041 135.202 238.041 135.487 235.236H131.182V233.847H137.293Z" fill="#0D0D0D"/>
<rect x="169.999" y="216.222" width="137.778" height="45.3333" rx="10.2222" fill="#0370FF"/>
<rect x="169.999" y="216.222" width="137.778" height="45.3333" rx="10.2222" stroke="#0370FF" stroke-width="0.888889"/>
<path d="M219.664 235.972C219.664 236.671 219.783 237.359 220.019 238.035C220.259 238.706 220.618 239.31 221.095 239.847C221.572 240.384 222.151 240.796 222.831 241.083L221.873 242.472C221.146 242.166 220.523 241.717 220.005 241.125C219.486 240.532 219.079 239.84 218.783 239.048C218.491 239.91 218.081 240.666 217.553 241.319C217.026 241.967 216.401 242.458 215.678 242.791L214.664 241.389C215.34 241.088 215.917 240.65 216.394 240.076C216.875 239.502 217.236 238.859 217.477 238.146C217.722 237.428 217.845 236.703 217.845 235.972V235.194H215.164V233.75H222.303V235.194H219.664V235.972ZM225.345 245.166H223.553V232.528H225.345V245.166ZM237.406 242.083H235.628V241.083H233.212V239.875H235.628V232.541H237.406V242.083ZM237.684 244.944H228.267V241.166H230.031V239.486C229.17 239.523 228.114 239.541 226.864 239.541L226.656 238.139C228.286 238.129 229.751 238.102 231.052 238.055C232.353 238.009 233.591 237.912 234.767 237.764L234.864 239.028C233.902 239.19 232.883 239.31 231.809 239.389V241.791H230.031V243.528H237.684V244.944ZM230.767 232.972C231.374 232.967 231.915 233.06 232.392 233.25C232.869 233.44 233.242 233.708 233.51 234.055C233.783 234.398 233.92 234.791 233.92 235.236C233.92 235.676 233.786 236.065 233.517 236.403C233.249 236.741 232.874 237.002 232.392 237.187C231.915 237.368 231.374 237.458 230.767 237.458C230.147 237.458 229.596 237.368 229.114 237.187C228.633 237.002 228.258 236.743 227.989 236.41C227.721 236.072 227.587 235.68 227.587 235.236C227.587 234.791 227.719 234.398 227.983 234.055C228.251 233.708 228.626 233.44 229.108 233.25C229.594 233.06 230.147 232.967 230.767 232.972ZM230.767 234.264C230.309 234.264 229.943 234.349 229.67 234.521C229.397 234.692 229.263 234.93 229.267 235.236C229.263 235.537 229.395 235.771 229.663 235.937C229.936 236.099 230.304 236.18 230.767 236.18C231.202 236.18 231.554 236.097 231.823 235.93C232.096 235.764 232.235 235.532 232.239 235.236C232.235 234.93 232.096 234.692 231.823 234.521C231.554 234.349 231.202 234.264 230.767 234.264ZM248.606 237.472H250.467V238.93H248.606V245.166H246.856V232.528H248.606V237.472ZM245.995 235.833H238.564V234.416H241.426V232.722H243.203V234.416H245.995V235.833ZM242.314 236.541C242.926 236.541 243.474 236.671 243.96 236.93C244.451 237.185 244.835 237.541 245.113 238C245.396 238.458 245.537 238.977 245.537 239.555C245.537 240.134 245.396 240.653 245.113 241.111C244.835 241.569 244.451 241.928 243.96 242.187C243.474 242.442 242.926 242.569 242.314 242.569C241.699 242.569 241.146 242.442 240.655 242.187C240.164 241.928 239.777 241.569 239.495 241.111C239.217 240.653 239.078 240.134 239.078 239.555C239.078 238.977 239.217 238.458 239.495 238C239.777 237.541 240.164 237.185 240.655 236.93C241.146 236.671 241.699 236.541 242.314 236.541ZM242.314 237.972C242.018 237.977 241.752 238.044 241.516 238.173C241.284 238.303 241.102 238.486 240.967 238.722C240.838 238.958 240.773 239.236 240.773 239.555C240.773 239.879 240.838 240.16 240.967 240.396C241.102 240.632 241.284 240.812 241.516 240.937C241.752 241.058 242.018 241.116 242.314 241.111C242.611 241.116 242.875 241.058 243.106 240.937C243.338 240.812 243.518 240.632 243.648 240.396C243.777 240.16 243.842 239.879 243.842 239.555C243.842 239.236 243.777 238.958 243.648 238.722C243.518 238.486 243.338 238.303 243.106 238.173C242.875 238.044 242.611 237.977 242.314 237.972ZM261.195 245.166H259.403V232.528H261.195V245.166ZM257.403 233.847C257.403 235.199 257.221 236.428 256.855 237.535C256.494 238.641 255.883 239.657 255.021 240.583C254.16 241.504 253.001 242.31 251.542 243L250.612 241.583C251.69 241.074 252.579 240.507 253.278 239.882C253.982 239.257 254.519 238.565 254.889 237.805C255.264 237.041 255.501 236.185 255.598 235.236H251.292V233.847H257.403Z" fill="white"/>
</g>
<defs>
<filter id="filter0_d_1671_6924" x="0" y="192" width="340" height="101.777" filterUnits="userSpaceOnUse" color-interpolation-filters="sRGB">
<feFlood flood-opacity="0" result="BackgroundImageFix"/>
<feColorMatrix in="SourceAlpha" type="matrix" values="0 0 0 0 0 0 0 0 0 0 0 0 0 0 0 0 0 0 127 0" result="hardAlpha"/>
<feOffset dx="4" dy="4"/>
<feGaussianBlur stdDeviation="5"/>
<feComposite in2="hardAlpha" operator="out"/>
<feColorMatrix type="matrix" values="0 0 0 0 0 0 0 0 0 0 0 0 0 0 0 0 0 0 0.08 0"/>
<feBlend mode="normal" in2="BackgroundImageFix" result="effect1_dropShadow_1671_6924"/>
<feBlend mode="normal" in="SourceGraphic" in2="effect1_dropShadow_1671_6924" result="shape"/>
</filter>
</defs>
</svg>
