<svg width="320" height="169" viewBox="0 0 320 169" fill="none" xmlns="http://www.w3.org/2000/svg">
<path d="M12 0.5H308C314.351 0.500004 319.5 5.64873 319.5 12V146.5H0.5V12C0.500002 5.64873 5.64873 0.5 12 0.5Z" fill="url(#paint0_linear_1671_6923)"/>
<path d="M12 0.5H308C314.351 0.500004 319.5 5.64873 319.5 12V146.5H0.5V12C0.500002 5.64873 5.64873 0.5 12 0.5Z" stroke="#F2F2F2"/>
<g filter="url(#filter0_d_1671_6923)">
<rect x="20" y="12" width="124" height="34.4615" rx="5.23077" fill="#F4FFF6" shape-rendering="crispEdges"/>
<rect x="30.4609" y="25.3086" width="7.84615" height="7.84615" rx="3.92308" fill="#119739"/>
<path d="M48.2871 22.1816C49.0397 22.1816 49.7176 22.3283 50.3208 22.6216C50.924 22.9093 51.3971 23.3105 51.7402 23.8252C52.0889 24.3398 52.266 24.9209 52.2715 25.5684C52.266 26.2214 52.0889 26.8052 51.7402 27.3198C51.3971 27.8345 50.924 28.2357 50.3208 28.5234C49.7176 28.8112 49.0397 28.9551 48.2871 28.9551C47.529 28.9551 46.8455 28.8112 46.2368 28.5234C45.6336 28.2357 45.1605 27.8345 44.8174 27.3198C44.4743 26.8052 44.3027 26.2214 44.3027 25.5684C44.3027 24.9209 44.4743 24.3398 44.8174 23.8252C45.1605 23.3105 45.6364 22.9093 46.2451 22.6216C46.8538 22.3283 47.5345 22.1816 48.2871 22.1816ZM48.2871 23.709C47.8665 23.709 47.4902 23.7865 47.1582 23.9414C46.8262 24.0908 46.5661 24.3066 46.3779 24.5889C46.1898 24.8656 46.0957 25.1921 46.0957 25.5684C46.0957 25.9502 46.1898 26.285 46.3779 26.5728C46.5661 26.855 46.8262 27.0736 47.1582 27.2285C47.4902 27.3835 47.8665 27.4609 48.2871 27.4609C48.7077 27.4609 49.084 27.3835 49.416 27.2285C49.748 27.0736 50.0081 26.855 50.1963 26.5728C50.3844 26.285 50.4785 25.9502 50.4785 25.5684C50.4785 25.1921 50.3844 24.8656 50.1963 24.5889C50.0081 24.3066 49.748 24.0908 49.416 23.9414C49.084 23.7865 48.7077 23.709 48.2871 23.709ZM56.5381 29.2871H54.6787V21.7002H56.5381V29.2871ZM56.5381 33.8525H48.4199V35.0645H56.9863V36.5254H46.6104V32.4912H54.6953V31.3789H46.5771V29.9346H56.5381V33.8525ZM63.6834 25.9668C63.6834 26.7526 63.8328 27.5439 64.1316 28.3408C64.436 29.1377 64.8704 29.8626 65.4349 30.5156C66.0049 31.1686 66.6717 31.6722 67.4354 32.0264L66.4061 33.4873C65.5815 33.0999 64.8593 32.5327 64.2396 31.7856C63.6198 31.033 63.1355 30.1725 62.7869 29.2041C62.4383 30.2611 61.943 31.1991 61.3011 32.0181C60.6591 32.8371 59.9148 33.4486 59.0682 33.8525L57.9891 32.4082C58.7583 32.043 59.4334 31.5145 60.0145 30.8228C60.601 30.131 61.0493 29.359 61.3592 28.5068C61.6746 27.6546 61.8351 26.8079 61.8406 25.9668V24.7051H58.5701V23.1777H66.8211V24.7051H63.6834V25.9668ZM70.0584 27.5439H72.366V29.0879H70.0584V36.708H68.2156V21.7002H70.0584V27.5439ZM85.0729 36.7246H83.2467V21.7002H85.0729V36.7246ZM80.4576 28.6396H75.2945V31.6611C76.5618 31.6501 77.7239 31.6058 78.7809 31.5283C79.8434 31.4508 80.928 31.318 82.0348 31.1299L82.2008 32.6406C81.011 32.8509 79.8406 32.992 78.6896 33.064C77.5385 33.1359 76.2132 33.1719 74.7135 33.1719H73.402V27.1787H78.5816V24.5059H73.3854V23.0117H80.4576V28.6396ZM104.161 34.8818H90.4484V33.3711H96.3586V30.1006H91.9592V22.8623H102.584V30.1006H98.1848V33.3711H104.161V34.8818ZM93.7687 28.6562H100.758V24.3398H93.7687V28.6562ZM113.564 24.0742H110.41C110.421 24.6663 110.571 25.2363 110.858 25.7842C111.146 26.3265 111.564 26.8107 112.112 27.2368C112.665 27.6574 113.326 27.9756 114.096 28.1914L113.166 29.6357C112.314 29.3812 111.575 28.9966 110.95 28.4819C110.33 27.9673 109.846 27.3558 109.497 26.6475C109.154 27.4111 108.661 28.0724 108.02 28.6313C107.383 29.1903 106.625 29.6081 105.745 29.8848L104.815 28.4404C105.59 28.2135 106.257 27.876 106.816 27.4277C107.375 26.9795 107.798 26.4676 108.086 25.8921C108.379 25.311 108.534 24.7051 108.551 24.0742H105.313V22.5967H113.564V24.0742ZM117.217 29.835H115.357V21.7002H117.217V29.835ZM109.115 32.043H115.374V30.499H117.217V36.5254H107.289V30.499H109.115V32.043ZM115.374 35.0312V33.4707H109.115V35.0312H115.374ZM132.663 30.084H126.72V31.3374C128.075 31.4259 129.127 31.6999 129.874 32.1592C130.621 32.613 130.997 33.2272 131.003 34.002C130.997 34.5719 130.787 35.0589 130.372 35.4629C129.957 35.8669 129.362 36.1712 128.587 36.376C127.812 36.5863 126.886 36.6914 125.806 36.6914C124.716 36.6914 123.778 36.5863 122.992 36.376C122.212 36.1712 121.615 35.8669 121.2 35.4629C120.784 35.0589 120.577 34.5719 120.577 34.002C120.577 33.2272 120.953 32.6102 121.706 32.1509C122.458 31.6916 123.521 31.4204 124.893 31.3374V30.084H118.983V28.5898H132.663V30.084ZM125.806 32.7236C124.705 32.7347 123.87 32.8481 123.3 33.064C122.73 33.2743 122.447 33.5869 122.453 34.002C122.447 34.417 122.73 34.7352 123.3 34.9565C123.875 35.1724 124.711 35.2803 125.806 35.2803C126.88 35.2803 127.705 35.1724 128.28 34.9565C128.861 34.7352 129.154 34.417 129.16 34.002C129.154 33.5924 128.864 33.2798 128.288 33.064C127.713 32.8481 126.886 32.7347 125.806 32.7236ZM131.434 23.8418H127.11C127.209 24.2568 127.469 24.647 127.89 25.0122C128.316 25.3774 128.88 25.6873 129.583 25.9419C130.292 26.1965 131.102 26.3652 132.015 26.4482L131.368 27.9092C130.018 27.7708 128.856 27.4471 127.882 26.938C126.908 26.4289 126.216 25.7925 125.806 25.0288C125.397 25.7925 124.708 26.4316 123.74 26.9463C122.777 27.4554 121.623 27.7764 120.278 27.9092L119.647 26.4482C120.538 26.3652 121.332 26.1965 122.03 25.9419C122.727 25.6873 123.289 25.3774 123.715 25.0122C124.141 24.6414 124.406 24.2513 124.512 23.8418H120.228V22.3643H131.434V23.8418Z" fill="#119739"/>
</g>
<path d="M30.1182 66.7041V73.877H28.9756V70.7031H27.6553V73.4834H26.5254V66.9199H27.6553V69.7129H28.9756V66.7041H30.1182ZM26.1064 67.999V68.9512H20.3555V67.999H22.6533V66.793H23.8467V67.999H26.1064ZM23.2373 69.4844C24.6846 69.4844 25.7002 70.2588 25.7002 71.4395C25.7002 72.6201 24.6846 73.3945 23.2373 73.3945C21.8154 73.3945 20.7998 72.6201 20.7998 71.4395C20.7998 70.2588 21.8154 69.4844 23.2373 69.4844ZM23.2373 70.373C22.4375 70.373 21.8789 70.792 21.8789 71.4395C21.8789 72.0869 22.4375 72.5186 23.2373 72.5186C24.0625 72.5186 24.6084 72.0869 24.6084 71.4395C24.6084 70.792 24.0625 70.373 23.2373 70.373ZM26.3096 74.042C28.7217 74.042 30.1689 74.7656 30.1816 76.0605C30.1689 77.3301 28.7217 78.0664 26.3096 78.0537C23.8975 78.0664 22.4502 77.3301 22.4629 76.0605C22.4502 74.7656 23.8975 74.042 26.3096 74.042ZM26.3096 74.9688C24.6211 74.9688 23.6436 75.3496 23.6562 76.0605C23.6436 76.7461 24.6211 77.1396 26.3096 77.127C28.0107 77.1396 28.9629 76.7461 28.9756 76.0605C28.9629 75.3496 28.0107 74.9688 26.3096 74.9688ZM41.7014 72.5059V73.4834H31.3293V72.5059H35.9123V71.2744H32.6877V66.9707H33.8811V68.2021H39.1496V66.9707H40.3557V71.2744H37.1057V72.5059H41.7014ZM40.4318 74.499V78.0791H39.2131V75.4639H32.4846V74.499H40.4318ZM33.8811 70.3096H39.1496V69.1035H33.8811V70.3096ZM46.1879 69.5986C46.1752 71.6172 47.3432 73.6738 49.0443 74.499L48.2953 75.4639C47.0575 74.8228 46.099 73.5469 45.6039 72.0234C45.0897 73.6484 44.0932 75.0068 42.7982 75.6797L42.0492 74.7021C43.8012 73.8643 44.9818 71.6807 44.9818 69.5986V67.6562H46.1879V69.5986ZM51.101 66.7041V71.2363H52.9291V72.2646H51.101V78.0791H49.8949V66.7041H51.101ZM62.0875 66.7168V69.4971H63.7506V70.5H62.0875V73.5596H60.8814V66.7168H62.0875ZM58.7867 67.4023V70.5889H54.8258V71.9727C56.7999 71.9663 58.1964 71.8965 59.8531 71.6172L59.9801 72.5947C58.2154 72.9121 56.7174 72.9756 54.5338 72.9629H53.6197V69.6621H57.6061V68.3799H53.607V67.4023H58.7867ZM58.4059 73.8643C60.7418 73.8643 62.1891 74.6514 62.1891 75.9717C62.1891 77.292 60.7418 78.0537 58.4059 78.0537C56.0318 78.0537 54.5846 77.292 54.5846 75.9717C54.5846 74.6514 56.0318 73.8643 58.4059 73.8643ZM58.4059 74.8164C56.7428 74.8164 55.7652 75.2354 55.7652 75.9717C55.7652 76.708 56.7428 77.1396 58.4059 77.127C60.0563 77.1396 61.0084 76.708 61.0084 75.9717C61.0084 75.2354 60.0563 74.8164 58.4059 74.8164ZM74.4705 75.6543V76.6572H64.0604V75.6543H66.5486V72.6836C65.6155 72.1694 65.0506 71.3506 65.0506 70.335C65.0506 68.5449 66.8025 67.3643 69.24 67.3643C71.6902 67.3643 73.4422 68.5449 73.4422 70.335C73.4422 71.3379 72.8963 72.144 71.9822 72.6582V75.6543H74.4705ZM69.24 68.3291C67.45 68.3291 66.2186 69.1035 66.2186 70.335C66.2186 71.5537 67.45 72.3535 69.24 72.3535C71.0174 72.3535 72.2742 71.5537 72.2742 70.335C72.2742 69.1035 71.0174 68.3291 69.24 68.3291ZM67.742 75.6543H70.7635V73.1152C70.3001 73.2358 69.7859 73.293 69.24 73.293C68.7068 73.293 68.199 73.2358 67.742 73.1279V75.6543ZM85.5205 68.3164V69.3066H83.9082V70.7539H85.5205V71.7568H83.9082V73.4199H82.7021V66.7041H83.9082V68.3164H85.5205ZM78.1699 67.3643C79.9092 67.3643 81.1914 68.4688 81.2041 70.0684C81.1914 71.6553 79.9092 72.7598 78.1699 72.7725C76.4307 72.7598 75.1357 71.6553 75.1484 70.0684C75.1357 68.4688 76.4307 67.3643 78.1699 67.3643ZM78.1699 68.3799C77.1035 68.3799 76.3164 69.0654 76.3291 70.0684C76.3164 71.084 77.1035 71.7441 78.1699 71.7568C79.2363 71.7441 80.0234 71.084 80.0234 70.0684C80.0234 69.0654 79.2363 68.3799 78.1699 68.3799ZM80.2393 73.7246C82.5625 73.7246 84.0098 74.5244 84.0098 75.8955C84.0098 77.2539 82.5625 78.0664 80.2393 78.0537C77.8906 78.0664 76.418 77.2539 76.418 75.8955C76.418 74.5244 77.8906 73.7246 80.2393 73.7246ZM80.2393 74.7021C78.5889 74.7021 77.6113 75.1338 77.624 75.8955C77.6113 76.6699 78.5889 77.0889 80.2393 77.0889C81.877 77.0889 82.8291 76.6699 82.8291 75.8955C82.8291 75.1338 81.877 74.7021 80.2393 74.7021ZM95.5803 66.7041V75.2354H94.4377V66.7041H95.5803ZM93.3205 66.9072V74.9053H92.1652V70.4873H90.5022V69.4971H92.1652V66.9072H93.3205ZM95.9104 76.8604V77.8379H88.0393V74.1943H89.2326V76.8604H95.9104ZM89.3215 69.1162C89.3215 70.4492 90.0705 71.7949 91.5178 72.4297L90.8449 73.3564C89.842 72.8994 89.1374 72.0806 88.7629 71.0967C88.3439 72.1948 87.5886 73.1406 86.5285 73.6484L85.8557 72.7217C87.3537 72.0107 88.1535 70.4619 88.1535 69.1162V67.4912H89.3215V69.1162ZM106.275 66.7041V78.1045H105.081V71.8965H102.822V70.9062H105.081V66.7041H106.275ZM102.631 67.7197V68.6973H98.5307V70.9062H102.149V71.8711H98.5307V74.4102C100.435 74.4038 101.755 74.3594 103.266 74.0928L103.393 75.0703C101.743 75.3369 100.308 75.4004 98.2006 75.4131H97.3119V67.7197H102.631Z" fill="#404040"/>
<path d="M27.9277 99.4121C31.25 99.4121 33.3242 100.555 33.3242 102.506C33.3242 104.492 31.25 105.635 27.9277 105.635C24.5352 105.635 22.4434 104.492 22.4434 102.506C22.4434 100.555 24.5352 99.4121 27.9277 99.4121ZM27.9277 101.152C25.8184 101.152 24.6758 101.592 24.6934 102.506C24.6758 103.42 25.8184 103.895 27.9277 103.895C30.002 103.895 31.1094 103.42 31.1094 102.506C31.1094 101.592 30.002 101.152 27.9277 101.152ZM33.166 89.6211V93.3301H35.3281V95.2109H33.166V99.0605H30.916V89.6211H33.166ZM23.1816 90.623V92.6445H26.4512V90.623H28.7012V98.1465H20.9492V90.623H23.1816ZM23.1816 96.3711H26.4512V94.3848H23.1816V96.3711ZM50.2063 97.5312V99.3066H44.177V102.066H41.9621V99.3066H35.5637V97.5312H50.2063ZM48.3254 90.3242V96.2129H37.3918V90.3242H48.3254ZM39.5891 92.0645V94.4727H46.1281V92.0645H39.5891ZM48.5891 103.543V105.336H37.2863V100.678H39.5188V103.543H48.5891ZM65.3305 101.908V103.754H50.6879V101.908H53.9574V97.9883C52.7182 97.25 51.9711 96.1162 51.9711 94.7012C51.9711 92.1172 54.5023 90.3945 57.9828 90.3945C61.4457 90.3945 63.9945 92.1172 64.0121 94.7012C64.0033 96.0811 63.2738 97.2061 62.0785 97.9531V101.908H65.3305ZM57.9828 92.1699C55.6977 92.1699 54.1859 93.084 54.1859 94.7012C54.1859 96.2656 55.6977 97.2324 57.9828 97.2324C60.2504 97.2324 61.7797 96.2656 61.7973 94.7012C61.7797 93.084 60.2504 92.1699 57.9828 92.1699ZM56.1723 101.908H59.8109V98.7969C59.2396 98.9111 58.6244 98.9727 57.9828 98.9727C57.3412 98.9727 56.7348 98.9199 56.1723 98.7969V101.908ZM80.5602 91.6074V93.4355H78.4859V95.0879H80.5602V96.9336H78.4859V98.9727H76.2359V89.6211H78.4859V91.6074H80.5602ZM70.2945 90.5C72.773 90.4824 74.6539 92.0996 74.6539 94.3672C74.6539 96.6348 72.773 98.2344 70.2945 98.2344C67.7984 98.2344 65.9 96.6348 65.9 94.3672C65.9 92.0996 67.7984 90.4824 70.2945 90.5ZM70.2945 92.3809C69.0289 92.3633 68.0973 93.1367 68.1148 94.3672C68.0973 95.6152 69.0289 96.3535 70.2945 96.3535C71.525 96.3535 72.4566 95.6152 72.4742 94.3672C72.4566 93.1367 71.525 92.3633 70.2945 92.3809ZM73.2477 99.2891C76.5348 99.2891 78.6441 100.484 78.6441 102.471C78.6441 104.439 76.5348 105.617 73.2477 105.617C69.8902 105.617 67.7633 104.439 67.7633 102.471C67.7633 100.484 69.8902 99.2891 73.2477 99.2891ZM73.2477 101.064C71.1383 101.064 69.9957 101.539 70.0133 102.471C69.9957 103.402 71.1383 103.842 73.2477 103.842C75.3219 103.842 76.4293 103.402 76.4293 102.471C76.4293 101.539 75.3219 101.064 73.2477 101.064ZM86.948 90.6758L82.8348 105.916H80.6023L84.698 90.6758H86.948ZM93.1426 91.2734V104H90.4883V93.7871H90.418L87.5 95.6152V93.2773L90.6465 91.2734H93.1426ZM99.6711 90.0957C102.097 90.0957 103.943 91.6074 103.943 93.752C103.943 95.8613 102.097 97.3906 99.6711 97.3906C97.1926 97.3906 95.3645 95.8613 95.3645 93.752C95.3645 91.6074 97.1926 90.0957 99.6711 90.0957ZM99.6711 91.9238C98.4406 91.9238 97.5266 92.5918 97.5441 93.752C97.5266 94.8945 98.4406 95.5801 99.6711 95.5801C100.884 95.5801 101.78 94.8945 101.78 93.752C101.78 92.5918 100.884 91.9238 99.6711 91.9238ZM108.513 89.6211V97.6367H106.263V89.6211H108.513ZM108.513 98.3047V102.646H100.005V103.684H108.952V105.441H97.8078V101.012H106.28V100.027H97.7727V98.3047H108.513ZM119.091 91.0977C121.728 91.1152 124.224 92.6797 124.224 97.3027C124.242 101.627 122.185 104.176 118.986 104.176C116.42 104.176 114.679 102.576 114.416 100.414H117.017C117.228 101.346 117.966 101.908 118.986 101.908C120.726 101.908 121.64 100.361 121.64 97.8125H121.535C120.937 98.9375 119.689 99.6055 118.265 99.6055C115.98 99.6055 114.293 97.8828 114.275 95.5098C114.275 92.9434 116.209 91.0801 119.091 91.0977ZM119.109 93.1719C117.808 93.1719 116.841 94.1738 116.859 95.4395C116.859 96.6875 117.791 97.6719 119.091 97.6719C120.375 97.6719 121.377 96.6523 121.377 95.4219C121.359 94.209 120.41 93.1719 119.109 93.1719ZM131.262 93.2422C131.262 96.1777 132.598 99.1309 135.305 100.273L133.987 102.066C132.159 101.24 130.893 99.6494 130.173 97.6719C129.443 99.8252 128.134 101.565 126.182 102.453L124.829 100.59C127.624 99.4121 128.977 96.3535 128.995 93.2422V90.8516H131.262V93.2422ZM138.434 89.6211V105.652H136.167V89.6211H138.434ZM152.838 89.6211V94.1035H155V95.9492H152.838V101.082H150.57V89.6211H152.838ZM148.479 90.8164C148.479 95.1406 145.771 98.1641 140.973 99.5176L140.041 97.7422C143.618 96.7402 145.648 94.8857 146.018 92.6445H140.744V90.8164H148.479ZM153.383 103.543V105.336H142.432V99.9043H144.699V103.543H153.383ZM168.982 99.6758V105.617H166.732V101.451H157.538V99.6758H168.982ZM168.982 89.6211V98.9375H166.732V89.6211H168.982ZM159.437 91.5547C159.437 92.9521 159.63 94.5869 160.562 95.8438C161.449 94.5957 161.652 92.9785 161.669 91.5547V90.5352H163.761V91.5547C163.761 93.5234 164.271 95.6504 166.134 96.7578L164.921 98.3398C163.814 97.6807 163.128 96.6523 162.724 95.4395C162.337 96.6963 161.678 97.8213 160.562 98.5332C159.437 97.8213 158.769 96.6963 158.382 95.4219C157.969 96.6348 157.292 97.6807 156.202 98.3398L154.972 96.7578C156.853 95.6152 157.327 93.4531 157.327 91.5547V90.5352H159.437V91.5547ZM188.648 98.4453V100.238H182.425V105.617H180.211V100.238H174.058V98.4453H188.648ZM187.347 90.4648V92.2227H182.689C182.909 93.7871 184.675 95.3604 187.962 95.7559L187.154 97.5137C184.341 97.1357 182.329 95.9316 181.371 94.2793C180.386 95.9316 178.391 97.1357 175.605 97.5137L174.779 95.7559C178.013 95.3604 179.797 93.7871 180.052 92.2227H175.377V90.4648H187.347ZM194.614 104.176C191.977 104.158 189.481 102.594 189.481 97.9355C189.481 93.6465 191.538 91.0977 194.72 91.0977C197.286 91.0977 199.026 92.7148 199.29 94.8066H196.688C196.477 93.9102 195.739 93.3652 194.72 93.3652C192.997 93.3652 192.083 94.9297 192.065 97.4258H192.188C192.768 96.3008 194.034 95.6328 195.44 95.6328C197.725 95.6328 199.43 97.3555 199.43 99.7461C199.43 102.33 197.479 104.193 194.614 104.176ZM194.596 102.084C195.897 102.084 196.864 101.1 196.864 99.8164C196.864 98.5508 195.932 97.5488 194.632 97.5488C193.331 97.5488 192.346 98.5684 192.329 99.8164C192.346 101.064 193.296 102.084 194.596 102.084ZM204.834 90.0957C207.26 90.0957 209.105 91.6074 209.105 93.752C209.105 95.8613 207.26 97.3906 204.834 97.3906C202.355 97.3906 200.527 95.8613 200.527 93.752C200.527 91.6074 202.355 90.0957 204.834 90.0957ZM204.834 91.9238C203.604 91.9238 202.689 92.5918 202.707 93.752C202.689 94.8945 203.604 95.5801 204.834 95.5801C206.047 95.5801 206.943 94.8945 206.943 93.752C206.943 92.5918 206.047 91.9238 204.834 91.9238ZM213.676 89.6211V97.6367H211.426V89.6211H213.676ZM213.676 98.3047V102.646H205.168V103.684H214.115V105.441H202.971V101.012H211.443V100.027H202.936V98.3047H213.676ZM233.729 101.908V103.754H219.086V101.908H225.256V98.6387H220.633V90.7988H232.094V98.6387H227.489V101.908H233.729ZM222.848 92.5918V96.8809H229.879V92.5918H222.848ZM243.65 90.5V92.293H240.451C240.556 93.9805 241.76 95.668 244.265 96.3535L243.14 98.0938C241.312 97.5752 240.029 96.4766 239.308 95.0703C238.579 96.5908 237.269 97.7949 235.371 98.375L234.246 96.6172C236.795 95.8789 238.034 94.1035 238.148 92.293H234.861V90.5H243.65ZM247.587 89.6211V98.3047H245.337V89.6211H247.587ZM239.097 98.9727V100.467H245.355V98.9727H247.587V105.441H236.882V98.9727H239.097ZM239.097 103.648H245.355V102.207H239.097V103.648Z" fill="#0D0D0D"/>
<g filter="url(#filter1_d_1671_6923)">
<rect x="20" y="126.01" width="94.5286" height="33.2643" rx="5.13215" fill="#F0F5FF"/>
<path d="M36.1621 137.392C36.1621 138 36.2951 138.592 36.5612 139.168C36.8272 139.738 37.2208 140.251 37.7421 140.707C38.2633 141.158 38.8931 141.508 39.6315 141.757L38.7194 143.158C37.9158 142.898 37.2208 142.504 36.6345 141.977C36.0535 141.451 35.5974 140.834 35.2662 140.129C34.935 140.916 34.4626 141.603 33.8491 142.189C33.2356 142.77 32.5026 143.202 31.6502 143.484L30.7217 142.051C31.4818 141.801 32.1307 141.437 32.6682 140.959C33.2111 140.476 33.6211 139.928 33.898 139.314C34.1803 138.695 34.3215 138.06 34.3215 137.408V137.213H31.2592V135.763H39.208V137.213H36.1621V137.392ZM43.0847 149.592H41.2767V145.797H33.051V144.347H43.0847V149.592ZM43.0847 143.647H41.2767V139.998H38.7683V138.516H41.2767V134.867H43.0847V143.647ZM56.3664 138.5H58.4188V139.998H56.3664V143.468H54.5584V134.867H56.3664V138.5ZM48.6456 145.325H54.5584V144.054H56.3664V149.413H46.8539V144.054H48.6456V145.325ZM54.5584 147.98V146.725H48.6456V147.98H54.5584ZM53.4996 137.685H44.769V136.236H48.2384V134.753H50.0464V136.236H53.4996V137.685ZM49.1343 138.19C49.8401 138.19 50.4645 138.299 51.0075 138.516C51.5504 138.728 51.9712 139.029 52.2698 139.42C52.5739 139.811 52.7286 140.264 52.7341 140.78C52.7286 141.296 52.5739 141.749 52.2698 142.14C51.9712 142.531 51.5504 142.835 51.0075 143.052C50.4645 143.264 49.8401 143.37 49.1343 143.37C48.423 143.37 47.7932 143.264 47.2448 143.052C46.7019 142.835 46.2784 142.531 45.9743 142.14C45.6703 141.749 45.5182 141.296 45.5182 140.78C45.5182 140.264 45.6703 139.811 45.9743 139.42C46.2784 139.029 46.7019 138.728 47.2448 138.516C47.7932 138.299 48.423 138.19 49.1343 138.19ZM49.1343 139.526C48.5696 139.526 48.119 139.637 47.7823 139.86C47.4457 140.082 47.2774 140.389 47.2774 140.78C47.2774 141.177 47.443 141.486 47.7742 141.709C48.1108 141.926 48.5642 142.034 49.1343 142.034C49.7044 142.034 50.1578 141.923 50.4944 141.7C50.8364 141.478 51.0075 141.171 51.0075 140.78C51.0075 140.395 50.8364 140.091 50.4944 139.868C50.1523 139.64 49.699 139.526 49.1343 139.526ZM70.7069 142.995H66.3415V146.367H72.2054V147.849H58.7511V146.367H64.5498V142.995H60.3799V135.959H70.5928V137.408H62.1879V141.562H70.7069V142.995ZM88.2464 139.819H83.8973V141.301H89.7123V142.751H76.2906V141.301H82.0893V139.819H78.0335V135.161H79.8415V138.369H88.2464V139.819ZM88.2464 145.325H86.1614V147.947H88.4093V149.413H77.6262V147.947H79.8415V145.325H77.7403V143.924H88.2464V145.325ZM84.3697 147.947V145.325H81.6332V147.947H84.3697ZM96.9836 135.161C98.064 135.161 99.0006 135.275 99.7933 135.503C100.591 135.731 101.205 136.062 101.634 136.496C102.068 136.925 102.288 137.436 102.294 138.027C102.288 138.608 102.068 139.111 101.634 139.534C101.205 139.958 100.591 140.281 99.7933 140.503C99.0006 140.726 98.064 140.834 96.9836 140.829C95.9139 140.834 94.9774 140.726 94.1738 140.503C93.3756 140.281 92.7594 139.958 92.325 139.534C91.8907 139.111 91.6735 138.608 91.6735 138.027C91.6735 137.436 91.8907 136.925 92.325 136.496C92.7594 136.062 93.3756 135.731 94.1738 135.503C94.9774 135.275 95.9139 135.161 96.9836 135.161ZM96.9836 136.578C95.8977 136.578 95.0534 136.703 94.4507 136.952C93.8534 137.202 93.5575 137.56 93.563 138.027C93.5575 138.473 93.8534 138.815 94.4507 139.054C95.0534 139.292 95.8977 139.417 96.9836 139.428C98.0695 139.417 98.9138 139.292 99.5164 139.054C100.119 138.815 100.42 138.473 100.42 138.027C100.42 137.56 100.119 137.202 99.5164 136.952C98.9138 136.703 98.0695 136.578 96.9836 136.578ZM102.082 149.413H91.869V144.461H102.082V149.413ZM93.6607 147.947H100.323V145.895H93.6607V147.947ZM103.711 143.289H90.289V141.823H103.711V143.289Z" fill="#0370FF"/>
</g>
<g filter="url(#filter2_d_1671_6923)">
<rect x="122.527" y="126" width="77.5694" height="33.2847" rx="5.14235" fill="#F0F5FF"/>
<path d="M145.592 134.857V145.515H143.764V134.857H145.592ZM146 147.832V149.301H135.832V144.438H137.66V147.832H146ZM137.546 135.82C139.782 135.82 141.512 137.371 141.512 139.509C141.512 141.696 139.782 143.214 137.546 143.214C135.293 143.214 133.563 141.696 133.563 139.509C133.563 137.371 135.293 135.82 137.546 135.82ZM137.546 137.403C136.289 137.403 135.326 138.236 135.342 139.509C135.326 140.814 136.289 141.631 137.546 141.631C138.77 141.631 139.733 140.814 139.733 139.509C139.733 138.236 138.77 137.403 137.546 137.403ZM159.651 134.841V149.595H157.823V134.841H159.651ZM155.244 136.408C155.244 140.798 153.547 144.536 148.373 146.984L147.426 145.531C151.286 143.695 153.081 141.198 153.4 137.844H148.177V136.408H155.244ZM167.997 144.062C171.196 144.079 173.22 145.091 173.236 146.837C173.22 148.551 171.196 149.579 167.997 149.579C164.815 149.579 162.774 148.551 162.774 146.837C162.774 145.091 164.815 144.079 167.997 144.062ZM167.997 145.433C165.875 145.433 164.586 145.939 164.602 146.837C164.586 147.702 165.875 148.175 167.997 148.175C170.135 148.175 171.425 147.702 171.441 146.837C171.425 145.939 170.135 145.433 167.997 145.433ZM173.138 135.543V136.767C173.138 137.926 173.138 139.166 172.73 140.684L170.935 140.521C171.302 139.084 171.327 138.048 171.327 136.979H162.921V135.543H173.138ZM174.77 141.533V143.001H161.387V141.533H166.577V138.856H168.373V141.533H174.77ZM187.426 136.196V137.616C187.409 139.444 187.409 141.5 186.838 144.585L185.01 144.389C185.581 141.516 185.581 139.419 185.598 137.648H176.784V136.196H187.426ZM188.829 146.2V147.686H175.381V146.2H180.342V141.076H182.138V146.2H188.829Z" fill="#0370FF"/>
</g>
<defs>
<filter id="filter0_d_1671_6923" x="20" y="12" width="132" height="42.4609" filterUnits="userSpaceOnUse" color-interpolation-filters="sRGB">
<feFlood flood-opacity="0" result="BackgroundImageFix"/>
<feColorMatrix in="SourceAlpha" type="matrix" values="0 0 0 0 0 0 0 0 0 0 0 0 0 0 0 0 0 0 127 0" result="hardAlpha"/>
<feOffset dx="4" dy="4"/>
<feGaussianBlur stdDeviation="2"/>
<feComposite in2="hardAlpha" operator="out"/>
<feColorMatrix type="matrix" values="0 0 0 0 0 0 0 0 0 0 0 0 0 0 0 0 0 0 0.08 0"/>
<feBlend mode="normal" in2="BackgroundImageFix" result="effect1_dropShadow_1671_6923"/>
<feBlend mode="normal" in="SourceGraphic" in2="effect1_dropShadow_1671_6923" result="shape"/>
</filter>
<filter id="filter1_d_1671_6923" x="20" y="126.01" width="103.57" height="42.3058" filterUnits="userSpaceOnUse" color-interpolation-filters="sRGB">
<feFlood flood-opacity="0" result="BackgroundImageFix"/>
<feColorMatrix in="SourceAlpha" type="matrix" values="0 0 0 0 0 0 0 0 0 0 0 0 0 0 0 0 0 0 127 0" result="hardAlpha"/>
<feOffset dx="4.52109" dy="4.52109"/>
<feGaussianBlur stdDeviation="2.26054"/>
<feComposite in2="hardAlpha" operator="out"/>
<feColorMatrix type="matrix" values="0 0 0 0 0 0 0 0 0 0 0 0 0 0 0 0 0 0 0.08 0"/>
<feBlend mode="normal" in2="BackgroundImageFix" result="effect1_dropShadow_1671_6923"/>
<feBlend mode="normal" in="SourceGraphic" in2="effect1_dropShadow_1671_6923" result="shape"/>
</filter>
<filter id="filter2_d_1671_6923" x="122.527" y="126" width="86.6047" height="42.3196" filterUnits="userSpaceOnUse" color-interpolation-filters="sRGB">
<feFlood flood-opacity="0" result="BackgroundImageFix"/>
<feColorMatrix in="SourceAlpha" type="matrix" values="0 0 0 0 0 0 0 0 0 0 0 0 0 0 0 0 0 0 127 0" result="hardAlpha"/>
<feOffset dx="4.5172" dy="4.5172"/>
<feGaussianBlur stdDeviation="2.2586"/>
<feComposite in2="hardAlpha" operator="out"/>
<feColorMatrix type="matrix" values="0 0 0 0 0 0 0 0 0 0 0 0 0 0 0 0 0 0 0.08 0"/>
<feBlend mode="normal" in2="BackgroundImageFix" result="effect1_dropShadow_1671_6923"/>
<feBlend mode="normal" in="SourceGraphic" in2="effect1_dropShadow_1671_6923" result="shape"/>
</filter>
<linearGradient id="paint0_linear_1671_6923" x1="160" y1="0" x2="160" y2="147" gradientUnits="userSpaceOnUse">
<stop stop-color="white"/>
<stop offset="0.900919" stop-color="white"/>
<stop offset="1" stop-color="white" stop-opacity="0"/>
</linearGradient>
</defs>
</svg>
