<svg xmlns="http://www.w3.org/2000/svg" width="14" height="14" viewBox="0 0 14 14" fill="none">
  <path d="M12.6627 2.75131C12.9558 2.85433 13.2097 3.04583 13.3893 3.29936C13.569 3.55289 13.6654 3.85594 13.6654 4.16665V10.8333C13.6654 11.5848 13.3669 12.3054 12.8355 12.8368C12.3041 13.3681 11.5835 13.6666 10.832 13.6666H4.16536C3.85466 13.6667 3.55161 13.5702 3.29808 13.3906C3.04455 13.211 2.85305 12.9571 2.75003 12.664L4.14803 12.6666H10.832C11.3183 12.6666 11.7846 12.4735 12.1284 12.1297C12.4722 11.7859 12.6654 11.3195 12.6654 10.8333V4.16665L12.6627 4.13265V2.75131ZM10.496 0.333313C10.8939 0.333313 11.2754 0.491348 11.5567 0.772653C11.838 1.05396 11.996 1.43549 11.996 1.83331V10.498C11.996 10.8958 11.838 11.2773 11.5567 11.5586C11.2754 11.8399 10.8939 11.998 10.496 11.998H1.83203C1.43421 11.998 1.05268 11.8399 0.771371 11.5586C0.490066 11.2773 0.332031 10.8958 0.332031 10.498V1.83331C0.332031 1.43549 0.490066 1.05396 0.771371 0.772653C1.05268 0.491348 1.43421 0.333313 1.83203 0.333313H10.496ZM10.496 1.33331H1.83203C1.69942 1.33331 1.57225 1.38599 1.47848 1.47976C1.38471 1.57353 1.33203 1.7007 1.33203 1.83331V10.498C1.33203 10.774 1.55603 10.998 1.83203 10.998H10.4967C10.6293 10.998 10.7565 10.9453 10.8503 10.8515C10.944 10.7578 10.9967 10.6306 10.9967 10.498V1.83331C10.9967 1.7007 10.944 1.57353 10.8503 1.47976C10.7565 1.38599 10.6286 1.33331 10.496 1.33331ZM6.16536 3.49998C6.29797 3.49998 6.42515 3.55266 6.51892 3.64643C6.61269 3.74019 6.66536 3.86737 6.66536 3.99998V5.66665H8.33203C8.46464 5.66665 8.59182 5.71932 8.68558 5.81309C8.77935 5.90686 8.83203 6.03404 8.83203 6.16665C8.83203 6.29925 8.77935 6.42643 8.68558 6.5202C8.59182 6.61397 8.46464 6.66665 8.33203 6.66665H6.66536V8.33331C6.66536 8.46592 6.61269 8.5931 6.51892 8.68687C6.42515 8.78063 6.29797 8.83331 6.16536 8.83331C6.03276 8.83331 5.90558 8.78063 5.81181 8.68687C5.71804 8.5931 5.66536 8.46592 5.66536 8.33331V6.66665H3.9987C3.86609 6.66665 3.73891 6.61397 3.64514 6.5202C3.55138 6.42643 3.4987 6.29925 3.4987 6.16665C3.4987 6.03404 3.55138 5.90686 3.64514 5.81309C3.73891 5.71932 3.86609 5.66665 3.9987 5.66665H5.66536V3.99998C5.66536 3.86737 5.71804 3.74019 5.81181 3.64643C5.90558 3.55266 6.03276 3.49998 6.16536 3.49998Z" fill="currentColor"/>
</svg>