<svg width="22" height="22" viewBox="0 0 22 22" fill="none" xmlns="http://www.w3.org/2000/svg">
<g clip-path="url(#clip0_2_36668)">
<path d="M7.88268 15.0332C7.08222 15.771 6.02742 16.1707 4.93901 16.1485C3.8506 16.1264 2.81292 15.6842 2.04314 14.9144C1.27336 14.1446 0.831121 13.1069 0.808979 12.0185C0.786837 10.9301 1.1865 9.87529 1.92434 9.07483L9.07434 1.92483C9.8748 1.18699 10.9296 0.787325 12.018 0.809467C13.1064 0.831609 14.1441 1.27384 14.9139 2.04363C15.6837 2.81341 16.1259 3.85108 16.148 4.9395C16.1702 6.02791 15.7705 7.08271 15.0327 7.88316M5.49843 5.49891L9.39426 9.39475" stroke="#404040" stroke-width="1.375" stroke-linecap="round" stroke-linejoin="round"/>
<path d="M15.8123 13.75V17.875M13.7498 15.8125H17.8748M21.3123 14.4375C21.3152 16.0384 20.7717 17.5924 19.7716 18.8425C18.7715 20.0926 17.3748 20.9639 15.8123 21.3125C14.2498 20.9639 12.853 20.0926 11.8529 18.8425C10.8529 17.5924 10.3093 16.0384 10.3123 14.4375V12.375C10.3123 12.0103 10.4571 11.6606 10.715 11.4027C10.9729 11.1449 11.3226 11 11.6873 11H19.9373C20.3019 11 20.6517 11.1449 20.9095 11.4027C21.1674 11.6606 21.3123 12.0103 21.3123 12.375V14.4375Z" stroke="#404040" stroke-width="1.375" stroke-linecap="round" stroke-linejoin="round"/>
</g>
<defs>
<clipPath id="clip0_2_36668">
<rect width="22" height="22" fill="white"/>
</clipPath>
</defs>
</svg>
