<svg width="22" height="22" viewBox="0 0 22 22" fill="none" xmlns="http://www.w3.org/2000/svg">
<path d="M16.9587 2.75586L13.8053 5.90919C13.5478 6.16701 13.4032 6.51648 13.4032 6.88086C13.4032 7.24524 13.5478 7.59471 13.8053 7.85253L14.4378 8.48503M14.4378 8.48503L15.0703 9.11753C15.3281 9.37502 15.6776 9.51965 16.042 9.51965C16.4064 9.51965 16.7558 9.37502 17.0137 9.11753L20.167 5.96419M14.4378 8.48503L3.66699 19.2559M18.3337 4.58644L16.042 6.87811" stroke="#404040" stroke-width="1.375" stroke-linecap="round" stroke-linejoin="round"/>
<path d="M7.32451 8.24344C6.22909 9.33794 4.72759 9.61202 3.35901 8.24344C1.99042 6.87486 1.27267 4.38244 2.36717 3.28702C3.46259 2.19344 5.95501 2.91027 7.32451 4.27886C8.69401 5.64744 8.41992 7.14802 7.32451 8.24344ZM7.32451 8.24344L18.3337 19.2535M8.43826 2.19986C9.27078 1.95801 10.1334 1.83548 11.0003 1.83594C12.0563 1.83594 13.0702 2.01469 14.0143 2.34286M1.87859 10.0859C1.84865 10.3878 1.83367 10.6934 1.83367 11.0026C1.83367 12.8653 2.38917 14.5978 3.34342 16.0443M7.12559 19.3122C8.30259 19.8622 9.61526 20.1693 11.0003 20.1693C12.3509 20.17 13.685 19.8724 14.9072 19.2975M18.6563 16.0443C19.6444 14.5487 20.1698 12.7951 20.167 11.0026C20.1658 10.4722 20.1221 9.95394 20.0359 9.44794" stroke="#404040" stroke-width="1.375" stroke-linecap="round"/>
</svg>
