<svg width="22" height="22" viewBox="0 0 22 22" fill="none" xmlns="http://www.w3.org/2000/svg">
<path d="M10.3125 5.5C10.3125 5.68234 10.2401 5.8572 10.1111 5.98614C9.9822 6.11507 9.80734 6.1875 9.625 6.1875H8.25C8.06766 6.1875 7.8928 6.11507 7.76386 5.98614C7.63493 5.8572 7.5625 5.68234 7.5625 5.5C7.5625 5.31766 7.63493 5.1428 7.76386 5.01386C7.8928 4.88493 8.06766 4.8125 8.25 4.8125H9.625C9.80734 4.8125 9.9822 4.88493 10.1111 5.01386C10.2401 5.1428 10.3125 5.31766 10.3125 5.5ZM14.8088 16.9417L15.1112 19.0558C15.1391 19.2508 15.1247 19.4495 15.069 19.6385C15.0134 19.8274 14.9178 20.0022 14.7887 20.151C14.6596 20.2998 14.5001 20.4191 14.3209 20.5009C14.1417 20.5827 13.947 20.625 13.75 20.625H8.25C8.05302 20.625 7.85833 20.5827 7.67913 20.5009C7.49992 20.4191 7.34038 20.2998 7.2113 20.151C7.08223 20.0022 6.98663 19.8274 6.93098 19.6385C6.87533 19.4495 6.86093 19.2508 6.88875 19.0558L7.19125 16.9417C5.85312 16.2443 4.73166 15.1936 3.94868 13.9037C3.1657 12.6138 2.75113 11.134 2.75 9.625C2.75 9.44266 2.82243 9.2678 2.95136 9.13886C3.0803 9.00993 3.25516 8.9375 3.4375 8.9375H4.8125V3.4375C4.8125 3.07283 4.95737 2.72309 5.21523 2.46523C5.47309 2.20737 5.82283 2.0625 6.1875 2.0625H15.8125C16.1772 2.0625 16.5269 2.20737 16.7848 2.46523C17.0426 2.72309 17.1875 3.07283 17.1875 3.4375V8.9375H18.5625C18.7448 8.9375 18.9197 9.00993 19.0486 9.13886C19.1776 9.2678 19.25 9.44266 19.25 9.625C19.2489 11.134 18.8343 12.6138 18.0513 13.9037C17.2683 15.1936 16.1469 16.2443 14.8088 16.9417ZM6.1875 8.9375H15.8125V3.4375H6.1875V8.9375ZM13.4982 17.4883C11.8726 18.0039 10.1274 18.0039 8.5018 17.4883L8.25 19.25H13.75L13.4982 17.4883ZM17.8406 10.3125H4.15938C4.32961 12.0085 5.12378 13.5807 6.38779 14.7242C7.6518 15.8677 9.29551 16.5009 11 16.5009C12.7045 16.5009 14.3482 15.8677 15.6122 14.7242C16.8762 13.5807 17.6704 12.0085 17.8406 10.3125Z" fill="#404040"/>
</svg>
