<svg width="22" height="22" viewBox="0 0 22 22" fill="none" xmlns="http://www.w3.org/2000/svg">
<path d="M9.79688 4.96289C9.79688 5.28198 9.92363 5.588 10.1493 5.81363C10.3749 6.03926 10.6809 6.16602 11 6.16602C11.3191 6.16602 11.6251 6.03926 11.8507 5.81363C12.0764 5.588 12.2031 5.28198 12.2031 4.96289C12.2031 4.6438 12.0764 4.33778 11.8507 4.11215C11.6251 3.88652 11.3191 3.75977 11 3.75977C10.6809 3.75977 10.3749 3.88652 10.1493 4.11215C9.92363 4.33778 9.79688 4.6438 9.79688 4.96289ZM9.79688 10.9785C9.79688 11.2976 9.92363 11.6036 10.1493 11.8293C10.3749 12.0549 10.6809 12.1816 11 12.1816C11.3191 12.1816 11.6251 12.0549 11.8507 11.8293C12.0764 11.6036 12.2031 11.2976 12.2031 10.9785C12.2031 10.6594 12.0764 10.3534 11.8507 10.1278C11.6251 9.90215 11.3191 9.77539 11 9.77539C10.6809 9.77539 10.3749 9.90215 10.1493 10.1278C9.92363 10.3534 9.79688 10.6594 9.79688 10.9785ZM9.79688 16.9941C9.79688 17.3132 9.92363 17.6192 10.1493 17.8449C10.3749 18.0705 10.6809 18.1973 11 18.1973C11.3191 18.1973 11.6251 18.0705 11.8507 17.8449C12.0764 17.6192 12.2031 17.3132 12.2031 16.9941C12.2031 16.6751 12.0764 16.369 11.8507 16.1434C11.6251 15.9178 11.3191 15.791 11 15.791C10.6809 15.791 10.3749 15.9178 10.1493 16.1434C9.92363 16.369 9.79688 16.6751 9.79688 16.9941Z" fill="black"/>
</svg>
