<svg width="60" height="60" viewBox="0 0 60 60" fill="none" xmlns="http://www.w3.org/2000/svg">
<path d="M52.9228 25.2402C53.7194 25.2402 54.3652 24.5944 54.3652 23.7978C54.3652 23.0012 53.7194 22.3555 52.9228 22.3555C52.1262 22.3555 51.4805 23.0012 51.4805 23.7978C51.4805 24.5944 52.1262 25.2402 52.9228 25.2402Z" fill="#F0F5FF"/>
<path d="M30.0015 55.5196C44.1611 55.5196 55.6397 51.0166 55.6397 45.4619C55.6397 39.9073 44.1611 35.4043 30.0015 35.4043C15.8419 35.4043 4.36328 39.9073 4.36328 45.4619C4.36328 51.0166 15.8419 55.5196 30.0015 55.5196Z" fill="#F0F5FF"/>
<path d="M29.175 9.24609L28.1097 15.9239H21.1875L29.175 9.24609Z" fill="#D0D5DD"/>
<path d="M28.1099 16.0802H21.1877C21.1217 16.0802 21.0634 16.0393 21.0405 15.9775C21.0183 15.9156 21.037 15.8462 21.087 15.8045L29.0745 9.12606C29.1245 9.08439 29.1954 9.07815 29.2516 9.11009C29.3085 9.14203 29.3391 9.20592 29.3287 9.27051L28.2634 15.949C28.2523 16.0247 28.187 16.0802 28.1099 16.0802ZM21.6183 15.7677H27.9766L28.9551 9.6337L21.6183 15.7677Z" fill="#F0F5FF"/>
<path d="M29.8124 21.7961C29.7645 21.7961 29.7166 21.7738 29.6861 21.7322L29.2645 21.1572C29.2173 21.0926 29.2263 21.0023 29.2861 20.9481C29.3458 20.8947 29.4368 20.8947 29.4958 20.9495C29.4986 20.9523 29.502 20.9551 29.5048 20.9586C29.5076 20.9613 29.5104 20.9648 29.5124 20.9676C29.5194 20.9759 29.527 20.987 29.5347 20.9974L29.9381 21.5474C29.9888 21.6169 29.9743 21.7148 29.9048 21.7655C29.877 21.7863 29.8451 21.7961 29.8124 21.7961Z" fill="#F0F5FF"/>
<mask id="mask0_95_377" style="mask-type:luminance" maskUnits="userSpaceOnUse" x="29" y="20" width="1" height="2">
<path d="M29.8124 21.7941C29.7645 21.7941 29.7166 21.7719 29.6861 21.7302L29.2645 21.1552C29.2173 21.0906 29.2263 21.0003 29.2861 20.9462C29.3458 20.8927 29.4368 20.8927 29.4958 20.9476C29.4986 20.9503 29.502 20.9531 29.5048 20.9566C29.5076 20.9594 29.5104 20.9628 29.5124 20.9656C29.5194 20.974 29.527 20.9851 29.5347 20.9955L29.9381 21.5455C29.9888 21.6149 29.9743 21.7128 29.9048 21.7635C29.877 21.7844 29.8451 21.7941 29.8124 21.7941Z" fill="white"/>
</mask>
<g mask="url(#mask0_95_377)">
<path d="M29.7222 21.4807L31.4736 23.8682C31.3694 23.7259 31.2583 23.5877 31.1403 23.453C29.8451 21.9773 27.9569 21.2391 25.9514 21.2391C25.0812 21.2391 24.1896 21.378 23.3139 21.6557L21.5625 19.2682C22.4382 18.9905 23.3299 18.8516 24.2 18.8516C26.2056 18.8516 28.0938 19.5898 29.3889 21.0655C29.5069 21.2002 29.6181 21.3384 29.7222 21.4807Z" fill="#667185"/>
<path d="M31.4746 24.0245C31.4267 24.0245 31.3788 24.0023 31.3482 23.9606C31.2469 23.8217 31.1371 23.6856 31.0232 23.5557C29.8003 22.1627 27.9996 21.3953 25.9517 21.3953C25.0885 21.3953 24.2177 21.5328 23.3614 21.8043C23.2976 21.8245 23.2281 21.8016 23.1878 21.7481L21.4364 19.3606C21.4066 19.3203 21.3983 19.2675 21.4142 19.2196C21.4295 19.1717 21.4677 19.1342 21.5156 19.1189C22.4024 18.8377 23.3052 18.6953 24.2003 18.6953C26.3392 18.6953 28.2239 19.5002 29.5066 20.962C29.6267 21.0988 29.7413 21.2425 29.8489 21.3884L31.5989 23.7745C31.5996 23.7752 31.5996 23.7759 31.6003 23.7759C31.651 23.8453 31.6364 23.9432 31.567 23.9946C31.5392 24.0148 31.5073 24.0245 31.4746 24.0245ZM25.9524 21.0828C27.5559 21.0828 29.0163 21.5356 30.1878 22.378L29.5976 21.5731C29.4962 21.4342 29.3864 21.2981 29.2726 21.1682C28.0496 19.7752 26.2489 19.0078 24.201 19.0078C23.408 19.0078 22.608 19.1238 21.8198 19.3536L23.3746 21.4738C24.2267 21.2141 25.0934 21.0828 25.9524 21.0828Z" fill="#F0F5FF"/>
</g>
<path d="M20.5501 32.5108C20.5071 32.5108 20.4647 32.4934 20.4335 32.4587L20.4092 32.4309C20.3286 32.3385 20.2515 32.2427 20.18 32.1455L18.4286 29.758C18.3779 29.6885 18.3925 29.5906 18.4619 29.5399C18.5314 29.4892 18.6293 29.5038 18.6807 29.5733L18.6821 29.5753C18.748 29.6649 18.8189 29.7531 18.8932 29.8378L18.9154 29.8628C18.9189 29.867 18.9224 29.8705 18.9251 29.8747L20.6765 32.2622C20.7258 32.3295 20.714 32.4233 20.6487 32.476C20.6196 32.4997 20.5842 32.5108 20.5501 32.5108Z" fill="#F0F5FF"/>
<mask id="mask1_95_377" style="mask-type:luminance" maskUnits="userSpaceOnUse" x="18" y="29" width="3" height="4">
<path d="M20.5501 32.5088C20.5071 32.5088 20.4647 32.4915 20.4335 32.4567L20.4092 32.4289C20.3286 32.3366 20.2515 32.2408 20.18 32.1435L18.4286 29.756C18.3779 29.6866 18.3925 29.5887 18.4619 29.538C18.5314 29.4873 18.6293 29.5019 18.6807 29.5713L18.6821 29.5734C18.748 29.663 18.8189 29.7512 18.8932 29.8359L18.9154 29.8609C18.9189 29.8651 18.9224 29.8685 18.9251 29.8727L20.6765 32.2602C20.7258 32.3276 20.714 32.4213 20.6487 32.4741C20.6196 32.4977 20.5842 32.5088 20.5501 32.5088Z" fill="white"/>
</mask>
<g mask="url(#mask1_95_377)">
<g opacity="0.6">
<path d="M18.9262 30.1016L20.6776 32.4891C20.6262 32.4363 20.5755 32.3821 20.5269 32.3266C20.4484 32.2377 20.3748 32.1453 20.3061 32.0516L18.5547 29.6641C18.6234 29.7578 18.6971 29.8502 18.7755 29.9391C18.8241 29.9946 18.8748 30.0488 18.9262 30.1016Z" fill="#667185"/>
<path d="M20.6779 32.6449C20.6369 32.6449 20.5967 32.629 20.5661 32.5977C20.5119 32.5428 20.4592 32.4859 20.4092 32.4289C20.3286 32.3373 20.2515 32.2414 20.18 32.1435L18.4286 29.756C18.3779 29.6866 18.3925 29.5887 18.4619 29.538C18.5314 29.4873 18.6293 29.5019 18.6807 29.5713L18.6821 29.5734C18.748 29.663 18.8189 29.7512 18.8932 29.8359C18.9397 29.8887 18.9883 29.9415 19.0383 29.9921C19.0439 29.9977 19.048 30.0033 19.0529 30.0088L20.8043 32.3963C20.8529 32.4623 20.8418 32.5546 20.7793 32.6081C20.7501 32.6331 20.714 32.6449 20.6779 32.6449Z" fill="#F0F5FF"/>
</g>
</g>
<path d="M20.6765 32.6496C20.6356 32.6496 20.5953 32.6337 20.5647 32.6024C20.5196 32.5566 20.4751 32.5094 20.4321 32.4608C20.4307 32.4587 20.4286 32.4573 20.4272 32.4552C20.4092 32.433 20.3883 32.4038 20.3689 32.3767L20.3474 32.3469L18.671 30.0614C18.6217 29.9941 18.6335 29.9003 18.6988 29.8476C18.7633 29.7948 18.8578 29.8024 18.9133 29.8649C18.9536 29.9094 18.9946 29.9531 19.0363 29.9962C19.0411 30.0017 19.046 30.0073 19.0508 30.0128L20.8022 32.4003C20.8508 32.4663 20.8397 32.5587 20.7772 32.6121C20.7481 32.6378 20.7126 32.6496 20.6765 32.6496Z" fill="#F0F5FF"/>
<mask id="mask2_95_377" style="mask-type:luminance" maskUnits="userSpaceOnUse" x="18" y="29" width="3" height="4">
<path d="M20.6765 32.6496C20.6356 32.6496 20.5953 32.6337 20.5647 32.6024C20.5196 32.5566 20.4751 32.5094 20.4321 32.4608C20.4307 32.4587 20.4286 32.4573 20.4272 32.4552C20.4092 32.433 20.3883 32.4038 20.3689 32.3767L20.3474 32.3469L18.671 30.0614C18.6217 29.9941 18.6335 29.9003 18.6988 29.8476C18.7633 29.7948 18.8578 29.8024 18.9133 29.8649C18.9536 29.9094 18.9946 29.9531 19.0363 29.9962C19.0411 30.0017 19.046 30.0073 19.0508 30.0128L20.8022 32.4003C20.8508 32.4663 20.8397 32.5587 20.7772 32.6121C20.7481 32.6378 20.7126 32.6496 20.6765 32.6496Z" fill="white"/>
</mask>
<g mask="url(#mask2_95_377)">
<g opacity="0.6">
<path d="M18.9262 30.1055L20.6776 32.493C20.6262 32.4402 20.5755 32.386 20.5269 32.3305C20.4484 32.2416 20.3748 32.1492 20.3061 32.0555L18.5547 29.668C18.6234 29.7617 18.6971 29.8541 18.7755 29.943C18.8241 29.9985 18.8748 30.0527 18.9262 30.1055Z" fill="#667185"/>
<path d="M20.6779 32.6488C20.6369 32.6488 20.5967 32.6329 20.5661 32.6016C20.5119 32.5467 20.4592 32.4898 20.4092 32.4329C20.3286 32.3412 20.2515 32.2454 20.18 32.1474L18.4286 29.7599C18.3779 29.6905 18.3925 29.5926 18.4619 29.5419C18.5314 29.4912 18.6293 29.5058 18.6807 29.5752L18.6821 29.5773C18.748 29.6669 18.8189 29.7551 18.8932 29.8398C18.9397 29.8926 18.9883 29.9454 19.0383 29.9961C19.0439 30.0016 19.048 30.0072 19.0529 30.0127L20.8043 32.4002C20.8529 32.4662 20.8418 32.5586 20.7793 32.612C20.7501 32.637 20.714 32.6488 20.6779 32.6488Z" fill="#F0F5FF"/>
</g>
</g>
<path d="M28.0146 27.1732C27.9729 27.3051 27.925 27.4378 27.8723 27.5683C27.7591 27.8489 27.6216 28.1246 27.4598 28.3919C27.382 28.5204 27.2993 28.6475 27.2098 28.7725C26.907 29.1996 26.5389 29.601 26.1084 29.96C24.9368 30.9398 23.5285 31.4287 22.1979 31.4287C20.8681 31.4287 19.616 30.9392 18.7577 29.96C17.0389 28.0017 17.5452 24.828 19.8875 22.8711C21.0591 21.8912 22.4674 21.4023 23.7979 21.4023C25.1278 21.4023 26.3799 21.8919 27.2382 22.8711C27.2632 22.8996 27.2868 22.9273 27.3091 22.9558C27.4209 23.0905 27.5236 23.2315 27.6153 23.3753C27.7813 23.6364 27.9125 23.9107 28.0139 24.1982C28.066 24.344 28.1091 24.4933 28.1431 24.6447C28.3313 25.4544 28.2834 26.3266 28.0146 27.1732Z" fill="#E4E7EC"/>
<path d="M28.1407 24.6445H23.5601C23.0768 24.6445 22.7442 24.2674 22.8192 23.8008C22.8935 23.3341 23.3455 22.957 23.8296 22.957H27.3073C27.4192 23.0918 27.5219 23.2327 27.6136 23.3765C27.7796 23.6376 27.9108 23.9119 28.0122 24.1994C28.0636 24.3438 28.1067 24.4931 28.1407 24.6445Z" fill="#98A2B3"/>
<path d="M28.0134 27.1726C27.9717 27.3045 27.9238 27.4372 27.871 27.5677C27.7578 27.8483 27.6203 28.124 27.4585 28.3913C27.3808 28.5198 27.2981 28.6469 27.2085 28.7719H22.8558C22.3967 28.7719 22.0842 28.4135 22.1544 27.9719C22.2252 27.5302 22.653 27.1719 23.1106 27.1719H28.0134V27.1726Z" fill="#98A2B3"/>
<path d="M29.3137 9.13086H48.6366L48.3415 10.9822L43.2637 42.8198H18.8179H16.8984L18.4339 33.1906C19.445 33.7142 20.5991 33.976 21.7943 33.976C23.4005 33.976 25.0818 33.5031 26.595 32.5566H40.1436C40.379 32.5566 40.5977 32.3732 40.6345 32.1461C40.6707 31.9204 40.5096 31.7371 40.2748 31.7371H27.7179C28.8651 30.7704 29.7158 29.6093 30.2519 28.3829H40.8095C41.045 28.3829 41.2637 28.1996 41.2998 27.9739C41.3359 27.7475 41.1748 27.5635 40.9401 27.5635H30.5616C30.9179 26.4461 31.0165 25.2982 30.847 24.2093H41.4748C41.7102 24.2093 41.929 24.026 41.9651 23.8003C42.0012 23.5739 41.8401 23.3899 41.6054 23.3899H30.6644C30.4172 22.5475 29.9957 21.7586 29.3922 21.0691C28.0971 19.5934 26.2089 18.8552 24.2033 18.8552C23.0089 18.8552 21.7734 19.117 20.5957 19.6399L21.188 15.9239H28.1102L29.1755 9.24683L29.3137 9.13086ZM39.4783 36.7295C39.7137 36.7295 39.9325 36.5461 39.9693 36.3191C40.0054 36.0934 39.8443 35.91 39.6095 35.91H23.1269C22.8929 35.91 22.6734 36.0934 22.6373 36.3191C22.6012 36.5454 22.7623 36.7295 22.9964 36.7295H39.4783ZM42.1408 20.0364C42.3762 20.0364 42.595 19.8531 42.6311 19.6274C42.6672 19.401 42.5061 19.217 42.2714 19.217H31.0984C30.8637 19.217 30.645 19.4003 30.6089 19.6274C30.5727 19.8531 30.7325 20.0364 30.9679 20.0364H42.1408Z" fill="#F7F9FC"/>
<path d="M43.2635 42.9754H16.8982C16.8524 42.9754 16.8093 42.9553 16.7795 42.9206C16.7496 42.8858 16.7371 42.84 16.7441 42.7949L18.2802 33.1657C18.2878 33.1164 18.3191 33.0734 18.3642 33.0511C18.4086 33.0282 18.4621 33.0289 18.5066 33.0518C19.4774 33.5546 20.6142 33.8199 21.7948 33.8199C23.4218 33.8199 25.0531 33.3372 26.5121 32.424C26.5371 32.4088 26.5656 32.4004 26.5948 32.4004H40.1434C40.3017 32.4004 40.4559 32.2727 40.4795 32.122C40.4892 32.0609 40.4753 32.0039 40.4399 31.9622C40.4024 31.9178 40.3434 31.8935 40.2739 31.8935H27.7177C27.6517 31.8935 27.5934 31.8525 27.5711 31.7907C27.5489 31.7289 27.567 31.6602 27.617 31.6178C28.7045 30.7011 29.5663 29.5609 30.1086 28.3206C30.1336 28.2636 30.1899 28.2268 30.2517 28.2268H40.8093C40.9677 28.2268 41.1218 28.0997 41.1455 27.949C41.1552 27.8872 41.1413 27.8303 41.1059 27.7886C41.0684 27.7442 41.0093 27.7199 40.9399 27.7199H30.5614C30.5114 27.7199 30.4649 27.6963 30.435 27.656C30.4059 27.6157 30.3975 27.5636 30.4121 27.5164C30.76 26.4254 30.8566 25.29 30.692 24.2338C30.685 24.1886 30.6982 24.1428 30.7274 24.1081C30.7566 24.0734 30.8003 24.0532 30.8461 24.0532H41.4739C41.6323 24.0532 41.7864 23.9261 41.81 23.7754C41.8198 23.7136 41.8059 23.6567 41.7705 23.615C41.733 23.5706 41.6739 23.5463 41.6045 23.5463H30.6642C30.5948 23.5463 30.5336 23.5004 30.5142 23.4338C30.267 22.59 29.8496 21.8289 29.2739 21.172C28.051 19.7789 26.2503 19.0115 24.2024 19.0115C23.0191 19.0115 21.7934 19.2782 20.6579 19.7831C20.6059 19.806 20.5448 19.799 20.4989 19.7643C20.4531 19.7296 20.4309 19.6727 20.4399 19.6157L21.0323 15.8997C21.0441 15.824 21.11 15.7678 21.1864 15.7678H27.9753L29.0191 9.22196C29.0246 9.18516 29.0441 9.15113 29.0725 9.12682L29.2114 9.00946C29.2399 8.98585 29.2753 8.97266 29.3121 8.97266H48.6364C48.6823 8.97266 48.7253 8.9928 48.7552 9.02752C48.785 9.06224 48.7975 9.10807 48.7906 9.15321L43.4177 42.8421C43.4059 42.9199 43.3406 42.9754 43.2635 42.9754ZM17.0809 42.6629H43.1302L48.4531 9.28655H29.3704L29.3198 9.3296L28.2642 15.9497C28.2524 16.0254 28.1864 16.0817 28.11 16.0817H21.3211L20.7941 19.3865C21.8948 18.9365 23.067 18.6997 24.2031 18.6997C26.342 18.6997 28.2267 19.5046 29.5093 20.9664C30.0892 21.6289 30.5163 22.3907 30.7802 23.2338H41.6059C41.7656 23.2338 41.9128 23.299 42.0093 23.4122C42.1052 23.5247 42.1448 23.6713 42.1198 23.8247C42.0711 24.1282 41.7878 24.3657 41.4746 24.3657H31.0267C31.1531 25.3511 31.0656 26.3949 30.7718 27.4074H40.9399C41.0996 27.4074 41.2468 27.4727 41.3434 27.5859C41.4392 27.6984 41.4788 27.8449 41.4538 27.9984C41.4052 28.3018 41.1218 28.5393 40.8086 28.5393H30.3531C29.8441 29.6657 29.0816 30.7081 28.1316 31.581H40.2739C40.4336 31.581 40.5809 31.6463 40.6774 31.7595C40.7732 31.872 40.8121 32.0178 40.7878 32.1713C40.7392 32.4747 40.4559 32.7129 40.1427 32.7129H26.6392C25.1399 33.6421 23.4656 34.1324 21.7941 34.1324C20.6406 34.1324 19.526 33.8886 18.5545 33.4247L17.0809 42.6629ZM39.4781 36.8859H22.9961C22.8371 36.8859 22.6899 36.8213 22.5934 36.7074C22.4975 36.5949 22.4579 36.4484 22.4829 36.2942C22.5316 35.9907 22.8142 35.7532 23.1267 35.7532H39.6086C39.7684 35.7532 39.9156 35.8185 40.0121 35.9317C40.108 36.0442 40.1468 36.19 40.1225 36.3435C40.0746 36.6477 39.7913 36.8859 39.4781 36.8859ZM23.1267 36.0664C22.9691 36.0664 22.8156 36.1935 22.7913 36.3442C22.7816 36.406 22.7954 36.4636 22.8309 36.5053C22.8684 36.5497 22.9274 36.574 22.9955 36.574H39.4774C39.6357 36.574 39.7899 36.4463 39.8135 36.2956C39.8232 36.2345 39.8093 36.1775 39.7739 36.1359C39.7364 36.0914 39.6774 36.0671 39.608 36.0671H23.1267V36.0664ZM42.1406 20.1928H30.9677C30.8079 20.1928 30.6614 20.1282 30.5649 20.015C30.4691 19.9025 30.4302 19.7567 30.4545 19.6032C30.5031 19.299 30.7857 19.0615 31.0982 19.0615H42.2711C42.4309 19.0615 42.5781 19.1268 42.6746 19.24C42.7704 19.3525 42.81 19.499 42.785 19.6525C42.7371 19.9553 42.4538 20.1928 42.1406 20.1928ZM31.0982 19.3734C30.9406 19.3734 30.7871 19.5011 30.7628 19.6518C30.7531 19.7136 30.767 19.7706 30.8024 19.8115C30.8399 19.8553 30.8982 19.8796 30.9677 19.8796H42.1406C42.2989 19.8796 42.4531 19.7525 42.4767 19.6018C42.4864 19.54 42.4725 19.4831 42.4371 19.4414C42.3996 19.397 42.3406 19.3727 42.2711 19.3727H31.0982V19.3734Z" fill="#F0F5FF"/>
<g opacity="0.5">
<g opacity="0.6">
<path d="M20.1016 22.7266L19.9357 23.7689C19.91 23.7884 19.8843 23.8078 19.8593 23.8293C19.2947 24.3002 19.1732 25.0655 19.5871 25.537C19.6051 25.5578 19.6246 25.578 19.6447 25.5967L18.9253 30.1064C18.8739 30.0536 18.8232 29.9995 18.7746 29.9439C17.9204 28.9696 17.619 27.6925 17.8232 26.4161C18.0266 25.1391 18.735 23.8627 19.9003 22.8891C19.9655 22.8335 20.0336 22.7793 20.1016 22.7266Z" fill="#D0D5DD"/>
</g>
</g>
<path d="M40.9421 27.5586C41.1775 27.5586 41.3379 27.7419 41.3018 27.969C41.2657 28.1947 41.0463 28.378 40.8115 28.378H30.2539C30.3727 28.1079 30.4761 27.8343 30.5629 27.5586H40.9421Z" fill="#D0D5DD"/>
<path d="M40.8112 28.5355H30.2535C30.2007 28.5355 30.1514 28.5092 30.123 28.4647C30.0945 28.4203 30.0896 28.3647 30.1105 28.3168C30.2278 28.0487 30.3299 27.7786 30.4139 27.5133C30.4341 27.448 30.4945 27.4043 30.5632 27.4043H40.9417C41.1014 27.4043 41.2487 27.4696 41.3452 27.5828C41.441 27.6953 41.4806 27.8418 41.4556 27.9953C41.4077 28.298 41.1244 28.5355 40.8112 28.5355ZM30.4896 28.223H40.8112C40.9695 28.223 41.1237 28.096 41.1473 27.9453C41.157 27.8835 41.1431 27.8265 41.1077 27.7849C41.0702 27.7404 41.0112 27.7161 40.9417 27.7161H30.6764C30.6209 27.8842 30.5584 28.0536 30.4896 28.223Z" fill="#D0D5DD"/>
<path d="M40.2743 31.7344C40.5097 31.7344 40.6701 31.9177 40.634 32.1434C40.5979 32.3698 40.3785 32.5538 40.1431 32.5538H26.5938C26.9694 32.3191 27.3347 32.0545 27.6854 31.7615C27.6958 31.7524 27.7069 31.7434 27.7174 31.7351H40.2743V31.7344Z" fill="#D0D5DD"/>
<path d="M40.143 32.7094H26.5937C26.5242 32.7094 26.4624 32.6635 26.4437 32.5962C26.4242 32.5295 26.452 32.4573 26.511 32.4205C26.8839 32.1872 27.245 31.9247 27.5853 31.6406L27.6145 31.6163C27.643 31.5927 27.6805 31.5781 27.7173 31.5781H40.2742C40.4339 31.5781 40.5812 31.6434 40.6777 31.7566C40.7735 31.8691 40.8124 32.0149 40.7881 32.1684C40.7395 32.4712 40.4568 32.7094 40.143 32.7094ZM27.1117 32.3969H40.143C40.3013 32.3969 40.4555 32.2691 40.4791 32.1184C40.4888 32.0573 40.4749 32.0003 40.4395 31.9587C40.402 31.9142 40.343 31.8899 40.2735 31.8899H27.7735C27.561 32.0677 27.3395 32.2372 27.1117 32.3969Z" fill="#D0D5DD"/>
<path d="M50.2137 11.277L49.9665 12.8297L49.9186 13.129L44.8887 44.6658H18.2561L16.8984 42.8151H43.2637L48.3415 10.979L48.6373 9.12695L50.2137 11.277Z" fill="#E4E7EC"/>
<path d="M44.8885 44.8222H18.2565C18.2065 44.8222 18.16 44.7986 18.1308 44.7584L16.7725 42.9077C16.7378 42.8604 16.7322 42.7972 16.7593 42.7445C16.7857 42.6917 16.8399 42.6591 16.8989 42.6591H43.1308L48.1878 10.9542L48.4836 9.10211C48.4933 9.03961 48.5399 8.98961 48.601 8.97503C48.6628 8.96044 48.7267 8.98336 48.7635 9.03475L50.3399 11.1847C50.3649 11.2181 50.3746 11.2604 50.3683 11.3014L50.0732 13.1535L45.0426 44.691C45.0301 44.7667 44.9649 44.8222 44.8885 44.8222ZM18.335 44.5097H44.7544L49.7642 13.1042L50.0489 11.3167L48.7322 9.52086L48.4954 11.0035L43.4176 42.8396C43.4058 42.9153 43.3399 42.9716 43.2635 42.9716H17.2065L18.335 44.5097Z" fill="#F0F5FF"/>
<path d="M46.5151 46.5176L48.2665 48.9051H21.8998L20.1484 46.5176H46.5151Z" fill="#D0D5DD"/>
<path d="M48.2662 49.0613H21.8996C21.8496 49.0613 21.803 49.0377 21.7739 48.9974L20.0225 46.6099C19.9878 46.5627 19.9822 46.4995 20.0093 46.4467C20.0357 46.394 20.0899 46.3613 20.1489 46.3613H46.5155C46.5655 46.3613 46.6121 46.3849 46.6412 46.4252L48.3926 48.8127C48.4274 48.8599 48.4329 48.9231 48.4058 48.9759C48.3787 49.028 48.3253 49.0613 48.2662 49.0613ZM21.9787 48.7488H47.9579L46.4357 46.6738H20.4565L21.9787 48.7488Z" fill="#F0F5FF"/>
<path d="M51.888 12.8301L46.5151 46.5183H20.1484L20.4436 44.6662H44.8908L49.9679 12.8301H51.888Z" fill="#F7F9FC"/>
<path d="M46.5149 46.6745H20.1482C20.1024 46.6745 20.0593 46.6544 20.0295 46.6197C19.9996 46.5849 19.9871 46.5391 19.9941 46.494L20.2892 44.6426C20.301 44.5669 20.367 44.5106 20.4434 44.5106H44.7573L49.8135 12.8058C49.8253 12.7301 49.8913 12.6738 49.9677 12.6738H51.8878C51.9336 12.6738 51.9767 12.694 52.0066 12.7287C52.0364 12.7634 52.0489 12.8092 52.042 12.8544L46.6691 46.5426C46.6573 46.6183 46.592 46.6745 46.5149 46.6745ZM20.3316 46.362H46.3816L51.7045 12.9863H50.101L45.0448 44.6912C45.0329 44.7669 44.967 44.8231 44.8906 44.8231H20.5767L20.3316 46.362Z" fill="#F0F5FF"/>
<path d="M51.8885 12.8301L53.6399 15.2176L48.267 48.9058L46.5156 46.5183L51.8885 12.8301Z" fill="#E4E7EC"/>
<path d="M48.2668 49.0622C48.2175 49.0622 48.1709 49.0393 48.1411 48.9983L46.3897 46.6108C46.3647 46.5774 46.355 46.5351 46.3612 46.4934L51.7341 12.8052C51.7439 12.7427 51.7904 12.6927 51.8515 12.6782C51.9133 12.6636 51.9772 12.6865 52.014 12.7379L53.7654 15.1254C53.7904 15.1587 53.8001 15.2011 53.7939 15.2427L48.4209 48.9309C48.4112 48.9934 48.3647 49.0434 48.3036 49.058C48.2911 49.0608 48.2786 49.0622 48.2668 49.0622ZM46.68 46.4781L48.1709 48.5115L53.4744 15.2573L51.9834 13.224L46.68 46.4781Z" fill="#F0F5FF"/>
<path d="M17.4936 32.5918L8.39497 40.198C8.37344 40.2161 8.35122 40.2321 8.32899 40.2487C8.31858 40.2564 8.30885 40.264 8.29844 40.2717C8.28038 40.2842 8.26163 40.2953 8.24358 40.3071C8.23038 40.3154 8.21719 40.3244 8.20399 40.3321C8.19427 40.3376 8.18385 40.3425 8.17413 40.348C8.14983 40.3612 8.12483 40.3744 8.09983 40.3855C8.0908 40.3897 8.08177 40.3932 8.07274 40.3967C8.03941 40.4112 8.00608 40.4237 7.97274 40.4349C7.95747 40.4404 7.94149 40.4453 7.92552 40.4501C7.91302 40.4536 7.89983 40.4578 7.88733 40.4605C7.86719 40.4654 7.84705 40.4703 7.82691 40.4744C7.81441 40.4772 7.80191 40.4793 7.7901 40.4814C7.76788 40.4849 7.74635 40.4876 7.72413 40.4904C7.71371 40.4918 7.7033 40.4932 7.69288 40.4939C7.66094 40.4967 7.6283 40.498 7.59635 40.498C7.32413 40.498 7.06858 40.398 6.89288 40.198L6.56858 39.8286C6.5526 39.8105 6.53802 39.7918 6.52344 39.7724L8.27483 42.1599C8.28872 42.1793 8.30399 42.198 8.31997 42.2161L8.64427 42.5855C8.81996 42.7855 9.07552 42.8855 9.34774 42.8855C9.37969 42.8855 9.41163 42.8842 9.44427 42.8814C9.45469 42.8807 9.4651 42.8786 9.47552 42.8779C9.49774 42.8751 9.51927 42.8724 9.54149 42.8689C9.55399 42.8668 9.56649 42.864 9.5783 42.8619C9.59844 42.8578 9.61858 42.8536 9.63872 42.848C9.65191 42.8446 9.66441 42.8411 9.67691 42.8376C9.68594 42.8349 9.69566 42.8328 9.70469 42.83C9.71094 42.8279 9.71719 42.8251 9.72413 42.8224C9.75816 42.8112 9.79149 42.798 9.82413 42.7842C9.83038 42.7814 9.83733 42.7793 9.84427 42.7765C9.84705 42.7751 9.84913 42.7737 9.85191 42.773C9.87691 42.7612 9.90122 42.7487 9.92622 42.7355C9.93524 42.7307 9.94427 42.7272 9.9533 42.7217C9.95469 42.721 9.95538 42.7203 9.95608 42.7196C9.96927 42.7119 9.98247 42.7029 9.99566 42.6946C10.0123 42.6842 10.0297 42.6744 10.0464 42.6626C10.0477 42.6619 10.0491 42.6605 10.0505 42.6592C10.0609 42.6522 10.0707 42.6439 10.0811 42.6362C10.0977 42.6237 10.1151 42.6119 10.1311 42.5987C10.1366 42.5946 10.1415 42.5904 10.147 42.5855L19.2457 34.9793L17.4936 32.5918Z" fill="#667185"/>
<path d="M9.34735 43.0416C9.01819 43.0416 8.72652 42.9159 8.52652 42.6881L8.20222 42.3186C8.18347 42.2971 8.16541 42.2749 8.14874 42.252L6.39805 39.8659C6.39805 39.8652 6.39735 39.8652 6.39735 39.8645C6.34666 39.795 6.36124 39.6971 6.43069 39.6464C6.50013 39.5957 6.59805 39.6103 6.64874 39.6798L6.64944 39.6812C6.66055 39.6964 6.67235 39.711 6.68485 39.7256L7.00916 40.095C7.14874 40.2541 7.35708 40.3416 7.59527 40.3416C7.62305 40.3416 7.65013 40.3402 7.67791 40.3374L7.70569 40.3339C7.72444 40.3318 7.74319 40.3298 7.76263 40.3263C7.77027 40.3249 7.7786 40.3235 7.78624 40.3214L7.79527 40.3193C7.81263 40.3159 7.83069 40.3117 7.84805 40.3075C7.85916 40.3048 7.87097 40.3013 7.88208 40.2985C7.89597 40.2943 7.90916 40.2902 7.92305 40.2853C7.95222 40.2756 7.98138 40.2645 8.01055 40.252L8.03416 40.2423C8.05638 40.2318 8.07791 40.2207 8.09944 40.2089L8.12583 40.195C8.13138 40.1916 8.13763 40.1881 8.14319 40.1839L8.17235 40.1652C8.18485 40.1575 8.19666 40.1499 8.20916 40.1416C8.21333 40.1388 8.21749 40.1353 8.22166 40.1318L8.2418 40.1166C8.25916 40.1034 8.27721 40.0909 8.29388 40.0763L17.3925 32.47C17.4258 32.4423 17.4682 32.4298 17.5112 32.4346C17.5543 32.4395 17.5925 32.4624 17.6182 32.4971L19.3696 34.8846C19.4182 34.9513 19.4071 35.0443 19.3439 35.0971L10.2286 42.72C10.214 42.7318 10.1994 42.743 10.1842 42.7534L10.164 42.768C10.1557 42.7742 10.1474 42.7805 10.139 42.7867C10.1203 42.7999 10.1057 42.8089 10.0911 42.818L10.0654 42.8339C10.0557 42.8402 10.046 42.8464 10.0362 42.852C10.0335 42.8541 10.0307 42.8555 10.0279 42.8568C10.0217 42.8603 10.0133 42.8645 10.0057 42.868L9.99944 42.8707C9.97166 42.8853 9.94458 42.8999 9.9161 42.9131C9.9168 42.9131 9.91194 42.9152 9.90777 42.9173C9.90083 42.92 9.89319 42.9235 9.88555 42.9263C9.84805 42.9423 9.81055 42.9568 9.77305 42.9693C9.7668 42.9721 9.75847 42.9749 9.75083 42.9777C9.74388 42.9798 9.73555 42.9818 9.72791 42.9839L9.72027 42.986C9.70569 42.9902 9.6911 42.9943 9.67652 42.9978C9.6536 43.0034 9.63138 43.0089 9.60847 43.0131L9.60083 43.0145C9.58902 43.0166 9.57791 43.0193 9.5661 43.0214C9.5411 43.0256 9.5161 43.0291 9.4918 43.0318L9.48277 43.0332C9.47374 43.0346 9.46541 43.0353 9.45638 43.036C9.41749 43.0402 9.38208 43.0416 9.34735 43.0416ZM7.34597 40.6291L8.40152 42.068C8.41263 42.0832 8.42513 42.0985 8.43763 42.1131L8.76194 42.4825C8.91749 42.6603 9.16194 42.7485 9.43069 42.7256L9.45777 42.7221C9.47652 42.72 9.49597 42.718 9.51471 42.7145C9.52235 42.7131 9.53069 42.7117 9.53833 42.7096L9.54666 42.7082C9.56472 42.7048 9.58208 42.7006 9.59944 42.6964C9.61055 42.6936 9.62166 42.6902 9.63347 42.6874L9.65708 42.6811C9.66124 42.6791 9.66819 42.6763 9.67444 42.6742C9.7036 42.6645 9.73347 42.6534 9.76263 42.6402C9.76819 42.6374 9.77444 42.6353 9.78069 42.6332L9.78555 42.6311C9.80847 42.6207 9.82999 42.6089 9.85222 42.5971C9.85777 42.5936 9.86402 42.5909 9.86958 42.5881L9.87444 42.5853C9.87583 42.5839 9.87791 42.5832 9.8793 42.5825C9.88416 42.5798 9.89041 42.5756 9.89666 42.5721L9.9293 42.552C9.93902 42.5464 9.94874 42.5402 9.95777 42.5339C9.9661 42.5277 9.97027 42.5249 9.97444 42.5214L10.0008 42.5013C10.0112 42.4936 10.0217 42.486 10.0321 42.4777L10.046 42.4666L19.0328 34.9541L17.4668 32.8187L8.49527 40.318C8.47305 40.336 8.45083 40.3534 8.42791 40.37L8.41263 40.3818C8.4043 40.3881 8.39666 40.3943 8.38833 40.3999C8.37166 40.411 8.35499 40.4214 8.33833 40.4318L8.31402 40.4471C8.3036 40.4541 8.29319 40.4603 8.28277 40.4666C8.27444 40.4714 8.2661 40.4756 8.25777 40.4798L8.24874 40.4846C8.22166 40.4992 8.19388 40.5138 8.1661 40.527C8.15847 40.5305 8.15083 40.5339 8.14249 40.5367L8.13485 40.5402C8.09805 40.5562 8.06055 40.5707 8.02235 40.5832C8.00499 40.5895 7.98694 40.595 7.96958 40.5999C7.95499 40.6041 7.94041 40.6082 7.92583 40.6117C7.9036 40.6173 7.88069 40.6228 7.85777 40.627L7.85013 40.6284C7.83902 40.6305 7.82722 40.6332 7.8161 40.6346C7.7911 40.6388 7.7668 40.6423 7.7418 40.645L7.73208 40.6464C7.72374 40.6478 7.71472 40.6485 7.70569 40.6492C7.6668 40.6527 7.63069 40.6541 7.59597 40.6541C7.50985 40.6541 7.42583 40.6457 7.34597 40.6291Z" fill="#F0F5FF"/>
<path d="M30.8476 24.2089C30.8045 23.9319 30.7434 23.6576 30.6642 23.3895C30.4177 22.5464 29.9955 21.7582 29.392 21.0687C28.0969 19.593 26.2087 18.8555 24.2031 18.8555C23.008 18.8555 21.7726 19.1166 20.5955 19.6409C19.7941 19.9971 19.0205 20.4735 18.3052 21.0714C15.1462 23.7117 14.2038 27.8228 15.8976 30.7742L6.79758 38.3819C6.3198 38.7805 6.21702 39.4284 6.56702 39.8291L6.89132 40.1985C7.06632 40.3985 7.32327 40.4992 7.5941 40.4992C7.86633 40.4992 8.15452 40.3985 8.39271 40.1985L17.492 32.593C17.7892 32.8187 18.1045 33.0187 18.4344 33.1895C19.4455 33.7124 20.5997 33.9749 21.7948 33.9749C23.4017 33.9749 25.083 33.5027 26.5948 32.5555C26.9712 32.3207 27.3358 32.0562 27.7191 31.736C28.8656 30.7687 29.717 29.6082 30.2531 28.3812C30.3705 28.1124 30.4747 27.8374 30.5615 27.5617C30.9177 26.4464 31.017 25.2971 30.8476 24.2089ZM26.1073 29.9603C24.9358 30.9402 23.5274 31.4291 22.1969 31.4291C20.867 31.4291 19.6149 30.9395 18.7566 29.9603C17.0379 28.002 17.5441 24.8284 19.8865 22.8714C21.058 21.8916 22.4663 21.4027 23.7969 21.4027C25.1267 21.4027 26.3788 21.8923 27.2372 22.8714C27.2622 22.8999 27.2858 22.9277 27.308 22.9562C27.4198 23.0909 27.5226 23.2319 27.6142 23.3756C27.7802 23.6367 27.9115 23.911 28.0129 24.1985C28.0649 24.3444 28.108 24.4937 28.142 24.6451C28.3295 25.4555 28.2823 26.3277 28.0129 27.1735C27.9712 27.3055 27.9233 27.4381 27.8705 27.5687C27.7573 27.8492 27.6198 28.1249 27.458 28.3923C27.3802 28.5207 27.2976 28.6478 27.208 28.7728C26.9066 29.1999 26.5379 29.6013 26.1073 29.9603Z" fill="#98A2B3"/>
<path d="M7.59406 40.6555C7.26489 40.6555 6.97323 40.5298 6.77392 40.3013L6.44962 39.9319C6.27045 39.7263 6.18434 39.4562 6.20656 39.1714C6.23364 38.8312 6.41212 38.4992 6.69753 38.2617L15.6982 30.7374C14.9059 29.286 14.7038 27.5277 15.1302 25.7694C15.5711 23.952 16.6635 22.2409 18.2059 20.9513C18.917 20.3569 19.7003 19.868 20.533 19.4978C21.7066 18.9756 22.976 18.6992 24.2045 18.6992C26.3434 18.6992 28.2281 19.5041 29.5107 20.9659C30.1177 21.6589 30.5566 22.4596 30.8156 23.3457C30.8955 23.6173 30.9586 23.8992 31.0031 24.1846C31.1753 25.2881 31.0739 26.4728 30.7114 27.6096C30.6246 27.8853 30.5191 28.1659 30.3975 28.4437C29.8364 29.7277 28.9448 30.9069 27.8205 31.8555C27.4399 32.1735 27.0663 32.4457 26.6781 32.6874C25.1711 33.6312 23.483 34.1305 21.7955 34.1305C20.5656 34.1305 19.3788 33.8527 18.3635 33.3277C18.0649 33.1735 17.7746 32.993 17.4982 32.7916L8.49267 40.3187C8.23364 40.5353 7.91489 40.6555 7.59406 40.6555ZM24.2038 19.0117C23.0191 19.0117 21.7934 19.2784 20.6593 19.7832C19.8531 20.1416 19.0948 20.6152 18.4059 21.1909C15.3406 23.7527 14.3427 27.7506 16.0336 30.6957C16.0711 30.7617 16.0566 30.845 15.9982 30.8937L6.89753 38.5013C6.6767 38.686 6.53781 38.9388 6.51767 39.1957C6.5017 39.3964 6.56073 39.5846 6.68434 39.7256L7.00864 40.095C7.14823 40.2548 7.35587 40.3423 7.59406 40.3423C7.84128 40.3423 8.08989 40.2485 8.29267 40.0784L17.392 32.4728C17.4482 32.4263 17.5288 32.4242 17.5871 32.4687C17.8781 32.6902 18.1871 32.886 18.5066 33.0506C19.4774 33.5527 20.6149 33.8187 21.7955 33.8187C23.4239 33.8187 25.0552 33.336 26.5121 32.4235C26.8878 32.1888 27.2503 31.9249 27.6191 31.6166C28.7066 30.6999 29.5677 29.5596 30.11 28.3194C30.2274 28.0513 30.3288 27.7812 30.4128 27.5159C30.7607 26.4242 30.858 25.2895 30.6934 24.2332C30.651 23.9617 30.5913 23.693 30.5149 23.4346C30.2691 22.5923 29.8517 21.8312 29.2746 21.1721C28.0524 19.7791 26.251 19.0117 24.2038 19.0117ZM22.1968 31.5853C20.7628 31.5853 19.4989 31.0451 18.6385 30.0631C17.8705 29.1881 17.5003 28.0298 17.5954 26.8006C17.7121 25.293 18.5107 23.8166 19.7857 22.7513C20.9468 21.7805 22.3711 21.2457 23.7968 21.2457C25.2309 21.2457 26.4948 21.786 27.3552 22.768C27.3816 22.7978 27.4066 22.8277 27.4309 22.8582C27.5434 22.9937 27.6503 23.1402 27.7468 23.2909C27.9142 23.5534 28.0538 23.8409 28.1614 24.1451C28.2149 24.2951 28.26 24.4513 28.2955 24.6096C28.4878 25.4395 28.442 26.3423 28.1628 27.2201C28.1191 27.3576 28.0698 27.4944 28.0163 27.627C27.9003 27.9152 27.7579 28.1992 27.5927 28.4728C27.5086 28.611 27.4253 28.7388 27.3364 28.8638C27.0198 29.3103 26.6399 29.7194 26.208 30.0805C25.0468 31.0506 23.6225 31.5853 22.1968 31.5853ZM23.7968 21.5582C22.4448 21.5582 21.0913 22.0673 19.9864 22.9909C18.7753 24.0027 18.017 25.4006 17.9073 26.8249C17.8184 27.9694 18.1621 29.0457 18.8739 29.8569C19.6739 30.7701 20.8545 31.2728 22.1968 31.2728C23.5489 31.2728 24.9024 30.7638 26.0073 29.8402C26.4191 29.4964 26.7802 29.1069 27.0816 28.6826C27.1656 28.5638 27.2455 28.443 27.3253 28.311C27.4816 28.052 27.6163 27.7826 27.7267 27.5096C27.7774 27.3846 27.8239 27.2555 27.8649 27.1256C28.1267 26.3013 28.1705 25.4555 27.9906 24.6791C27.958 24.5326 27.9163 24.3881 27.867 24.2499C27.767 23.9673 27.6378 23.7013 27.4836 23.4589C27.3948 23.3194 27.2955 23.1832 27.1892 23.0555C27.1663 23.027 27.1441 23.0006 27.1211 22.9742C26.3198 22.061 25.1392 21.5582 23.7968 21.5582Z" fill="#F0F5FF"/>
<path d="M22.3888 25.3787C22.3749 25.3392 22.3576 25.3016 22.3339 25.2662C22.3194 25.2419 22.302 25.219 22.2826 25.1968C22.1652 25.0635 21.9944 24.9961 21.8124 24.9961C21.7978 24.9961 21.7832 24.9968 21.768 24.9975C21.5992 25.0072 21.4249 25.0739 21.2777 25.1968C21.0916 25.3523 20.9902 25.5641 20.9846 25.7669C20.9805 25.9128 21.0256 26.0537 21.1235 26.1655C21.2409 26.2989 21.4117 26.3662 21.5937 26.3662C21.7756 26.3662 21.968 26.2996 22.1277 26.1655C22.2034 26.1016 22.2659 26.0294 22.3131 25.951C22.3353 25.9148 22.3534 25.8773 22.3694 25.8385C22.4319 25.6857 22.4395 25.5225 22.3888 25.3787Z" fill="#F7F9FC"/>
<path d="M21.8192 24.1463C21.7949 24.0768 21.7622 24.0109 21.7227 23.9484C21.6956 23.906 21.6664 23.8657 21.6324 23.8268C21.4254 23.5907 21.1234 23.4727 20.8032 23.4727C20.5109 23.4727 20.2039 23.5706 19.9379 23.7664C19.9122 23.7859 19.8865 23.8053 19.8615 23.8261C19.297 24.297 19.1754 25.0622 19.5893 25.5338C19.6081 25.5546 19.6268 25.5747 19.647 25.5935C19.8497 25.7893 20.1261 25.8865 20.4185 25.8865C20.606 25.8865 20.8004 25.8463 20.9859 25.7657C21.1171 25.7088 21.2435 25.631 21.3609 25.5338C21.4942 25.4213 21.6039 25.2935 21.6865 25.156C21.7178 25.1039 21.7456 25.0504 21.7685 24.9963C21.7741 24.9831 21.7796 24.9706 21.7845 24.9574C21.8942 24.6872 21.9074 24.3997 21.8192 24.1463Z" fill="#F7F9FC"/>
<path d="M44.8887 44.6671H18.2561L16.8984 42.8164H43.2637L44.8887 44.6671Z" fill="#D0D5DD"/>
<path d="M44.8885 44.8233H18.2565C18.2065 44.8233 18.16 44.7997 18.1308 44.7595L16.7725 42.9088C16.7378 42.8615 16.7322 42.7983 16.7593 42.7456C16.7857 42.6928 16.8399 42.6602 16.8989 42.6602H43.2642C43.3093 42.6602 43.3517 42.6796 43.3815 42.7136L45.0065 44.5643C45.0468 44.6102 45.0565 44.6761 45.0315 44.7317C45.0051 44.7879 44.9496 44.8233 44.8885 44.8233ZM18.335 44.5108H44.5426L43.1919 42.9727H17.2058L18.335 44.5108Z" fill="#F0F5FF"/>
<path d="M41.605 23.3867C41.8405 23.3867 42.0009 23.5701 41.9648 23.7971C41.9286 24.0228 41.7092 24.2062 41.4745 24.2062H30.8467C30.8036 23.9291 30.7425 23.6541 30.6641 23.3867H41.605Z" fill="#D0D5DD"/>
<path d="M41.4746 24.3624H30.8468C30.7697 24.3624 30.7045 24.3062 30.6927 24.2298C30.651 23.9596 30.5913 23.6909 30.5142 23.4305C30.5003 23.3832 30.5093 23.3319 30.5392 23.293C30.5684 23.2534 30.6149 23.2305 30.6642 23.2305H41.6059C41.7656 23.2305 41.9128 23.2957 42.0093 23.4089C42.1052 23.5214 42.1447 23.668 42.1197 23.8214C42.0711 24.1249 41.7878 24.3624 41.4746 24.3624ZM30.9795 24.0499H41.4746C41.6329 24.0499 41.7871 23.9228 41.8107 23.7721C41.8204 23.7103 41.8065 23.6534 41.7711 23.6117C41.7336 23.5673 41.6746 23.543 41.6052 23.543H30.869C30.9128 23.7103 30.9496 23.8798 30.9795 24.0499Z" fill="#D0D5DD"/>
<path d="M42.273 19.2148C42.5085 19.2148 42.6689 19.3982 42.6328 19.6253C42.5967 19.851 42.3772 20.0343 42.1425 20.0343H30.9696C30.7348 20.0343 30.5744 19.851 30.6105 19.6253C30.6467 19.3989 30.8654 19.2148 31.1001 19.2148H42.273Z" fill="#D0D5DD"/>
<path d="M42.1424 20.1898H30.9695C30.8097 20.1898 30.6632 20.1253 30.5667 20.0121C30.4709 19.8996 30.432 19.7537 30.4563 19.6003C30.5049 19.2968 30.7875 19.0586 31.1 19.0586H42.2729C42.4327 19.0586 42.5799 19.1239 42.6764 19.2371C42.7722 19.3496 42.8118 19.4961 42.7868 19.6496C42.7389 19.9523 42.4556 20.1898 42.1424 20.1898ZM31.1 19.3704C30.9424 19.3704 30.7889 19.4982 30.7646 19.6489C30.7549 19.7107 30.7688 19.7676 30.8042 19.8093C30.8417 19.853 30.9 19.8773 30.9695 19.8773H42.1424C42.3007 19.8773 42.4549 19.7503 42.4785 19.5996C42.4882 19.5378 42.4743 19.4808 42.4389 19.4392C42.4014 19.3947 42.3424 19.3704 42.2729 19.3704H31.1Z" fill="#D0D5DD"/>
<path d="M39.6094 35.9102C39.8448 35.9102 40.0052 36.0935 39.9691 36.3192C39.933 36.5456 39.7136 36.7296 39.4781 36.7296H22.9969C22.7629 36.7296 22.6018 36.5463 22.6379 36.3192C22.674 36.0935 22.8934 35.9102 23.1275 35.9102H39.6094Z" fill="#D0D5DD"/>
<path d="M39.4783 36.8858H22.9964C22.8374 36.8858 22.6908 36.8213 22.5943 36.7081C22.4985 36.5956 22.4589 36.449 22.4839 36.2949C22.5325 35.9914 22.8151 35.7539 23.1276 35.7539H39.6089C39.7686 35.7539 39.9158 35.8192 40.0124 35.9324C40.1082 36.0449 40.1471 36.1907 40.1228 36.3442C40.0749 36.6477 39.7915 36.8858 39.4783 36.8858ZM23.1269 36.0664C22.9693 36.0664 22.8158 36.1935 22.7915 36.3442C22.7818 36.406 22.7957 36.4636 22.8311 36.5053C22.8686 36.5497 22.9269 36.574 22.9957 36.574H39.4776C39.636 36.574 39.7901 36.4463 39.8137 36.2956C39.8235 36.2345 39.8096 36.1775 39.7742 36.1359C39.7367 36.0914 39.6776 36.0671 39.6082 36.0671H23.1269V36.0664Z" fill="#D0D5DD"/>
<path d="M32.5991 26.5962C32.5866 26.5163 32.5727 26.4365 32.5575 26.3573C32.5561 26.3497 32.5547 26.342 32.5533 26.3344C32.5505 26.3198 32.5464 26.3052 32.5436 26.2899C32.5304 26.2253 32.5158 26.1608 32.5005 26.0969C32.495 26.0733 32.4894 26.049 32.4832 26.0253C32.4623 25.942 32.4401 25.8594 32.4165 25.7774C32.3839 25.6656 32.3464 25.5552 32.3075 25.4455C32.3026 25.4316 32.2991 25.4177 32.2936 25.4038C32.2887 25.3892 32.2818 25.3753 32.2769 25.3615C32.2401 25.2615 32.2012 25.1628 32.1589 25.0649C32.1554 25.0559 32.1519 25.0476 32.1477 25.0385C32.1019 24.9337 32.0519 24.8302 32.0005 24.7274C31.9943 24.7156 31.9894 24.7038 31.9839 24.692C31.9755 24.6753 31.9651 24.6587 31.9568 24.642C31.9214 24.5747 31.8845 24.5087 31.847 24.442C31.8311 24.4149 31.8165 24.3872 31.7998 24.3601C31.7464 24.2698 31.6908 24.1802 31.6318 24.092C31.6318 24.0913 31.6311 24.0913 31.6311 24.0906C31.5818 24.017 31.5311 23.9441 31.4783 23.8719L29.7269 21.4844C29.7804 21.5566 29.8311 21.6302 29.8811 21.7045C29.9401 21.7927 29.9957 21.8823 30.0491 21.9726C30.0651 21.9997 30.0804 22.0274 30.0964 22.0545C30.1339 22.1205 30.1707 22.1872 30.2061 22.2538C30.2214 22.2823 30.2359 22.3108 30.2505 22.3392C30.3026 22.442 30.3519 22.5455 30.3977 22.6503C30.4012 22.6587 30.4047 22.6677 30.4082 22.6767C30.4505 22.7747 30.4894 22.8733 30.5262 22.9733C30.5366 23.001 30.547 23.0295 30.5568 23.0573C30.5957 23.167 30.6325 23.2774 30.6651 23.3892C30.6894 23.4712 30.7109 23.5538 30.7318 23.6372C30.738 23.6615 30.7436 23.6851 30.7491 23.7094C30.7644 23.7733 30.7783 23.8372 30.7915 23.9017C30.7964 23.9247 30.8012 23.9469 30.8054 23.9698C30.8207 24.049 30.8352 24.1288 30.847 24.2087C31.0165 25.2969 30.9172 26.4455 30.5616 27.5628C30.4748 27.8385 30.3707 28.1122 30.2526 28.3823C30.2283 28.4378 30.2026 28.4927 30.1776 28.5476C30.1575 28.5906 30.1373 28.6337 30.1165 28.6767C30.0991 28.7122 30.0818 28.7483 30.0644 28.7837C30.0429 28.8267 30.0207 28.8691 29.9984 28.9122C29.9804 28.9476 29.9616 28.9823 29.9429 29.017C29.92 29.0601 29.8964 29.1024 29.872 29.1455C29.8526 29.1802 29.8332 29.2142 29.8137 29.249C29.7887 29.2913 29.7637 29.3344 29.738 29.3767C29.7193 29.408 29.7012 29.4385 29.6818 29.4698C29.6151 29.5774 29.5464 29.6844 29.4748 29.7899C29.4609 29.8108 29.4464 29.8316 29.4318 29.8531C29.3582 29.9608 29.2818 30.067 29.2026 30.1726C29.1929 30.1851 29.1832 30.1976 29.1741 30.2094C29.1109 30.292 29.0464 30.374 28.9804 30.4552C28.9623 30.4774 28.9443 30.4997 28.9255 30.5226C28.8505 30.6128 28.7734 30.7031 28.6943 30.7913C28.6818 30.8052 28.6693 30.8184 28.6568 30.8323C28.5922 30.9038 28.5262 30.974 28.4589 31.0441C28.4366 31.0677 28.4137 31.0906 28.3908 31.1135C28.32 31.1858 28.247 31.258 28.1734 31.3281C28.163 31.3385 28.1526 31.349 28.1422 31.3587C28.0977 31.4003 28.0526 31.4413 28.0075 31.483C27.9832 31.5052 27.9589 31.5281 27.9339 31.5503C27.863 31.6135 27.7915 31.6753 27.7186 31.7372C27.6276 31.8135 27.5373 31.8858 27.4477 31.9559C27.4415 31.9608 27.4352 31.9656 27.429 31.9705C27.345 32.0358 27.2616 32.0983 27.1783 32.1594C27.1644 32.1698 27.1498 32.1802 27.1359 32.1906C27.0609 32.2448 26.9859 32.2976 26.9109 32.3483C26.8061 32.4198 26.7005 32.4892 26.595 32.5559C26.4908 32.6212 26.3859 32.6837 26.2797 32.7441C26.2519 32.7601 26.2241 32.7747 26.1964 32.7906C26.1033 32.8427 26.0102 32.8934 25.9165 32.942C25.8811 32.9601 25.8457 32.9788 25.8102 32.9969C25.7075 33.049 25.604 33.0983 25.4998 33.1462C25.4811 33.1545 25.463 33.1635 25.4443 33.1719C25.42 33.183 25.395 33.1934 25.3707 33.2038C25.3026 33.2337 25.2345 33.2635 25.1658 33.2913C25.1318 33.3052 25.0977 33.3184 25.0637 33.3323C25.004 33.3559 24.9436 33.3795 24.8839 33.4024C24.8477 33.4163 24.8109 33.4295 24.7748 33.4427C24.7158 33.4642 24.6568 33.4844 24.5977 33.5045C24.5616 33.517 24.5255 33.5288 24.4887 33.5406C24.4401 33.5566 24.3908 33.5712 24.3422 33.5865C24.2825 33.6045 24.222 33.6226 24.1623 33.6399C24.1158 33.6531 24.0693 33.6656 24.022 33.6781C23.9623 33.6941 23.9033 33.7094 23.8436 33.724C23.7964 33.7358 23.7491 33.7469 23.7026 33.7573C23.6429 33.7712 23.5832 33.7837 23.5234 33.7962C23.4769 33.8059 23.4297 33.8156 23.3832 33.824C23.3227 33.8351 23.2623 33.8462 23.2019 33.8559C23.1561 33.8635 23.1095 33.8712 23.0637 33.8781C23.0019 33.8872 22.9401 33.8955 22.879 33.9038C22.8345 33.9094 22.7894 33.9156 22.745 33.9212C22.6804 33.9288 22.6165 33.9344 22.5526 33.9399C22.5109 33.9434 22.4686 33.9483 22.4269 33.951C22.3561 33.9566 22.2859 33.9601 22.2158 33.9635C22.1804 33.9656 22.1457 33.9677 22.1102 33.9691C22.0047 33.9733 21.8998 33.9753 21.795 33.9753C20.5998 33.9753 19.4464 33.7135 18.4345 33.1899C18.104 33.0191 17.7887 32.8198 17.4922 32.5927L19.2436 34.9802C19.5401 35.2073 19.8554 35.4059 20.1859 35.5774C21.197 36.101 22.3512 36.3628 23.5457 36.3628C23.6505 36.3628 23.7554 36.3608 23.8609 36.3566C23.8964 36.3552 23.9311 36.3524 23.9665 36.351C24.0366 36.3476 24.1075 36.3441 24.1776 36.3385C24.2193 36.3351 24.2609 36.3309 24.3026 36.3274C24.3672 36.3219 24.4311 36.3156 24.4957 36.3087C24.5401 36.3038 24.5845 36.2976 24.629 36.292C24.6908 36.2837 24.7526 36.276 24.8144 36.2663C24.8602 36.2594 24.9068 36.2517 24.9526 36.2441C25.013 36.2337 25.0734 36.2233 25.1339 36.2122C25.1804 36.2031 25.2276 36.1941 25.2741 36.1844C25.3339 36.1719 25.3936 36.1594 25.4533 36.1455C25.5005 36.1351 25.547 36.124 25.5936 36.1122C25.6533 36.0976 25.713 36.0823 25.7727 36.0663C25.8193 36.0538 25.8658 36.0413 25.9123 36.0281C25.9727 36.0108 26.0325 35.9927 26.0929 35.9747C26.1227 35.9656 26.1533 35.9573 26.1832 35.9483C26.2019 35.942 26.2207 35.9358 26.2394 35.9295C26.2755 35.9177 26.3116 35.9052 26.3484 35.8934C26.4075 35.8733 26.4665 35.8531 26.5255 35.8316C26.5616 35.8184 26.5984 35.8052 26.6345 35.7913C26.695 35.7691 26.7547 35.7455 26.8144 35.7212C26.8484 35.7073 26.8825 35.6941 26.9165 35.6802C26.9852 35.6517 27.0533 35.6226 27.1214 35.5927C27.1457 35.5816 27.1707 35.5719 27.195 35.5608C27.1991 35.5587 27.204 35.5566 27.2082 35.5552C27.222 35.549 27.2359 35.5413 27.2498 35.5351C27.354 35.4872 27.4575 35.4378 27.5602 35.3858C27.5957 35.3677 27.6311 35.3497 27.6665 35.3309C27.7602 35.2823 27.854 35.2316 27.9464 35.1795C27.9665 35.1684 27.9866 35.1587 28.0061 35.1469C28.0137 35.1427 28.022 35.1372 28.0297 35.133C28.1352 35.0726 28.2408 35.0101 28.345 34.9448C28.4512 34.8781 28.5561 34.8087 28.6609 34.7372C28.6707 34.7309 28.6797 34.7247 28.6894 34.7184C28.7547 34.6733 28.8207 34.6267 28.8859 34.5795C28.8998 34.5691 28.9144 34.5587 28.9283 34.5483C29.0116 34.4872 29.095 34.4247 29.1783 34.3594C29.1845 34.3545 29.1908 34.3497 29.1971 34.3448C29.2415 34.3101 29.2866 34.2747 29.3311 34.2378C29.3762 34.201 29.422 34.1635 29.4672 34.1253C29.5401 34.0635 29.6116 34.0017 29.6825 33.9385C29.7075 33.9163 29.7311 33.8941 29.7554 33.8719C29.8005 33.8302 29.8464 33.7892 29.8908 33.7469C29.8929 33.7448 29.8957 33.7427 29.8977 33.7406C29.9061 33.733 29.9137 33.7247 29.9214 33.717C29.9957 33.6462 30.0679 33.574 30.1394 33.5017C30.1623 33.4788 30.1845 33.4552 30.2068 33.4323C30.2741 33.3622 30.3401 33.292 30.4047 33.2205C30.4144 33.2101 30.4248 33.1997 30.4339 33.1892C30.4366 33.1865 30.4387 33.183 30.4415 33.1802C30.5207 33.0913 30.5977 33.0017 30.6727 32.9115C30.6915 32.8892 30.7095 32.867 30.7276 32.8448C30.7936 32.7635 30.8589 32.6816 30.9214 32.599C30.9283 32.5892 30.9366 32.5802 30.9436 32.5705C30.9457 32.5677 30.9477 32.5649 30.9498 32.5622C31.029 32.4566 31.1054 32.3503 31.179 32.2427C31.1936 32.2219 31.2075 32.201 31.222 32.1802C31.2936 32.074 31.363 31.967 31.4297 31.8594C31.4339 31.8524 31.4387 31.8462 31.4429 31.8392C31.4575 31.8149 31.4714 31.7906 31.4859 31.7663C31.5116 31.724 31.5366 31.6816 31.5616 31.6385C31.5818 31.6038 31.6005 31.5691 31.62 31.5351C31.6436 31.4927 31.6672 31.4503 31.6901 31.4073C31.7089 31.3726 31.7276 31.3372 31.7457 31.3017C31.7679 31.2594 31.7901 31.2163 31.8109 31.1733C31.829 31.1378 31.8464 31.1024 31.8637 31.0663C31.8845 31.0233 31.9047 30.9802 31.9248 30.9372C31.9332 30.9184 31.9429 30.9003 31.9512 30.8816C31.9679 30.8448 31.9839 30.8087 31.9998 30.7719C32.1186 30.5017 32.2221 30.2281 32.3089 29.9524C32.6693 28.8337 32.7686 27.6851 32.5991 26.5962Z" fill="#D0D5DD"/>
<path d="M23.5467 36.5194C22.3161 36.5194 21.13 36.2416 20.1148 35.7159C19.7738 35.5395 19.4495 35.334 19.1488 35.1041C19.137 35.0951 19.1266 35.0847 19.1175 35.0722L17.3661 32.6847C17.3203 32.6222 17.3273 32.5354 17.3828 32.4805C17.4384 32.4263 17.5252 32.4208 17.587 32.468C17.8724 32.6868 18.1814 32.8826 18.5064 33.0507C19.4773 33.5534 20.6141 33.8187 21.7946 33.8187C21.8925 33.8187 21.9967 33.8166 22.1036 33.8125C22.1238 33.8118 22.1432 33.8104 22.1634 33.809L22.2071 33.8062C22.2766 33.8027 22.3453 33.7993 22.4148 33.7937C22.4418 33.7916 22.4689 33.7888 22.4953 33.7868L22.5377 33.7826C22.6023 33.777 22.6648 33.7708 22.7266 33.7638C22.7592 33.7604 22.7918 33.7555 22.8245 33.7513L22.8585 33.7472C22.9189 33.7395 22.9793 33.7312 23.0404 33.7222C23.0807 33.7159 23.1217 33.709 23.162 33.702L23.1759 33.7C23.2349 33.6902 23.2946 33.6798 23.3536 33.6687C23.3995 33.6597 23.4453 33.6507 23.4918 33.6409C23.5502 33.6291 23.6092 33.6159 23.6675 33.6027C23.7141 33.5923 23.7599 33.5812 23.8064 33.5701C23.8648 33.5555 23.9238 33.5409 23.9821 33.525C24.0279 33.5125 24.0738 33.5007 24.1196 33.4875C24.1786 33.4708 24.2377 33.4527 24.2967 33.4347L24.3161 33.4284C24.3578 33.4159 24.3995 33.4027 24.4404 33.3895C24.4766 33.3777 24.512 33.3659 24.5474 33.3541C24.6057 33.3347 24.6634 33.3145 24.7217 33.293C24.7571 33.2798 24.7932 33.2673 24.8286 33.2534C24.8877 33.2312 24.9467 33.2083 25.0057 33.1847L25.0328 33.1743C25.0571 33.1645 25.0821 33.1548 25.1064 33.1451C25.1738 33.1173 25.2404 33.0882 25.3078 33.059L25.3398 33.0451C25.3529 33.0395 25.3668 33.0333 25.38 33.0277L25.4342 33.002C25.5342 32.9562 25.637 32.9069 25.7391 32.8555C25.7738 32.8382 25.8092 32.8201 25.8439 32.802C25.9356 32.7548 26.0279 32.7048 26.1196 32.6534L26.1536 32.6347C26.1696 32.6257 26.1856 32.6173 26.2016 32.6083C26.3154 32.543 26.4168 32.4826 26.5113 32.4229C26.6078 32.3625 26.7092 32.2958 26.8224 32.2187C26.896 32.168 26.9703 32.1166 27.0439 32.0632L27.0856 32.0326C27.1759 31.9666 27.2564 31.9055 27.3321 31.8465L27.3509 31.8312C27.4446 31.7576 27.5321 31.6868 27.6168 31.6159C27.6884 31.5555 27.7585 31.4944 27.8279 31.4326C27.8425 31.4194 27.8564 31.4062 27.871 31.393L27.9182 31.35C27.9564 31.3152 27.9953 31.2798 28.0328 31.2444L28.0641 31.2145C28.1342 31.1472 28.2043 31.0784 28.2786 31.0027C28.3009 30.9798 28.3231 30.9569 28.3453 30.934C28.4113 30.8652 28.4766 30.7958 28.5398 30.7257L28.5766 30.6861C28.6502 30.6041 28.7245 30.5173 28.8043 30.4215L28.8585 30.3555C28.9273 30.2715 28.9898 30.1923 29.0488 30.1138L29.0772 30.0777C29.1495 29.9819 29.2231 29.8791 29.3023 29.7638L29.3446 29.702C29.4168 29.5958 29.4849 29.4895 29.5481 29.3875C29.5641 29.3611 29.58 29.3347 29.596 29.3083L29.6029 29.2965C29.6279 29.2548 29.6529 29.2132 29.6773 29.1708C29.6946 29.1409 29.7113 29.1111 29.7279 29.0812L29.7349 29.0687C29.7585 29.027 29.7814 28.9847 29.8043 28.943C29.8231 28.909 29.8411 28.8743 29.8592 28.8395C29.8807 28.7979 29.9023 28.7555 29.9238 28.7138C29.9411 28.6791 29.9585 28.6444 29.9752 28.609C29.9953 28.5666 30.0154 28.525 30.0349 28.4826L30.0411 28.468C30.0641 28.4187 30.087 28.3694 30.1085 28.3201C30.2259 28.052 30.3286 27.7819 30.412 27.5159C30.7599 26.4243 30.8564 25.2895 30.6918 24.2333C30.6807 24.1611 30.6675 24.0847 30.6509 24L30.637 23.9333C30.6238 23.8701 30.6106 23.8076 30.5953 23.7451L30.5779 23.6743C30.555 23.5819 30.5342 23.5048 30.5127 23.4333C30.4842 23.3368 30.4509 23.234 30.4064 23.109C30.3967 23.0819 30.387 23.0541 30.3766 23.027C30.337 22.9208 30.2995 22.8263 30.2613 22.7382L30.2509 22.7125C30.2106 22.6201 30.1641 22.5215 30.1071 22.4097C30.0932 22.3819 30.0786 22.3541 30.0641 22.3263C30.0293 22.2611 29.9939 22.1965 29.9571 22.1319L29.9425 22.1069C29.9321 22.0888 29.9217 22.0701 29.9106 22.052C29.8523 21.9541 29.7988 21.8687 29.7467 21.7909C29.6981 21.718 29.6474 21.6458 29.5967 21.5763C29.546 21.5069 29.5606 21.409 29.63 21.3583C29.6995 21.3076 29.7974 21.3222 29.8481 21.3916L29.8488 21.3923L31.5995 23.7791C31.6529 23.852 31.7057 23.9277 31.7564 24.0034C31.7571 24.0048 31.7578 24.0062 31.7592 24.0076C31.8141 24.0902 31.8696 24.1791 31.93 24.2798C31.9418 24.2993 31.9523 24.3187 31.9634 24.3375L31.9779 24.3632C32.0168 24.4312 32.0543 24.4993 32.0904 24.568L32.1002 24.5861C32.1064 24.5972 32.1127 24.6083 32.1182 24.6194C32.1224 24.627 32.1259 24.6354 32.1293 24.643L32.1349 24.6555C32.1939 24.7722 32.2432 24.8763 32.2863 24.975L32.2974 25.0013C32.3384 25.0972 32.3779 25.1965 32.4189 25.3062L32.4245 25.3208C32.4286 25.3305 32.4328 25.3402 32.4363 25.3507C32.4398 25.3597 32.4425 25.3694 32.4453 25.3791L32.4502 25.3937C32.496 25.5222 32.5314 25.6305 32.5613 25.7333C32.5835 25.809 32.605 25.8895 32.63 25.9868C32.6349 26.0055 32.6391 26.025 32.6439 26.0437L32.6481 26.0604C32.6641 26.1263 32.6786 26.1923 32.6918 26.2583L32.696 26.2757C32.6981 26.2847 32.7002 26.2937 32.7023 26.3034L32.7064 26.3277C32.7238 26.418 32.7377 26.4979 32.7495 26.5729C32.921 27.677 32.821 28.8611 32.4585 29.9979C32.3717 30.2729 32.2654 30.5541 32.1432 30.8326C32.1273 30.8694 32.1106 30.9069 32.0939 30.9437C32.0884 30.9555 32.0835 30.9666 32.0779 30.9777L32.0668 31.0007C32.0467 31.0444 32.0259 31.0882 32.005 31.1312C31.9877 31.168 31.9696 31.2041 31.9516 31.2402C31.93 31.284 31.9078 31.327 31.8849 31.3708C31.8661 31.4069 31.8474 31.4423 31.8279 31.4784C31.8043 31.5222 31.7807 31.5652 31.7564 31.6083L31.746 31.627C31.73 31.6562 31.7134 31.6854 31.6967 31.7138C31.6717 31.7576 31.646 31.8007 31.6196 31.8437L31.6016 31.8736C31.5932 31.8882 31.5842 31.9027 31.5759 31.9173L31.5661 31.9326C31.4967 32.0444 31.4259 32.1541 31.3516 32.2638L31.3078 32.327C31.2252 32.4472 31.1488 32.5534 31.0745 32.652L31.0453 32.6902C30.9842 32.7701 30.9182 32.8548 30.8481 32.9402L30.8411 32.9493C30.8252 32.9687 30.8092 32.9888 30.7925 33.0083C30.7099 33.1076 30.6335 33.1972 30.5571 33.2819L30.5488 33.2916C30.5432 33.2979 30.537 33.3048 30.5307 33.3111L30.5189 33.3236C30.4529 33.3958 30.3863 33.4673 30.3182 33.5382C30.2953 33.5618 30.2724 33.5854 30.2495 33.609C30.1724 33.6875 30.0995 33.759 30.0279 33.8277L30.0196 33.8361C30.0141 33.8416 30.0092 33.8465 30.0036 33.852C30.0029 33.8527 29.9981 33.8569 29.9974 33.8576C29.9585 33.8944 29.9189 33.9305 29.8793 33.9666L29.8314 34.0111C29.8161 34.025 29.8009 34.0395 29.7849 34.0534C29.7134 34.1173 29.6404 34.1805 29.5661 34.243C29.5196 34.2819 29.4738 34.3201 29.4279 34.3569C29.3821 34.3937 29.337 34.4298 29.2918 34.4652L29.2731 34.4805C29.1939 34.5423 29.1106 34.6055 29.0189 34.6722L28.9759 34.7041C28.9092 34.752 28.8425 34.8 28.7759 34.8458C28.7696 34.85 28.7634 34.8541 28.7571 34.8583L28.7467 34.8652C28.6307 34.9444 28.5252 35.0132 28.4252 35.0763C28.3259 35.1388 28.221 35.2013 28.105 35.268L28.0807 35.2826C28.0689 35.2895 28.0564 35.2958 28.0446 35.302C28.0363 35.3062 28.0279 35.3104 28.0203 35.3152C27.9252 35.3687 27.8293 35.4201 27.7356 35.4687C27.6995 35.4875 27.6634 35.5062 27.6273 35.5243C27.521 35.5777 27.4148 35.6284 27.312 35.6757L27.296 35.6833C27.287 35.6875 27.2779 35.6923 27.2689 35.6958L27.2592 35.7C27.2404 35.7083 27.2252 35.7152 27.2099 35.7215L27.1807 35.734C27.1113 35.7645 27.0418 35.7944 26.9724 35.8229C26.9481 35.8333 26.9231 35.843 26.8981 35.8527L26.8689 35.8645C26.8078 35.8888 26.7467 35.9125 26.6856 35.9354C26.6488 35.9493 26.612 35.9625 26.5752 35.9763C26.5154 35.9979 26.455 36.0187 26.3953 36.0395C26.3571 36.052 26.321 36.0645 26.2849 36.0763L26.2613 36.084C26.2502 36.0882 26.2384 36.0916 26.2273 36.0951C26.2092 36.1007 26.1911 36.1062 26.1724 36.1111L26.1356 36.1222C26.0745 36.1409 26.0134 36.159 25.9523 36.1763C25.905 36.1895 25.8578 36.2027 25.8106 36.2152C25.7495 36.2312 25.6891 36.2472 25.6279 36.2618C25.5807 36.2736 25.5328 36.2847 25.4849 36.2958C25.4238 36.3097 25.3634 36.3229 25.3023 36.3354C25.2543 36.3451 25.2071 36.3548 25.1592 36.3638C25.0981 36.3757 25.0363 36.3861 24.9745 36.3965L24.9585 36.3993C24.9168 36.4062 24.8759 36.4132 24.8342 36.4194C24.771 36.4291 24.7085 36.4375 24.6453 36.4451L24.6113 36.4493C24.5773 36.4534 24.5432 36.4583 24.5099 36.4618C24.4446 36.4694 24.3793 36.475 24.3141 36.4812L24.2724 36.4854C24.2432 36.4882 24.2148 36.4909 24.1856 36.493C24.1134 36.4986 24.0418 36.502 23.9703 36.5055L23.93 36.5076C23.9078 36.509 23.8856 36.5104 23.8634 36.5111C23.7571 36.5173 23.6488 36.5194 23.5467 36.5194ZM19.3571 34.8694C19.6377 35.0826 19.9411 35.2736 20.2592 35.4382C21.23 35.9409 22.3668 36.2062 23.5474 36.2062C23.6453 36.2062 23.7495 36.2041 23.8564 36.2C23.8766 36.1993 23.8967 36.1979 23.9168 36.1965L23.9599 36.1937C24.0293 36.1902 24.0981 36.1868 24.1675 36.1812C24.1946 36.1791 24.2217 36.1763 24.2488 36.1743L24.2911 36.1701C24.355 36.1645 24.4175 36.1583 24.4807 36.1513C24.5127 36.1479 24.5446 36.1437 24.5773 36.1395L24.612 36.1347C24.6724 36.127 24.7335 36.1187 24.7939 36.1097C24.8335 36.1034 24.8738 36.0972 24.9134 36.0902L24.9293 36.0875C24.9891 36.0777 25.0481 36.0673 25.1071 36.0562C25.1529 36.0472 25.1988 36.0382 25.2453 36.0284C25.3043 36.0166 25.3627 36.0034 25.4217 35.9902C25.4675 35.9798 25.5141 35.9687 25.5599 35.9576C25.6189 35.943 25.6773 35.9277 25.7363 35.9125C25.7821 35.9 25.8279 35.8882 25.8731 35.875C25.9321 35.8583 25.9911 35.8402 26.0502 35.8222L26.0918 35.8097C26.1078 35.8048 26.1231 35.8007 26.1384 35.7958L26.1939 35.777C26.2286 35.7659 26.2641 35.7541 26.2988 35.7423C26.3585 35.7222 26.4168 35.702 26.4745 35.6812C26.5099 35.668 26.546 35.6555 26.5814 35.6416C26.6404 35.6194 26.6995 35.5965 26.7585 35.5729L26.7884 35.5611C26.812 35.552 26.8349 35.5423 26.8585 35.5333C26.9259 35.5055 26.9932 35.4763 27.0599 35.4472L27.0918 35.4333C27.1057 35.4277 27.1189 35.4215 27.1321 35.4159L27.1627 35.402C27.171 35.3979 27.1786 35.3944 27.187 35.3902C27.2863 35.3444 27.3891 35.2951 27.4925 35.2437C27.5279 35.2263 27.5627 35.2083 27.5974 35.1902C27.6884 35.143 27.7807 35.093 27.8731 35.0416C27.8835 35.0361 27.8939 35.0305 27.9043 35.025C27.9134 35.0201 27.9224 35.0152 27.9314 35.0104L27.9543 34.9965C28.0675 34.9319 28.1689 34.8708 28.2648 34.8111C28.3613 34.7507 28.4634 34.684 28.5759 34.6069L28.6036 34.5888C28.6682 34.5444 28.7328 34.4986 28.7974 34.452L28.8398 34.4208C28.9286 34.3555 29.0092 34.2951 29.0856 34.2347L29.1043 34.2194C29.1474 34.1854 29.1918 34.1507 29.2363 34.1145C29.2807 34.0784 29.3259 34.0416 29.3703 34.0041C29.4418 33.9437 29.512 33.8826 29.5814 33.8208C29.596 33.8083 29.6099 33.7951 29.6231 33.7826L29.6731 33.7368C29.7106 33.702 29.7488 33.668 29.7856 33.6326C29.7863 33.6319 29.7898 33.6284 29.7911 33.6277L29.8168 33.6027C29.8863 33.5368 29.9564 33.4673 30.0314 33.3909C30.0536 33.368 30.0759 33.3451 30.0981 33.3222C30.1641 33.2534 30.2293 33.184 30.2925 33.1138L30.3293 33.0736C30.4023 32.9916 30.4773 32.9055 30.5571 32.809C30.5731 32.7902 30.5884 32.7715 30.6036 32.752L30.6113 32.743C30.6786 32.6604 30.7432 32.5784 30.8023 32.5013L30.8307 32.4645C30.9023 32.3701 30.9759 32.2673 31.0557 32.1513L31.0974 32.0902C31.1696 31.984 31.2377 31.8777 31.3016 31.775L31.3141 31.7555C31.3217 31.743 31.3293 31.7298 31.337 31.7166L31.3564 31.684C31.3814 31.6423 31.4064 31.6007 31.4307 31.559C31.4467 31.5312 31.4627 31.5034 31.4779 31.475L31.4884 31.4562C31.5113 31.4145 31.5349 31.3729 31.5571 31.3312C31.5759 31.2965 31.5939 31.2625 31.612 31.2277C31.6335 31.1861 31.655 31.1444 31.6759 31.102C31.6932 31.0666 31.7106 31.0319 31.7279 30.9965C31.7481 30.9548 31.7682 30.9125 31.7877 30.8701L31.8141 30.8152C31.83 30.7798 31.846 30.7444 31.862 30.7083C31.98 30.4395 32.0821 30.1694 32.1654 29.9041C32.5134 28.8125 32.6099 27.6777 32.4453 26.6215C32.4342 26.5507 32.421 26.475 32.4043 26.3888L32.3911 26.3229C32.3779 26.2597 32.3641 26.1972 32.3495 26.1347L32.3453 26.1173C32.3411 26.1 32.337 26.0819 32.3328 26.0645C32.3092 25.9715 32.2884 25.8944 32.2675 25.8229C32.2391 25.725 32.205 25.6222 32.1613 25.4993C32.1585 25.4902 32.1557 25.4826 32.1529 25.4743C32.1516 25.4694 32.1495 25.4638 32.1481 25.459C32.146 25.4534 32.1439 25.4486 32.1418 25.4437C32.1384 25.4354 32.1349 25.4263 32.1314 25.418C32.0925 25.3138 32.055 25.2187 32.0161 25.1291L32.0057 25.1034C31.9654 25.0104 31.9182 24.9111 31.862 24.8C31.8585 24.793 31.8543 24.7847 31.8509 24.777L31.8453 24.7645C31.8418 24.7576 31.8377 24.75 31.8335 24.743C31.8286 24.7347 31.8238 24.7257 31.8189 24.7166C31.7842 24.6507 31.7488 24.5861 31.712 24.5215L31.6967 24.4944C31.687 24.477 31.6766 24.459 31.6661 24.4416C31.6078 24.3437 31.5543 24.2576 31.5023 24.1805C31.5016 24.1798 31.5009 24.1784 31.5002 24.177C31.4523 24.1055 31.4023 24.0347 31.3523 23.9659L30.7543 23.1507C30.7779 23.2208 30.7981 23.2854 30.8161 23.3472C30.8384 23.4229 30.8606 23.5034 30.8849 23.6007L30.9029 23.6743C30.9182 23.7402 30.9328 23.8055 30.9467 23.8715L30.9613 23.9409C30.9786 24.0298 30.9925 24.1097 31.0043 24.1861C31.1759 25.2902 31.0752 26.4743 30.7134 27.6111C30.6266 27.8868 30.5203 28.168 30.3981 28.4458C30.3759 28.4972 30.3516 28.5486 30.3279 28.6L30.3217 28.6138C30.3016 28.6576 30.2807 28.7013 30.2599 28.7451C30.2425 28.7812 30.2245 28.8173 30.2064 28.8541C30.1842 28.8979 30.162 28.9416 30.1398 28.9847C30.121 29.0201 30.1023 29.0562 30.0835 29.0916C30.0599 29.1354 30.0356 29.1784 30.0113 29.2222L30.0043 29.2347C29.987 29.2659 29.9696 29.2965 29.9516 29.3277C29.9266 29.3715 29.9009 29.4145 29.8745 29.4576L29.8675 29.4694C29.8509 29.4972 29.8342 29.525 29.8175 29.552C29.7523 29.6583 29.6814 29.768 29.6064 29.8784L29.5627 29.9423C29.4807 30.0618 29.4043 30.168 29.3293 30.2673L29.3002 30.3048C29.2384 30.3861 29.1738 30.468 29.1029 30.5548L29.0467 30.6229C28.9648 30.7222 28.8877 30.8111 28.8113 30.8958L28.7731 30.9368C28.7071 31.009 28.6404 31.0805 28.5717 31.152C28.5488 31.1757 28.5259 31.1993 28.5029 31.2229C28.4266 31.3007 28.3543 31.3722 28.2814 31.4416L28.2495 31.4729C28.2106 31.5097 28.171 31.5458 28.1307 31.5826L28.0856 31.6243C28.0696 31.6388 28.0543 31.6534 28.0384 31.6673C27.9668 31.7312 27.8939 31.7944 27.8196 31.8569C27.7314 31.9305 27.6418 32.0034 27.5446 32.0791L27.5259 32.0944C27.4474 32.1555 27.3641 32.2187 27.2717 32.2861L27.2286 32.318C27.1523 32.3736 27.0759 32.4263 27.0002 32.4784C26.8842 32.5576 26.7786 32.6263 26.6786 32.6895C26.58 32.7513 26.4752 32.8138 26.3585 32.8812C26.3411 32.8909 26.3238 32.9007 26.3057 32.9104L26.2738 32.9284C26.1793 32.9812 26.0835 33.0333 25.9891 33.0819C25.9529 33.1007 25.9168 33.1194 25.8807 33.1375C25.7745 33.1909 25.6689 33.2416 25.5654 33.2888L25.5411 33.3C25.5307 33.3048 25.5196 33.3104 25.5092 33.3152C25.4939 33.3222 25.4786 33.3284 25.4634 33.3354L25.4335 33.3479C25.3641 33.3784 25.2946 33.4083 25.2252 33.4368C25.1995 33.4472 25.1738 33.4576 25.1474 33.468L25.121 33.4784C25.0599 33.5027 24.9995 33.5263 24.9377 33.5493C24.9009 33.5632 24.8641 33.5763 24.8266 33.5902C24.7668 33.6118 24.7064 33.6326 24.6467 33.6527C24.6099 33.6652 24.5731 33.6777 24.5363 33.6895C24.4932 33.7034 24.4495 33.7166 24.4064 33.7298L24.387 33.7354C24.3259 33.7541 24.2648 33.7722 24.2036 33.7895C24.1564 33.8027 24.1085 33.8159 24.0613 33.8284C24.0009 33.8444 23.9404 33.8604 23.8793 33.875C23.8314 33.8868 23.7835 33.8979 23.7356 33.909C23.6752 33.9229 23.6141 33.9361 23.5536 33.9486C23.5064 33.9583 23.4585 33.968 23.4106 33.977C23.3488 33.9888 23.2877 33.9993 23.2259 34.0097L23.212 34.0118C23.1696 34.0187 23.1273 34.0257 23.0849 34.0326C23.0217 34.0423 22.9592 34.0507 22.8967 34.0583L22.8634 34.0625C22.8286 34.0673 22.7946 34.0715 22.7606 34.0757C22.696 34.0833 22.6314 34.0888 22.5668 34.0951L22.5238 34.0993C22.4946 34.102 22.4654 34.1048 22.437 34.1069C22.3654 34.1125 22.2939 34.1159 22.2224 34.1194L22.1814 34.1215C22.1592 34.1229 22.137 34.1243 22.1148 34.125C22.0036 34.1291 21.896 34.1312 21.7939 34.1312C20.5634 34.1312 19.3773 33.8534 18.362 33.3277C18.2849 33.2882 18.2092 33.2465 18.1342 33.2041L19.3571 34.8694Z" fill="#F0F5FF"/>
<path d="M52.9201 37.0178C53.4907 37.0178 53.9534 36.5552 53.9534 35.9845C53.9534 35.4138 53.4907 34.9512 52.9201 34.9512C52.3494 34.9512 51.8867 35.4138 51.8867 35.9845C51.8867 36.5552 52.3494 37.0178 52.9201 37.0178Z" fill="#F0F5FF"/>
<path d="M9.46693 33.2053C10.0376 33.2053 10.5003 32.7427 10.5003 32.172C10.5003 31.6013 10.0376 31.1387 9.46693 31.1387C8.89623 31.1387 8.43359 31.6013 8.43359 32.172C8.43359 32.7427 8.89623 33.2053 9.46693 33.2053Z" fill="#F0F5FF"/>
<path d="M9.98498 34.0422C10.186 34.0422 10.3489 33.8793 10.3489 33.6783C10.3489 33.4774 10.186 33.3145 9.98498 33.3145C9.78401 33.3145 9.62109 33.4774 9.62109 33.6783C9.62109 33.8793 9.78401 34.0422 9.98498 34.0422Z" fill="#F0F5FF"/>
<path d="M15.1076 20.2092C15.6782 20.2092 16.1409 19.7466 16.1409 19.1759C16.1409 18.6052 15.6782 18.1426 15.1076 18.1426C14.5369 18.1426 14.0742 18.6052 14.0742 19.1759C14.0742 19.7466 14.5369 20.2092 15.1076 20.2092Z" fill="#F0F5FF"/>
<path d="M16.317 18.5032C16.518 18.5032 16.6809 18.3403 16.6809 18.1393C16.6809 17.9383 16.518 17.7754 16.317 17.7754C16.116 17.7754 15.9531 17.9383 15.9531 18.1393C15.9531 18.3403 16.116 18.5032 16.317 18.5032Z" fill="#F0F5FF"/>
<path d="M55.5747 14.7684C56.5565 14.7684 57.3524 13.9725 57.3524 12.9907C57.3524 12.0088 56.5565 11.2129 55.5747 11.2129C54.5928 11.2129 53.7969 12.0088 53.7969 12.9907C53.7969 13.9725 54.5928 14.7684 55.5747 14.7684Z" fill="#E4E7EC"/>
<path d="M53.7957 12.113C54.2633 12.113 54.6423 11.734 54.6423 11.2664C54.6423 10.7989 54.2633 10.4199 53.7957 10.4199C53.3282 10.4199 52.9492 10.7989 52.9492 11.2664C52.9492 11.734 53.3282 12.113 53.7957 12.113Z" fill="#F0F5FF"/>
</svg>
