<svg width="42" height="42" viewBox="0 0 42 42" fill="none" xmlns="http://www.w3.org/2000/svg">
<circle cx="21" cy="21" r="21" fill="#F1F1F5"/>
<rect x="11.7148" y="11.2852" width="17.1429" height="20" rx="2.85714" fill="#B7B7BB"/>
<rect x="15.2852" y="16.2852" width="10" height="1.42857" rx="0.714286" fill="white"/>
<rect x="24.5703" y="9.14258" width="4.28571" height="1.42857" rx="0.714286" transform="rotate(90 24.5703 9.14258)" fill="#7A7A84"/>
<rect x="14.5742" y="20.5703" width="11.4286" height="1.42857" rx="0.714286" fill="white"/>
<rect x="17.4297" y="9.14258" width="4.28571" height="1.42857" rx="0.714286" transform="rotate(90 17.4297 9.14258)" fill="#7A7A84"/>
<circle cx="28.0033" cy="28.4252" r="5.71429" fill="white"/>
<path d="M27.2033 29.4538L25.9605 28.2109C25.8557 28.1062 25.7272 28.0538 25.5748 28.0538C25.4224 28.0538 25.2891 28.1109 25.1748 28.2252C25.07 28.33 25.0176 28.4633 25.0176 28.6252C25.0176 28.7871 25.07 28.9205 25.1748 29.0252L26.8033 30.6538C26.9081 30.7586 27.0414 30.8109 27.2033 30.8109C27.3653 30.8109 27.4986 30.7586 27.6033 30.6538L30.8462 27.4109C30.951 27.3062 31.0033 27.1776 31.0033 27.0252C31.0033 26.8728 30.9462 26.7395 30.8319 26.6252C30.7272 26.5205 30.5938 26.4681 30.4319 26.4681C30.27 26.4681 30.1367 26.5205 30.0319 26.6252L27.2033 29.4538ZM28.0033 34.1395C27.2129 34.1395 26.47 33.9894 25.7748 33.6892C25.0795 33.3894 24.4748 32.9824 23.9605 32.4681C23.4462 31.9538 23.0392 31.349 22.7393 30.6538C22.4392 29.9586 22.2891 29.2157 22.2891 28.4252C22.2891 27.6347 22.4392 26.8919 22.7393 26.1967C23.0392 25.5014 23.4462 24.8967 23.9605 24.3824C24.4748 23.8681 25.0795 23.4608 25.7748 23.1607C26.47 22.8608 27.2129 22.7109 28.0033 22.7109C28.7938 22.7109 29.5367 22.8608 30.2319 23.1607C30.9272 23.4608 31.5319 23.8681 32.0462 24.3824C32.5605 24.8967 32.9675 25.5014 33.2673 26.1967C33.5675 26.8919 33.7176 27.6347 33.7176 28.4252C33.7176 29.2157 33.5675 29.9586 33.2673 30.6538C32.9675 31.349 32.5605 31.9538 32.0462 32.4681C31.5319 32.9824 30.9272 33.3894 30.2319 33.6892C29.5367 33.9894 28.7938 34.1395 28.0033 34.1395Z" fill="#7A7A84"/>
</svg>
