<svg width="61" height="60" viewBox="0 0 61 60" fill="none" xmlns="http://www.w3.org/2000/svg">
<path d="M30.5015 53.3477C44.6611 53.3477 56.1397 48.8447 56.1397 43.2901C56.1397 37.7354 44.6611 33.2324 30.5015 33.2324C16.3419 33.2324 4.86328 37.7354 4.86328 43.2901C4.86328 48.8447 16.3419 53.3477 30.5015 53.3477Z" fill="#F9FAFB"/>
<path d="M31.3429 13.4966C31.2936 13.4299 31.2373 13.3688 31.1748 13.3139C30.954 13.1209 30.6554 13.0098 30.3241 13.0098C30.2221 13.0098 30.1151 13.0209 30.0068 13.0431C29.954 13.0542 29.9026 13.0681 29.8519 13.0834C29.8464 13.0848 29.8408 13.0862 29.8352 13.0875C29.8144 13.0945 29.7936 13.1021 29.7727 13.1098C29.7644 13.1125 29.7554 13.1153 29.7471 13.1188C29.713 13.132 29.679 13.1459 29.6457 13.1605C29.6436 13.1612 29.6415 13.1625 29.6401 13.1632C29.5943 13.1841 29.5498 13.207 29.5061 13.2313C29.5033 13.2327 29.5012 13.2341 29.4984 13.2355C29.488 13.2417 29.4783 13.2487 29.4679 13.2549C29.4408 13.2716 29.4137 13.2882 29.3873 13.3056C29.3825 13.3091 29.3769 13.3118 29.372 13.3153C29.3616 13.3223 29.3519 13.3306 29.3415 13.3382C29.32 13.3542 29.2984 13.3695 29.2769 13.3862C29.2707 13.391 29.2637 13.3959 29.2568 13.4007C29.2484 13.4077 29.2401 13.4153 29.2318 13.4223C29.2116 13.4389 29.1922 13.4563 29.1727 13.4737C29.1651 13.4806 29.1575 13.4868 29.1498 13.4938C29.1352 13.5077 29.1207 13.5216 29.1068 13.5362C29.088 13.5556 29.07 13.575 29.0519 13.5945C29.0471 13.5993 29.0436 13.6049 29.0387 13.6105C29.0179 13.6341 28.9977 13.6591 28.9783 13.6834C28.9714 13.6924 28.963 13.7007 28.9568 13.7098C28.9547 13.7125 28.9533 13.7153 28.9512 13.7181C28.9214 13.7577 28.8936 13.7987 28.8679 13.841C28.8665 13.8431 28.8651 13.8445 28.8637 13.8466C28.8457 13.8764 28.8283 13.907 28.8116 13.9375C28.8082 13.9438 28.8054 13.9507 28.8019 13.957C28.7908 13.9792 28.779 14.0014 28.7693 14.0237C28.7665 14.0292 28.7651 14.0348 28.7623 14.0403C28.7575 14.0521 28.7526 14.0639 28.7477 14.0764C28.738 14.1 28.729 14.1237 28.7207 14.1473C28.7158 14.1598 28.7116 14.173 28.7075 14.1855C28.6991 14.2105 28.6922 14.2348 28.6852 14.2598C28.6825 14.2716 28.679 14.2827 28.6762 14.2945C28.6672 14.3306 28.6595 14.3674 28.654 14.4042C28.638 14.5028 28.6325 14.6042 28.6401 14.7049L28.6762 15.2313L30.1776 17.2778L30.1415 16.7514C30.1339 16.65 30.1394 16.5493 30.1554 16.4507C30.1609 16.4139 30.1693 16.3771 30.1776 16.341C30.1804 16.3292 30.1839 16.3181 30.1866 16.3063C30.1936 16.2813 30.2005 16.2563 30.2082 16.232C30.2123 16.2195 30.2165 16.2063 30.2214 16.1938C30.2297 16.1702 30.2387 16.1466 30.2484 16.123C30.2533 16.1112 30.2582 16.0993 30.263 16.0875C30.2755 16.0598 30.2887 16.032 30.3026 16.0042C30.3061 15.998 30.3089 15.991 30.3123 15.9848C30.3297 15.9521 30.3484 15.9195 30.3679 15.8875C30.3936 15.8459 30.422 15.8049 30.4512 15.7646C30.4602 15.7528 30.4693 15.7417 30.479 15.7299C30.4984 15.7049 30.5186 15.6806 30.5394 15.657C30.5616 15.632 30.5839 15.607 30.6075 15.5827C30.629 15.5612 30.6512 15.541 30.6734 15.5202C30.6929 15.5028 30.7123 15.4855 30.7325 15.4688C30.7471 15.4563 30.7623 15.4438 30.7776 15.432C30.7984 15.4153 30.82 15.3993 30.8422 15.3841C30.8575 15.373 30.8721 15.3618 30.888 15.3514C30.9144 15.3341 30.9415 15.3174 30.9686 15.3007C30.9818 15.2931 30.9943 15.2848 31.0075 15.2771C31.0512 15.2528 31.0957 15.2299 31.1415 15.2091C31.1769 15.1931 31.2123 15.1778 31.2491 15.1639C31.2575 15.1605 31.2665 15.1577 31.2748 15.1549C31.3012 15.1452 31.3276 15.1368 31.3547 15.1285C31.4054 15.1132 31.4568 15.0987 31.5096 15.0882C31.6179 15.066 31.7248 15.0549 31.8269 15.0549C32.1589 15.0549 32.4575 15.166 32.6776 15.3591C32.7401 15.4139 32.7964 15.4743 32.8457 15.5417L31.3429 13.4966Z" fill="#D0D5DD"/>
<path d="M30.1756 17.4178C30.1325 17.4178 30.0902 17.3976 30.0638 17.3608L28.5624 15.3136C28.5471 15.2921 28.5374 15.2671 28.536 15.2407L28.4999 14.7143C28.4915 14.6073 28.4971 14.4948 28.5152 14.3816C28.5214 14.3441 28.529 14.3046 28.5395 14.2615C28.5415 14.2525 28.5443 14.2428 28.5464 14.2337L28.5492 14.2233C28.5568 14.1962 28.5645 14.1691 28.5728 14.1421C28.5777 14.1282 28.5825 14.1143 28.5874 14.0997C28.5964 14.074 28.6061 14.0483 28.6172 14.0226L28.62 14.015C28.6242 14.0046 28.6284 13.9941 28.6332 13.9837L28.6402 13.9664C28.6513 13.9421 28.6624 13.9198 28.6742 13.8969L28.679 13.8872C28.6818 13.8816 28.6839 13.8768 28.6867 13.8712C28.7041 13.8379 28.7228 13.8053 28.7429 13.7726C28.7443 13.7698 28.7485 13.7643 28.7506 13.7615C28.7749 13.7226 28.8047 13.6775 28.8381 13.6337C28.8381 13.633 28.8409 13.6289 28.8443 13.6247C28.8499 13.6178 28.8554 13.6108 28.8617 13.6039L28.8679 13.5962C28.8888 13.5691 28.9103 13.5428 28.9332 13.5171C28.9388 13.5094 28.9429 13.5053 28.9471 13.5004C28.9666 13.4782 28.9867 13.4573 29.0068 13.4372C29.0221 13.4219 29.0374 13.4066 29.0534 13.3921C29.0596 13.3865 29.0659 13.3809 29.0721 13.3754L29.0784 13.3698C29.0985 13.3511 29.12 13.3323 29.1416 13.3143L29.1492 13.3073C29.1554 13.3018 29.1617 13.2962 29.1686 13.2907C29.1742 13.2865 29.1797 13.2823 29.1853 13.2782C29.2124 13.2566 29.236 13.24 29.2596 13.2233L29.2686 13.2164C29.2763 13.2101 29.2839 13.2046 29.2922 13.199C29.2971 13.1955 29.302 13.1928 29.3068 13.1893C29.3367 13.1691 29.3659 13.1518 29.395 13.1337L29.404 13.1282C29.4117 13.1233 29.42 13.1178 29.4284 13.1129C29.4311 13.1115 29.4374 13.108 29.4402 13.1066C29.4839 13.0823 29.5325 13.0573 29.5804 13.0351L29.5867 13.0316C29.6228 13.0157 29.6596 13.0004 29.6964 12.9865C29.7027 12.9844 29.7096 12.9816 29.7159 12.9796L29.7353 12.9726C29.754 12.9657 29.7728 12.9587 29.7922 12.9532C29.7985 12.9511 29.8047 12.9497 29.811 12.9483C29.8728 12.9296 29.9263 12.9157 29.9784 12.9053C30.0957 12.8816 30.2117 12.8691 30.3235 12.8691C30.6811 12.8691 31.0159 12.9893 31.2659 13.2073C31.336 13.2691 31.3999 13.3379 31.454 13.4122L32.9554 15.4587C33.0006 15.5205 32.9874 15.6073 32.9256 15.6532C32.8638 15.6983 32.777 15.6851 32.7311 15.6233V15.6226C32.6888 15.565 32.6395 15.5108 32.5846 15.4629C32.3853 15.2886 32.1159 15.1928 31.8249 15.1928C31.7311 15.1928 31.6339 15.2032 31.5353 15.2233C31.4929 15.2323 31.4464 15.2441 31.3936 15.2601C31.3686 15.2678 31.3443 15.2754 31.32 15.2844L31.2964 15.2928C31.2631 15.3053 31.2304 15.3191 31.1978 15.3337C31.1568 15.3525 31.1152 15.3733 31.0742 15.3969C31.0672 15.4004 31.061 15.4046 31.0547 15.4087L31.0381 15.4184C31.0131 15.4337 30.9881 15.449 30.9638 15.465C30.952 15.4726 30.9416 15.4809 30.9304 15.4886L30.9221 15.4948C30.902 15.5094 30.8825 15.524 30.8631 15.5393C30.8492 15.5504 30.8353 15.5615 30.8214 15.5733C30.8034 15.5886 30.7853 15.6046 30.7672 15.6205L30.761 15.6261C30.7422 15.6428 30.7242 15.6601 30.7061 15.6782C30.6846 15.7004 30.6638 15.7233 30.6436 15.7462C30.6242 15.7684 30.6061 15.7907 30.5881 15.8136L30.577 15.8275C30.5721 15.8337 30.5672 15.8393 30.5624 15.8455C30.5346 15.883 30.5089 15.9212 30.4853 15.958C30.4672 15.9872 30.4499 16.0171 30.4339 16.0469L30.4249 16.065C30.4124 16.0893 30.3999 16.115 30.3888 16.14L30.3756 16.1726C30.3665 16.1941 30.3582 16.2157 30.3506 16.2372C30.3464 16.249 30.3422 16.2601 30.3388 16.2719C30.3311 16.2948 30.3249 16.3171 30.3186 16.34L30.3103 16.3712C30.3027 16.4039 30.2957 16.4372 30.2902 16.4698C30.2756 16.5615 30.2714 16.6525 30.2777 16.7386L30.3138 17.2657C30.3179 17.3275 30.2811 17.3844 30.2228 17.4053C30.2075 17.415 30.1916 17.4178 30.1756 17.4178ZM28.8103 15.1823L30.0047 16.8108L30.0013 16.7622C29.9929 16.6553 29.9985 16.5428 30.0165 16.4296C30.0228 16.3921 30.0304 16.3525 30.0409 16.3094C30.0429 16.3004 30.0457 16.2914 30.0478 16.2816L30.0506 16.2712C30.0575 16.2441 30.0659 16.2171 30.0742 16.19C30.0784 16.1761 30.0832 16.1622 30.0888 16.1476C30.0978 16.1219 30.1075 16.0962 30.1186 16.0705L30.1221 16.0622C30.1263 16.0525 30.1304 16.0421 30.1346 16.0323C30.1478 16.0018 30.1624 15.9719 30.1777 15.9421L30.1881 15.9212C30.2068 15.8858 30.227 15.8504 30.2485 15.8164C30.2756 15.7719 30.3061 15.7275 30.3388 15.6837C30.3457 15.6747 30.3527 15.6657 30.3596 15.6573L30.3686 15.6462C30.3895 15.6198 30.411 15.5934 30.4339 15.5678C30.4575 15.5407 30.4818 15.5136 30.5075 15.4879C30.5284 15.4664 30.5506 15.4462 30.5728 15.4261L30.5791 15.4205C30.5999 15.4018 30.6207 15.383 30.6422 15.365C30.6582 15.3518 30.6742 15.3386 30.6909 15.3254C30.7138 15.3073 30.7367 15.2907 30.7603 15.274L30.7686 15.2678C30.7825 15.258 30.7957 15.2483 30.8096 15.2386C30.8381 15.2198 30.8672 15.2018 30.8964 15.1844L30.9096 15.1768C30.9193 15.1712 30.9284 15.165 30.9388 15.1594C30.9867 15.1323 31.0353 15.108 31.0832 15.0858C31.1214 15.0684 31.1596 15.0525 31.1992 15.0372L31.227 15.0275C31.2554 15.0171 31.2839 15.008 31.3131 14.999C31.3742 14.9803 31.429 14.9657 31.4804 14.9553C31.754 14.899 32.0186 14.9101 32.2589 14.9809L31.2311 13.5803C31.1888 13.5219 31.1388 13.4684 31.0839 13.4205C30.8846 13.2462 30.6145 13.1504 30.3242 13.1504C30.2311 13.1504 30.1332 13.1608 30.0346 13.1809C29.9915 13.19 29.9464 13.2018 29.8929 13.2178C29.8874 13.2191 29.8818 13.2205 29.8763 13.2219C29.8617 13.2261 29.8464 13.2316 29.8311 13.2372L29.7964 13.2497C29.7645 13.2615 29.7332 13.2747 29.7027 13.2886C29.6561 13.3101 29.6145 13.3316 29.5742 13.3546C29.5714 13.3559 29.5652 13.3594 29.5624 13.3608C29.5631 13.3608 29.5603 13.3629 29.5568 13.365C29.5513 13.3691 29.545 13.3726 29.5388 13.3761C29.5138 13.3914 29.4888 13.4066 29.4645 13.4226C29.4603 13.4254 29.4554 13.4282 29.4513 13.4309C29.4464 13.4337 29.4429 13.4372 29.4395 13.44C29.4339 13.4441 29.4284 13.4483 29.4228 13.4525C29.4027 13.4671 29.3825 13.4816 29.3631 13.4969C29.3582 13.5004 29.354 13.5039 29.3492 13.5073L29.3367 13.5178C29.3318 13.5219 29.327 13.5268 29.3214 13.5309C29.3034 13.5462 29.2853 13.5622 29.2672 13.5782C29.2624 13.583 29.2575 13.5865 29.2527 13.5907L29.2457 13.5969C29.2325 13.6094 29.2193 13.6226 29.2061 13.6358C29.1888 13.6532 29.1721 13.6712 29.1554 13.69C29.1506 13.6962 29.1471 13.7004 29.1429 13.7046C29.1242 13.7261 29.1061 13.749 29.0881 13.7712C29.0839 13.7768 29.079 13.7823 29.0749 13.7872L29.0679 13.7955C29.0679 13.7955 29.0659 13.799 29.0631 13.8025C29.0346 13.8407 29.0089 13.8782 28.986 13.9157C28.9846 13.9178 28.9825 13.9212 28.9804 13.924C28.9645 13.9504 28.9492 13.9775 28.9346 14.0046L28.9256 14.0226C28.9145 14.0448 28.904 14.0643 28.8957 14.0837L28.8895 14.099C28.886 14.1066 28.8832 14.1143 28.8797 14.1226L28.8763 14.1309C28.8672 14.1525 28.8589 14.174 28.8513 14.1955C28.8471 14.2073 28.8429 14.2184 28.8395 14.2303C28.8325 14.2525 28.8256 14.2754 28.8193 14.2976L28.811 14.3289C28.8034 14.3615 28.7964 14.3941 28.7909 14.4275C28.7763 14.5191 28.7721 14.6101 28.7784 14.6962L28.8103 15.1823Z" fill="#F9FAFB"/>
<path d="M32.023 16.46L30.5216 14.4135C30.5056 14.392 30.4876 14.3718 30.4674 14.3545C30.3952 14.292 30.2994 14.2559 30.1931 14.2559C30.1591 14.2566 30.1251 14.26 30.0897 14.267C30.0709 14.2711 30.0522 14.276 30.0341 14.2816C30.0285 14.2836 30.0237 14.2857 30.0181 14.2878C30.0098 14.2906 30.0022 14.2941 29.9945 14.2968C29.9876 14.2996 29.9799 14.3017 29.973 14.3052C29.9605 14.3107 29.9494 14.317 29.9376 14.3232C29.9348 14.3246 29.932 14.326 29.9299 14.3274C29.9285 14.3281 29.9278 14.3288 29.9265 14.3295C29.9126 14.3371 29.8994 14.3454 29.8862 14.3545C29.8799 14.3586 29.8737 14.3635 29.8681 14.3684C29.8653 14.3704 29.8619 14.3732 29.8591 14.3753C29.8563 14.3774 29.8528 14.3795 29.8501 14.3816C29.8383 14.3913 29.8272 14.401 29.816 14.4114C29.8105 14.4163 29.8056 14.4218 29.8008 14.4267C29.7945 14.4329 29.7883 14.4399 29.782 14.4461C29.7709 14.4579 29.7605 14.4711 29.7508 14.4836C29.7501 14.4843 29.7494 14.4857 29.7487 14.4871C29.7466 14.4899 29.7452 14.4927 29.7431 14.4954C29.7355 14.5066 29.7278 14.517 29.7209 14.5288C29.7174 14.5343 29.7147 14.5406 29.7119 14.5461C29.7077 14.5538 29.7035 14.5614 29.6994 14.5691C29.6966 14.5746 29.6931 14.5802 29.6903 14.5857C29.6862 14.5954 29.6827 14.6059 29.6792 14.6156C29.6765 14.6225 29.6737 14.6295 29.6709 14.6371C29.6633 14.66 29.657 14.6829 29.6535 14.7066C29.6487 14.7385 29.6473 14.7711 29.6494 14.8038L29.6785 15.2329L31.1799 17.2795L31.1508 16.8503C31.1487 16.8177 31.1501 16.785 31.1549 16.7531C31.1584 16.7295 31.1647 16.7066 31.1723 16.6836C31.1744 16.6767 31.1778 16.6697 31.1806 16.6621C31.1869 16.6461 31.1931 16.6309 31.2008 16.6156C31.2049 16.6079 31.2091 16.6003 31.2133 16.5927C31.223 16.5753 31.2334 16.5586 31.2452 16.542C31.2473 16.5392 31.2487 16.5364 31.2508 16.5336C31.2667 16.5128 31.2834 16.492 31.3022 16.4732C31.3202 16.4545 31.3397 16.4378 31.3605 16.4211C31.3633 16.4191 31.3667 16.4163 31.3695 16.4142C31.389 16.3996 31.4098 16.3857 31.4313 16.3732C31.4341 16.3718 31.4369 16.3704 31.439 16.3691C31.4577 16.3593 31.4765 16.3503 31.4966 16.3427C31.5042 16.3392 31.5126 16.3364 31.5202 16.3336C31.5431 16.3253 31.5667 16.3184 31.5917 16.3128C31.6272 16.3059 31.6612 16.3024 31.6952 16.3017C31.8015 16.3017 31.8973 16.3378 31.9695 16.4003C31.989 16.4191 32.007 16.4385 32.023 16.46Z" fill="#D0D5DD"/>
<path d="M31.1779 17.4173C31.1348 17.4173 31.0925 17.3972 31.0661 17.3604L29.5647 15.3132C29.5494 15.2916 29.5397 15.2666 29.5383 15.2402L29.5092 14.8111C29.5064 14.7673 29.5078 14.7243 29.5147 14.6826C29.5196 14.6541 29.5265 14.6243 29.5369 14.5916C29.5397 14.5833 29.5425 14.5757 29.5453 14.568L29.5494 14.5569C29.5529 14.5465 29.5571 14.5361 29.5619 14.5257C29.5654 14.5187 29.5689 14.5118 29.5723 14.5048C29.5779 14.4944 29.5828 14.4847 29.5883 14.4743C29.5925 14.4659 29.596 14.4597 29.6001 14.4527C29.6092 14.4382 29.6189 14.4243 29.6286 14.4111C29.63 14.409 29.6314 14.4069 29.6335 14.4041C29.6342 14.4027 29.6355 14.4013 29.6362 14.4C29.6508 14.3805 29.664 14.3652 29.6772 14.35C29.6848 14.3416 29.6925 14.3333 29.7001 14.3257C29.7057 14.3201 29.7119 14.3132 29.7189 14.3076C29.7328 14.2944 29.7467 14.2826 29.7612 14.2708C29.7633 14.2694 29.7703 14.2638 29.7723 14.2625L29.7883 14.2507C29.7939 14.2465 29.8001 14.2416 29.8064 14.2375C29.823 14.2263 29.8397 14.2159 29.8564 14.2062C29.8592 14.2048 29.8633 14.202 29.8661 14.2013L29.8717 14.1986C29.8848 14.1916 29.8994 14.1833 29.9147 14.1763C29.9223 14.1729 29.93 14.1701 29.9376 14.1673C29.9515 14.1618 29.9612 14.1583 29.9717 14.1548C29.9786 14.152 29.9848 14.1493 29.9918 14.1472C30.0147 14.1402 30.0376 14.134 30.0605 14.1291C30.1029 14.1208 30.1446 14.1159 30.189 14.1152C30.3293 14.1152 30.4585 14.1625 30.5571 14.2479C30.5855 14.2729 30.6105 14.3007 30.6321 14.3298L32.1328 16.3763C32.1328 16.3763 32.1328 16.377 32.1335 16.377C32.1786 16.4388 32.1654 16.5257 32.1036 16.5715C32.0418 16.6166 31.955 16.6034 31.9092 16.5416C31.8994 16.5284 31.8883 16.5159 31.8758 16.5048C31.8279 16.4632 31.7633 16.4402 31.6932 16.4402C31.6682 16.4409 31.6418 16.4437 31.6168 16.4486C31.6022 16.4513 31.5862 16.4562 31.564 16.4638C31.5578 16.4659 31.5515 16.4687 31.546 16.4708C31.5314 16.4763 31.5168 16.4833 31.5029 16.4902C31.5015 16.4909 31.496 16.4937 31.4946 16.4944C31.4821 16.5013 31.4668 16.5118 31.4501 16.5236L31.3578 16.4194L31.4432 16.5291C31.4258 16.5423 31.4119 16.5555 31.3987 16.5687C31.3848 16.5833 31.3717 16.5986 31.3592 16.6152L31.355 16.6215C31.3467 16.6333 31.339 16.6458 31.3314 16.659C31.3286 16.6645 31.3251 16.6701 31.3223 16.6763C31.3168 16.6868 31.3119 16.6986 31.3078 16.7097L31.3043 16.7187C31.296 16.743 31.2918 16.759 31.2897 16.7729C31.2862 16.793 31.2855 16.8159 31.2869 16.8388L31.3161 17.268C31.3203 17.3298 31.2835 17.3868 31.2251 17.4076C31.2098 17.4145 31.1939 17.4173 31.1779 17.4173ZM29.8126 15.1819L31.0092 16.8132C31.0092 16.7854 31.0119 16.7576 31.0161 16.7305C31.021 16.702 31.0279 16.6722 31.039 16.6395C31.0411 16.6319 31.0446 16.625 31.0473 16.6173C31.0571 16.5916 31.0654 16.5722 31.0751 16.5527C31.08 16.5423 31.0855 16.5333 31.0904 16.5236C31.1029 16.5013 31.1161 16.4805 31.1307 16.4597C31.1328 16.4569 31.1348 16.4527 31.1376 16.4493C31.1571 16.4229 31.1793 16.3972 31.2015 16.3743C31.2223 16.3527 31.246 16.3319 31.273 16.3104C31.2737 16.3097 31.2807 16.3048 31.2814 16.3041C31.3105 16.2826 31.3355 16.2659 31.3612 16.2513C31.3633 16.25 31.3696 16.2472 31.3717 16.2458C31.3939 16.234 31.4175 16.2229 31.4425 16.2132C31.4529 16.209 31.4626 16.2055 31.4723 16.202C31.5057 16.1902 31.5335 16.1826 31.5612 16.1763C31.5855 16.1715 31.6092 16.168 31.6342 16.1659L30.4085 14.4951C30.3987 14.4819 30.3876 14.4694 30.3744 14.4583C30.3265 14.4173 30.2619 14.3937 30.1918 14.3937C30.1668 14.3944 30.1404 14.3972 30.1154 14.402C30.1022 14.4048 30.0883 14.4083 30.0751 14.4125C30.0723 14.4138 30.0675 14.4159 30.0633 14.4173C30.0571 14.4194 30.0508 14.4222 30.0453 14.4243L30.0314 14.4298C30.0196 14.4347 30.0105 14.4395 30.0022 14.4444C30.0008 14.4451 29.9953 14.4479 29.9939 14.4486C29.9932 14.4493 29.9918 14.45 29.9911 14.45C29.9821 14.4555 29.9723 14.4611 29.964 14.4673L29.9501 14.4777L29.8578 14.3736L29.9439 14.4826C29.9425 14.484 29.9369 14.4882 29.9355 14.4888C29.9279 14.4951 29.9196 14.5027 29.9112 14.5104L29.8994 14.5222C29.8939 14.5277 29.889 14.5326 29.8848 14.5375C29.8772 14.5458 29.8703 14.5541 29.8633 14.5632C29.8619 14.5645 29.8612 14.5666 29.8605 14.5673C29.8592 14.5687 29.8571 14.5729 29.8557 14.5743C29.8501 14.5826 29.8439 14.5902 29.8383 14.5993L29.8321 14.6118C29.8286 14.618 29.8258 14.6229 29.823 14.6284L29.8161 14.6416C29.8154 14.6437 29.814 14.6465 29.8133 14.65L29.8057 14.6715C29.7973 14.6965 29.7932 14.7118 29.7911 14.7263C29.7876 14.7465 29.7869 14.7694 29.7883 14.7923L29.8126 15.1819Z" fill="#F9FAFB"/>
<path d="M32.5504 16.5604C32.5484 16.5264 32.5435 16.4931 32.5372 16.4604C32.5372 16.459 32.5365 16.4576 32.5358 16.4563C32.5282 16.4201 32.5192 16.3847 32.5067 16.3507C32.4963 16.3222 32.4845 16.2944 32.4706 16.2674C32.4699 16.2653 32.4685 16.2639 32.4671 16.2618C32.4636 16.2549 32.4588 16.2479 32.4553 16.241C32.447 16.2264 32.4386 16.2111 32.4296 16.1972C32.424 16.1889 32.4178 16.1799 32.4115 16.1715L30.9102 14.125C30.9261 14.1472 30.94 14.1708 30.9539 14.1944C30.9581 14.2014 30.9622 14.2076 30.9657 14.2153C30.981 14.2438 30.9942 14.2736 31.0053 14.3042C31.0178 14.3382 31.0268 14.3729 31.0345 14.4097C31.0414 14.4431 31.0463 14.4778 31.0484 14.5132L31.097 15.2299L32.5984 17.2764L32.5504 16.5604Z" fill="#D0D5DD"/>
<path d="M32.6002 17.4166C32.5572 17.4166 32.5148 17.3965 32.4884 17.3596L30.987 15.3124C30.9718 15.2909 30.962 15.2659 30.9606 15.2395L30.912 14.5228C30.9099 14.4944 30.9065 14.4666 30.9002 14.4374C30.894 14.4069 30.8863 14.3777 30.8766 14.3513C30.8683 14.3284 30.8579 14.3048 30.8447 14.2798L30.8349 14.2638C30.8238 14.2444 30.812 14.2242 30.8002 14.2076C30.7551 14.1458 30.7683 14.059 30.8301 14.0131C30.8919 13.968 30.9787 13.9812 31.0245 14.043C31.0245 14.043 31.0245 14.0437 31.0252 14.0437L32.5259 16.0902C32.5329 16.0999 32.5405 16.1103 32.5474 16.1208C32.5572 16.1353 32.5655 16.1499 32.5738 16.1652L32.5787 16.1735C32.5843 16.1826 32.5877 16.1888 32.5912 16.1944C32.5933 16.1978 32.5954 16.202 32.5968 16.2041C32.6134 16.236 32.628 16.2694 32.6405 16.3034C32.6544 16.3416 32.6655 16.3819 32.6745 16.4242C32.6759 16.4284 32.6766 16.4326 32.6773 16.436C32.6843 16.4721 32.6898 16.5117 32.6919 16.5513L32.7405 17.268C32.7447 17.3298 32.7079 17.3867 32.6495 17.4076C32.6322 17.4138 32.6162 17.4166 32.6002 17.4166ZM31.2349 15.1812L32.4294 16.8096L32.4134 16.5708C32.412 16.5444 32.4086 16.5187 32.4037 16.4937C32.403 16.4923 32.403 16.4902 32.4023 16.4888C32.3954 16.4548 32.3877 16.4263 32.378 16.3999C32.3704 16.3784 32.3606 16.3569 32.3502 16.336C32.3488 16.3333 32.3468 16.3298 32.3454 16.3277L32.3301 16.302C32.3252 16.2937 32.3204 16.2846 32.3148 16.2763C32.3099 16.2694 32.3051 16.2624 32.3002 16.2555L31.2058 14.7631L31.2349 15.1812Z" fill="#F9FAFB"/>
<path d="M22.5113 15.2305H28.2064L28.346 17.2763L21.9766 18.5812L22.5113 15.2305Z" fill="#F7F9FC"/>
<path d="M21.9785 18.719C21.9431 18.719 21.9084 18.7051 21.8827 18.6808C21.8501 18.6496 21.8341 18.6037 21.8417 18.5586L22.3765 15.2072C22.3869 15.1398 22.4452 15.0898 22.514 15.0898H28.2091C28.282 15.0898 28.3424 15.1461 28.348 15.219L28.4876 17.2648C28.4924 17.3343 28.4452 17.3961 28.3771 17.4107L22.0077 18.7162C21.9973 18.7183 21.9876 18.719 21.9785 18.719ZM22.6313 15.3683L22.1473 18.4044L28.2015 17.1635L28.0792 15.3683H22.6313Z" fill="#F9FAFB"/>
<path d="M28.346 17.2773L29.8474 19.3239L23.478 20.6294L21.9766 18.5822L28.346 17.2773Z" fill="#98A2B3"/>
<path d="M23.4799 20.7693C23.4361 20.7693 23.3944 20.7485 23.3681 20.7124L21.8667 18.6652C21.8389 18.627 21.8319 18.577 21.8493 18.5332C21.8667 18.4888 21.9049 18.4568 21.9507 18.4471L28.3201 17.1416C28.3729 17.1305 28.4278 17.152 28.4597 17.1957L29.9611 19.243C29.9889 19.2811 29.9958 19.3311 29.9785 19.3749C29.9611 19.4193 29.9229 19.4513 29.8771 19.461L23.5076 20.7666C23.4986 20.7686 23.4889 20.7693 23.4799 20.7693ZM22.2188 18.6763L23.5396 20.477L29.6097 19.2332L28.2889 17.4325L22.2188 18.6763Z" fill="#F9FAFB"/>
<path d="M29.3436 21.8711C29.1977 21.7434 29.1033 21.5628 29.0887 21.3461L28.8047 17.1836L29.3339 17.0753L29.4776 19.1781C29.4845 19.2809 29.5672 19.351 29.672 19.351C29.688 19.351 29.7047 19.3496 29.722 19.3454C29.8491 19.3191 29.9457 19.2024 29.9373 19.0836L29.7936 16.9809L30.7373 16.7871L31.022 20.9496C31.0262 21.017 31.0227 21.0829 31.0123 21.1489C30.9783 21.3607 30.87 21.5621 30.713 21.7225C30.5547 21.8829 30.3491 22.0017 30.1172 22.0496C30.0464 22.0635 29.9755 22.0711 29.9075 22.0711C29.6873 22.0718 29.4901 21.9989 29.3436 21.8711Z" fill="#D0D5DD"/>
<path d="M29.9079 22.2104C29.6607 22.2104 29.4287 22.1271 29.2544 21.9757L29.2537 21.975C29.0732 21.8166 28.969 21.6021 28.9523 21.3555L28.6683 17.193C28.6635 17.1236 28.7107 17.0618 28.7787 17.0472L29.3079 16.9389C29.3468 16.9305 29.3878 16.9403 29.4197 16.9646C29.4516 16.9889 29.4718 17.0257 29.4739 17.0659L29.6176 19.1687C29.6204 19.2076 29.6579 19.2118 29.6739 19.2118C29.6808 19.2118 29.6885 19.2111 29.6961 19.2097C29.76 19.1965 29.8037 19.1375 29.801 19.0937L29.6572 16.9909C29.6523 16.9215 29.6996 16.8597 29.7676 16.8451L30.7114 16.6514C30.7503 16.643 30.7912 16.6528 30.8232 16.6771C30.8551 16.7014 30.8753 16.7382 30.8773 16.7784L31.1621 20.9409C31.1669 21.0194 31.1628 21.0965 31.151 21.1715C31.1135 21.4062 30.9933 21.6368 30.8134 21.8208C30.6287 22.0076 30.3982 22.134 30.1461 22.1868C30.0655 22.2028 29.9857 22.2104 29.9079 22.2104ZM29.4364 21.7666C29.6016 21.9097 29.8419 21.9646 30.0905 21.9146C30.2878 21.8736 30.469 21.7736 30.6148 21.6264C30.7544 21.484 30.8475 21.3069 30.8759 21.1284C30.885 21.0729 30.8878 21.0166 30.8843 20.9597L30.6107 16.9569L29.9419 17.0937L30.0773 19.0757C30.0905 19.2639 29.9468 19.4423 29.7516 19.4826C29.7259 19.4882 29.6996 19.4909 29.6739 19.4909C29.4926 19.4909 29.353 19.3639 29.3405 19.1889L29.2079 17.2444L28.9537 17.2965L29.2294 21.3375C29.2412 21.509 29.3128 21.6576 29.4364 21.7666Z" fill="#F9FAFB"/>
<path d="M28.6719 15.2285H29.2087L29.3344 17.0716L28.8052 17.1799L28.6719 15.2285Z" fill="#F7F9FC"/>
<path d="M28.807 17.319C28.7772 17.319 28.7473 17.3093 28.723 17.2905C28.6911 17.2662 28.6709 17.2294 28.6688 17.1891L28.5355 15.2378C28.5327 15.1996 28.5466 15.1614 28.5723 15.1336C28.5987 15.1058 28.6355 15.0898 28.6737 15.0898H29.2098C29.2827 15.0898 29.3431 15.1461 29.3487 15.219L29.4744 17.0621C29.4793 17.1315 29.432 17.1933 29.364 17.2079L28.8348 17.3162C28.8258 17.3183 28.8168 17.319 28.807 17.319ZM28.8223 15.3676L28.9348 17.0121L29.189 16.96L29.08 15.3676H28.8223Z" fill="#F9FAFB"/>
<path d="M33.6039 17.4156C33.5608 17.4156 33.5185 17.3954 33.4921 17.3586L31.9907 15.3114C31.9754 15.2899 31.9657 15.2649 31.9643 15.2385L31.881 14.0191C31.8789 13.985 31.8754 13.9517 31.8705 13.9184L31.8657 13.8871C31.8622 13.8656 31.8587 13.8434 31.8546 13.8218C31.8504 13.8003 31.8448 13.7795 31.8393 13.7586L31.8303 13.7211C31.8212 13.6885 31.8108 13.6559 31.799 13.6246C31.7823 13.5795 31.7622 13.5322 31.7365 13.4809L31.7275 13.4621C31.7073 13.4239 31.6851 13.385 31.6601 13.3475C31.6455 13.3253 31.6337 13.3072 31.6205 13.2899C31.5754 13.2281 31.5886 13.1413 31.6504 13.0954C31.6754 13.0774 31.7039 13.0684 31.7323 13.0684C31.7754 13.0684 31.8171 13.0878 31.8441 13.1253L33.3455 15.1725C33.3594 15.1913 33.3726 15.2107 33.3858 15.2302C33.3879 15.2336 33.3935 15.2427 33.3955 15.2461C33.4226 15.2878 33.4497 15.3329 33.4726 15.3774C33.4754 15.3816 33.4775 15.3857 33.4796 15.3906C33.4816 15.3947 33.4844 15.401 33.4872 15.4079C33.5164 15.4656 33.5407 15.5225 33.5608 15.5774C33.5747 15.6156 33.5872 15.6545 33.5983 15.6941C33.6011 15.7038 33.6032 15.7128 33.6053 15.7225L33.608 15.735C33.615 15.7614 33.6212 15.7878 33.6268 15.8156C33.6268 15.8163 33.6282 15.8204 33.6289 15.8246C33.6323 15.8413 33.6351 15.8586 33.6372 15.876C33.6372 15.876 33.6448 15.9218 33.6455 15.9309C33.6511 15.9697 33.6546 16.0093 33.6573 16.0496L33.7407 17.2684C33.7448 17.3302 33.708 17.3871 33.6497 17.4079C33.6358 17.4128 33.6198 17.4156 33.6039 17.4156Z" fill="#D0D5DD"/>
<path d="M31.7314 13.2076L33.2328 15.2548C33.2453 15.2721 33.2578 15.2895 33.2696 15.3076C33.2724 15.311 33.2738 15.3152 33.2766 15.3187C33.3029 15.3596 33.328 15.4013 33.3509 15.4451C33.3523 15.4478 33.3536 15.4499 33.355 15.4527C33.3571 15.4569 33.3585 15.4617 33.3613 15.4666C33.387 15.518 33.4106 15.5701 33.43 15.6249C33.4425 15.6596 33.4536 15.6957 33.4641 15.7319C33.4675 15.7444 33.4703 15.7569 33.4731 15.7694C33.4793 15.7937 33.4856 15.818 33.4905 15.843C33.4911 15.8457 33.4918 15.8485 33.4925 15.8513C33.4967 15.8721 33.4995 15.893 33.503 15.9138C33.505 15.9256 33.5071 15.9367 33.5085 15.9485C33.5134 15.9846 33.5168 16.0207 33.5196 16.0576L33.603 17.277L32.1016 15.2305L32.0182 14.011C32.0154 13.9742 32.012 13.9374 32.0071 13.902C32.0057 13.8902 32.003 13.8791 32.0016 13.8673C31.9981 13.8437 31.9939 13.8201 31.9891 13.7964C31.9842 13.7714 31.978 13.7471 31.9717 13.7228C31.9682 13.7103 31.9661 13.6978 31.9627 13.686C31.9523 13.6499 31.9411 13.6138 31.9286 13.5791C31.9085 13.5242 31.8856 13.4721 31.8599 13.4207C31.8564 13.4138 31.853 13.4069 31.8495 13.3999C31.8266 13.3562 31.8016 13.3145 31.7752 13.2735C31.7606 13.2499 31.7467 13.2284 31.7314 13.2076ZM31.9557 13.043L31.7314 13.2076L31.5078 13.3721C31.5196 13.3881 31.5307 13.4048 31.5411 13.4214C31.5648 13.4582 31.5856 13.4923 31.603 13.5263L31.605 13.5305L31.6113 13.543C31.6349 13.5902 31.6536 13.6326 31.6675 13.6721C31.6675 13.6728 31.6682 13.6735 31.6682 13.6735C31.678 13.7006 31.687 13.7291 31.6953 13.7589C31.696 13.7624 31.6967 13.7659 31.6981 13.7694C31.6995 13.7763 31.7016 13.7826 31.703 13.7895C31.7085 13.811 31.7134 13.8305 31.7175 13.8506C31.7217 13.8694 31.7245 13.8888 31.7273 13.9082L31.73 13.927C31.7307 13.9305 31.7314 13.9339 31.7314 13.9374C31.7356 13.9694 31.7384 13.9992 31.7404 14.0284L31.8238 15.2478C31.8273 15.3006 31.846 15.3506 31.8773 15.393L33.3786 17.4395C33.4321 17.5124 33.5161 17.5527 33.603 17.5527C33.6349 17.5527 33.6668 17.5471 33.6981 17.536C33.8141 17.4937 33.8884 17.3798 33.88 17.2562L33.7967 16.0367C33.7939 15.9957 33.7898 15.9527 33.7842 15.9096C33.7828 15.8985 33.7807 15.8881 33.7793 15.877L33.7779 15.868L33.7759 15.8555C33.7731 15.8353 33.7696 15.8145 33.7654 15.7951C33.7648 15.7916 33.7634 15.786 33.762 15.7798C33.7557 15.7513 33.7495 15.7249 33.7425 15.6985L33.7404 15.6888C33.7377 15.677 33.7349 15.6659 33.7321 15.6548C33.7196 15.611 33.7064 15.5687 33.6918 15.5284C33.6911 15.5277 33.6911 15.5263 33.6905 15.5256C33.6696 15.468 33.6446 15.4103 33.6134 15.3478C33.6099 15.3395 33.6064 15.3312 33.6023 15.3235C33.6002 15.3194 33.5967 15.3138 33.5932 15.3076C33.5689 15.2617 33.5425 15.2166 33.5134 15.1714C33.5092 15.1645 33.505 15.1576 33.5009 15.1506C33.487 15.1305 33.4724 15.1096 33.4578 15.0888L31.9557 13.043Z" fill="#F9FAFB"/>
<path d="M29.6758 15.2285H30.6327L30.739 16.7841L29.7952 16.9771L29.6758 15.2285Z" fill="#F7F9FC"/>
<path d="M29.7971 17.1162C29.7672 17.1162 29.7373 17.1065 29.713 17.0878C29.6811 17.0635 29.6609 17.0266 29.6589 16.9864L29.5394 15.2378C29.5366 15.1996 29.5505 15.1614 29.5762 15.1336C29.6026 15.1058 29.6394 15.0898 29.6776 15.0898H30.6339C30.7068 15.0898 30.7672 15.1461 30.7727 15.219L30.879 16.7746C30.8839 16.844 30.8366 16.9058 30.7686 16.9204L29.8248 17.1135C29.8158 17.1155 29.8061 17.1162 29.7971 17.1162ZM29.8262 15.3676L29.9248 16.81L30.5936 16.6732L30.5047 15.3683H29.8262V15.3676Z" fill="#F9FAFB"/>
<path d="M31.0977 15.2285H31.6345L31.7268 16.5813L31.1977 16.6896L31.0977 15.2285Z" fill="#F7F9FC"/>
<path d="M31.1995 16.8287C31.1696 16.8287 31.1398 16.819 31.1155 16.8003C31.0835 16.776 31.0634 16.7391 31.0613 16.6989L30.9613 15.2378C30.9585 15.1996 30.9724 15.1614 30.9981 15.1336C31.0245 15.1058 31.0613 15.0898 31.0995 15.0898H31.6363C31.7092 15.0898 31.7696 15.1461 31.7752 15.219L31.8675 16.5718C31.8724 16.6412 31.8252 16.703 31.7571 16.7176L31.228 16.826C31.2182 16.828 31.2085 16.8287 31.1995 16.8287ZM31.2481 15.3676L31.3273 16.5225L31.5821 16.4704L31.5071 15.3683H31.2481V15.3676Z" fill="#F9FAFB"/>
<path d="M32.1016 15.2344H45.1154L41.4384 38.2906H35.5036L34.5904 44.0156L34.4717 44.1142H33.8161C34.2849 43.8497 34.5939 43.3441 34.5481 42.8399L33.5807 32.142H38.1828C38.3835 32.142 38.5717 31.9851 38.6023 31.7913C38.6335 31.5969 38.4953 31.4406 38.2946 31.4406H33.5175L33.2578 28.5656H38.7536C38.9543 28.5656 39.1425 28.4087 39.1738 28.2142C39.2043 28.0205 39.0668 27.8635 38.8661 27.8635H33.1946L32.9349 24.9885H39.3245C39.5252 24.9885 39.7134 24.8316 39.7446 24.6372C39.7752 24.4434 39.6377 24.2865 39.437 24.2865H32.8773C32.8863 23.6809 33.3891 23.1017 34.0405 22.9677C34.7259 22.8267 35.246 22.1955 35.2016 21.5566L35.1918 21.4115H39.8953C40.096 21.4115 40.2842 21.2545 40.3154 21.0601C40.346 20.8663 40.2085 20.7094 40.0078 20.7094H35.1439L34.8981 17.1128C34.8606 16.5594 34.4127 16.1816 33.8488 16.1816C33.7613 16.1816 33.671 16.1906 33.5793 16.2094L32.3398 16.4635L32.1891 16.4941L32.1016 15.2344Z" fill="#F7F9FC"/>
<path d="M34.4714 44.2546H33.8159C33.7527 44.2546 33.6978 44.2122 33.6819 44.1511C33.6659 44.09 33.693 44.0261 33.7478 43.9949C34.1832 43.749 34.4492 43.29 34.4096 42.8539L33.4423 32.156C33.4388 32.1171 33.452 32.0789 33.4784 32.0497C33.5048 32.0213 33.5423 32.0046 33.5812 32.0046H38.1832C38.3159 32.0046 38.4457 31.8977 38.4659 31.7706C38.4742 31.7185 38.4631 31.6727 38.4333 31.6372C38.402 31.6004 38.3527 31.5803 38.2951 31.5803H33.518C33.4464 31.5803 33.386 31.5254 33.3798 31.4539L33.1201 28.5789C33.1166 28.54 33.1298 28.5018 33.1562 28.4727C33.1826 28.4442 33.2201 28.4275 33.2589 28.4275H38.7548C38.8874 28.4275 39.0173 28.3199 39.0374 28.1928C39.0458 28.1414 39.0339 28.0942 39.0041 28.0595C38.9728 28.0227 38.9235 28.0025 38.8666 28.0025H33.1951C33.1235 28.0025 33.0631 27.9477 33.0569 27.8761L32.7971 25.0011C32.7937 24.9622 32.8069 24.924 32.8332 24.8949C32.8596 24.8664 32.8971 24.8497 32.936 24.8497H39.3256C39.4582 24.8497 39.5881 24.7421 39.6082 24.615C39.6166 24.5636 39.6048 24.5164 39.5756 24.4824C39.5444 24.4456 39.4951 24.4254 39.4381 24.4254H32.8784C32.8409 24.4254 32.8055 24.4109 32.7798 24.3838C32.7541 24.3567 32.7395 24.3213 32.7402 24.2845C32.7506 23.6032 33.2978 22.9789 34.0138 22.8317C34.6326 22.7046 35.1041 22.1372 35.0645 21.5664L35.0548 21.4213C35.052 21.3831 35.0659 21.3449 35.0916 21.3171C35.118 21.2886 35.1548 21.2734 35.193 21.2734H39.8964C40.0291 21.2734 40.1589 21.1657 40.1791 21.0386C40.1874 20.9872 40.1756 20.94 40.1464 20.9053C40.1152 20.8685 40.0659 20.8484 40.0089 20.8484H35.1451C35.0721 20.8484 35.0117 20.7921 35.0062 20.7192L34.7603 17.1227C34.7284 16.6504 34.3541 16.3213 33.8492 16.3213C33.7701 16.3213 33.6888 16.3296 33.6076 16.3463L32.2173 16.6317C32.1777 16.64 32.1374 16.6303 32.1055 16.606C32.0735 16.5817 32.0534 16.5449 32.0513 16.5046L31.9652 15.2456C31.9624 15.2074 31.9763 15.1692 32.002 15.1414C32.0284 15.1136 32.0652 15.0977 32.1034 15.0977H45.1173C45.1583 15.0977 45.1964 15.1157 45.2228 15.1463C45.2492 15.1768 45.261 15.2178 45.2541 15.2581L41.577 38.3143C41.5666 38.3817 41.5082 38.4317 41.4395 38.4317H35.6235L34.7291 44.04C34.7235 44.0734 34.7069 44.1032 34.6805 44.1247L34.5617 44.2234C34.5353 44.2428 34.5041 44.2546 34.4714 44.2546ZM34.2298 43.9768H34.4214L34.4617 43.9435L34.5166 43.5977C34.4423 43.7345 34.3451 43.8629 34.2298 43.9768ZM33.7326 32.2817L34.6694 42.6414L35.3666 38.2699C35.377 38.2025 35.4353 38.1525 35.5041 38.1525H41.3201L44.9527 15.374H32.2499L32.3152 16.3261L33.5499 16.0727C33.6492 16.0525 33.7499 16.0421 33.8471 16.0421C34.4944 16.0421 34.9937 16.4879 35.0353 17.1025L35.2721 20.5699H40.0062C40.1444 20.5699 40.2714 20.6261 40.3555 20.7247C40.4388 20.822 40.4728 20.949 40.4513 21.0817C40.4096 21.3442 40.1645 21.5504 39.8944 21.5504H35.3395C35.386 22.2539 34.8159 22.9504 34.0673 23.1039C33.536 23.2129 33.1048 23.6567 33.027 24.1477H39.4353C39.5735 24.1477 39.7006 24.2039 39.7846 24.3025C39.868 24.3997 39.902 24.5268 39.8805 24.6595C39.8388 24.922 39.5937 25.1282 39.3235 25.1282H33.086L33.3208 27.7254H38.8652C39.0034 27.7254 39.1305 27.7817 39.2145 27.8796C39.2978 27.9768 39.3319 28.1039 39.3103 28.2365C39.2687 28.499 39.0235 28.7053 38.7534 28.7053H33.4096L33.6444 31.3025H38.2951C38.4333 31.3025 38.5603 31.3588 38.6444 31.4567C38.727 31.5539 38.761 31.681 38.7402 31.8136C38.6985 32.0761 38.4541 32.2817 38.1832 32.2817H33.7326Z" fill="#F9FAFB"/>
<path d="M40.0045 20.707C40.2052 20.707 40.3434 20.864 40.3122 21.0577C40.2809 21.2522 40.0927 21.4091 39.892 21.4091H35.1885L35.1406 20.707H40.0045Z" fill="#D0D5DD"/>
<path d="M39.8945 21.5495H35.1911C35.1181 21.5495 35.0577 21.4932 35.0522 21.4203L35.0043 20.7182C35.0015 20.68 35.0154 20.6418 35.0411 20.6141C35.0674 20.5863 35.1043 20.5703 35.1425 20.5703H40.0056C40.1438 20.5703 40.2709 20.6266 40.355 20.7252C40.4383 20.8224 40.4723 20.9495 40.4508 21.0821C40.4091 21.3432 40.1647 21.5495 39.8945 21.5495ZM35.3202 21.2717H39.8938C40.0265 21.2717 40.1563 21.1641 40.1765 21.037C40.1848 20.9856 40.173 20.9384 40.1438 20.9036C40.1126 20.8668 40.0633 20.8467 40.0063 20.8467H35.2918L35.3202 21.2717Z" fill="#D0D5DD"/>
<path d="M39.4347 24.2793C39.6354 24.2793 39.7736 24.4362 39.7424 24.63C39.7111 24.8244 39.5229 24.9814 39.3222 24.9814H32.9326L32.8778 24.3717C32.8757 24.3411 32.875 24.3099 32.875 24.2793H39.4347Z" fill="#D0D5DD"/>
<path d="M39.3239 25.1205H32.9344C32.8628 25.1205 32.8024 25.0656 32.7962 24.9941L32.7413 24.3844C32.7385 24.3469 32.7378 24.3122 32.7385 24.2774C32.7399 24.2017 32.8017 24.1406 32.8774 24.1406H39.4371C39.5753 24.1406 39.7024 24.1969 39.7864 24.2955C39.8698 24.3927 39.9038 24.5198 39.8823 24.6524C39.8392 24.9149 39.5948 25.1205 39.3239 25.1205ZM33.0608 24.8427H39.3239C39.4566 24.8427 39.5864 24.7351 39.6066 24.608C39.6149 24.5566 39.6031 24.5094 39.5739 24.4747C39.5427 24.4378 39.4934 24.4177 39.4364 24.4177H33.0233L33.0608 24.8427Z" fill="#D0D5DD"/>
<path d="M38.8668 27.8574C39.0675 27.8574 39.2057 28.0144 39.1745 28.2081C39.1432 28.4026 38.955 28.5595 38.7543 28.5595H33.2585L33.1953 27.8574H38.8668Z" fill="#D0D5DD"/>
<path d="M38.7525 28.6986H33.2566C33.1851 28.6986 33.1247 28.6437 33.1184 28.5722L33.0552 27.8701C33.0518 27.8312 33.065 27.7931 33.0913 27.7639C33.1177 27.7354 33.1552 27.7188 33.1941 27.7188H38.8656C39.0038 27.7188 39.1309 27.775 39.215 27.8736C39.2983 27.9708 39.3323 28.0979 39.3108 28.2306C39.2677 28.4931 39.0233 28.6986 38.7525 28.6986ZM33.3837 28.4208H38.7525C38.8851 28.4208 39.015 28.3132 39.0351 28.1861C39.0434 28.1347 39.0316 28.0875 39.0018 28.0528C38.9705 28.016 38.9212 27.9958 38.8643 27.9958H33.3455L33.3837 28.4208Z" fill="#D0D5DD"/>
<path d="M38.2966 31.4355C38.4973 31.4355 38.6355 31.5918 38.6043 31.7862C38.5737 31.98 38.3855 32.1369 38.1848 32.1369H33.5827L33.5195 31.4355H38.2966Z" fill="#D0D5DD"/>
<path d="M38.1829 32.276H33.5808C33.5093 32.276 33.4489 32.2212 33.4426 32.1497L33.3795 31.4483C33.376 31.4094 33.3892 31.3712 33.4156 31.342C33.442 31.3135 33.4795 31.2969 33.5183 31.2969H38.2954C38.4336 31.2969 38.5607 31.3531 38.6447 31.451C38.7274 31.5483 38.7614 31.6754 38.7406 31.808C38.6982 32.0705 38.4531 32.276 38.1829 32.276ZM33.7079 31.9983H38.1829C38.3156 31.9983 38.4454 31.8913 38.4656 31.7642C38.4739 31.7122 38.4628 31.6663 38.4329 31.6309C38.4017 31.5941 38.3524 31.574 38.2947 31.574H33.6697L33.7079 31.9983Z" fill="#D0D5DD"/>
<path d="M45.1185 15.2305L46.6199 17.277L42.9428 40.3339L41.4414 38.2867L45.1185 15.2305Z" fill="#E4E7EC"/>
<path d="M42.9409 40.4715C42.8972 40.4715 42.8555 40.4507 42.8291 40.4146L41.3277 38.3674C41.3055 38.3375 41.2965 38.3 41.3027 38.2632L44.9798 15.2069C44.9888 15.1514 45.0298 15.1069 45.084 15.0938C45.1381 15.0806 45.1958 15.1014 45.2284 15.1465L46.7298 17.1938C46.752 17.2236 46.7611 17.2611 46.7548 17.2979L43.0777 40.3542C43.0687 40.4097 43.0277 40.4542 42.9736 40.4674C42.9624 40.4701 42.952 40.4715 42.9409 40.4715ZM41.5861 38.25L42.8562 39.9819L46.4722 17.3111L45.202 15.5792L41.5861 38.25Z" fill="#F9FAFB"/>
<path d="M41.441 38.291L34.5938 44.016L35.5063 38.291H41.441Z" fill="#D0D5DD"/>
<path d="M34.5923 44.1551C34.5687 44.1551 34.5451 44.1489 34.5236 44.1371C34.4729 44.1086 34.4458 44.0517 34.4548 43.9947L35.368 38.2697C35.3785 38.2023 35.4368 38.1523 35.5055 38.1523H41.4403C41.4986 38.1523 41.5507 38.1891 41.5708 38.244C41.591 38.2989 41.5743 38.3607 41.5291 38.3982L34.6819 44.1232C34.6555 44.1447 34.6236 44.1551 34.5923 44.1551ZM35.6236 38.4301L34.7875 43.6718L41.0569 38.4301H35.6236Z" fill="#F9FAFB"/>
<path d="M41.441 38.291L42.9424 40.3382L36.0944 46.0632L34.5938 44.016L41.441 38.291Z" fill="#D0D5DD"/>
<path d="M36.0931 46.202C36.0875 46.202 36.082 46.202 36.0764 46.2013C36.0382 46.1965 36.0042 46.1763 35.9813 46.1458L34.4799 44.0986C34.4369 44.0395 34.4466 43.9569 34.5028 43.9097L41.35 38.1847C41.3792 38.1604 41.4174 38.1486 41.4556 38.1534C41.4938 38.1583 41.5278 38.1784 41.5507 38.209L43.0521 40.2562C43.0952 40.3152 43.0855 40.3979 43.0292 40.4451L36.1827 46.1694C36.1577 46.1909 36.1257 46.202 36.0931 46.202ZM34.7813 44.0388L36.1181 45.8611L42.7521 40.3145L41.4153 38.4923L34.7813 44.0388Z" fill="#F9FAFB"/>
<path d="M34.5882 44.0156L36.0889 46.0628L34.4688 44.1149L34.5882 44.0156Z" fill="#E4E7EC"/>
<path d="M36.091 46.2027C36.0514 46.2027 36.0118 46.1853 35.984 46.1527L34.3639 44.2048C34.3403 44.1763 34.3292 44.1402 34.3327 44.1034C34.3361 44.0666 34.3542 44.0325 34.382 44.0096L34.5007 43.911C34.5299 43.8867 34.5688 43.8756 34.6063 43.8798C34.6445 43.8846 34.6785 43.9048 34.7014 43.9353L36.2028 45.9818C36.2472 46.0423 36.2354 46.127 36.1764 46.1735C36.1507 46.193 36.1208 46.2027 36.091 46.2027Z" fill="#F9FAFB"/>
<path d="M34.472 44.1133L36.0921 46.0612L35.3178 46.1598L33.8164 44.1133H34.472Z" fill="#E4E7EC"/>
<path d="M35.3159 46.2984C35.2721 46.2984 35.2305 46.2775 35.2041 46.2414L33.7027 44.1942C33.6714 44.1518 33.6673 44.0963 33.6909 44.049C33.7145 44.0025 33.7624 43.9727 33.8145 43.9727H34.4701C34.511 43.9727 34.5506 43.9907 34.577 44.0227L36.1971 45.9706C36.2298 46.0095 36.2381 46.0629 36.2194 46.1102C36.2006 46.1574 36.1582 46.1907 36.1076 46.197L35.3326 46.2956C35.3277 46.2977 35.3214 46.2984 35.3159 46.2984ZM34.0888 44.2518L35.3798 46.0115L35.8221 45.9553L34.4055 44.2518H34.0888Z" fill="#F9FAFB"/>
<path d="M34.0276 43.9688C33.9964 43.9938 33.9637 44.0181 33.9304 44.041C33.8957 44.0646 33.8596 44.0875 33.8227 44.1083C33.8207 44.1097 33.8193 44.1104 33.8172 44.1118C33.7783 44.134 33.7387 44.1542 33.6977 44.1722C33.6457 44.1958 33.5915 44.2167 33.5366 44.234C33.4887 44.2493 33.4401 44.2618 33.3908 44.2722L17.8443 47.459C17.7526 47.4778 17.6623 47.4868 17.5748 47.4868C17.2137 47.4868 16.8991 47.3319 16.7109 47.0743L18.2123 49.1208C18.4012 49.3785 18.7151 49.5333 19.0762 49.5333C19.1637 49.5333 19.254 49.5243 19.3457 49.5056L34.8922 46.3188C34.9415 46.3083 34.9908 46.2958 35.038 46.2806C35.0929 46.2632 35.147 46.2424 35.1991 46.2188C35.2401 46.2 35.2797 46.1799 35.3186 46.1583C35.3207 46.1569 35.3221 46.1563 35.3241 46.1549C35.3609 46.134 35.3971 46.1111 35.4318 46.0875C35.4651 46.0646 35.4977 46.0403 35.529 46.0153L34.0276 43.9688Z" fill="#667185"/>
<path d="M19.0749 49.6736C18.6735 49.6736 18.3172 49.5027 18.0985 49.2048L16.5971 47.1576C16.552 47.0958 16.5652 47.009 16.627 46.9631C16.6888 46.918 16.7756 46.9312 16.8214 46.993L16.8221 46.9937C16.9881 47.2187 17.2617 47.3486 17.5735 47.3486C17.6527 47.3486 17.7339 47.3402 17.8152 47.3236L33.3617 44.1368C33.4061 44.1277 33.4506 44.1159 33.4936 44.102C33.5429 44.0861 33.5922 44.0673 33.6395 44.0458C33.6763 44.0291 33.7124 44.0104 33.7478 43.9909C33.786 43.9694 33.8193 43.9486 33.8506 43.927C33.8804 43.9062 33.9103 43.8847 33.9388 43.8611C33.9686 43.8374 34.0061 43.8263 34.0436 43.8312C34.0811 43.8361 34.1152 43.8562 34.1381 43.8868L35.6395 45.9333C35.6832 45.993 35.6728 46.0763 35.6152 46.1236C35.5811 46.1513 35.5457 46.1777 35.5096 46.2027C35.4714 46.2291 35.4318 46.2541 35.3922 46.2763L35.386 46.2798C35.3436 46.3034 35.2999 46.3256 35.2554 46.3458C35.1985 46.3715 35.1388 46.3944 35.079 46.4131C35.0263 46.4298 34.9728 46.4437 34.9186 46.4548L19.3721 49.6416C19.2728 49.6631 19.1728 49.6736 19.0749 49.6736ZM17.2589 47.5895L18.3228 49.0402C18.4888 49.2659 18.7624 49.3958 19.0749 49.3958C19.154 49.3958 19.2353 49.3875 19.3165 49.3708L34.8631 46.184C34.9075 46.175 34.952 46.1631 34.995 46.1493C35.0443 46.1333 35.0936 46.1145 35.1409 46.093C35.1777 46.0763 35.2145 46.0576 35.2492 46.0381C35.2797 46.0208 35.3075 46.0041 35.3332 45.9868L33.9964 44.1638C33.9624 44.1868 33.9263 44.209 33.8909 44.2298C33.8902 44.2298 33.8839 44.2333 33.8839 44.234C33.8422 44.2576 33.7985 44.2798 33.754 44.3C33.6971 44.3256 33.6374 44.3486 33.5777 44.3673C33.5249 44.384 33.4714 44.3979 33.4172 44.409L17.8707 47.5958C17.6617 47.6388 17.4499 47.6361 17.2589 47.5895Z" fill="#F9FAFB"/>
<path d="M34.5461 42.8375C34.5919 43.3416 34.2829 43.8472 33.8141 44.1118C33.6829 44.1861 33.5391 44.2409 33.3877 44.2722L17.8412 47.459C17.7495 47.4777 17.6593 47.4868 17.5718 47.4868C17.0141 47.4868 16.5697 47.118 16.5231 46.5729L14.3815 21.3131C14.3377 20.6743 14.8579 20.0416 15.5433 19.9013L21.9766 18.5826L28.3461 17.277L28.6301 21.4402C28.6523 21.7569 28.7926 22.0257 29.0072 22.2138C29.2224 22.4013 29.5127 22.5097 29.837 22.5104C29.9377 22.5104 30.0412 22.4993 30.1468 22.4777C30.4863 22.4083 30.7933 22.2319 31.0259 21.9958C31.2579 21.7597 31.4183 21.4625 31.4683 21.1486C31.4836 21.052 31.4884 20.9534 31.4815 20.8555L31.1974 16.693L31.7266 16.5847L31.9023 19.1652C31.9093 19.268 31.9926 19.3375 32.0974 19.3375C32.2738 19.3062 32.3704 19.1888 32.362 19.0708L32.1856 16.4902L32.3363 16.4597L33.5759 16.2055C33.6676 16.1868 33.7579 16.1777 33.8454 16.1777C34.4099 16.1777 34.8579 16.5555 34.8947 17.109L35.1405 20.7055L35.1884 21.4076L35.1981 21.5527C35.2419 22.1916 34.7218 22.8236 34.037 22.9638C33.3856 23.0979 32.8829 23.6763 32.8738 24.2826C32.8731 24.3132 32.8738 24.3444 32.8766 24.375L32.9315 24.9847L33.1912 27.8597L33.2544 28.5618L33.5141 31.4368L33.5773 32.1382L34.5461 42.8375Z" fill="#D0D5DD"/>
<path d="M17.5735 47.6259C16.9367 47.6259 16.4381 47.1884 16.3867 46.5849L14.2451 21.3252C14.1965 20.6182 14.7673 19.9196 15.5173 19.7655L28.3201 17.1418C28.3597 17.1335 28.3999 17.1432 28.4319 17.1675C28.4638 17.1918 28.484 17.2286 28.486 17.2689L28.7701 21.4321C28.7888 21.7002 28.9062 21.9411 29.0999 22.1106C29.293 22.2786 29.5555 22.3717 29.8388 22.3724C29.9284 22.3724 30.0235 22.3627 30.1208 22.3425C30.4201 22.2814 30.7069 22.1238 30.9284 21.8995C31.1451 21.6793 31.2881 21.405 31.3326 21.128C31.3465 21.0391 31.3506 20.9516 31.3444 20.8668L31.0604 16.703C31.0555 16.6335 31.1027 16.5717 31.1708 16.5571L31.6999 16.4488C31.7388 16.4405 31.7798 16.4502 31.8117 16.4745C31.8437 16.4988 31.8638 16.5356 31.8659 16.5759L32.0423 19.1564C32.0444 19.1884 32.0708 19.1967 32.0888 19.1988C32.1826 19.1786 32.2284 19.1252 32.2249 19.0814L32.0485 16.5009C32.0437 16.4314 32.0909 16.3696 32.159 16.355L33.5492 16.0696C33.6492 16.0495 33.7492 16.0391 33.8465 16.0391C34.4937 16.0391 34.993 16.4849 35.0347 17.0995L35.3381 21.5439C35.3867 22.2481 34.8159 22.9467 34.0659 23.1009C33.484 23.2203 33.0222 23.7405 33.0138 24.2856C33.0131 24.3127 33.0138 24.3391 33.0159 24.3661L34.6847 42.8259C34.734 43.3689 34.4117 43.9349 33.8826 44.2335C33.7353 44.3168 33.5784 44.3759 33.4159 44.4092L17.8694 47.596C17.7715 47.6154 17.6715 47.6259 17.5735 47.6259ZM28.2194 17.446L15.5722 20.0377C14.9534 20.1648 14.4819 20.7328 14.5215 21.3043L16.6631 46.562C16.7027 47.0252 17.077 47.3488 17.5735 47.3488C17.6527 47.3488 17.734 47.3404 17.8152 47.3238L33.3617 44.137C33.4958 44.1092 33.6256 44.0606 33.7479 43.9918C34.1833 43.746 34.4492 43.2877 34.4097 42.8509L32.7402 24.3884C32.7374 24.3509 32.7367 24.3161 32.7374 24.2814C32.7479 23.6002 33.2958 22.9759 34.0117 22.8286C34.6305 22.7016 35.102 22.1342 35.0624 21.5634L34.759 17.1189C34.727 16.6467 34.3527 16.3175 33.8479 16.3175C33.7687 16.3175 33.6874 16.3259 33.6062 16.3425L32.3347 16.6036L32.5027 19.0627C32.5166 19.2606 32.3576 19.4342 32.1235 19.4752C32.1159 19.4766 32.1076 19.4773 32.0992 19.4773C31.918 19.4773 31.777 19.3502 31.7652 19.1752L31.5999 16.753L31.3451 16.805L31.6208 20.8467C31.6284 20.9516 31.6235 21.0613 31.6062 21.171C31.5527 21.5043 31.3826 21.8321 31.1256 22.0932C30.8659 22.3571 30.5284 22.5418 30.1756 22.6141C30.0597 22.6377 29.9458 22.6495 29.8381 22.6495C29.4874 22.6488 29.1603 22.5314 28.9166 22.3189C28.6666 22.1002 28.5159 21.7918 28.4923 21.4502L28.2194 17.446Z" fill="#F9FAFB"/>
<path d="M29.8382 22.651C29.4882 22.6503 29.1611 22.5329 28.9174 22.3204C28.6674 22.1016 28.5167 21.7933 28.493 21.4516L28.0396 14.8107C28.0299 14.6704 28.0361 14.5266 28.059 14.3843C28.1292 13.944 28.3542 13.5121 28.693 13.1683C29.0354 12.8197 29.4812 12.5753 29.9486 12.4794C30.0986 12.4489 30.2479 12.4336 30.393 12.4336C30.8528 12.4336 31.2826 12.5878 31.6028 12.8669C31.9305 13.153 32.1278 13.5572 32.1569 14.0044L32.5028 19.0628C32.516 19.251 32.3729 19.4294 32.1771 19.4697C32.1507 19.4746 32.125 19.4773 32.1 19.4773C31.9187 19.4773 31.7785 19.3503 31.766 19.1753L31.4208 14.1169C31.4014 13.8371 31.2847 13.5961 31.0826 13.4197C30.8833 13.2454 30.6139 13.1496 30.3229 13.1496C30.2292 13.1496 30.1319 13.16 30.0333 13.1801C29.7215 13.244 29.4347 13.4016 29.2042 13.6357C28.9819 13.8614 28.8347 14.1426 28.7896 14.4273C28.775 14.519 28.7708 14.61 28.7771 14.6961L29.2305 21.3371C29.2424 21.5093 29.3139 21.6579 29.4382 21.7669C29.5618 21.8739 29.7292 21.9329 29.909 21.9329C29.968 21.9329 30.0299 21.9266 30.0917 21.9141C30.2889 21.8732 30.4701 21.7732 30.616 21.626C30.7555 21.4836 30.8486 21.3065 30.8771 21.128C30.8861 21.0732 30.8889 21.0162 30.8854 20.9593L30.4521 14.6204C30.4472 14.5551 30.4215 14.5003 30.3743 14.4593C30.3271 14.4183 30.2618 14.3947 30.1917 14.3947C30.1667 14.3954 30.1403 14.3982 30.1153 14.403C30.0333 14.4204 29.9576 14.4621 29.8972 14.5239C29.8382 14.5836 29.8 14.6558 29.7882 14.728C29.7847 14.7482 29.784 14.7711 29.7854 14.794L30.0778 19.0746C30.091 19.2628 29.9472 19.4412 29.7521 19.4815C29.7264 19.4871 29.7 19.4898 29.6743 19.4898C29.493 19.4898 29.3535 19.3628 29.341 19.1878L29.0486 14.9079C29.0437 14.8364 29.0472 14.7614 29.059 14.6843C29.0951 14.4565 29.2118 14.2329 29.3861 14.0558C29.5604 13.8773 29.7896 13.7517 30.0305 13.7017C30.1104 13.6864 30.1875 13.678 30.2611 13.678C30.5014 13.678 30.7257 13.7593 30.8944 13.9058C31.068 14.0565 31.1722 14.2697 31.1882 14.5058L31.6208 20.8461C31.6285 20.951 31.6236 21.0607 31.6062 21.1704C31.5535 21.5037 31.3826 21.8315 31.1257 22.0926C30.866 22.3558 30.5292 22.5412 30.1757 22.6135C30.0604 22.6391 29.9465 22.651 29.8382 22.651Z" fill="#D0D5DD"/>
<path d="M30.3909 12.5747C30.8284 12.5747 31.2194 12.7205 31.5096 12.974C31.7992 13.2267 31.9888 13.5878 32.0166 14.0163L32.0999 15.2358L32.186 16.4948L32.3624 19.0753C32.3707 19.1927 32.2742 19.3108 32.1471 19.3372C32.1305 19.3406 32.1138 19.342 32.0978 19.342C31.993 19.342 31.9096 19.2726 31.9027 19.1698L31.727 16.5892L31.6346 15.2365L31.5576 14.1115C31.5353 13.7844 31.393 13.5115 31.1721 13.3191C30.9513 13.126 30.6527 13.0149 30.3214 13.0149C30.2194 13.0149 30.1124 13.026 30.0041 13.0483C29.6541 13.1205 29.343 13.2997 29.1034 13.542C28.8645 13.7844 28.7013 14.0892 28.6506 14.4094C28.6346 14.508 28.6291 14.6094 28.6367 14.7101L28.6728 15.2365L28.8062 17.1878L29.0902 21.3503C29.1048 21.567 29.1992 21.7469 29.3451 21.8747C29.4916 22.0017 29.6888 22.0753 29.9076 22.0753C29.9756 22.0753 30.0464 22.0684 30.1173 22.0538C30.3492 22.0059 30.5548 21.8872 30.7131 21.7267C30.8707 21.5663 30.9791 21.3649 31.0124 21.1531C31.0228 21.0878 31.0263 21.0212 31.0221 20.9538L30.7374 16.7913L30.6312 15.2358L30.5888 14.6142C30.5812 14.5073 30.5353 14.4205 30.4638 14.358C30.3916 14.2955 30.2957 14.2594 30.1895 14.2594C30.1555 14.2601 30.1214 14.2635 30.086 14.2705C29.9721 14.2941 29.8735 14.351 29.7957 14.4302C29.7187 14.5087 29.6652 14.6073 29.6485 14.7101C29.6437 14.742 29.6423 14.7747 29.6444 14.8073L29.6735 15.2365L29.793 16.9851L29.9367 19.0878C29.9451 19.2066 29.8485 19.3233 29.7214 19.3497C29.7041 19.3531 29.6874 19.3545 29.6714 19.3545C29.5666 19.3545 29.4839 19.2844 29.477 19.1816L29.3332 17.0788L29.2076 15.2358L29.1846 14.9017C29.1798 14.8378 29.1839 14.7733 29.1937 14.7101C29.2263 14.5052 29.3312 14.3108 29.4826 14.1573C29.6332 14.0031 29.8346 13.8878 30.0562 13.842C30.1249 13.8288 30.1923 13.8212 30.2582 13.8212C30.4707 13.8212 30.6596 13.892 30.7999 14.0149C30.9409 14.1372 31.0326 14.3128 31.0464 14.5198L31.0951 15.2365L31.1951 16.6976L31.4791 20.8601C31.4867 20.958 31.4812 21.0566 31.4659 21.1531C31.4159 21.467 31.2555 21.7635 31.0235 22.0003C30.7909 22.2365 30.4839 22.4128 30.1444 22.4823C30.0388 22.5038 29.9353 22.5149 29.8346 22.5149C29.5103 22.5142 29.2194 22.4059 29.0048 22.2184C28.7895 22.0302 28.6499 21.7615 28.6277 21.4448L28.3457 17.2809L28.2062 15.2351L28.177 14.8031C28.168 14.6712 28.1742 14.5385 28.1951 14.408C28.2624 13.9858 28.4777 13.5858 28.7909 13.2677C29.1041 12.949 29.5173 12.7115 29.9749 12.6177C30.1159 12.5885 30.2555 12.5747 30.3909 12.5747ZM30.3909 12.2969C30.2367 12.2969 30.0784 12.3128 29.9194 12.3448C29.4242 12.4462 28.9534 12.7045 28.5916 13.0726C28.2332 13.4365 27.9944 13.8948 27.9201 14.3635C27.8957 14.5163 27.8888 14.6705 27.8992 14.8219L27.9284 15.2538L28.068 17.2997L28.352 21.4628C28.3791 21.842 28.5464 22.1837 28.8235 22.4267C29.093 22.6615 29.452 22.7906 29.836 22.792C29.9541 22.792 30.077 22.7795 30.2013 22.7538C30.5819 22.676 30.9451 22.4774 31.2235 22.1948C31.5006 21.9128 31.6846 21.558 31.7423 21.1969C31.7617 21.076 31.7666 20.9559 31.7582 20.8392L31.6548 19.3219C31.7221 19.4983 31.8937 19.6191 32.0978 19.6191C32.1319 19.6191 32.1666 19.6156 32.2013 19.6087C32.4659 19.5545 32.6576 19.3115 32.6395 19.0552L32.4631 16.4753L32.377 15.2163L32.2937 13.9969C32.2617 13.5128 32.0478 13.0747 31.6923 12.7642C31.3464 12.4628 30.8839 12.2969 30.3909 12.2969ZM28.9145 14.708L28.9131 14.6899C28.9076 14.6122 28.911 14.533 28.9242 14.4517C28.9652 14.1948 29.0992 13.9406 29.3006 13.7351C29.5117 13.5212 29.7742 13.3774 30.0589 13.3184C30.1485 13.3003 30.236 13.2906 30.3207 13.2906C30.5777 13.2906 30.8152 13.3747 30.9888 13.526C31.1631 13.6781 31.2638 13.8865 31.2798 14.1281L31.2909 14.2955C31.2395 14.1045 31.1339 13.9337 30.9832 13.8031C30.7902 13.6344 30.5332 13.5413 30.2596 13.5413C30.177 13.5413 30.0909 13.5497 30.0041 13.567C29.7332 13.6233 29.4791 13.7622 29.2853 13.9608C29.0909 14.158 28.9617 14.408 28.9207 14.6642C28.9187 14.6795 28.9166 14.6934 28.9145 14.708ZM29.6728 19.6309C29.7076 19.6309 29.7437 19.6274 29.7784 19.6198C30.0409 19.5656 30.2326 19.3233 30.2152 19.067L30.0714 16.9642L29.952 15.2156L29.9228 14.7865C29.9221 14.774 29.9221 14.7622 29.9242 14.7517C29.9312 14.7087 29.9569 14.6615 29.9944 14.6233C30.036 14.5802 30.0874 14.5524 30.1437 14.5406C30.1576 14.5378 30.1742 14.5358 30.193 14.5358C30.2291 14.5365 30.2596 14.5469 30.2826 14.5663C30.3006 14.5823 30.3103 14.6031 30.3124 14.6323L30.3548 15.2531L30.461 16.8087L30.7457 20.9712C30.7485 21.0156 30.7464 21.0622 30.7388 21.108C30.7152 21.258 30.6353 21.4087 30.5152 21.5309C30.3895 21.6587 30.2319 21.7448 30.061 21.7809C30.0103 21.7913 29.9576 21.7962 29.9076 21.7962C29.761 21.7962 29.6256 21.749 29.527 21.6635C29.4326 21.5802 29.377 21.4649 29.3673 21.3302L29.2312 19.3351C29.2978 19.5108 29.4694 19.6309 29.6728 19.6309Z" fill="#F9FAFB"/>
<path d="M50.0937 14.3398L50.2306 15.1961C50.3132 15.7093 50.6653 16.1114 51.1722 16.2697L52.0188 16.5336L51.0882 16.7975C50.5312 16.9558 50.0507 17.3579 49.8042 17.8711L49.3938 18.7273L49.2562 17.8711C49.1736 17.3579 48.8215 16.9558 48.3146 16.7975L47.4688 16.5336L48.3986 16.2697C48.9556 16.1114 49.4361 15.7093 49.6826 15.1961L50.0937 14.3398Z" fill="#D0D5DD"/>
<path d="M20.9734 10.9727L21.0783 11.6289C21.1415 12.0227 21.4116 12.331 21.8005 12.4518L22.4491 12.6539L21.7359 12.8567C21.3089 12.9775 20.9401 13.2859 20.7512 13.6789L20.4366 14.3359L20.3318 13.6789C20.2686 13.2852 19.9984 12.9775 19.6095 12.8567L18.9609 12.6539L19.6741 12.4518C20.1012 12.331 20.47 12.022 20.6589 11.6289L20.9734 10.9727Z" fill="#D0D5DD"/>
<path d="M38.6886 33.6914L38.747 34.0574C38.7824 34.2761 38.9331 34.4484 39.1497 34.5157L39.5109 34.6282L39.1136 34.7407C38.8754 34.8088 38.6699 34.9803 38.5643 35.199L38.3886 35.565L38.3303 35.199C38.2949 34.9803 38.1449 34.8081 37.9282 34.7407L37.5664 34.6282L37.9643 34.5157C38.2025 34.4477 38.4074 34.2761 38.5129 34.0574L38.6886 33.6914Z" fill="#D0D5DD"/>
<path d="M12.3747 38.5938L12.4331 38.9597C12.4685 39.1792 12.6192 39.3507 12.8359 39.4181L13.197 39.5306L12.7997 39.6431C12.5615 39.7111 12.356 39.8826 12.2504 40.1021L12.0754 40.4681L12.0171 40.1021C11.9824 39.8826 11.8317 39.7111 11.615 39.6431L11.2539 39.5306L11.6511 39.4181C11.8893 39.3507 12.0949 39.1792 12.1997 38.9597L12.3747 38.5938Z" fill="#D0D5DD"/>
</svg>
