<svg xmlns="http://www.w3.org/2000/svg" width="14" height="14" viewBox="0 0 14 14" fill="none">
  <path d="M7.72904 6.99987L11.579 3.14987C11.6374 3.09154 11.6374 3.00404 11.579 2.9457L11.0832 2.4207C11.0249 2.36237 10.9374 2.36237 10.879 2.4207L6.99987 6.2707L3.14987 2.4207C3.09154 2.36237 3.00404 2.36237 2.9457 2.4207L2.4207 2.91654C2.36237 2.97487 2.36237 3.06237 2.4207 3.1207L6.2707 6.99987L2.4207 10.8499C2.36237 10.9082 2.36237 10.9957 2.4207 11.054L2.9457 11.579C3.00404 11.6374 3.09154 11.6374 3.14987 11.579L6.99987 7.72904L10.8499 11.579C10.9082 11.6374 10.9957 11.6374 11.054 11.579L11.579 11.054C11.6374 10.9957 11.6374 10.9082 11.579 10.8499L7.72904 6.99987Z" fill="#0D0D0D"/>
</svg>