<svg width="28" height="28" viewBox="0 0 28 28" fill="none" xmlns="http://www.w3.org/2000/svg">
<path d="M21.7727 19.1669L21.1485 18.7511C21.0148 18.9518 20.9857 19.2045 21.0704 19.4303L21.7727 19.1669ZM19.1701 21.7705L19.4334 21.0683C19.2075 20.9836 18.9547 21.0127 18.754 21.1465L19.1701 21.7705ZM23.3346 23.3322L23.0713 24.0345C23.3467 24.1378 23.657 24.0705 23.865 23.8626C24.0729 23.6546 24.1402 23.3443 24.0369 23.0689L23.3346 23.3322ZM22.5825 13.9995C22.5825 15.758 22.0545 17.391 21.1485 18.7511L22.3969 19.5827C23.4619 17.9839 24.0825 16.0631 24.0825 13.9995H22.5825ZM13.9996 5.41663C18.7399 5.41663 22.5825 9.25932 22.5825 13.9995H24.0825C24.0825 8.43089 19.5683 3.91663 13.9996 3.91663V5.41663ZM5.41675 13.9995C5.41675 9.25932 9.25944 5.41663 13.9996 5.41663V3.91663C8.43102 3.91663 3.91675 8.43089 3.91675 13.9995H5.41675ZM13.9996 22.5824C9.25944 22.5824 5.41675 18.7397 5.41675 13.9995H3.91675C3.91675 19.5682 8.43102 24.0824 13.9996 24.0824V22.5824ZM18.754 21.1465C17.3933 22.0537 15.7594 22.5824 13.9996 22.5824V24.0824C16.0646 24.0824 17.9866 23.4609 19.5861 22.3946L18.754 21.1465ZM18.9067 22.4728L23.0713 24.0345L23.598 22.63L19.4334 21.0683L18.9067 22.4728ZM24.0369 23.0689L22.4749 18.9036L21.0704 19.4303L22.6324 23.5956L24.0369 23.0689Z" fill="currentColor"/>
<ellipse cx="9.33341" cy="14" rx="1.16667" ry="1.16667" fill="currentColor"/>
<circle cx="13.9999" cy="14" r="1.16667" fill="currentColor"/>
<circle cx="18.6667" cy="14" r="1.16667" fill="currentColor"/>
</svg>