<svg width="23" height="23" viewBox="0 0 23 23" fill="none" xmlns="http://www.w3.org/2000/svg">
<path d="M19.8007 11.8786L21.2609 13.1789C21.5305 13.4039 21.7107 13.718 21.7687 14.0643C21.8268 14.4107 21.759 14.7664 21.5774 15.067L19.8169 18.0746C19.6803 18.3048 19.4852 18.4948 19.2515 18.6253C19.0151 18.7562 18.7497 18.8256 18.4795 18.8272C18.3119 18.8283 18.1451 18.8032 17.9852 18.7529L16.1164 18.1359C15.7891 18.3459 15.4488 18.5338 15.0956 18.6996L14.7031 20.5943C14.6305 20.9428 14.4364 21.2542 14.1556 21.473C13.8711 21.6956 13.5185 21.8132 13.1574 21.8057H9.51183C9.15069 21.8132 8.79806 21.6956 8.51363 21.473C8.23335 21.2539 8.0399 20.9426 7.96769 20.5943L7.57358 18.6996C7.22501 18.5316 6.88683 18.3428 6.56084 18.1343L4.68558 18.7529C4.52568 18.8032 4.35893 18.8283 4.19132 18.8272C3.92168 18.8253 3.65681 18.7559 3.42087 18.6253C3.18737 18.4952 2.99236 18.3058 2.85555 18.0762L1.03197 15.067C0.842393 14.7637 0.769955 14.4016 0.828235 14.0486C0.886515 13.6957 1.07151 13.3761 1.34855 13.1498L2.80709 11.3068V10.735L1.34694 9.43479C1.0773 9.20978 0.897137 8.89567 0.839066 8.54931C0.780994 8.20296 0.848853 7.84726 1.03036 7.54661L2.85393 4.53909C2.99052 4.30887 3.18555 4.11885 3.41925 3.9883C3.65519 3.85775 3.92006 3.78833 4.18971 3.7864C4.35581 3.77592 4.52253 3.79118 4.68396 3.83163L6.52207 4.47771C6.8505 4.26773 7.19077 4.07983 7.54289 3.914L7.937 2.01936C8.00921 1.67107 8.20267 1.3597 8.48294 1.14069C8.76737 0.918023 9.12 0.800479 9.48114 0.807953H13.096C13.4571 0.800479 13.8098 0.918023 14.0942 1.14069C14.3768 1.36197 14.5707 1.67371 14.6401 2.01936L15.0342 3.914C15.3842 4.08091 15.7218 4.26935 16.047 4.47933L17.9238 3.86232C18.1321 3.79455 18.3523 3.77076 18.5702 3.79245C18.7882 3.81413 18.9993 3.88083 19.1902 3.9883C19.4244 4.12075 19.6182 4.31134 19.7555 4.53747L21.5774 7.54661C21.7696 7.8474 21.8457 8.20782 21.7916 8.56061C21.7375 8.9134 21.5569 9.23446 21.2835 9.46387L19.8007 10.727V11.8786Z" stroke="#0D0D0D" stroke-width="1.61521"/>
<path d="M15.3456 11.3066C15.3456 12.3775 14.9202 13.4046 14.1629 14.1619C13.4056 14.9192 12.3785 15.3446 11.3076 15.3446C10.2366 15.3446 9.20952 14.9192 8.45224 14.1619C7.69496 13.4046 7.26953 12.3775 7.26953 11.3066C7.26953 10.2356 7.69496 9.20854 8.45224 8.45127C9.20952 7.69399 10.2366 7.26855 11.3076 7.26855C12.3785 7.26855 13.4056 7.69399 14.1629 8.45127C14.9202 9.20854 15.3456 10.2356 15.3456 11.3066Z" stroke="#0D0D0D" stroke-width="1.61521"/>
</svg>
