<svg xmlns="http://www.w3.org/2000/svg" width="4" height="16" viewBox="0 0 4 16" fill="none">
  <path d="M0.796875 1.96289C0.796875 2.28198 0.923632 2.588 1.14926 2.81363C1.37489 3.03926 1.68091 3.16602 2 3.16602C2.31909 3.16602 2.62511 3.03926 2.85074 2.81363C3.07637 2.588 3.20312 2.28198 3.20312 1.96289C3.20312 1.6438 3.07637 1.33778 2.85074 1.11215C2.62511 0.886523 2.31909 0.759766 2 0.759766C1.68091 0.759766 1.37489 0.886523 1.14926 1.11215C0.923632 1.33778 0.796875 1.6438 0.796875 1.96289ZM0.796875 7.97852C0.796875 8.2976 0.923632 8.60362 1.14926 8.82925C1.37489 9.05488 1.68091 9.18164 2 9.18164C2.31909 9.18164 2.62511 9.05488 2.85074 8.82925C3.07637 8.60362 3.20312 8.2976 3.20312 7.97852C3.20312 7.65943 3.07637 7.35341 2.85074 7.12778C2.62511 6.90215 2.31909 6.77539 2 6.77539C1.68091 6.77539 1.37489 6.90215 1.14926 7.12778C0.923632 7.35341 0.796875 7.65943 0.796875 7.97852ZM0.796875 13.9941C0.796875 14.3132 0.923632 14.6192 1.14926 14.8449C1.37489 15.0705 1.68091 15.1973 2 15.1973C2.31909 15.1973 2.62511 15.0705 2.85074 14.8449C3.07637 14.6192 3.20312 14.3132 3.20312 13.9941C3.20312 13.6751 3.07637 13.369 2.85074 13.1434C2.62511 12.9178 2.31909 12.791 2 12.791C1.68091 12.791 1.37489 12.9178 1.14926 13.1434C0.923632 13.369 0.796875 13.6751 0.796875 13.9941Z" fill="black"/>
</svg>