<svg xmlns="http://www.w3.org/2000/svg" width="22" height="22" viewBox="0 0 22 22" fill="none">
  <path fill-rule="evenodd" clip-rule="evenodd" d="M11 7.5625C10.0883 7.5625 9.21398 7.92466 8.56932 8.56932C7.92466 9.21398 7.5625 10.0883 7.5625 11C7.5625 11.9117 7.92466 12.786 8.56932 13.4307C9.21398 14.0753 10.0883 14.4375 11 14.4375C11.9117 14.4375 12.786 14.0753 13.4307 13.4307C14.0753 12.786 14.4375 11.9117 14.4375 11C14.4375 10.0883 14.0753 9.21398 13.4307 8.56932C12.786 7.92466 11.9117 7.5625 11 7.5625ZM8.9375 11C8.9375 10.453 9.1548 9.92839 9.54159 9.54159C9.92839 9.1548 10.453 8.9375 11 8.9375C11.547 8.9375 12.0716 9.1548 12.4584 9.54159C12.8452 9.92839 13.0625 10.453 13.0625 11C13.0625 11.547 12.8452 12.0716 12.4584 12.4584C12.0716 12.8452 11.547 13.0625 11 13.0625C10.453 13.0625 9.92839 12.8452 9.54159 12.4584C9.1548 12.0716 8.9375 11.547 8.9375 11Z" fill="#595959"/>
  <path fill-rule="evenodd" clip-rule="evenodd" d="M10.9987 2.97913C6.86086 2.97913 4.07328 5.45779 2.45536 7.55971L2.42695 7.59729C2.06028 8.07304 1.72386 8.51029 1.49561 9.02729C1.25086 9.58188 1.14453 10.186 1.14453 11C1.14453 11.814 1.25086 12.418 1.49561 12.9726C1.72478 13.4896 2.0612 13.9278 2.42695 14.4026L2.45628 14.4402C4.07328 16.5421 6.86086 19.0208 10.9987 19.0208C15.1365 19.0208 17.9241 16.5421 19.542 14.4402L19.5704 14.4026C19.9371 13.9278 20.2735 13.4896 20.5018 12.9726C20.7465 12.418 20.8529 11.814 20.8529 11C20.8529 10.186 20.7465 9.58188 20.5018 9.02729C20.2726 8.51029 19.9362 8.07304 19.5704 7.59729L19.5411 7.55971C17.9241 5.45779 15.1365 2.97913 10.9987 2.97913ZM3.5462 8.39846C5.03853 6.45788 7.46953 4.35413 10.9987 4.35413C14.5279 4.35413 16.9579 6.45788 18.4512 8.39846C18.8545 8.92096 19.0892 9.23263 19.2441 9.58279C19.3889 9.91096 19.4779 10.3115 19.4779 11C19.4779 11.6884 19.3889 12.089 19.2441 12.4171C19.0892 12.7673 18.8536 13.079 18.4521 13.6015C16.957 15.542 14.5279 17.6458 10.9987 17.6458C7.46953 17.6458 5.03945 15.542 3.5462 13.6015C3.14286 13.079 2.9082 12.7673 2.75328 12.4171C2.60845 12.089 2.51953 11.6884 2.51953 11C2.51953 10.3115 2.60845 9.91096 2.75328 9.58279C2.9082 9.23263 3.1447 8.92096 3.5462 8.39846Z" fill="#595959"/>
</svg>