<svg width="28" height="28" viewBox="0 0 28 28" fill="none" xmlns="http://www.w3.org/2000/svg">
<circle cx="14" cy="14" r="14" fill="white"/>
<path d="M9.00065 22.3337C8.54232 22.3337 8.1501 22.1706 7.82398 21.8445C7.49787 21.5184 7.33454 21.1259 7.33398 20.667V7.33366C7.33398 6.87533 7.49732 6.4831 7.82398 6.15699C8.15065 5.83088 8.54287 5.66755 9.00065 5.66699H19.0007C19.459 5.66699 19.8515 5.83033 20.1782 6.15699C20.5048 6.48366 20.6679 6.87588 20.6673 7.33366V20.667C20.6673 21.1253 20.5043 21.5178 20.1782 21.8445C19.852 22.1712 19.4595 22.3342 19.0007 22.3337H9.00065ZM13.1673 13.167L15.2507 11.917L17.334 13.167V7.33366H13.1673V13.167Z" fill="#595959"/>
</svg>
