<svg width="24" height="24" viewBox="0 0 24 24" fill="none" xmlns="http://www.w3.org/2000/svg">
<path d="M6.5 17.5C4.97833 17.5 3.68143 16.9636 2.6093 15.8907C1.53717 14.8178 1.00073 13.5209 1 12C0.999267 10.4791 1.5357 9.18217 2.6093 8.1093C3.6829 7.03643 4.9798 6.5 6.5 6.5H9.8C10.1117 6.5 10.3731 6.6056 10.5843 6.8168C10.7955 7.028 10.9007 7.28907 10.9 7.6C10.8993 7.91093 10.7937 8.17237 10.5832 8.3843C10.3727 8.59623 10.1117 8.70147 9.8 8.7H6.5C5.58333 8.7 4.80417 9.02083 4.1625 9.6625C3.52083 10.3042 3.2 11.0833 3.2 12C3.2 12.9167 3.52083 13.6958 4.1625 14.3375C4.80417 14.9792 5.58333 15.3 6.5 15.3H9.8C10.1117 15.3 10.3731 15.4056 10.5843 15.6168C10.7955 15.828 10.9007 16.0891 10.9 16.4C10.8993 16.7109 10.7937 16.9724 10.5832 17.1843C10.3727 17.3962 10.1117 17.5015 9.8 17.5H6.5ZM8.7 13.1C8.38833 13.1 8.12727 12.9944 7.9168 12.7832C7.70633 12.572 7.60073 12.3109 7.6 12C7.59927 11.6891 7.70487 11.428 7.9168 11.2168C8.12873 11.0056 8.3898 10.9 8.7 10.9H15.3C15.6117 10.9 15.8731 11.0056 16.0843 11.2168C16.2955 11.428 16.4007 11.6891 16.4 12C16.3993 12.3109 16.2937 12.5724 16.0832 12.7843C15.8727 12.9962 15.6117 13.1015 15.3 13.1H8.7ZM14.2 17.5C13.8883 17.5 13.6273 17.3944 13.4168 17.1832C13.2063 16.972 13.1007 16.7109 13.1 16.4C13.0993 16.0891 13.2049 15.828 13.4168 15.6168C13.6287 15.4056 13.8898 15.3 14.2 15.3H17.5C18.4167 15.3 19.1958 14.9792 19.8375 14.3375C20.4792 13.6958 20.8 12.9167 20.8 12C20.8 11.0833 20.4792 10.3042 19.8375 9.6625C19.1958 9.02083 18.4167 8.7 17.5 8.7H14.2C13.8883 8.7 13.6273 8.5944 13.4168 8.3832C13.2063 8.172 13.1007 7.91093 13.1 7.6C13.0993 7.28907 13.2049 7.028 13.4168 6.8168C13.6287 6.6056 13.8898 6.5 14.2 6.5H17.5C19.0217 6.5 20.3189 7.03643 21.3918 8.1093C22.4647 9.18217 23.0007 10.4791 23 12C22.9993 13.5209 22.4628 14.8182 21.3907 15.8918C20.3186 16.9654 19.0217 17.5015 17.5 17.5H14.2Z" fill="#595959"/>
</svg>
