<svg width="28" height="28" viewBox="0 0 28 28" fill="none" xmlns="http://www.w3.org/2000/svg">
<circle cx="14" cy="14" r="14" fill="white"/>
<path d="M22.1693 8.75339C22.1692 8.47553 22.1031 8.20166 21.9762 7.95445C21.8493 7.70724 21.6654 7.4938 21.4396 7.33179C21.2139 7.16978 20.9528 7.06385 20.678 7.02277C20.4032 6.98169 20.1225 7.00664 19.8593 7.09556L7.02594 11.4297C6.6793 11.5468 6.37807 11.7696 6.16461 12.0668C5.95116 12.3639 5.83621 12.7205 5.83594 13.0864V14.9134C5.83605 15.279 5.95065 15.6354 6.16367 15.9325C6.37668 16.2296 6.6774 16.4526 7.0236 16.5701L9.33594 17.3564V18.6666C9.33565 19.5063 9.63731 20.3182 10.1859 20.9541C10.7345 21.5899 11.4934 22.0073 12.3241 22.1302C13.1549 22.253 14.0021 22.073 14.7112 21.623C15.4203 21.1731 15.9439 20.4832 16.1866 19.6792L19.8569 20.9241C20.1202 21.0134 20.401 21.0387 20.6761 20.9979C20.9511 20.9571 21.2125 20.8514 21.4385 20.6894C21.6645 20.5275 21.8487 20.3141 21.9758 20.0668C22.1029 19.8195 22.1692 19.5454 22.1693 19.2674V8.75339ZM10.5026 17.7507L15.0806 19.3047C14.9268 19.8465 14.5823 20.3144 14.1105 20.6221C13.6387 20.9297 13.0716 21.0564 12.5138 20.9786C11.956 20.9008 11.4451 20.6239 11.0755 20.199C10.7058 19.7741 10.5024 19.2298 10.5026 18.6666V17.7507Z" fill="#0370FF"/>
</svg>
