<svg width="28" height="28" viewBox="0 0 28 28" fill="none" xmlns="http://www.w3.org/2000/svg">
<circle cx="14" cy="14" r="14" fill="white"/>
<path d="M12.8333 15.1667L11.0417 13.375C10.8889 13.2222 10.6944 13.1458 10.4583 13.1458C10.2222 13.1458 10.0278 13.2222 9.875 13.375C9.72222 13.5278 9.64583 13.7222 9.64583 13.9583C9.64583 14.1944 9.72222 14.3889 9.875 14.5417L12.25 16.9167C12.4167 17.0833 12.6111 17.1667 12.8333 17.1667C13.0556 17.1667 13.25 17.0833 13.4167 16.9167L18.125 12.2083C18.2778 12.0556 18.3542 11.8611 18.3542 11.625C18.3542 11.3889 18.2778 11.1944 18.125 11.0417C17.9722 10.8889 17.7778 10.8125 17.5417 10.8125C17.3056 10.8125 17.1111 10.8889 16.9583 11.0417L12.8333 15.1667ZM8.16667 21.5C7.70833 21.5 7.31611 21.3369 6.99 21.0108C6.66389 20.6847 6.50056 20.2922 6.5 19.8333V8.16667C6.5 7.70833 6.66333 7.31611 6.99 6.99C7.31667 6.66389 7.70889 6.50056 8.16667 6.5H19.8333C20.2917 6.5 20.6842 6.66333 21.0108 6.99C21.3375 7.31667 21.5006 7.70889 21.5 8.16667V19.8333C21.5 20.2917 21.3369 20.6842 21.0108 21.0108C20.6847 21.3375 20.2922 21.5006 19.8333 21.5H8.16667Z" fill="#595959"/>
</svg>
