<svg xmlns="http://www.w3.org/2000/svg" width="14" height="16" viewBox="0 0 14 16" fill="none">
  <path d="M13.3284 7.83331L1.37004 1.33331C1.34088 1.33331 1.34088 1.33331 1.31171 1.33331C1.22421 1.33331 1.13671 1.43331 1.16588 1.53331L2.74088 7.99998L1.16588 14.4666C1.13671 14.5666 1.22421 14.6666 1.31171 14.6666C1.34088 14.6666 1.34088 14.6666 1.37004 14.6666L13.3284 8.16665C13.445 8.09998 13.445 7.89998 13.3284 7.83331ZM2.68254 12.6666L3.67421 8.59998H6.27004C6.35754 8.59998 6.41588 8.53331 6.41588 8.43331V7.59998C6.41588 7.49998 6.35754 7.43331 6.27004 7.43331H3.67421L2.68254 3.33331L11.2575 7.99998L2.68254 12.6666Z" fill="currentColor"/>
</svg>