<svg width="18" height="18" viewBox="0 0 18 18" fill="none" xmlns="http://www.w3.org/2000/svg">
<path d="M17.137 8.8125L1.76204 1.5C1.72454 1.5 1.72454 1.5 1.68704 1.5C1.57454 1.5 1.46204 1.6125 1.49954 1.725L3.52454 9L1.49954 16.275C1.46204 16.3875 1.57454 16.5 1.68704 16.5C1.72454 16.5 1.72454 16.5 1.76204 16.5L17.137 9.1875C17.287 9.1125 17.287 8.8875 17.137 8.8125ZM3.44954 14.25L4.72454 9.675H8.06204C8.17454 9.675 8.24954 9.6 8.24954 9.4875V8.55C8.24954 8.4375 8.17454 8.3625 8.06204 8.3625H4.72454L3.44954 3.75L14.4745 9L3.44954 14.25Z" fill="#A6A6A6"/>
</svg>