<svg xmlns="http://www.w3.org/2000/svg" width="22" height="20" viewBox="0 0 22 20" fill="none">
  <path d="M13.9267 0.175575C13.8036 0.0797583 13.6559 0.0204538 13.5007 0.00441398C13.3455 -0.0116259 13.1889 0.0162436 13.0487 0.0848491C12.9086 0.153455 12.7905 0.260039 12.7079 0.392466C12.6254 0.524893 12.5816 0.677841 12.5818 0.833894V4.15549L12.3568 4.16715C11.4761 4.22716 10.6091 4.41641 9.78348 4.72881C8.39447 5.25454 7.18353 6.16433 6.29189 7.35208C5.25358 8.72872 4.49027 10.6387 4.25194 13.2586C4.23616 13.4294 4.27344 13.6008 4.35869 13.7496C4.44394 13.8984 4.57301 14.0172 4.7283 14.09C4.88359 14.1627 5.05754 14.1857 5.22641 14.156C5.39528 14.1262 5.55085 14.0451 5.67191 13.9236C7.65186 11.9403 9.62015 10.9637 11.0751 10.4787C11.6751 10.2787 12.1884 10.162 12.5818 10.0954V13.3336C12.5817 13.4942 12.6281 13.6515 12.7153 13.7864C12.8025 13.9212 12.9269 14.028 13.0734 14.0939C13.2199 14.1598 13.3823 14.1819 13.5411 14.1576C13.6999 14.1333 13.8483 14.0636 13.9684 13.9569L21.4682 7.29042C21.5598 7.2092 21.6324 7.1088 21.6808 6.99635C21.7292 6.8839 21.7522 6.76217 21.7483 6.63982C21.7443 6.51746 21.7134 6.39748 21.6578 6.28842C21.6022 6.17935 21.5232 6.08388 21.4266 6.00878L13.9267 0.175575ZM13.3201 5.82878H13.3251C13.4414 5.84142 13.5591 5.82942 13.6705 5.79355C13.7819 5.75769 13.8844 5.69877 13.9715 5.62063C14.0586 5.54249 14.1283 5.44688 14.176 5.34003C14.2237 5.23318 14.2484 5.11748 14.2484 5.00047V2.53719L19.6133 6.71043L14.2484 11.477V9.16704C14.2484 8.94603 14.1606 8.73408 14.0043 8.5778C13.848 8.42152 13.6361 8.33373 13.4151 8.33373H13.3401L13.1734 8.34373C12.9755 8.35779 12.7782 8.37891 12.5818 8.40706C12.0818 8.47873 11.3818 8.61872 10.5485 8.89705C9.01897 9.41633 7.58456 10.182 6.30189 11.1637C6.62522 9.97036 7.09521 9.05705 7.62353 8.35539C8.32693 7.41738 9.28317 6.69934 10.3801 6.28544C11.2537 5.95671 12.1819 5.79775 13.1151 5.81712C13.1906 5.81934 13.2462 5.82212 13.2817 5.82545L13.3201 5.82878ZM4.24861 1.66721C3.14356 1.66721 2.08378 2.10619 1.30239 2.88757C0.521008 3.66895 0.0820313 4.72874 0.0820312 5.83378V15.8336C0.0820312 16.9386 0.521008 17.9984 1.30239 18.7798C2.08378 19.5612 3.14356 20.0001 4.24861 20.0001H14.2484C15.3534 20.0001 16.4132 19.5612 17.1946 18.7798C17.976 17.9984 18.415 16.9386 18.415 15.8336V14.1669C18.415 13.9459 18.3272 13.734 18.1709 13.5777C18.0146 13.4214 17.8027 13.3336 17.5816 13.3336C17.3606 13.3336 17.1487 13.4214 16.9924 13.5777C16.8361 13.734 16.7483 13.9459 16.7483 14.1669V15.8336C16.7483 16.4966 16.4849 17.1325 16.0161 17.6013C15.5473 18.0701 14.9114 18.3335 14.2484 18.3335H4.24861C3.58558 18.3335 2.94971 18.0701 2.48088 17.6013C2.01205 17.1325 1.74866 16.4966 1.74866 15.8336V5.83378C1.74866 5.17076 2.01205 4.53489 2.48088 4.06605C2.94971 3.59722 3.58558 3.33384 4.24861 3.33384H7.58187C7.80287 3.33384 8.01483 3.24604 8.17111 3.08977C8.32738 2.93349 8.41518 2.72153 8.41518 2.50052C8.41518 2.27951 8.32738 2.06756 8.17111 1.91128C8.01483 1.755 7.80287 1.66721 7.58187 1.66721H4.24861Z" fill="#595959"/>
</svg>