<svg xmlns="http://www.w3.org/2000/svg" width="24" height="24" viewBox="0 0 24 24" fill="none">
  <rect x="2.75" y="3.75" width="14.5" height="16.5" rx="1.65" stroke="currentColor" stroke-width="1.5"/>
  <rect x="5.96875" y="7.59961" width="8" height="1.5" rx="0.75" fill="currentColor"/>
  <rect x="14.1992" y="2" width="4" height="1.5" rx="0.75" transform="rotate(90 14.1992 2)" fill="currentColor"/>
  <rect x="7.40039" y="2" width="4" height="1.5" rx="0.75" transform="rotate(90 7.40039 2)" fill="currentColor"/>
  <rect x="5.40039" y="11.0273" width="9.14286" height="1.5" rx="0.75" fill="currentColor"/>
  <circle cx="17" cy="18" r="5.25" fill="white" stroke="currentColor" stroke-width="1.5"/>
  <path d="M16.1857 18.9857L14.9429 17.7429C14.8381 17.6381 14.7095 17.5857 14.5571 17.5857C14.4048 17.5857 14.2714 17.6429 14.1571 17.7571C14.0524 17.8619 14 17.9952 14 18.1571C14 18.319 14.0524 18.4524 14.1571 18.5571L15.7857 20.1857C15.8905 20.2905 16.0238 20.3429 16.1857 20.3429C16.3476 20.3429 16.481 20.2905 16.5857 20.1857L19.8286 16.9429C19.9333 16.8381 19.9857 16.7095 19.9857 16.5571C19.9857 16.4048 19.9286 16.2714 19.8143 16.1571C19.7095 16.0524 19.5762 16 19.4143 16C19.2524 16 19.119 16.0524 19.0143 16.1571L16.1857 18.9857Z" fill="currentColor"/>
</svg>