<svg width="24" height="24" viewBox="0 0 24 24" fill="none" xmlns="http://www.w3.org/2000/svg">
<mask id="mask0_380_5376" style="mask-type:alpha" maskUnits="userSpaceOnUse" x="0" y="0" width="24" height="24">
<rect width="24" height="24" fill="#D9D9D9"/>
</mask>
<g mask="url(#mask0_380_5376)">
<path d="M4 19.7667H8.96167V16.0555C8.96167 15.7597 9.07711 15.5116 9.308 15.3113C9.53911 15.1112 9.82533 15.0111 10.1667 15.0111H13.8333C14.1747 15.0111 14.4609 15.1112 14.692 15.3113C14.9229 15.5116 15.0383 15.7597 15.0383 16.0555V19.7667H20V9.04429C20 8.98517 19.985 8.93153 19.955 8.88338C19.9252 8.83523 19.8847 8.79257 19.8333 8.7554L12.2437 3.81105C12.1752 3.75924 12.094 3.73334 12 3.73334C11.906 3.73334 11.8248 3.75924 11.7563 3.81105L4.16667 8.7554C4.11533 8.79257 4.07478 8.83523 4.045 8.88338C4.015 8.93153 4 8.98517 4 9.04429V19.7667ZM2.5 19.2667V9.04429C2.5 8.71361 2.58533 8.40036 2.756 8.10453C2.92689 7.80852 3.16289 7.56479 3.464 7.37335L10.554 2.91774C10.9751 2.63925 11.4564 2.5 11.998 2.5C12.5396 2.5 13.0222 2.63925 13.446 2.91774L20.536 7.37335C20.8371 7.56479 21.0731 7.80852 21.244 8.10453C21.4147 8.40036 21.5 8.71361 21.5 9.04429V19.2667C21.5 19.7393 21.303 20.1463 20.909 20.4878C20.515 20.8293 20.0453 21 19.5 21H14.7437C14.4021 21 14.1159 20.8999 13.885 20.6996C13.6539 20.4995 13.5383 20.2514 13.5383 19.9554V16.2445H10.4617V19.9554C10.4617 20.2514 10.3461 20.4995 10.115 20.6996C9.88411 20.8999 9.59789 21 9.25633 21H4.5C3.95467 21 3.485 20.8293 3.091 20.4878C2.697 20.1463 2.5 19.7393 2.5 19.2667Z" fill="currentColor"/>
</g>
</svg>