<svg width="24" height="24" viewBox="0 0 24 24" fill="none" xmlns="http://www.w3.org/2000/svg">
<mask id="mask0_324_1691" style="mask-type:alpha" maskUnits="userSpaceOnUse" x="0" y="0" width="24" height="24">
<rect width="24" height="24" fill="#D9D9D9"/>
</mask>
<g mask="url(#mask0_324_1691)">
<path d="M11.7883 19.9712C11.8869 19.9712 11.9873 19.9481 12.0893 19.902C12.1911 19.8558 12.2715 19.8032 12.3305 19.7442L20.3285 11.7462C20.5542 11.5206 20.7241 11.2795 20.8383 11.023C20.9523 10.7666 21.0093 10.4975 21.0093 10.2155C21.0093 9.92315 20.9523 9.64173 20.8383 9.37123C20.7241 9.10056 20.5542 8.85756 20.3285 8.64223L16.3285 4.64223C16.1132 4.41656 15.8799 4.25148 15.6285 4.14698C15.3774 4.04265 15.1056 3.99048 14.8133 3.99048C14.5313 3.99048 14.2604 4.04265 14.0008 4.14698C13.7411 4.25148 13.5017 4.41656 13.2825 4.64223L12.7093 5.21548L14.5593 7.08073C14.7836 7.29489 14.9494 7.53914 15.0565 7.81348C15.1635 8.08781 15.217 8.3724 15.217 8.66723C15.217 9.27756 15.0132 9.78656 14.6055 10.1942C14.1979 10.6019 13.6889 10.8057 13.0785 10.8057C12.7837 10.8057 12.4981 10.757 12.2218 10.6595C11.9456 10.5621 11.7004 10.4064 11.4863 10.1922L9.81327 8.53473C9.7556 8.4769 9.68185 8.44798 9.59202 8.44798C9.50235 8.44798 9.42868 8.4769 9.37102 8.53473L5.24602 12.6595C5.17035 12.7351 5.1136 12.8198 5.07577 12.9135C5.03793 13.007 5.01902 13.1031 5.01902 13.202C5.01902 13.3865 5.08185 13.5441 5.20752 13.675C5.33318 13.8058 5.48827 13.8712 5.67277 13.8712C5.7716 13.8712 5.87193 13.8481 5.97377 13.802C6.07577 13.7558 6.15627 13.7032 6.21527 13.6442L8.97277 10.8865C9.11127 10.748 9.28277 10.6746 9.48727 10.6662C9.69177 10.6579 9.8716 10.7313 10.0268 10.8865C10.1716 11.0313 10.244 11.207 10.244 11.4135C10.244 11.6198 10.1716 11.7954 10.0268 11.9402L7.28427 14.698C7.20877 14.7736 7.1521 14.8583 7.11427 14.952C7.07643 15.0455 7.05752 15.1416 7.05752 15.2405C7.05752 15.4186 7.12193 15.5721 7.25077 15.701C7.3796 15.8298 7.5331 15.8942 7.71127 15.8942C7.8101 15.8942 7.91043 15.8711 8.01227 15.825C8.11427 15.7788 8.19468 15.7262 8.25352 15.6672L11.1268 12.8095C11.2653 12.6711 11.4367 12.5978 11.641 12.5895C11.8455 12.5811 12.0254 12.6545 12.1805 12.8095C12.3254 12.9545 12.3978 13.1301 12.3978 13.3365C12.3978 13.5428 12.3254 13.7185 12.1805 13.8635L9.32277 16.7365C9.2536 16.7955 9.19852 16.8759 9.15752 16.9777C9.11652 17.0797 9.09602 17.1801 9.09602 17.2787C9.09602 17.4571 9.16043 17.6106 9.28927 17.7395C9.4181 17.8683 9.5716 17.9327 9.74977 17.9327C9.84843 17.9327 9.9446 17.9138 10.0383 17.876C10.1318 17.8381 10.2164 17.7814 10.292 17.7057L13.1653 14.848C13.3036 14.7095 13.475 14.6361 13.6795 14.6277C13.884 14.6194 14.0639 14.6928 14.219 14.848C14.3639 14.9928 14.4363 15.1685 14.4363 15.375C14.4363 15.5813 14.3639 15.757 14.219 15.902L11.346 18.775C11.2704 18.8506 11.2136 18.9385 11.1758 19.0385C11.1379 19.1385 11.119 19.2346 11.119 19.327C11.119 19.5115 11.1876 19.665 11.3248 19.7875C11.4619 19.91 11.6164 19.9712 11.7883 19.9712ZM11.7728 21.471C11.2074 21.471 10.7145 21.2749 10.294 20.8827C9.87352 20.4904 9.65369 20.0019 9.63452 19.4172C9.06785 19.3787 8.59443 19.1775 8.21427 18.8135C7.8341 18.4493 7.62802 17.9711 7.59602 17.3787C7.00368 17.3404 6.52485 17.1334 6.15952 16.7577C5.79402 16.3821 5.59843 15.9096 5.57277 15.3402C4.97793 15.3019 4.48693 15.0862 4.09977 14.6932C3.7126 14.3002 3.51902 13.8031 3.51902 13.202C3.51902 12.9071 3.5751 12.6183 3.68727 12.3355C3.79943 12.0528 3.9626 11.8045 4.17677 11.5905L8.31127 7.45573C8.6561 7.11089 9.08044 6.93848 9.58427 6.93848C10.0883 6.93848 10.5127 7.11089 10.8575 7.45573L12.521 9.11923C12.5799 9.1884 12.657 9.24356 12.7525 9.28473C12.8482 9.32573 12.9518 9.34623 13.0633 9.34623C13.2453 9.34623 13.4023 9.28598 13.5343 9.16548C13.6664 9.04498 13.7325 8.88723 13.7325 8.69223C13.7325 8.58073 13.712 8.47723 13.671 8.38173C13.6299 8.28623 13.5747 8.20898 13.5055 8.14998L9.99777 4.64223C9.78244 4.41656 9.54752 4.25148 9.29302 4.14698C9.03852 4.04265 8.7651 3.99048 8.47277 3.99048C8.19077 3.99048 7.92318 4.04265 7.67002 4.14698C7.41668 4.25148 7.17727 4.41656 6.95177 4.64223L3.66702 7.94223C3.37602 8.23323 3.18052 8.58356 3.08052 8.99323C2.98052 9.4029 2.99077 9.80131 3.11127 10.1885C3.15493 10.3948 3.11743 10.5823 2.99877 10.751C2.88027 10.9195 2.71777 11.0204 2.51127 11.0537C2.30493 11.0871 2.11585 11.0471 1.94402 10.9337C1.77218 10.8202 1.6696 10.6602 1.63627 10.4537C1.4786 9.81406 1.47802 9.17723 1.63452 8.54323C1.79085 7.90923 2.11193 7.34931 2.59777 6.86348L5.87277 3.58848C6.24727 3.22431 6.65468 2.95031 7.09502 2.76648C7.53535 2.58248 7.99785 2.49048 8.48252 2.49048C8.96702 2.49048 9.42785 2.58248 9.86502 2.76648C10.3024 2.95031 10.703 3.22431 11.067 3.58848L11.6403 4.16148L12.2133 3.58848C12.5876 3.22431 12.9934 2.95031 13.4305 2.76648C13.8677 2.58248 14.3286 2.49048 14.8133 2.49048C15.2979 2.49048 15.7604 2.58248 16.2008 2.76648C16.6411 2.95031 17.0434 3.22431 17.4075 3.58848L21.3825 7.56348C21.7465 7.92764 22.0254 8.34206 22.219 8.80673C22.4125 9.2714 22.5093 9.74606 22.5093 10.2307C22.5093 10.7154 22.4125 11.1763 22.219 11.6135C22.0254 12.0506 21.7465 12.4512 21.3825 12.8152L13.3843 20.798C13.1638 21.0185 12.9154 21.1858 12.6393 21.3C12.3629 21.414 12.0741 21.471 11.7728 21.471Z" fill="currentColor"/>
</g>
</svg>