<svg width="13" height="13" viewBox="0 0 13 13" fill="none" xmlns="http://www.w3.org/2000/svg">
<path d="M11.1094 12.084L5.02148 6.33398L4.93262 6.25L5.02148 6.16602L11.1094 0.416016L11.1875 0.341797L11.2666 0.416016L12.0791 1.18359L12.168 1.2666L12.0791 1.35059L6.89258 6.25L12.0791 11.1494L12.168 11.2334L12.0791 11.3164L11.2666 12.084L11.1875 12.1582L11.1094 12.084Z" fill="#262626" stroke="#262626" stroke-width="0.23"/>
<path d="M6.67383 12.084L0.585938 6.33398L0.49707 6.25L0.585938 6.16602L6.67383 0.416016L6.75195 0.341797L6.83105 0.416016L7.64355 1.18359L7.73242 1.2666L7.64355 1.35059L2.45703 6.25L7.64355 11.1494L7.73242 11.2334L7.64355 11.3164L6.83105 12.084L6.75195 12.1582L6.67383 12.084Z" fill="#262626" stroke="#262626" stroke-width="0.23"/>
</svg>
